M48
;Layer_Color=9474304
;FILE_FORMAT=4:4
METRIC,LZ
;TYPE=PLATED
T1F00S00C0.3810
T2F00S00C0.4064
T3F00S00C0.5080
T4F00S00C0.7112
T5F00S00C1.0000
;TYPE=NON_PLATED
T6F00S00C0.9000
T7F00S00C1.3000
T8F00S00C3.0000
%
T01
X01637Y00977
X0162Y01037
X01599Y01046
X0144Y01339
X01414Y01318
X01373Y01314
X0136Y01301
X01244Y013
X01223Y01315
X01208Y01332
X01201Y01353
X01303Y01229
X01165Y01306
X01158Y01329
X01178129Y01323279
X01179044Y01342
X01118Y01287
X01103Y01291
X01054721Y01299497
X01062Y01362
T02
X01386Y01344
X01395Y0137
T03
X01642Y00534
X01528Y00531
X01499Y00649
X01469
X0151Y00676
X01509Y00705
X01379Y00659
X01349
X01259Y00656
X01228Y00655
X01139Y00654
X01109
X009655Y007855
X00966Y00818
X0096Y00905
X009605Y009365
X00989Y01026
X00951Y01124
X015175Y010655
X01517Y01037
X015105Y009455
X01511Y00915
X01513Y00825
X01514Y00798
X01632Y01153
X01533101Y01212477
X01521Y01227
X01437Y01226
X01366789Y01212
X01343Y0121
X01237Y01213
X01263Y01277
X0112027Y01227
X01063Y01228
X00979Y01212
X00953
T04
X01491Y00528
X01019Y00646
X00979Y00645
X00958Y00666
Y00705
X01019Y01058
X0104527Y0103427
X01076Y01015
X01111Y01014
Y01043
X0111Y0107
X01158Y0111
T05
X01589Y00459
X01614
X01564
X0142455Y00461937
X0139955
X01247Y0093
Y00955
Y0098
Y01005
Y0103
X01222
Y01005
Y0098
Y00955
Y0093
X01549Y01376
X01574
T06
X010705Y00818
T07
X013525Y00818
X00888Y01386
X00848
T08
X01699Y004655
X00779
X01009Y009255
X01469
X01699Y013855
X00779
M30
