G04 Layer_Color=16711935*
%FSLAX44Y44*%
%MOMM*%
G71*
G01*
G75*
%ADD48C,4.2032*%
%ADD49C,1.5032*%
%ADD50C,1.1032*%
%ADD51C,2.2032*%
%ADD52C,1.9032*%
%ADD53C,1.4732*%
%ADD54C,0.9144*%
%ADD55C,1.0922*%
%ADD56C,1.0668*%
%ADD57R,0.7032X2.2032*%
%ADD58R,1.3232X2.0332*%
%ADD59R,1.2032X2.8032*%
%ADD60R,2.4032X2.2032*%
%ADD61R,1.5032X1.7032*%
%ADD62R,1.7032X1.5032*%
%ADD63R,3.2032X1.4032*%
%ADD64R,5.5532X8.7432*%
%ADD65R,1.0932X3.2632*%
%ADD66R,1.4032X1.7032*%
%ADD67R,1.8032X0.5032*%
%ADD68R,0.8032X1.3032*%
%ADD69R,1.7032X1.4032*%
%ADD70R,0.7232X0.6232*%
D48*
X779000Y1385500D02*
D03*
X1699000Y465500D02*
D03*
Y1385500D02*
D03*
X779000Y465500D02*
D03*
X1469000Y925500D02*
D03*
X1009000D02*
D03*
D49*
X1352500Y818000D02*
D03*
D50*
X1070500D02*
D03*
D51*
X848000Y1386000D02*
D03*
X888000D02*
D03*
D52*
X1247000Y1030000D02*
D03*
Y1005000D02*
D03*
Y980000D02*
D03*
Y955000D02*
D03*
Y930000D02*
D03*
X1222000D02*
D03*
Y955000D02*
D03*
Y980000D02*
D03*
Y1005000D02*
D03*
Y1030000D02*
D03*
X1564000Y459000D02*
D03*
X1589000D02*
D03*
X1614000D02*
D03*
X1549000Y1376000D02*
D03*
X1574000D02*
D03*
X1424550Y461937D02*
D03*
X1399550D02*
D03*
D53*
X1019000Y1058000D02*
D03*
X1045270Y1034270D02*
D03*
X1076000Y1015000D02*
D03*
X1111000Y1014000D02*
D03*
Y1043000D02*
D03*
X1110000Y1070000D02*
D03*
X979000Y645000D02*
D03*
X958000Y666000D02*
D03*
Y705000D02*
D03*
X1019000Y646000D02*
D03*
X1491000Y528000D02*
D03*
X1158000Y1110000D02*
D03*
D54*
X1054721Y1299497D02*
D03*
X1062000Y1362000D02*
D03*
X1208000Y1332000D02*
D03*
X1223000Y1315000D02*
D03*
X1103000Y1291000D02*
D03*
X1303000Y1229000D02*
D03*
X1179044Y1342000D02*
D03*
X1201000Y1353000D02*
D03*
X1637000Y977000D02*
D03*
X1620000Y1037000D02*
D03*
X1599000Y1046000D02*
D03*
X1244000Y1300000D02*
D03*
X1158000Y1329000D02*
D03*
X1178129Y1323279D02*
D03*
X1360000Y1301000D02*
D03*
X1373000Y1314000D02*
D03*
X1414000Y1318000D02*
D03*
X1440000Y1339000D02*
D03*
X1118000Y1287000D02*
D03*
D55*
X1642000Y534000D02*
D03*
X1263000Y1277000D02*
D03*
X960000Y905000D02*
D03*
X960500Y936500D02*
D03*
X1063000Y1228000D02*
D03*
X953000Y1212000D02*
D03*
X951000Y1124000D02*
D03*
X1237000Y1213000D02*
D03*
X1632000Y1153000D02*
D03*
X1437000Y1226000D02*
D03*
X1533101Y1212477D02*
D03*
X1517500Y1065500D02*
D03*
X1517000Y1037000D02*
D03*
X1511000Y915000D02*
D03*
X1510500Y945500D02*
D03*
X1513000Y825000D02*
D03*
X1510000Y676000D02*
D03*
X1509000Y705000D02*
D03*
X1499000Y649000D02*
D03*
X1469000D02*
D03*
X989000Y1026000D02*
D03*
X965500Y785500D02*
D03*
X966000Y818000D02*
D03*
X1139000Y654000D02*
D03*
X1109000D02*
D03*
X1228000Y655000D02*
D03*
X1259000Y656000D02*
D03*
X1379000Y659000D02*
D03*
X1349000D02*
D03*
X1528000Y531000D02*
D03*
X1366789Y1212000D02*
D03*
X1514000Y798000D02*
D03*
X1521000Y1227000D02*
D03*
X1343000Y1210000D02*
D03*
X979000Y1212000D02*
D03*
X1120270Y1227000D02*
D03*
D56*
X1165000Y1306000D02*
D03*
X1395000Y1370000D02*
D03*
X1386000Y1344000D02*
D03*
D57*
X1095500Y796000D02*
D03*
Y840000D02*
D03*
X1103500Y796000D02*
D03*
Y840000D02*
D03*
X1111500Y796000D02*
D03*
Y840000D02*
D03*
X1119500Y796000D02*
D03*
Y840000D02*
D03*
X1127500Y796000D02*
D03*
Y840000D02*
D03*
X1135500Y796000D02*
D03*
Y840000D02*
D03*
X1143500Y796000D02*
D03*
Y840000D02*
D03*
X1151500Y796000D02*
D03*
Y840000D02*
D03*
X1159500Y796000D02*
D03*
Y840000D02*
D03*
X1167500Y796000D02*
D03*
Y840000D02*
D03*
X1175500Y796000D02*
D03*
Y840000D02*
D03*
X1183500Y796000D02*
D03*
Y840000D02*
D03*
X1191500Y796000D02*
D03*
Y840000D02*
D03*
X1199500Y796000D02*
D03*
Y840000D02*
D03*
X1207500Y796000D02*
D03*
Y840000D02*
D03*
X1215500Y796000D02*
D03*
Y840000D02*
D03*
X1223500Y796000D02*
D03*
Y840000D02*
D03*
X1231500Y796000D02*
D03*
Y840000D02*
D03*
X1239500Y796000D02*
D03*
Y840000D02*
D03*
X1247500Y796000D02*
D03*
Y840000D02*
D03*
X1255500Y796000D02*
D03*
Y840000D02*
D03*
X1263500Y796000D02*
D03*
Y840000D02*
D03*
X1271500Y796000D02*
D03*
Y840000D02*
D03*
X1279500Y796000D02*
D03*
Y840000D02*
D03*
X1287500Y796000D02*
D03*
Y840000D02*
D03*
X1295500Y796000D02*
D03*
Y840000D02*
D03*
X1303500Y796000D02*
D03*
Y840000D02*
D03*
X1311500Y796000D02*
D03*
Y840000D02*
D03*
X1319500Y796000D02*
D03*
Y840000D02*
D03*
X1327500Y796000D02*
D03*
Y840000D02*
D03*
D58*
X1404000Y1186750D02*
D03*
Y1140250D02*
D03*
X1424000Y1186750D02*
D03*
Y1140250D02*
D03*
X1444000Y1186750D02*
D03*
Y1140250D02*
D03*
X1464000Y1186750D02*
D03*
Y1140250D02*
D03*
X1484000Y1186750D02*
D03*
Y1140250D02*
D03*
X1504000Y1186750D02*
D03*
Y1140250D02*
D03*
X1524000Y1186750D02*
D03*
Y1140250D02*
D03*
X1544000Y1186750D02*
D03*
Y1140250D02*
D03*
D59*
X1364000Y1143000D02*
D03*
Y1184000D02*
D03*
X1344000Y1143000D02*
D03*
Y1184000D02*
D03*
X1324000Y1143000D02*
D03*
Y1184000D02*
D03*
X1304000Y1143000D02*
D03*
Y1184000D02*
D03*
X1284000Y1143000D02*
D03*
Y1184000D02*
D03*
X1264000Y1143000D02*
D03*
Y1184000D02*
D03*
X1244000Y1143000D02*
D03*
Y1184000D02*
D03*
X1224000Y1143000D02*
D03*
Y1184000D02*
D03*
X1204000Y1143000D02*
D03*
Y1184000D02*
D03*
X1184000Y1143000D02*
D03*
Y1184000D02*
D03*
X1164000Y1143000D02*
D03*
Y1184000D02*
D03*
X1144000Y1143000D02*
D03*
Y1184000D02*
D03*
X1124000Y1143000D02*
D03*
Y1184000D02*
D03*
X1104000Y1143000D02*
D03*
Y1184000D02*
D03*
X1084000Y1143000D02*
D03*
Y1184000D02*
D03*
X1064000Y1143000D02*
D03*
Y1184000D02*
D03*
X1044000Y1143000D02*
D03*
Y1184000D02*
D03*
X1024000Y1143000D02*
D03*
Y1184000D02*
D03*
X1004000Y1143000D02*
D03*
Y1184000D02*
D03*
X984000Y1143000D02*
D03*
Y1184000D02*
D03*
D60*
X901000Y1307000D02*
D03*
X821000Y1336000D02*
D03*
Y1307000D02*
D03*
D61*
X1244500Y1277000D02*
D03*
X1225500D02*
D03*
X1489500Y1227000D02*
D03*
X1470500D02*
D03*
X1468500Y625000D02*
D03*
X1487500D02*
D03*
X1349500D02*
D03*
X1368500D02*
D03*
X1228500D02*
D03*
X1247500D02*
D03*
X1108500Y624000D02*
D03*
X1127500D02*
D03*
X988000D02*
D03*
X1007000D02*
D03*
X960000Y1230000D02*
D03*
X979000D02*
D03*
X1100000D02*
D03*
X1081000D02*
D03*
X871500Y1175000D02*
D03*
X852500D02*
D03*
X837500Y1141000D02*
D03*
X818500D02*
D03*
X770000Y1227000D02*
D03*
X789000D02*
D03*
X770500Y1200000D02*
D03*
X789500D02*
D03*
X1180000Y1305000D02*
D03*
X1199000D02*
D03*
X1025000Y1366000D02*
D03*
X1044000D02*
D03*
D62*
X1360000Y1228000D02*
D03*
Y1247000D02*
D03*
X1601000Y1153500D02*
D03*
Y1172500D02*
D03*
X1540000Y1037000D02*
D03*
Y1056000D02*
D03*
Y915500D02*
D03*
Y934500D02*
D03*
Y797500D02*
D03*
Y816500D02*
D03*
Y676500D02*
D03*
Y695500D02*
D03*
X938000Y696000D02*
D03*
Y677000D02*
D03*
Y818000D02*
D03*
Y799000D02*
D03*
Y936500D02*
D03*
Y917500D02*
D03*
X962000Y1054000D02*
D03*
Y1035000D02*
D03*
X938000Y1176500D02*
D03*
Y1157500D02*
D03*
X883000Y1101000D02*
D03*
Y1082000D02*
D03*
X1572000Y539000D02*
D03*
Y558000D02*
D03*
X1614000Y540000D02*
D03*
Y559000D02*
D03*
X1465910Y526270D02*
D03*
Y507270D02*
D03*
D63*
X915000Y1078330D02*
D03*
Y1105000D02*
D03*
D64*
X810000Y1017000D02*
D03*
D65*
X848100Y1090050D02*
D03*
X835400D02*
D03*
X822700D02*
D03*
X810000D02*
D03*
X797300D02*
D03*
X784600D02*
D03*
X771900D02*
D03*
D66*
X853500Y1199000D02*
D03*
X870500D02*
D03*
X824000Y1174000D02*
D03*
X807000D02*
D03*
X770000Y1149000D02*
D03*
X787000D02*
D03*
X786500Y1174000D02*
D03*
X769500D02*
D03*
X853500Y1226000D02*
D03*
X870500D02*
D03*
X1460500Y462000D02*
D03*
X1477500D02*
D03*
D67*
X1129000Y1299500D02*
D03*
Y1306000D02*
D03*
Y1312500D02*
D03*
Y1319000D02*
D03*
Y1325500D02*
D03*
Y1332000D02*
D03*
Y1338500D02*
D03*
Y1345000D02*
D03*
Y1351500D02*
D03*
Y1358000D02*
D03*
X1073000D02*
D03*
Y1351500D02*
D03*
Y1345000D02*
D03*
Y1338500D02*
D03*
Y1332000D02*
D03*
Y1325500D02*
D03*
Y1319000D02*
D03*
Y1312500D02*
D03*
Y1306000D02*
D03*
Y1299500D02*
D03*
D68*
X1441500Y501000D02*
D03*
X1432000D02*
D03*
X1422500D02*
D03*
Y527000D02*
D03*
X1441500D02*
D03*
D69*
X1614000Y516000D02*
D03*
Y499000D02*
D03*
X1544000Y499500D02*
D03*
Y516500D02*
D03*
X1572000Y515500D02*
D03*
Y498500D02*
D03*
X1642000Y499000D02*
D03*
Y516000D02*
D03*
D70*
X1223000Y1338500D02*
D03*
Y1332000D02*
D03*
Y1325500D02*
D03*
X1242000D02*
D03*
Y1332000D02*
D03*
Y1338500D02*
D03*
M02*
