G04 Layer_Color=128*
%FSLAX44Y44*%
%MOMM*%
G71*
G01*
G75*
%ADD72C,0.0508*%
D72*
X764000Y1385500D02*
X794000D01*
X779000Y1370500D02*
Y1400500D01*
X1684000Y465500D02*
X1714000D01*
X1699000Y450500D02*
Y480500D01*
X1684000Y1385500D02*
X1714000D01*
X1699000Y1370500D02*
Y1400500D01*
X764000Y465500D02*
X794000D01*
X779000Y450500D02*
Y480500D01*
X1454000Y925500D02*
X1484000D01*
X1469000Y910500D02*
Y940500D01*
X994000Y925500D02*
X1024000D01*
X1009000Y910500D02*
Y940500D01*
X1346000Y818000D02*
X1359000D01*
X1352500Y811500D02*
Y824500D01*
X1066000Y818000D02*
X1075000D01*
X1070500Y813500D02*
Y822500D01*
X841500Y1386000D02*
X854500D01*
X848000Y1379500D02*
Y1392500D01*
X881500Y1386000D02*
X894500D01*
X888000Y1379500D02*
Y1392500D01*
X1242000Y1030000D02*
X1252000D01*
X1247000Y1025000D02*
Y1035000D01*
X1242000Y1005000D02*
X1252000D01*
X1247000Y1000000D02*
Y1010000D01*
X1242000Y980000D02*
X1252000D01*
X1247000Y975000D02*
Y985000D01*
X1242000Y955000D02*
X1252000D01*
X1247000Y950000D02*
Y960000D01*
X1242000Y930000D02*
X1252000D01*
X1247000Y925000D02*
Y935000D01*
X1217000Y930000D02*
X1227000D01*
X1222000Y925000D02*
Y935000D01*
X1217000Y955000D02*
X1227000D01*
X1222000Y950000D02*
Y960000D01*
X1217000Y980000D02*
X1227000D01*
X1222000Y975000D02*
Y985000D01*
X1217000Y1005000D02*
X1227000D01*
X1222000Y1000000D02*
Y1010000D01*
X1217000Y1030000D02*
X1227000D01*
X1222000Y1025000D02*
Y1035000D01*
X1559000Y459000D02*
X1569000D01*
X1564000Y454000D02*
Y464000D01*
X1584000Y459000D02*
X1594000D01*
X1589000Y454000D02*
Y464000D01*
X1609000Y459000D02*
X1619000D01*
X1614000Y454000D02*
Y464000D01*
X1544000Y1376000D02*
X1554000D01*
X1549000Y1371000D02*
Y1381000D01*
X1569000Y1376000D02*
X1579000D01*
X1574000Y1371000D02*
Y1381000D01*
X1419550Y461937D02*
X1429550D01*
X1424550Y456937D02*
Y466937D01*
X1394550Y461937D02*
X1404550D01*
X1399550Y456937D02*
Y466937D01*
X1015444Y1058000D02*
X1022556D01*
X1019000Y1054444D02*
Y1061556D01*
X1041714Y1034270D02*
X1048826D01*
X1045270Y1030714D02*
Y1037826D01*
X1072444Y1015000D02*
X1079556D01*
X1076000Y1011444D02*
Y1018556D01*
X1107444Y1014000D02*
X1114556D01*
X1111000Y1010444D02*
Y1017556D01*
X1107444Y1043000D02*
X1114556D01*
X1111000Y1039444D02*
Y1046556D01*
X1106444Y1070000D02*
X1113556D01*
X1110000Y1066444D02*
Y1073556D01*
X975444Y645000D02*
X982556D01*
X979000Y641444D02*
Y648556D01*
X954444Y666000D02*
X961556D01*
X958000Y662444D02*
Y669556D01*
X954444Y705000D02*
X961556D01*
X958000Y701444D02*
Y708556D01*
X1015444Y646000D02*
X1022556D01*
X1019000Y642444D02*
Y649556D01*
X1487444Y528000D02*
X1494556D01*
X1491000Y524444D02*
Y531556D01*
X1052815Y1299497D02*
X1056626D01*
X1054721Y1297592D02*
Y1301402D01*
X1060095Y1362000D02*
X1063905D01*
X1062000Y1360095D02*
Y1363905D01*
X1154444Y1110000D02*
X1161556D01*
X1158000Y1106444D02*
Y1113556D01*
X1639460Y534000D02*
X1644540D01*
X1642000Y531460D02*
Y536540D01*
X1260460Y1277000D02*
X1265540D01*
X1263000Y1274460D02*
Y1279540D01*
X957460Y905000D02*
X962540D01*
X960000Y902460D02*
Y907540D01*
X957960Y936500D02*
X963040D01*
X960500Y933960D02*
Y939040D01*
X1163095Y1306000D02*
X1166905D01*
X1165000Y1304095D02*
Y1307905D01*
X1060460Y1228000D02*
X1065540D01*
X1063000Y1225460D02*
Y1230540D01*
X950460Y1212000D02*
X955540D01*
X953000Y1209460D02*
Y1214540D01*
X948460Y1124000D02*
X953540D01*
X951000Y1121460D02*
Y1126540D01*
X1234460Y1213000D02*
X1239540D01*
X1237000Y1210460D02*
Y1215540D01*
X1629460Y1153000D02*
X1634540D01*
X1632000Y1150460D02*
Y1155540D01*
X1434460Y1226000D02*
X1439540D01*
X1437000Y1223460D02*
Y1228540D01*
X1530561Y1212477D02*
X1535641D01*
X1533101Y1209937D02*
Y1215017D01*
X1514960Y1065500D02*
X1520040D01*
X1517500Y1062960D02*
Y1068040D01*
X1514460Y1037000D02*
X1519540D01*
X1517000Y1034460D02*
Y1039540D01*
X1508460Y915000D02*
X1513540D01*
X1511000Y912460D02*
Y917540D01*
X1507960Y945500D02*
X1513040D01*
X1510500Y942960D02*
Y948040D01*
X1510460Y825000D02*
X1515540D01*
X1513000Y822460D02*
Y827540D01*
X1507460Y676000D02*
X1512540D01*
X1510000Y673460D02*
Y678540D01*
X1506460Y705000D02*
X1511540D01*
X1509000Y702460D02*
Y707540D01*
X1496460Y649000D02*
X1501540D01*
X1499000Y646460D02*
Y651540D01*
X1466460Y649000D02*
X1471540D01*
X1469000Y646460D02*
Y651540D01*
X986460Y1026000D02*
X991540D01*
X989000Y1023460D02*
Y1028540D01*
X962960Y785500D02*
X968040D01*
X965500Y782960D02*
Y788040D01*
X963460Y818000D02*
X968540D01*
X966000Y815460D02*
Y820540D01*
X1136460Y654000D02*
X1141540D01*
X1139000Y651460D02*
Y656540D01*
X1106460Y654000D02*
X1111540D01*
X1109000Y651460D02*
Y656540D01*
X1225460Y655000D02*
X1230540D01*
X1228000Y652460D02*
Y657540D01*
X1256460Y656000D02*
X1261540D01*
X1259000Y653460D02*
Y658540D01*
X1376460Y659000D02*
X1381540D01*
X1379000Y656460D02*
Y661540D01*
X1346460Y659000D02*
X1351540D01*
X1349000Y656460D02*
Y661540D01*
X1525460Y531000D02*
X1530540D01*
X1528000Y528460D02*
Y533540D01*
X1364249Y1212000D02*
X1369329D01*
X1366789Y1209460D02*
Y1214540D01*
X1206095Y1332000D02*
X1209905D01*
X1208000Y1330095D02*
Y1333905D01*
X1221095Y1315000D02*
X1224905D01*
X1223000Y1313095D02*
Y1316905D01*
X1101095Y1291000D02*
X1104905D01*
X1103000Y1289095D02*
Y1292905D01*
X1301095Y1229000D02*
X1304905D01*
X1303000Y1227095D02*
Y1230905D01*
X1511460Y798000D02*
X1516540D01*
X1514000Y795460D02*
Y800540D01*
X1177139Y1342000D02*
X1180949D01*
X1179044Y1340095D02*
Y1343905D01*
X1199095Y1353000D02*
X1202905D01*
X1201000Y1351095D02*
Y1354905D01*
X1635095Y977000D02*
X1638905D01*
X1637000Y975095D02*
Y978905D01*
X1618095Y1037000D02*
X1621905D01*
X1620000Y1035095D02*
Y1038905D01*
X1597095Y1046000D02*
X1600905D01*
X1599000Y1044095D02*
Y1047905D01*
X1242095Y1300000D02*
X1245905D01*
X1244000Y1298095D02*
Y1301905D01*
X1156095Y1329000D02*
X1159905D01*
X1158000Y1327095D02*
Y1330905D01*
X1176224Y1323279D02*
X1180034D01*
X1178129Y1321374D02*
Y1325184D01*
X1358095Y1301000D02*
X1361905D01*
X1360000Y1299095D02*
Y1302905D01*
X1371095Y1314000D02*
X1374905D01*
X1373000Y1312095D02*
Y1315905D01*
X1412095Y1318000D02*
X1415905D01*
X1414000Y1316095D02*
Y1319905D01*
X1438095Y1339000D02*
X1441905D01*
X1440000Y1337095D02*
Y1340905D01*
X1392968Y1370000D02*
X1397032D01*
X1395000Y1367968D02*
Y1372032D01*
X1383968Y1344000D02*
X1388032D01*
X1386000Y1341968D02*
Y1346032D01*
X1518460Y1227000D02*
X1523540D01*
X1521000Y1224460D02*
Y1229540D01*
X1340460Y1210000D02*
X1345540D01*
X1343000Y1207460D02*
Y1212540D01*
X976460Y1212000D02*
X981540D01*
X979000Y1209460D02*
Y1214540D01*
X1117730Y1227000D02*
X1122810D01*
X1120270Y1224460D02*
Y1229540D01*
X1116095Y1287000D02*
X1119905D01*
X1118000Y1285095D02*
Y1288905D01*
M02*
