G04 Layer_Physical_Order=1*
G04 Layer_Color=255*
%FSLAX44Y44*%
%MOMM*%
G71*
G01*
G75*
%ADD10R,2.0000X1.1000*%
%ADD11R,1.1000X2.0000*%
%ADD12C,0.5080*%
%ADD13C,0.3810*%
%ADD14C,0.6350*%
%ADD15C,0.2540*%
%ADD16C,4.0000*%
%ADD17C,1.3000*%
%ADD18C,0.9000*%
%ADD19C,2.0000*%
%ADD20C,1.7000*%
%ADD21C,1.2700*%
%ADD22C,0.7112*%
%ADD23C,0.8890*%
%ADD24C,0.8636*%
G36*
X1735374Y429126D02*
X742626D01*
Y1421874D01*
X1735374D01*
Y429126D01*
D02*
G37*
%LPC*%
G36*
X966799Y703730D02*
X959270D01*
Y696200D01*
X960321Y696339D01*
X962483Y697235D01*
X964340Y698660D01*
X965765Y700517D01*
X966661Y702679D01*
X966799Y703730D01*
D02*
G37*
G36*
X956730Y713800D02*
X955679Y713661D01*
X953517Y712765D01*
X951660Y711340D01*
X950235Y709483D01*
X949339Y707321D01*
X949201Y706270D01*
X956730D01*
Y713800D01*
D02*
G37*
G36*
X959270D02*
Y706270D01*
X966799D01*
X966661Y707321D01*
X965765Y709483D01*
X964340Y711340D01*
X962483Y712765D01*
X960321Y713661D01*
X959270Y713800D01*
D02*
G37*
G36*
X956730Y703730D02*
X949201D01*
X949339Y702679D01*
X950235Y700517D01*
X951660Y698660D01*
X953517Y697235D01*
X955679Y696339D01*
X956730Y696200D01*
Y703730D01*
D02*
G37*
G36*
X909250Y797831D02*
X898250D01*
X897358Y797653D01*
X896602Y797148D01*
X896097Y796392D01*
X895919Y795500D01*
Y775500D01*
X896097Y774608D01*
X896602Y773852D01*
X897358Y773347D01*
X898182Y773183D01*
Y717817D01*
X897358Y717653D01*
X896602Y717148D01*
X896097Y716392D01*
X895919Y715500D01*
Y695500D01*
X896097Y694608D01*
X896602Y693852D01*
X897358Y693347D01*
X898250Y693169D01*
X909250D01*
X910142Y693347D01*
X910898Y693852D01*
X911403Y694608D01*
X911581Y695500D01*
Y715500D01*
X911403Y716392D01*
X910898Y717148D01*
X910142Y717653D01*
X909318Y717817D01*
Y773183D01*
X910142Y773347D01*
X910898Y773852D01*
X911403Y774608D01*
X911581Y775500D01*
Y795500D01*
X911403Y796392D01*
X910898Y797148D01*
X910142Y797653D01*
X909250Y797831D01*
D02*
G37*
G36*
X1545750Y798090D02*
X1541520D01*
Y785500D01*
Y772910D01*
X1545750D01*
X1546741Y773107D01*
X1547581Y773669D01*
X1548143Y774509D01*
X1548232Y774958D01*
X1549527D01*
X1549597Y774608D01*
X1550102Y773852D01*
X1550858Y773347D01*
X1551682Y773183D01*
Y717817D01*
X1550858Y717653D01*
X1550102Y717148D01*
X1549597Y716392D01*
X1549419Y715500D01*
Y695500D01*
X1549597Y694608D01*
X1550102Y693852D01*
X1550858Y693347D01*
X1551750Y693169D01*
X1562750D01*
X1563642Y693347D01*
X1564398Y693852D01*
X1564903Y694608D01*
X1565081Y695500D01*
Y715500D01*
X1564903Y716392D01*
X1564398Y717148D01*
X1563642Y717653D01*
X1562818Y717817D01*
Y773183D01*
X1563642Y773347D01*
X1564398Y773852D01*
X1564903Y774608D01*
X1565081Y775500D01*
Y795500D01*
X1564903Y796392D01*
X1564398Y797148D01*
X1563642Y797653D01*
X1562750Y797831D01*
X1551750D01*
X1550858Y797653D01*
X1550102Y797148D01*
X1549597Y796392D01*
X1549527Y796041D01*
X1548232D01*
X1548143Y796491D01*
X1547581Y797331D01*
X1546741Y797893D01*
X1545750Y798090D01*
D02*
G37*
G36*
X1579750Y797831D02*
X1568750D01*
X1567858Y797653D01*
X1567102Y797148D01*
X1566597Y796392D01*
X1566419Y795500D01*
Y775500D01*
X1566597Y774608D01*
X1567102Y773852D01*
X1567858Y773347D01*
X1568682Y773183D01*
Y717817D01*
X1567858Y717653D01*
X1567102Y717148D01*
X1566597Y716392D01*
X1566419Y715500D01*
Y695500D01*
X1566597Y694608D01*
X1567102Y693852D01*
X1567858Y693347D01*
X1568750Y693169D01*
X1579750D01*
X1580642Y693347D01*
X1581398Y693852D01*
X1581903Y694608D01*
X1582081Y695500D01*
Y715500D01*
X1581903Y716392D01*
X1581398Y717148D01*
X1580642Y717653D01*
X1579818Y717817D01*
Y773183D01*
X1580642Y773347D01*
X1581398Y773852D01*
X1581903Y774608D01*
X1582081Y775500D01*
Y795500D01*
X1581903Y796392D01*
X1581398Y797148D01*
X1580642Y797653D01*
X1579750Y797831D01*
D02*
G37*
G36*
X943250Y718090D02*
X939020D01*
Y706770D01*
X945840D01*
Y715500D01*
X945643Y716491D01*
X945081Y717331D01*
X944241Y717893D01*
X943250Y718090D01*
D02*
G37*
G36*
X1512730Y796730D02*
X1507122D01*
X1507195Y796177D01*
X1507899Y794477D01*
X1509018Y793018D01*
X1510477Y791899D01*
X1512177Y791195D01*
X1512730Y791122D01*
Y796730D01*
D02*
G37*
G36*
X1520878D02*
X1515270D01*
Y791122D01*
X1515823Y791195D01*
X1517523Y791899D01*
X1518982Y793018D01*
X1520101Y794477D01*
X1520805Y796177D01*
X1520878Y796730D01*
D02*
G37*
G36*
X1512730Y804878D02*
X1512177Y804805D01*
X1510477Y804101D01*
X1509018Y802982D01*
X1507899Y801523D01*
X1507195Y799823D01*
X1507122Y799270D01*
X1512730D01*
Y804878D01*
D02*
G37*
G36*
X1538980Y798090D02*
X1534750D01*
X1533759Y797893D01*
X1532919Y797331D01*
X1532357Y796491D01*
X1532160Y795500D01*
Y786770D01*
X1538980D01*
Y798090D01*
D02*
G37*
G36*
X1545750Y717831D02*
X1534750D01*
X1533858Y717653D01*
X1533102Y717148D01*
X1532597Y716392D01*
X1532419Y715500D01*
Y710421D01*
X1512993D01*
X1512395Y710880D01*
X1510757Y711558D01*
X1509000Y711789D01*
X1507243Y711558D01*
X1505605Y710880D01*
X1504199Y709801D01*
X1503121Y708395D01*
X1502442Y706757D01*
X1502211Y705000D01*
X1502442Y703243D01*
X1503121Y701606D01*
X1504199Y700199D01*
X1505605Y699120D01*
X1507243Y698442D01*
X1509000Y698211D01*
X1510757Y698442D01*
X1512395Y699120D01*
X1513801Y700199D01*
X1514092Y700580D01*
X1532419D01*
Y695500D01*
X1532597Y694608D01*
X1533102Y693852D01*
X1533858Y693347D01*
X1534750Y693169D01*
X1545750D01*
X1546642Y693347D01*
X1547398Y693852D01*
X1547903Y694608D01*
X1548081Y695500D01*
Y715500D01*
X1547903Y716392D01*
X1547398Y717148D01*
X1546642Y717653D01*
X1545750Y717831D01*
D02*
G37*
G36*
X1538980Y784230D02*
X1532160D01*
Y775500D01*
X1532357Y774509D01*
X1532919Y773669D01*
X1533759Y773107D01*
X1534750Y772910D01*
X1538980D01*
Y784230D01*
D02*
G37*
G36*
X943250Y797831D02*
X932250D01*
X931358Y797653D01*
X930602Y797148D01*
X930097Y796392D01*
X929919Y795500D01*
Y775500D01*
X930097Y774608D01*
X930602Y773852D01*
X931358Y773347D01*
X932250Y773169D01*
X943250D01*
X944142Y773347D01*
X944898Y773852D01*
X945403Y774608D01*
X945581Y775500D01*
Y780579D01*
X960856D01*
X962105Y779621D01*
X963743Y778942D01*
X965500Y778711D01*
X967257Y778942D01*
X968895Y779621D01*
X970301Y780699D01*
X971379Y782105D01*
X972058Y783743D01*
X972289Y785500D01*
X972058Y787257D01*
X971379Y788895D01*
X970301Y790301D01*
X968895Y791379D01*
X967257Y792058D01*
X965500Y792289D01*
X963743Y792058D01*
X962105Y791379D01*
X960856Y790421D01*
X945581D01*
Y795500D01*
X945403Y796392D01*
X944898Y797148D01*
X944142Y797653D01*
X943250Y797831D01*
D02*
G37*
G36*
X1229270Y661878D02*
Y656270D01*
X1234878D01*
X1234805Y656824D01*
X1234101Y658523D01*
X1232982Y659982D01*
X1231523Y661101D01*
X1229823Y661805D01*
X1229270Y661878D01*
D02*
G37*
G36*
X943250Y677831D02*
X932250D01*
X931358Y677653D01*
X930602Y677148D01*
X930097Y676392D01*
X929919Y675500D01*
Y655500D01*
X930097Y654608D01*
X930602Y653852D01*
X931358Y653347D01*
X932250Y653169D01*
X943250D01*
X944142Y653347D01*
X944898Y653852D01*
X945403Y654608D01*
X945581Y655500D01*
Y660580D01*
X951274D01*
X951841Y659841D01*
X953645Y658456D01*
X955745Y657586D01*
X958000Y657290D01*
X960254Y657586D01*
X962355Y658456D01*
X964159Y659841D01*
X965544Y661645D01*
X966414Y663745D01*
X966711Y666000D01*
X966414Y668254D01*
X965544Y670355D01*
X964159Y672159D01*
X962355Y673543D01*
X960254Y674414D01*
X958000Y674710D01*
X955745Y674414D01*
X953645Y673543D01*
X951841Y672159D01*
X950507Y670421D01*
X945581D01*
Y675500D01*
X945403Y676392D01*
X944898Y677148D01*
X944142Y677653D01*
X943250Y677831D01*
D02*
G37*
G36*
X1347730Y665878D02*
X1347177Y665805D01*
X1345477Y665101D01*
X1344018Y663982D01*
X1342899Y662523D01*
X1342195Y660823D01*
X1342122Y660270D01*
X1347730D01*
Y665878D01*
D02*
G37*
G36*
X1226730Y661878D02*
X1226177Y661805D01*
X1224477Y661101D01*
X1223018Y659982D01*
X1221899Y658523D01*
X1221195Y656824D01*
X1221122Y656270D01*
X1226730D01*
Y661878D01*
D02*
G37*
G36*
X1538980Y664230D02*
X1532160D01*
Y655500D01*
X1532357Y654509D01*
X1532919Y653669D01*
X1533759Y653107D01*
X1534750Y652910D01*
X1538980D01*
Y664230D01*
D02*
G37*
G36*
X1107730Y660878D02*
X1107177Y660805D01*
X1105477Y660101D01*
X1104018Y658982D01*
X1102899Y657523D01*
X1102195Y655823D01*
X1102122Y655270D01*
X1107730D01*
Y660878D01*
D02*
G37*
G36*
X1110270D02*
Y655270D01*
X1115878D01*
X1115805Y655823D01*
X1115101Y657523D01*
X1113982Y658982D01*
X1112523Y660101D01*
X1110823Y660805D01*
X1110270Y660878D01*
D02*
G37*
G36*
X1350270Y665878D02*
Y660270D01*
X1355878D01*
X1355805Y660823D01*
X1355101Y662523D01*
X1353982Y663982D01*
X1352523Y665101D01*
X1350823Y665805D01*
X1350270Y665878D01*
D02*
G37*
G36*
X1511270Y682878D02*
Y677270D01*
X1516878D01*
X1516805Y677823D01*
X1516101Y679523D01*
X1514982Y680982D01*
X1513523Y682101D01*
X1511823Y682805D01*
X1511270Y682878D01*
D02*
G37*
G36*
X926250Y797831D02*
X915250D01*
X914358Y797653D01*
X913602Y797148D01*
X913097Y796392D01*
X912919Y795500D01*
Y775500D01*
X913097Y774608D01*
X913602Y773852D01*
X914358Y773347D01*
X915182Y773183D01*
Y717817D01*
X914358Y717653D01*
X913602Y717148D01*
X913097Y716392D01*
X912919Y715500D01*
Y695500D01*
X913097Y694608D01*
X913602Y693852D01*
X914358Y693347D01*
X915250Y693169D01*
X926250D01*
X927142Y693347D01*
X927898Y693852D01*
X928403Y694608D01*
X928473Y694958D01*
X929768D01*
X929857Y694509D01*
X930419Y693669D01*
X931259Y693107D01*
X932250Y692910D01*
X936480D01*
Y705500D01*
Y718090D01*
X932250D01*
X931259Y717893D01*
X930419Y717331D01*
X929857Y716491D01*
X929768Y716041D01*
X928473D01*
X928403Y716392D01*
X927898Y717148D01*
X927142Y717653D01*
X926318Y717817D01*
Y773183D01*
X927142Y773347D01*
X927898Y773852D01*
X928403Y774608D01*
X928581Y775500D01*
Y795500D01*
X928403Y796392D01*
X927898Y797148D01*
X927142Y797653D01*
X926250Y797831D01*
D02*
G37*
G36*
X945840Y704230D02*
X939020D01*
Y692910D01*
X943250D01*
X944241Y693107D01*
X945081Y693669D01*
X945643Y694509D01*
X945840Y695500D01*
Y704230D01*
D02*
G37*
G36*
X1508730Y682878D02*
X1508177Y682805D01*
X1506477Y682101D01*
X1505018Y680982D01*
X1503899Y679523D01*
X1503195Y677823D01*
X1503122Y677270D01*
X1508730D01*
Y682878D01*
D02*
G37*
G36*
X1538980Y678090D02*
X1534750D01*
X1533759Y677893D01*
X1532919Y677331D01*
X1532357Y676491D01*
X1532160Y675500D01*
Y666770D01*
X1538980D01*
Y678090D01*
D02*
G37*
G36*
X1508730Y674730D02*
X1503122D01*
X1503195Y674177D01*
X1503899Y672477D01*
X1505018Y671018D01*
X1506477Y669899D01*
X1508177Y669195D01*
X1508730Y669122D01*
Y674730D01*
D02*
G37*
G36*
X1516878D02*
X1511270D01*
Y669122D01*
X1511823Y669195D01*
X1513523Y669899D01*
X1514982Y671018D01*
X1516101Y672477D01*
X1516805Y674177D01*
X1516878Y674730D01*
D02*
G37*
G36*
X1509730Y913730D02*
X1504122D01*
X1504195Y913177D01*
X1504899Y911477D01*
X1506018Y910018D01*
X1507477Y908899D01*
X1509177Y908195D01*
X1509730Y908122D01*
Y913730D01*
D02*
G37*
G36*
X1517878D02*
X1512270D01*
Y908122D01*
X1512823Y908195D01*
X1514523Y908899D01*
X1515982Y910018D01*
X1517101Y911477D01*
X1517805Y913177D01*
X1517878Y913730D01*
D02*
G37*
G36*
X1509730Y921878D02*
X1509177Y921805D01*
X1507477Y921101D01*
X1506018Y919982D01*
X1504899Y918523D01*
X1504195Y916823D01*
X1504122Y916270D01*
X1509730D01*
Y921878D01*
D02*
G37*
G36*
X1538980Y918090D02*
X1534750D01*
X1533759Y917893D01*
X1532919Y917331D01*
X1532357Y916491D01*
X1532160Y915500D01*
Y906770D01*
X1538980D01*
Y918090D01*
D02*
G37*
G36*
X943250Y917831D02*
X932250D01*
X931358Y917653D01*
X930602Y917148D01*
X930097Y916392D01*
X929919Y915500D01*
Y895500D01*
X930097Y894608D01*
X930602Y893852D01*
X931358Y893347D01*
X932250Y893169D01*
X943250D01*
X944142Y893347D01*
X944898Y893852D01*
X945403Y894608D01*
X945581Y895500D01*
Y900580D01*
X954908D01*
X955199Y900199D01*
X956606Y899120D01*
X958243Y898442D01*
X960000Y898211D01*
X961757Y898442D01*
X963395Y899120D01*
X964801Y900199D01*
X965880Y901606D01*
X966558Y903243D01*
X966789Y905000D01*
X966558Y906757D01*
X965880Y908394D01*
X964801Y909801D01*
X963395Y910880D01*
X961757Y911558D01*
X960000Y911789D01*
X958243Y911558D01*
X956606Y910880D01*
X956007Y910421D01*
X945581D01*
Y915500D01*
X945403Y916392D01*
X944898Y917148D01*
X944142Y917653D01*
X943250Y917831D01*
D02*
G37*
G36*
X1009000Y947894D02*
X1004631Y947464D01*
X1000430Y946189D01*
X996559Y944120D01*
X993165Y941335D01*
X990380Y937941D01*
X988311Y934070D01*
X987037Y929869D01*
X986606Y925500D01*
X987037Y921131D01*
X988311Y916930D01*
X990380Y913059D01*
X993165Y909665D01*
X996559Y906880D01*
X1000430Y904811D01*
X1004631Y903537D01*
X1009000Y903106D01*
X1013369Y903537D01*
X1017570Y904811D01*
X1021441Y906880D01*
X1024835Y909665D01*
X1027620Y913059D01*
X1029689Y916930D01*
X1030964Y921131D01*
X1031394Y925500D01*
X1030964Y929869D01*
X1029689Y934070D01*
X1027620Y937941D01*
X1024835Y941335D01*
X1021441Y944120D01*
X1017570Y946189D01*
X1013369Y947464D01*
X1009000Y947894D01*
D02*
G37*
G36*
X1469000D02*
X1464631Y947464D01*
X1460430Y946189D01*
X1456559Y944120D01*
X1453165Y941335D01*
X1450380Y937941D01*
X1448311Y934070D01*
X1447036Y929869D01*
X1446606Y925500D01*
X1447036Y921131D01*
X1448311Y916930D01*
X1450380Y913059D01*
X1453165Y909665D01*
X1456559Y906880D01*
X1460430Y904811D01*
X1464631Y903537D01*
X1469000Y903106D01*
X1473369Y903537D01*
X1477570Y904811D01*
X1481441Y906880D01*
X1484835Y909665D01*
X1487620Y913059D01*
X1489689Y916930D01*
X1490963Y921131D01*
X1491394Y925500D01*
X1490963Y929869D01*
X1489689Y934070D01*
X1487620Y937941D01*
X1484835Y941335D01*
X1481441Y944120D01*
X1477570Y946189D01*
X1473369Y947464D01*
X1469000Y947894D01*
D02*
G37*
G36*
X1512270Y921878D02*
Y916270D01*
X1517878D01*
X1517805Y916823D01*
X1517101Y918523D01*
X1515982Y919982D01*
X1514523Y921101D01*
X1512823Y921805D01*
X1512270Y921878D01*
D02*
G37*
G36*
X926250Y1037831D02*
X915250D01*
X914358Y1037653D01*
X913602Y1037148D01*
X913097Y1036392D01*
X912919Y1035500D01*
Y1015500D01*
X913097Y1014608D01*
X913602Y1013852D01*
X914358Y1013347D01*
X915182Y1013183D01*
Y957817D01*
X914358Y957653D01*
X913602Y957148D01*
X913097Y956392D01*
X912919Y955500D01*
Y935500D01*
X913097Y934608D01*
X913602Y933852D01*
X914358Y933347D01*
X915250Y933169D01*
X926250D01*
X927142Y933347D01*
X927898Y933852D01*
X928403Y934608D01*
X928473Y934958D01*
X929768D01*
X929857Y934509D01*
X930419Y933669D01*
X931259Y933107D01*
X932250Y932910D01*
X936480D01*
Y945500D01*
Y958090D01*
X932250D01*
X931259Y957893D01*
X930419Y957331D01*
X929857Y956491D01*
X929768Y956041D01*
X928473D01*
X928403Y956392D01*
X927898Y957148D01*
X927142Y957653D01*
X926318Y957817D01*
Y1013183D01*
X927142Y1013347D01*
X927898Y1013852D01*
X928403Y1014608D01*
X928581Y1015500D01*
Y1035500D01*
X928403Y1036392D01*
X927898Y1037148D01*
X927142Y1037653D01*
X926250Y1037831D01*
D02*
G37*
G36*
X945840Y944230D02*
X939020D01*
Y932910D01*
X943250D01*
X944241Y933107D01*
X945081Y933669D01*
X945643Y934509D01*
X945840Y935500D01*
Y944230D01*
D02*
G37*
G36*
X909250Y1037831D02*
X898250D01*
X897358Y1037653D01*
X896602Y1037148D01*
X896097Y1036392D01*
X895919Y1035500D01*
Y1015500D01*
X896097Y1014608D01*
X896602Y1013852D01*
X897358Y1013347D01*
X898182Y1013183D01*
Y957817D01*
X897358Y957653D01*
X896602Y957148D01*
X896097Y956392D01*
X895919Y955500D01*
Y935500D01*
X896097Y934608D01*
X896602Y933852D01*
X897358Y933347D01*
X898250Y933169D01*
X909250D01*
X910142Y933347D01*
X910898Y933852D01*
X911403Y934608D01*
X911581Y935500D01*
Y955500D01*
X911403Y956392D01*
X910898Y957148D01*
X910142Y957653D01*
X909318Y957817D01*
Y1013183D01*
X910142Y1013347D01*
X910898Y1013852D01*
X911403Y1014608D01*
X911581Y1015500D01*
Y1035500D01*
X911403Y1036392D01*
X910898Y1037148D01*
X910142Y1037653D01*
X909250Y1037831D01*
D02*
G37*
G36*
X967378Y935230D02*
X961770D01*
Y929622D01*
X962323Y929695D01*
X964023Y930399D01*
X965482Y931518D01*
X966601Y932977D01*
X967305Y934677D01*
X967378Y935230D01*
D02*
G37*
G36*
X1222000Y940879D02*
X1219184Y940508D01*
X1216561Y939421D01*
X1214307Y937693D01*
X1212579Y935440D01*
X1211492Y932816D01*
X1211121Y930000D01*
X1211492Y927184D01*
X1212579Y924560D01*
X1214307Y922307D01*
X1216561Y920579D01*
X1219184Y919492D01*
X1222000Y919121D01*
X1224816Y919492D01*
X1227439Y920579D01*
X1229693Y922307D01*
X1231422Y924560D01*
X1232508Y927184D01*
X1232879Y930000D01*
X1232508Y932816D01*
X1231422Y935440D01*
X1229693Y937693D01*
X1227439Y939421D01*
X1224816Y940508D01*
X1222000Y940879D01*
D02*
G37*
G36*
X1247000D02*
X1244184Y940508D01*
X1241561Y939421D01*
X1239307Y937693D01*
X1237579Y935440D01*
X1236492Y932816D01*
X1236121Y930000D01*
X1236492Y927184D01*
X1237579Y924560D01*
X1239307Y922307D01*
X1241561Y920579D01*
X1244184Y919492D01*
X1247000Y919121D01*
X1249816Y919492D01*
X1252439Y920579D01*
X1254693Y922307D01*
X1256422Y924560D01*
X1257508Y927184D01*
X1257879Y930000D01*
X1257508Y932816D01*
X1256422Y935440D01*
X1254693Y937693D01*
X1252439Y939421D01*
X1249816Y940508D01*
X1247000Y940879D01*
D02*
G37*
G36*
X959230Y935230D02*
X953622D01*
X953695Y934677D01*
X954399Y932977D01*
X955518Y931518D01*
X956977Y930399D01*
X958677Y929695D01*
X959230Y929622D01*
Y935230D01*
D02*
G37*
G36*
X926250Y917831D02*
X915250D01*
X914358Y917653D01*
X913602Y917148D01*
X913097Y916392D01*
X912919Y915500D01*
Y895500D01*
X913097Y894608D01*
X913602Y893852D01*
X914358Y893347D01*
X915182Y893183D01*
Y837817D01*
X914358Y837653D01*
X913602Y837148D01*
X913097Y836392D01*
X912919Y835500D01*
Y815500D01*
X913097Y814608D01*
X913602Y813852D01*
X914358Y813347D01*
X915250Y813169D01*
X926250D01*
X927142Y813347D01*
X927898Y813852D01*
X928403Y814608D01*
X928473Y814958D01*
X929768D01*
X929857Y814509D01*
X930419Y813669D01*
X931259Y813107D01*
X932250Y812910D01*
X936480D01*
Y825500D01*
Y838090D01*
X932250D01*
X931259Y837893D01*
X930419Y837331D01*
X929857Y836491D01*
X929768Y836041D01*
X928473D01*
X928403Y836392D01*
X927898Y837148D01*
X927142Y837653D01*
X926318Y837817D01*
Y893183D01*
X927142Y893347D01*
X927898Y893852D01*
X928403Y894608D01*
X928581Y895500D01*
Y915500D01*
X928403Y916392D01*
X927898Y917148D01*
X927142Y917653D01*
X926250Y917831D01*
D02*
G37*
G36*
X945840Y824230D02*
X939020D01*
Y812910D01*
X943250D01*
X944241Y813107D01*
X945081Y813669D01*
X945643Y814509D01*
X945840Y815500D01*
Y824230D01*
D02*
G37*
G36*
X909250Y917831D02*
X898250D01*
X897358Y917653D01*
X896602Y917148D01*
X896097Y916392D01*
X895919Y915500D01*
Y895500D01*
X896097Y894608D01*
X896602Y893852D01*
X897358Y893347D01*
X898182Y893183D01*
Y837817D01*
X897358Y837653D01*
X896602Y837148D01*
X896097Y836392D01*
X895919Y835500D01*
Y815500D01*
X896097Y814608D01*
X896602Y813852D01*
X897358Y813347D01*
X898250Y813169D01*
X909250D01*
X910142Y813347D01*
X910898Y813852D01*
X911403Y814608D01*
X911581Y815500D01*
Y835500D01*
X911403Y836392D01*
X910898Y837148D01*
X910142Y837653D01*
X909318Y837817D01*
Y893183D01*
X910142Y893347D01*
X910898Y893852D01*
X911403Y894608D01*
X911581Y895500D01*
Y915500D01*
X911403Y916392D01*
X910898Y917148D01*
X910142Y917653D01*
X909250Y917831D01*
D02*
G37*
G36*
X972878Y816730D02*
X967270D01*
Y811122D01*
X967823Y811195D01*
X969523Y811899D01*
X970982Y813018D01*
X972101Y814477D01*
X972805Y816177D01*
X972878Y816730D01*
D02*
G37*
G36*
X1515270Y804878D02*
Y799270D01*
X1520878D01*
X1520805Y799823D01*
X1520101Y801523D01*
X1518982Y802982D01*
X1517523Y804101D01*
X1515823Y804805D01*
X1515270Y804878D01*
D02*
G37*
G36*
X1070500Y824919D02*
X1070275Y824874D01*
X1070045D01*
X1068289Y824525D01*
X1067449Y824177D01*
X1065961Y823182D01*
X1065961Y823182D01*
X1065318Y822539D01*
X1064323Y821051D01*
X1063975Y820210D01*
X1063626Y818455D01*
Y817545D01*
X1063975Y815789D01*
X1064323Y814949D01*
X1065318Y813461D01*
X1065318Y813461D01*
X1065961Y812818D01*
X1067449Y811823D01*
X1068289Y811475D01*
X1070045Y811126D01*
X1070275D01*
X1070500Y811081D01*
X1070725Y811126D01*
X1070955D01*
X1072710Y811475D01*
X1073551Y811823D01*
X1075039Y812818D01*
X1075039Y812818D01*
X1075682Y813461D01*
X1076677Y814949D01*
X1077025Y815789D01*
X1077374Y817545D01*
Y818455D01*
X1077025Y820210D01*
X1076677Y821051D01*
X1075682Y822539D01*
X1075682Y822539D01*
X1075039Y823182D01*
X1073551Y824177D01*
X1072710Y824525D01*
X1070955Y824874D01*
X1070725D01*
X1070500Y824919D01*
D02*
G37*
G36*
X964730Y816730D02*
X959122D01*
X959195Y816177D01*
X959899Y814477D01*
X961018Y813018D01*
X962477Y811899D01*
X964177Y811195D01*
X964730Y811122D01*
Y816730D01*
D02*
G37*
G36*
X1545750Y918090D02*
X1541520D01*
Y905500D01*
Y892910D01*
X1545750D01*
X1546741Y893107D01*
X1547581Y893669D01*
X1548143Y894509D01*
X1548232Y894958D01*
X1549527D01*
X1549597Y894608D01*
X1550102Y893852D01*
X1550858Y893347D01*
X1551682Y893183D01*
Y837817D01*
X1550858Y837653D01*
X1550102Y837148D01*
X1549597Y836392D01*
X1549419Y835500D01*
Y815500D01*
X1549597Y814608D01*
X1550102Y813852D01*
X1550858Y813347D01*
X1551750Y813169D01*
X1562750D01*
X1563642Y813347D01*
X1564398Y813852D01*
X1564903Y814608D01*
X1565081Y815500D01*
Y835500D01*
X1564903Y836392D01*
X1564398Y837148D01*
X1563642Y837653D01*
X1562818Y837817D01*
Y893183D01*
X1563642Y893347D01*
X1564398Y893852D01*
X1564903Y894608D01*
X1565081Y895500D01*
Y915500D01*
X1564903Y916392D01*
X1564398Y917148D01*
X1563642Y917653D01*
X1562750Y917831D01*
X1551750D01*
X1550858Y917653D01*
X1550102Y917148D01*
X1549597Y916392D01*
X1549527Y916041D01*
X1548232D01*
X1548143Y916491D01*
X1547581Y917331D01*
X1546741Y917893D01*
X1545750Y918090D01*
D02*
G37*
G36*
X1352500Y826887D02*
X1352349Y826857D01*
X1352196Y826867D01*
X1350499Y826644D01*
X1350282Y826570D01*
X1350206Y826560D01*
X1350136Y826531D01*
X1349911Y826486D01*
X1348330Y825831D01*
X1348139Y825704D01*
X1348069Y825675D01*
X1348009Y825628D01*
X1347803Y825527D01*
X1346445Y824485D01*
X1346294Y824312D01*
X1346234Y824266D01*
X1346188Y824206D01*
X1346015Y824055D01*
X1344973Y822697D01*
X1344872Y822491D01*
X1344825Y822431D01*
X1344796Y822361D01*
X1344669Y822170D01*
X1344014Y820589D01*
X1343969Y820364D01*
X1343940Y820294D01*
X1343930Y820218D01*
X1343857Y820001D01*
X1343633Y818304D01*
X1343648Y818075D01*
X1343638Y818000D01*
X1343648Y817925D01*
X1343633Y817696D01*
X1343857Y815999D01*
X1343930Y815782D01*
X1343940Y815706D01*
X1343969Y815636D01*
X1344014Y815411D01*
X1344669Y813830D01*
X1344796Y813639D01*
X1344825Y813569D01*
X1344872Y813509D01*
X1344973Y813303D01*
X1346015Y811945D01*
X1346188Y811794D01*
X1346234Y811734D01*
X1346294Y811688D01*
X1346445Y811515D01*
X1347803Y810473D01*
X1348009Y810372D01*
X1348069Y810325D01*
X1348139Y810296D01*
X1348330Y810169D01*
X1349911Y809514D01*
X1350136Y809469D01*
X1350206Y809440D01*
X1350282Y809430D01*
X1350499Y809357D01*
X1352196Y809133D01*
X1352349Y809143D01*
X1352500Y809113D01*
X1352651Y809143D01*
X1352804Y809133D01*
X1354501Y809357D01*
X1354718Y809430D01*
X1354794Y809440D01*
X1354864Y809469D01*
X1355089Y809514D01*
X1356670Y810169D01*
X1356861Y810296D01*
X1356931Y810325D01*
X1356991Y810372D01*
X1357197Y810473D01*
X1358555Y811515D01*
X1358706Y811688D01*
X1358766Y811734D01*
X1358812Y811794D01*
X1358985Y811945D01*
X1360027Y813303D01*
X1360128Y813509D01*
X1360175Y813569D01*
X1360204Y813639D01*
X1360331Y813830D01*
X1360986Y815411D01*
X1361031Y815636D01*
X1361060Y815706D01*
X1361070Y815782D01*
X1361143Y815999D01*
X1361367Y817696D01*
X1361352Y817925D01*
X1361362Y818000D01*
X1361352Y818075D01*
X1361367Y818304D01*
X1361143Y820001D01*
X1361070Y820218D01*
X1361060Y820294D01*
X1361031Y820364D01*
X1360986Y820589D01*
X1360331Y822170D01*
X1360204Y822361D01*
X1360175Y822431D01*
X1360128Y822491D01*
X1360027Y822697D01*
X1358985Y824055D01*
X1358812Y824206D01*
X1358766Y824266D01*
X1358706Y824312D01*
X1358555Y824485D01*
X1357197Y825527D01*
X1356991Y825628D01*
X1356931Y825675D01*
X1356861Y825704D01*
X1356670Y825831D01*
X1355089Y826486D01*
X1354864Y826531D01*
X1354794Y826560D01*
X1354718Y826570D01*
X1354501Y826644D01*
X1352804Y826867D01*
X1352651Y826857D01*
X1352500Y826887D01*
D02*
G37*
G36*
X1545750Y837831D02*
X1534750D01*
X1533858Y837653D01*
X1533102Y837148D01*
X1532597Y836392D01*
X1532419Y835500D01*
Y830421D01*
X1516993D01*
X1516395Y830880D01*
X1514757Y831558D01*
X1513000Y831789D01*
X1511243Y831558D01*
X1509606Y830880D01*
X1508199Y829801D01*
X1507121Y828394D01*
X1506442Y826757D01*
X1506211Y825000D01*
X1506442Y823243D01*
X1507121Y821606D01*
X1508199Y820199D01*
X1509606Y819120D01*
X1511243Y818442D01*
X1513000Y818211D01*
X1514757Y818442D01*
X1516395Y819120D01*
X1517801Y820199D01*
X1518092Y820580D01*
X1532419D01*
Y815500D01*
X1532597Y814608D01*
X1533102Y813852D01*
X1533858Y813347D01*
X1534750Y813169D01*
X1545750D01*
X1546642Y813347D01*
X1547398Y813852D01*
X1547903Y814608D01*
X1548081Y815500D01*
Y835500D01*
X1547903Y836392D01*
X1547398Y837148D01*
X1546642Y837653D01*
X1545750Y837831D01*
D02*
G37*
G36*
X1538980Y904230D02*
X1532160D01*
Y895500D01*
X1532357Y894509D01*
X1532919Y893669D01*
X1533759Y893107D01*
X1534750Y892910D01*
X1538980D01*
Y904230D01*
D02*
G37*
G36*
X943250Y838090D02*
X939020D01*
Y826770D01*
X945840D01*
Y835500D01*
X945643Y836491D01*
X945081Y837331D01*
X944241Y837893D01*
X943250Y838090D01*
D02*
G37*
G36*
X1579750Y917831D02*
X1568750D01*
X1567858Y917653D01*
X1567102Y917148D01*
X1566597Y916392D01*
X1566419Y915500D01*
Y895500D01*
X1566597Y894608D01*
X1567102Y893852D01*
X1567858Y893347D01*
X1568682Y893183D01*
Y837817D01*
X1567858Y837653D01*
X1567102Y837148D01*
X1566597Y836392D01*
X1566419Y835500D01*
Y815500D01*
X1566597Y814608D01*
X1567102Y813852D01*
X1567858Y813347D01*
X1568750Y813169D01*
X1579750D01*
X1580642Y813347D01*
X1581398Y813852D01*
X1581903Y814608D01*
X1582081Y815500D01*
Y835500D01*
X1581903Y836392D01*
X1581398Y837148D01*
X1580642Y837653D01*
X1579818Y837817D01*
Y893183D01*
X1580642Y893347D01*
X1581398Y893852D01*
X1581903Y894608D01*
X1582081Y895500D01*
Y915500D01*
X1581903Y916392D01*
X1581398Y917148D01*
X1580642Y917653D01*
X1579750Y917831D01*
D02*
G37*
G36*
X964730Y824878D02*
X964177Y824805D01*
X962477Y824101D01*
X961018Y822982D01*
X959899Y821523D01*
X959195Y819823D01*
X959122Y819270D01*
X964730D01*
Y824878D01*
D02*
G37*
G36*
X967270D02*
Y819270D01*
X972878D01*
X972805Y819823D01*
X972101Y821523D01*
X970982Y822982D01*
X969523Y824101D01*
X967823Y824805D01*
X967270Y824878D01*
D02*
G37*
G36*
X909250Y677831D02*
X898250D01*
X897358Y677653D01*
X896602Y677148D01*
X896097Y676392D01*
X895919Y675500D01*
Y655500D01*
X896097Y654608D01*
X896602Y653852D01*
X897358Y653347D01*
X898182Y653183D01*
Y623250D01*
X898606Y621119D01*
X899813Y619313D01*
X932813Y586313D01*
X934619Y585106D01*
X936750Y584682D01*
X966683D01*
X966847Y583858D01*
X967352Y583102D01*
X968108Y582597D01*
X969000Y582419D01*
X989000D01*
X989892Y582597D01*
X990648Y583102D01*
X991153Y583858D01*
X991331Y584750D01*
Y595750D01*
X991153Y596642D01*
X990648Y597398D01*
X989892Y597903D01*
X989000Y598081D01*
X969000D01*
X968108Y597903D01*
X967352Y597398D01*
X966847Y596642D01*
X966683Y595818D01*
X939056D01*
X909318Y625556D01*
Y653183D01*
X910142Y653347D01*
X910898Y653852D01*
X911403Y654608D01*
X911581Y655500D01*
Y675500D01*
X911403Y676392D01*
X910898Y677148D01*
X910142Y677653D01*
X909250Y677831D01*
D02*
G37*
G36*
X1109000Y598081D02*
X1089000D01*
X1088108Y597903D01*
X1087352Y597398D01*
X1086847Y596642D01*
X1086683Y595818D01*
X1031317D01*
X1031153Y596642D01*
X1030648Y597398D01*
X1029892Y597903D01*
X1029000Y598081D01*
X1009000D01*
X1008108Y597903D01*
X1007352Y597398D01*
X1006847Y596642D01*
X1006669Y595750D01*
Y584750D01*
X1006847Y583858D01*
X1007352Y583102D01*
X1008108Y582597D01*
X1009000Y582419D01*
X1029000D01*
X1029892Y582597D01*
X1030648Y583102D01*
X1031153Y583858D01*
X1031317Y584682D01*
X1086683D01*
X1086847Y583858D01*
X1087352Y583102D01*
X1088108Y582597D01*
X1089000Y582419D01*
X1109000D01*
X1109892Y582597D01*
X1110648Y583102D01*
X1111153Y583858D01*
X1111331Y584750D01*
Y595750D01*
X1111153Y596642D01*
X1110648Y597398D01*
X1109892Y597903D01*
X1109000Y598081D01*
D02*
G37*
G36*
X1229000D02*
X1209000D01*
X1208108Y597903D01*
X1207352Y597398D01*
X1206847Y596642D01*
X1206683Y595818D01*
X1151317D01*
X1151153Y596642D01*
X1150648Y597398D01*
X1149892Y597903D01*
X1149000Y598081D01*
X1129000D01*
X1128108Y597903D01*
X1127352Y597398D01*
X1126847Y596642D01*
X1126669Y595750D01*
Y584750D01*
X1126847Y583858D01*
X1127352Y583102D01*
X1128108Y582597D01*
X1129000Y582419D01*
X1149000D01*
X1149892Y582597D01*
X1150648Y583102D01*
X1151153Y583858D01*
X1151317Y584682D01*
X1206683D01*
X1206847Y583858D01*
X1207352Y583102D01*
X1208108Y582597D01*
X1209000Y582419D01*
X1229000D01*
X1229892Y582597D01*
X1230648Y583102D01*
X1231153Y583858D01*
X1231331Y584750D01*
Y595750D01*
X1231153Y596642D01*
X1230648Y597398D01*
X1229892Y597903D01*
X1229000Y598081D01*
D02*
G37*
G36*
X1643270Y540878D02*
Y535270D01*
X1648878D01*
X1648805Y535823D01*
X1648101Y537523D01*
X1646982Y538982D01*
X1645523Y540101D01*
X1643823Y540805D01*
X1643270Y540878D01*
D02*
G37*
G36*
X1526730Y537878D02*
X1526177Y537805D01*
X1524477Y537101D01*
X1523018Y535982D01*
X1521899Y534523D01*
X1521195Y532823D01*
X1521122Y532270D01*
X1526730D01*
Y537878D01*
D02*
G37*
G36*
X1529270D02*
Y532270D01*
X1534878D01*
X1534805Y532823D01*
X1534101Y534523D01*
X1532982Y535982D01*
X1531523Y537101D01*
X1529823Y537805D01*
X1529270Y537878D01*
D02*
G37*
G36*
X1640730Y540878D02*
X1640177Y540805D01*
X1638477Y540101D01*
X1637018Y538982D01*
X1635899Y537523D01*
X1635195Y535823D01*
X1635122Y535270D01*
X1640730D01*
Y540878D01*
D02*
G37*
G36*
X1349000Y598081D02*
X1329000D01*
X1328108Y597903D01*
X1327352Y597398D01*
X1326847Y596642D01*
X1326683Y595818D01*
X1271317D01*
X1271153Y596642D01*
X1270648Y597398D01*
X1269892Y597903D01*
X1269000Y598081D01*
X1249000D01*
X1248108Y597903D01*
X1247352Y597398D01*
X1246847Y596642D01*
X1246669Y595750D01*
Y584750D01*
X1246847Y583858D01*
X1247352Y583102D01*
X1248108Y582597D01*
X1249000Y582419D01*
X1269000D01*
X1269892Y582597D01*
X1270648Y583102D01*
X1271153Y583858D01*
X1271317Y584682D01*
X1326683D01*
X1326847Y583858D01*
X1327352Y583102D01*
X1328108Y582597D01*
X1329000Y582419D01*
X1349000D01*
X1349892Y582597D01*
X1350648Y583102D01*
X1351153Y583858D01*
X1351331Y584750D01*
Y595750D01*
X1351153Y596642D01*
X1350648Y597398D01*
X1349892Y597903D01*
X1349000Y598081D01*
D02*
G37*
G36*
X1231590Y622980D02*
X1219000D01*
X1206410D01*
Y618750D01*
X1206607Y617759D01*
X1207169Y616919D01*
X1208009Y616357D01*
X1208458Y616268D01*
Y614973D01*
X1208108Y614903D01*
X1207352Y614398D01*
X1206847Y613642D01*
X1206683Y612818D01*
X1151317D01*
X1151153Y613642D01*
X1150648Y614398D01*
X1149892Y614903D01*
X1149000Y615081D01*
X1129000D01*
X1128108Y614903D01*
X1127352Y614398D01*
X1126847Y613642D01*
X1126669Y612750D01*
Y601750D01*
X1126847Y600858D01*
X1127352Y600102D01*
X1128108Y599597D01*
X1129000Y599419D01*
X1149000D01*
X1149892Y599597D01*
X1150648Y600102D01*
X1151153Y600858D01*
X1151317Y601682D01*
X1206683D01*
X1206847Y600858D01*
X1207352Y600102D01*
X1208108Y599597D01*
X1209000Y599419D01*
X1229000D01*
X1229892Y599597D01*
X1230648Y600102D01*
X1231153Y600858D01*
X1231331Y601750D01*
Y612750D01*
X1231153Y613642D01*
X1230648Y614398D01*
X1229892Y614903D01*
X1229541Y614973D01*
Y616268D01*
X1229991Y616357D01*
X1230831Y616919D01*
X1231393Y617759D01*
X1231590Y618750D01*
Y622980D01*
D02*
G37*
G36*
X1351590D02*
X1339000D01*
X1326410D01*
Y618750D01*
X1326607Y617759D01*
X1327169Y616919D01*
X1328009Y616357D01*
X1328459Y616268D01*
Y614973D01*
X1328108Y614903D01*
X1327352Y614398D01*
X1326847Y613642D01*
X1326683Y612818D01*
X1271317D01*
X1271153Y613642D01*
X1270648Y614398D01*
X1269892Y614903D01*
X1269000Y615081D01*
X1249000D01*
X1248108Y614903D01*
X1247352Y614398D01*
X1246847Y613642D01*
X1246669Y612750D01*
Y601750D01*
X1246847Y600858D01*
X1247352Y600102D01*
X1248108Y599597D01*
X1249000Y599419D01*
X1269000D01*
X1269892Y599597D01*
X1270648Y600102D01*
X1271153Y600858D01*
X1271317Y601682D01*
X1326683D01*
X1326847Y600858D01*
X1327352Y600102D01*
X1328108Y599597D01*
X1329000Y599419D01*
X1349000D01*
X1349892Y599597D01*
X1350648Y600102D01*
X1351153Y600858D01*
X1351331Y601750D01*
Y612750D01*
X1351153Y613642D01*
X1350648Y614398D01*
X1349892Y614903D01*
X1349541Y614973D01*
Y616268D01*
X1349991Y616357D01*
X1350831Y616919D01*
X1351393Y617759D01*
X1351590Y618750D01*
Y622980D01*
D02*
G37*
G36*
X1471590D02*
X1459000D01*
X1446410D01*
Y618750D01*
X1446607Y617759D01*
X1447169Y616919D01*
X1448009Y616357D01*
X1448459Y616268D01*
Y614973D01*
X1448108Y614903D01*
X1447352Y614398D01*
X1446847Y613642D01*
X1446683Y612818D01*
X1391317D01*
X1391153Y613642D01*
X1390648Y614398D01*
X1389892Y614903D01*
X1389000Y615081D01*
X1369000D01*
X1368108Y614903D01*
X1367352Y614398D01*
X1366847Y613642D01*
X1366669Y612750D01*
Y601750D01*
X1366847Y600858D01*
X1367352Y600102D01*
X1368108Y599597D01*
X1369000Y599419D01*
X1389000D01*
X1389892Y599597D01*
X1390648Y600102D01*
X1391153Y600858D01*
X1391317Y601682D01*
X1446683D01*
X1446847Y600858D01*
X1447352Y600102D01*
X1448108Y599597D01*
X1449000Y599419D01*
X1469000D01*
X1469892Y599597D01*
X1470648Y600102D01*
X1471153Y600858D01*
X1471331Y601750D01*
Y612750D01*
X1471153Y613642D01*
X1470648Y614398D01*
X1469892Y614903D01*
X1469541Y614973D01*
Y616268D01*
X1469991Y616357D01*
X1470831Y616919D01*
X1471393Y617759D01*
X1471590Y618750D01*
Y622980D01*
D02*
G37*
G36*
X1111590D02*
X1099000D01*
X1086410D01*
Y618750D01*
X1086607Y617759D01*
X1087169Y616919D01*
X1088009Y616357D01*
X1088458Y616268D01*
Y614973D01*
X1088108Y614903D01*
X1087352Y614398D01*
X1086847Y613642D01*
X1086683Y612818D01*
X1031317D01*
X1031153Y613642D01*
X1030648Y614398D01*
X1029892Y614903D01*
X1029000Y615081D01*
X1009000D01*
X1008108Y614903D01*
X1007352Y614398D01*
X1006847Y613642D01*
X1006669Y612750D01*
Y601750D01*
X1006847Y600858D01*
X1007352Y600102D01*
X1008108Y599597D01*
X1009000Y599419D01*
X1029000D01*
X1029892Y599597D01*
X1030648Y600102D01*
X1031153Y600858D01*
X1031317Y601682D01*
X1086683D01*
X1086847Y600858D01*
X1087352Y600102D01*
X1088108Y599597D01*
X1089000Y599419D01*
X1109000D01*
X1109892Y599597D01*
X1110648Y600102D01*
X1111153Y600858D01*
X1111331Y601750D01*
Y612750D01*
X1111153Y613642D01*
X1110648Y614398D01*
X1109892Y614903D01*
X1109541Y614973D01*
Y616268D01*
X1109991Y616357D01*
X1110831Y616919D01*
X1111393Y617759D01*
X1111590Y618750D01*
Y622980D01*
D02*
G37*
G36*
X1469000Y598081D02*
X1449000D01*
X1448108Y597903D01*
X1447352Y597398D01*
X1446847Y596642D01*
X1446683Y595818D01*
X1391317D01*
X1391153Y596642D01*
X1390648Y597398D01*
X1389892Y597903D01*
X1389000Y598081D01*
X1369000D01*
X1368108Y597903D01*
X1367352Y597398D01*
X1366847Y596642D01*
X1366669Y595750D01*
Y584750D01*
X1366847Y583858D01*
X1367352Y583102D01*
X1368108Y582597D01*
X1369000Y582419D01*
X1389000D01*
X1389892Y582597D01*
X1390648Y583102D01*
X1391153Y583858D01*
X1391317Y584682D01*
X1446683D01*
X1446847Y583858D01*
X1447352Y583102D01*
X1448108Y582597D01*
X1449000Y582419D01*
X1469000D01*
X1469892Y582597D01*
X1470648Y583102D01*
X1471153Y583858D01*
X1471331Y584750D01*
Y595750D01*
X1471153Y596642D01*
X1470648Y597398D01*
X1469892Y597903D01*
X1469000Y598081D01*
D02*
G37*
G36*
X1579750Y677831D02*
X1568750D01*
X1567858Y677653D01*
X1567102Y677148D01*
X1566597Y676392D01*
X1566419Y675500D01*
Y655500D01*
X1566597Y654608D01*
X1567102Y653852D01*
X1567858Y653347D01*
X1568682Y653183D01*
Y621556D01*
X1542944Y595818D01*
X1511317D01*
X1511153Y596642D01*
X1510648Y597398D01*
X1509892Y597903D01*
X1509000Y598081D01*
X1489000D01*
X1488108Y597903D01*
X1487352Y597398D01*
X1486847Y596642D01*
X1486669Y595750D01*
Y584750D01*
X1486847Y583858D01*
X1487352Y583102D01*
X1488108Y582597D01*
X1489000Y582419D01*
X1509000D01*
X1509892Y582597D01*
X1510648Y583102D01*
X1511153Y583858D01*
X1511317Y584682D01*
X1545250D01*
X1547381Y585106D01*
X1549187Y586313D01*
X1578187Y615313D01*
X1579394Y617119D01*
X1579818Y619250D01*
Y653183D01*
X1580642Y653347D01*
X1581398Y653852D01*
X1581903Y654608D01*
X1582081Y655500D01*
Y675500D01*
X1581903Y676392D01*
X1581398Y677148D01*
X1580642Y677653D01*
X1579750Y677831D01*
D02*
G37*
G36*
X926250D02*
X915250D01*
X914358Y677653D01*
X913602Y677148D01*
X913097Y676392D01*
X912919Y675500D01*
Y655500D01*
X913097Y654608D01*
X913602Y653852D01*
X914358Y653347D01*
X915182Y653183D01*
Y632250D01*
X915606Y630119D01*
X916813Y628313D01*
X941813Y603313D01*
X943619Y602106D01*
X945750Y601682D01*
X966683D01*
X966847Y600858D01*
X967352Y600102D01*
X968108Y599597D01*
X969000Y599419D01*
X989000D01*
X989892Y599597D01*
X990648Y600102D01*
X991153Y600858D01*
X991331Y601750D01*
Y612750D01*
X991153Y613642D01*
X990648Y614398D01*
X989892Y614903D01*
X989541Y614973D01*
Y616268D01*
X989991Y616357D01*
X990831Y616919D01*
X991393Y617759D01*
X991590Y618750D01*
Y622980D01*
X979000D01*
X966410D01*
Y618750D01*
X966607Y617759D01*
X967169Y616919D01*
X968009Y616357D01*
X968458Y616268D01*
Y614973D01*
X968108Y614903D01*
X967352Y614398D01*
X966847Y613642D01*
X966683Y612818D01*
X948056D01*
X926318Y634556D01*
Y653183D01*
X927142Y653347D01*
X927898Y653852D01*
X928403Y654608D01*
X928581Y655500D01*
Y675500D01*
X928403Y676392D01*
X927898Y677148D01*
X927142Y677653D01*
X926250Y677831D01*
D02*
G37*
G36*
X1614000Y469879D02*
X1611184Y469508D01*
X1608560Y468422D01*
X1606307Y466693D01*
X1604579Y464440D01*
X1603492Y461816D01*
X1603121Y459000D01*
X1603492Y456184D01*
X1604579Y453560D01*
X1606307Y451307D01*
X1608560Y449579D01*
X1611184Y448492D01*
X1614000Y448121D01*
X1616816Y448492D01*
X1619440Y449579D01*
X1621693Y451307D01*
X1623421Y453560D01*
X1624508Y456184D01*
X1624879Y459000D01*
X1624508Y461816D01*
X1623421Y464440D01*
X1621693Y466693D01*
X1619440Y468422D01*
X1616816Y469508D01*
X1614000Y469879D01*
D02*
G37*
G36*
X1399550Y472816D02*
X1396734Y472445D01*
X1394111Y471358D01*
X1391858Y469629D01*
X1390129Y467376D01*
X1389042Y464752D01*
X1388671Y461937D01*
X1389042Y459121D01*
X1390129Y456497D01*
X1391858Y454244D01*
X1394111Y452515D01*
X1396734Y451428D01*
X1399550Y451058D01*
X1402366Y451428D01*
X1404990Y452515D01*
X1407243Y454244D01*
X1408972Y456497D01*
X1410059Y459121D01*
X1410429Y461937D01*
X1410059Y464752D01*
X1408972Y467376D01*
X1407243Y469629D01*
X1404990Y471358D01*
X1402366Y472445D01*
X1399550Y472816D01*
D02*
G37*
G36*
X1424550D02*
X1421734Y472445D01*
X1419111Y471358D01*
X1416858Y469629D01*
X1415129Y467376D01*
X1414042Y464752D01*
X1413671Y461937D01*
X1414042Y459121D01*
X1415129Y456497D01*
X1416858Y454244D01*
X1419111Y452515D01*
X1421734Y451428D01*
X1424550Y451058D01*
X1427366Y451428D01*
X1429990Y452515D01*
X1432243Y454244D01*
X1433972Y456497D01*
X1435059Y459121D01*
X1435429Y461937D01*
X1435059Y464752D01*
X1433972Y467376D01*
X1432243Y469629D01*
X1429990Y471358D01*
X1427366Y472445D01*
X1424550Y472816D01*
D02*
G37*
G36*
X1589000Y469879D02*
X1586184Y469508D01*
X1583560Y468422D01*
X1581307Y466693D01*
X1579579Y464440D01*
X1578492Y461816D01*
X1578121Y459000D01*
X1578492Y456184D01*
X1579579Y453560D01*
X1581307Y451307D01*
X1583560Y449579D01*
X1586184Y448492D01*
X1589000Y448121D01*
X1591816Y448492D01*
X1594440Y449579D01*
X1596693Y451307D01*
X1598421Y453560D01*
X1599508Y456184D01*
X1599879Y459000D01*
X1599508Y461816D01*
X1598421Y464440D01*
X1596693Y466693D01*
X1594440Y468422D01*
X1591816Y469508D01*
X1589000Y469879D01*
D02*
G37*
G36*
X779000Y487894D02*
X774631Y487463D01*
X770430Y486189D01*
X766559Y484120D01*
X763165Y481335D01*
X760380Y477941D01*
X758311Y474070D01*
X757037Y469869D01*
X756606Y465500D01*
X757037Y461131D01*
X758311Y456930D01*
X760380Y453059D01*
X763165Y449665D01*
X766559Y446880D01*
X770430Y444811D01*
X774631Y443536D01*
X779000Y443106D01*
X783369Y443536D01*
X787570Y444811D01*
X791441Y446880D01*
X794835Y449665D01*
X797620Y453059D01*
X799689Y456930D01*
X800964Y461131D01*
X801394Y465500D01*
X800964Y469869D01*
X799689Y474070D01*
X797620Y477941D01*
X794835Y481335D01*
X791441Y484120D01*
X787570Y486189D01*
X783369Y487463D01*
X779000Y487894D01*
D02*
G37*
G36*
X1699000D02*
X1694631Y487463D01*
X1690430Y486189D01*
X1686559Y484120D01*
X1683165Y481335D01*
X1680380Y477941D01*
X1678311Y474070D01*
X1677036Y469869D01*
X1676606Y465500D01*
X1677036Y461131D01*
X1678311Y456930D01*
X1680380Y453059D01*
X1683165Y449665D01*
X1686559Y446880D01*
X1690430Y444811D01*
X1694631Y443536D01*
X1699000Y443106D01*
X1703369Y443536D01*
X1707570Y444811D01*
X1711441Y446880D01*
X1714835Y449665D01*
X1717620Y453059D01*
X1719689Y456930D01*
X1720963Y461131D01*
X1721394Y465500D01*
X1720963Y469869D01*
X1719689Y474070D01*
X1717620Y477941D01*
X1714835Y481335D01*
X1711441Y484120D01*
X1707570Y486189D01*
X1703369Y487463D01*
X1699000Y487894D01*
D02*
G37*
G36*
X1564000Y469879D02*
X1561184Y469508D01*
X1558560Y468422D01*
X1556307Y466693D01*
X1554579Y464440D01*
X1553492Y461816D01*
X1553121Y459000D01*
X1553492Y456184D01*
X1554579Y453560D01*
X1556307Y451307D01*
X1558560Y449579D01*
X1561184Y448492D01*
X1564000Y448121D01*
X1566816Y448492D01*
X1569440Y449579D01*
X1571693Y451307D01*
X1573421Y453560D01*
X1574508Y456184D01*
X1574879Y459000D01*
X1574508Y461816D01*
X1573421Y464440D01*
X1571693Y466693D01*
X1569440Y468422D01*
X1566816Y469508D01*
X1564000Y469879D01*
D02*
G37*
G36*
X1489730Y526730D02*
X1482200D01*
X1482339Y525679D01*
X1483235Y523517D01*
X1484660Y521660D01*
X1486517Y520235D01*
X1488679Y519339D01*
X1489730Y519201D01*
Y526730D01*
D02*
G37*
G36*
X1648878Y532730D02*
X1643270D01*
Y527122D01*
X1643823Y527195D01*
X1645523Y527899D01*
X1646982Y529018D01*
X1648101Y530477D01*
X1648805Y532177D01*
X1648878Y532730D01*
D02*
G37*
G36*
X1489730Y536800D02*
X1488679Y536661D01*
X1486517Y535765D01*
X1484660Y534340D01*
X1483235Y532483D01*
X1482339Y530321D01*
X1482200Y529270D01*
X1489730D01*
Y536800D01*
D02*
G37*
G36*
X1492270D02*
Y529270D01*
X1499799D01*
X1499661Y530321D01*
X1498765Y532483D01*
X1497340Y534340D01*
X1495483Y535765D01*
X1493321Y536661D01*
X1492270Y536800D01*
D02*
G37*
G36*
X1640730Y532730D02*
X1635122D01*
X1635195Y532177D01*
X1635899Y530477D01*
X1637018Y529018D01*
X1638477Y527899D01*
X1640177Y527195D01*
X1640730Y527122D01*
Y532730D01*
D02*
G37*
G36*
X1499799Y526730D02*
X1492270D01*
Y519201D01*
X1493321Y519339D01*
X1495483Y520235D01*
X1497340Y521660D01*
X1498765Y523517D01*
X1499661Y525679D01*
X1499799Y526730D01*
D02*
G37*
G36*
X1526730Y529730D02*
X1521122D01*
X1521195Y529177D01*
X1521899Y527477D01*
X1523018Y526018D01*
X1524477Y524899D01*
X1526177Y524195D01*
X1526730Y524122D01*
Y529730D01*
D02*
G37*
G36*
X1534878D02*
X1529270D01*
Y524122D01*
X1529823Y524195D01*
X1531523Y524899D01*
X1532982Y526018D01*
X1534101Y527477D01*
X1534805Y529177D01*
X1534878Y529730D01*
D02*
G37*
G36*
X1475878Y647730D02*
X1470270D01*
Y642122D01*
X1470823Y642195D01*
X1472523Y642899D01*
X1473982Y644018D01*
X1475101Y645477D01*
X1475805Y647177D01*
X1475878Y647730D01*
D02*
G37*
G36*
X977730Y653800D02*
X976679Y653661D01*
X974517Y652765D01*
X972660Y651340D01*
X971235Y649483D01*
X970339Y647321D01*
X970201Y646270D01*
X977730D01*
Y653800D01*
D02*
G37*
G36*
X980270D02*
Y646270D01*
X987800D01*
X987661Y647321D01*
X986765Y649483D01*
X985340Y651340D01*
X983483Y652765D01*
X981321Y653661D01*
X980270Y653800D01*
D02*
G37*
G36*
X1467730Y647730D02*
X1462122D01*
X1462195Y647177D01*
X1462899Y645477D01*
X1464018Y644018D01*
X1465477Y642899D01*
X1467177Y642195D01*
X1467730Y642122D01*
Y647730D01*
D02*
G37*
G36*
X1229000Y632340D02*
X1220270D01*
Y625520D01*
X1231590D01*
Y629750D01*
X1231393Y630741D01*
X1230831Y631581D01*
X1229991Y632143D01*
X1229000Y632340D01*
D02*
G37*
G36*
X977730Y643730D02*
X970201D01*
X970339Y642679D01*
X971235Y640517D01*
X972660Y638660D01*
X974517Y637235D01*
X976679Y636339D01*
X977730Y636200D01*
Y643730D01*
D02*
G37*
G36*
X987800D02*
X980270D01*
Y636200D01*
X981321Y636339D01*
X983483Y637235D01*
X985340Y638660D01*
X986765Y640517D01*
X987661Y642679D01*
X987800Y643730D01*
D02*
G37*
G36*
X1107730Y652730D02*
X1102122D01*
X1102195Y652177D01*
X1102899Y650477D01*
X1104018Y649018D01*
X1105477Y647899D01*
X1107177Y647195D01*
X1107730Y647122D01*
Y652730D01*
D02*
G37*
G36*
X1470270Y655878D02*
Y650270D01*
X1475878D01*
X1475805Y650823D01*
X1475101Y652523D01*
X1473982Y653982D01*
X1472523Y655101D01*
X1470823Y655805D01*
X1470270Y655878D01*
D02*
G37*
G36*
X1347730Y657730D02*
X1342122D01*
X1342195Y657177D01*
X1342899Y655477D01*
X1344018Y654018D01*
X1345477Y652899D01*
X1347177Y652195D01*
X1347730Y652122D01*
Y657730D01*
D02*
G37*
G36*
X1355878D02*
X1350270D01*
Y652122D01*
X1350823Y652195D01*
X1352523Y652899D01*
X1353982Y654018D01*
X1355101Y655477D01*
X1355805Y657177D01*
X1355878Y657730D01*
D02*
G37*
G36*
X1467730Y655878D02*
X1467177Y655805D01*
X1465477Y655101D01*
X1464018Y653982D01*
X1462899Y652523D01*
X1462195Y650823D01*
X1462122Y650270D01*
X1467730D01*
Y655878D01*
D02*
G37*
G36*
X1115878Y652730D02*
X1110270D01*
Y647122D01*
X1110823Y647195D01*
X1112523Y647899D01*
X1113982Y649018D01*
X1115101Y650477D01*
X1115805Y652177D01*
X1115878Y652730D01*
D02*
G37*
G36*
X1226730Y653730D02*
X1221122D01*
X1221195Y653177D01*
X1221899Y651477D01*
X1223018Y650018D01*
X1224477Y648899D01*
X1226177Y648195D01*
X1226730Y648122D01*
Y653730D01*
D02*
G37*
G36*
X1234878D02*
X1229270D01*
Y648122D01*
X1229823Y648195D01*
X1231523Y648899D01*
X1232982Y650018D01*
X1234101Y651477D01*
X1234805Y653177D01*
X1234878Y653730D01*
D02*
G37*
G36*
X1379000Y665789D02*
X1377243Y665558D01*
X1375605Y664880D01*
X1374199Y663801D01*
X1373121Y662395D01*
X1372442Y660757D01*
X1372211Y659000D01*
X1372442Y657243D01*
X1373121Y655605D01*
X1374079Y654356D01*
Y632081D01*
X1369000D01*
X1368108Y631903D01*
X1367352Y631398D01*
X1366847Y630642D01*
X1366669Y629750D01*
Y618750D01*
X1366847Y617858D01*
X1367352Y617102D01*
X1368108Y616597D01*
X1369000Y616419D01*
X1389000D01*
X1389892Y616597D01*
X1390648Y617102D01*
X1391153Y617858D01*
X1391331Y618750D01*
Y629750D01*
X1391153Y630642D01*
X1390648Y631398D01*
X1389892Y631903D01*
X1389000Y632081D01*
X1383920D01*
Y654356D01*
X1384879Y655605D01*
X1385558Y657243D01*
X1385789Y659000D01*
X1385558Y660757D01*
X1384879Y662395D01*
X1383801Y663801D01*
X1382395Y664880D01*
X1380757Y665558D01*
X1379000Y665789D01*
D02*
G37*
G36*
X1499000Y655789D02*
X1497243Y655558D01*
X1495605Y654880D01*
X1494199Y653801D01*
X1493121Y652394D01*
X1492442Y650757D01*
X1492211Y649000D01*
X1492442Y647243D01*
X1493121Y645605D01*
X1494079Y644356D01*
Y632081D01*
X1489000D01*
X1488108Y631903D01*
X1487352Y631398D01*
X1486847Y630642D01*
X1486669Y629750D01*
Y618750D01*
X1486847Y617858D01*
X1487352Y617102D01*
X1488108Y616597D01*
X1489000Y616419D01*
X1509000D01*
X1509892Y616597D01*
X1510648Y617102D01*
X1511153Y617858D01*
X1511331Y618750D01*
Y629750D01*
X1511153Y630642D01*
X1510648Y631398D01*
X1509892Y631903D01*
X1509000Y632081D01*
X1503920D01*
Y644356D01*
X1504879Y645605D01*
X1505558Y647243D01*
X1505789Y649000D01*
X1505558Y650757D01*
X1504879Y652394D01*
X1503801Y653801D01*
X1502395Y654880D01*
X1500757Y655558D01*
X1499000Y655789D01*
D02*
G37*
G36*
X1217730Y632340D02*
X1209000D01*
X1208009Y632143D01*
X1207169Y631581D01*
X1206607Y630741D01*
X1206410Y629750D01*
Y625520D01*
X1217730D01*
Y632340D01*
D02*
G37*
G36*
X1259000Y662789D02*
X1257243Y662558D01*
X1255605Y661880D01*
X1254199Y660801D01*
X1253120Y659395D01*
X1252442Y657757D01*
X1252211Y656000D01*
X1252442Y654243D01*
X1253120Y652606D01*
X1254080Y651356D01*
Y632081D01*
X1249000D01*
X1248108Y631903D01*
X1247352Y631398D01*
X1246847Y630642D01*
X1246669Y629750D01*
Y618750D01*
X1246847Y617858D01*
X1247352Y617102D01*
X1248108Y616597D01*
X1249000Y616419D01*
X1269000D01*
X1269892Y616597D01*
X1270648Y617102D01*
X1271153Y617858D01*
X1271331Y618750D01*
Y629750D01*
X1271153Y630642D01*
X1270648Y631398D01*
X1269892Y631903D01*
X1269000Y632081D01*
X1263921D01*
Y651356D01*
X1264880Y652606D01*
X1265558Y654243D01*
X1265789Y656000D01*
X1265558Y657757D01*
X1264880Y659395D01*
X1263801Y660801D01*
X1262394Y661880D01*
X1260757Y662558D01*
X1259000Y662789D01*
D02*
G37*
G36*
X1545750Y678090D02*
X1541520D01*
Y665500D01*
Y652910D01*
X1545750D01*
X1546741Y653107D01*
X1547581Y653669D01*
X1548143Y654509D01*
X1548232Y654958D01*
X1549527D01*
X1549597Y654608D01*
X1550102Y653852D01*
X1550858Y653347D01*
X1551682Y653183D01*
Y629556D01*
X1534944Y612818D01*
X1511317D01*
X1511153Y613642D01*
X1510648Y614398D01*
X1509892Y614903D01*
X1509000Y615081D01*
X1489000D01*
X1488108Y614903D01*
X1487352Y614398D01*
X1486847Y613642D01*
X1486669Y612750D01*
Y601750D01*
X1486847Y600858D01*
X1487352Y600102D01*
X1488108Y599597D01*
X1489000Y599419D01*
X1509000D01*
X1509892Y599597D01*
X1510648Y600102D01*
X1511153Y600858D01*
X1511317Y601682D01*
X1537250D01*
X1539381Y602106D01*
X1541187Y603313D01*
X1561187Y623313D01*
X1562394Y625119D01*
X1562818Y627250D01*
Y653183D01*
X1563642Y653347D01*
X1564398Y653852D01*
X1564903Y654608D01*
X1565081Y655500D01*
Y675500D01*
X1564903Y676392D01*
X1564398Y677148D01*
X1563642Y677653D01*
X1562750Y677831D01*
X1551750D01*
X1550858Y677653D01*
X1550102Y677148D01*
X1549597Y676392D01*
X1549527Y676041D01*
X1548232D01*
X1548143Y676491D01*
X1547581Y677331D01*
X1546741Y677893D01*
X1545750Y678090D01*
D02*
G37*
G36*
X1019000Y654710D02*
X1016746Y654414D01*
X1014645Y653543D01*
X1012841Y652159D01*
X1011456Y650355D01*
X1010586Y648254D01*
X1010290Y646000D01*
X1010586Y643746D01*
X1011456Y641645D01*
X1012841Y639841D01*
X1014080Y638890D01*
Y632081D01*
X1009000D01*
X1008108Y631903D01*
X1007352Y631398D01*
X1006847Y630642D01*
X1006669Y629750D01*
Y618750D01*
X1006847Y617858D01*
X1007352Y617102D01*
X1008108Y616597D01*
X1009000Y616419D01*
X1029000D01*
X1029892Y616597D01*
X1030648Y617102D01*
X1031153Y617858D01*
X1031331Y618750D01*
Y629750D01*
X1031153Y630642D01*
X1030648Y631398D01*
X1029892Y631903D01*
X1029000Y632081D01*
X1023921D01*
Y638890D01*
X1025159Y639841D01*
X1026544Y641645D01*
X1027414Y643746D01*
X1027710Y646000D01*
X1027414Y648254D01*
X1026544Y650355D01*
X1025159Y652159D01*
X1023355Y653543D01*
X1021254Y654414D01*
X1019000Y654710D01*
D02*
G37*
G36*
X1139000Y660789D02*
X1137243Y660558D01*
X1135605Y659880D01*
X1134199Y658801D01*
X1133120Y657394D01*
X1132442Y655757D01*
X1132211Y654000D01*
X1132442Y652243D01*
X1133120Y650605D01*
X1134080Y649356D01*
Y632081D01*
X1129000D01*
X1128108Y631903D01*
X1127352Y631398D01*
X1126847Y630642D01*
X1126669Y629750D01*
Y618750D01*
X1126847Y617858D01*
X1127352Y617102D01*
X1128108Y616597D01*
X1129000Y616419D01*
X1149000D01*
X1149892Y616597D01*
X1150648Y617102D01*
X1151153Y617858D01*
X1151331Y618750D01*
Y629750D01*
X1151153Y630642D01*
X1150648Y631398D01*
X1149892Y631903D01*
X1149000Y632081D01*
X1143921D01*
Y649356D01*
X1144880Y650605D01*
X1145558Y652243D01*
X1145789Y654000D01*
X1145558Y655757D01*
X1144880Y657394D01*
X1143801Y658801D01*
X1142395Y659880D01*
X1140757Y660558D01*
X1139000Y660789D01*
D02*
G37*
G36*
X977730Y632340D02*
X969000D01*
X968009Y632143D01*
X967169Y631581D01*
X966607Y630741D01*
X966410Y629750D01*
Y625520D01*
X977730D01*
Y632340D01*
D02*
G37*
G36*
X1469000D02*
X1460270D01*
Y625520D01*
X1471590D01*
Y629750D01*
X1471393Y630741D01*
X1470831Y631581D01*
X1469991Y632143D01*
X1469000Y632340D01*
D02*
G37*
G36*
X989000D02*
X980270D01*
Y625520D01*
X991590D01*
Y629750D01*
X991393Y630741D01*
X990831Y631581D01*
X989991Y632143D01*
X989000Y632340D01*
D02*
G37*
G36*
X1349000D02*
X1340270D01*
Y625520D01*
X1351590D01*
Y629750D01*
X1351393Y630741D01*
X1350831Y631581D01*
X1349991Y632143D01*
X1349000Y632340D01*
D02*
G37*
G36*
X1109000D02*
X1100270D01*
Y625520D01*
X1111590D01*
Y629750D01*
X1111393Y630741D01*
X1110831Y631581D01*
X1109991Y632143D01*
X1109000Y632340D01*
D02*
G37*
G36*
X1337730D02*
X1329000D01*
X1328009Y632143D01*
X1327169Y631581D01*
X1326607Y630741D01*
X1326410Y629750D01*
Y625520D01*
X1337730D01*
Y632340D01*
D02*
G37*
G36*
X1457730D02*
X1449000D01*
X1448009Y632143D01*
X1447169Y631581D01*
X1446607Y630741D01*
X1446410Y629750D01*
Y625520D01*
X1457730D01*
Y632340D01*
D02*
G37*
G36*
X1097730D02*
X1089000D01*
X1088009Y632143D01*
X1087169Y631581D01*
X1086607Y630741D01*
X1086410Y629750D01*
Y625520D01*
X1097730D01*
Y632340D01*
D02*
G37*
G36*
X1017730Y1225480D02*
X1006410D01*
Y1221250D01*
X1006607Y1220259D01*
X1007169Y1219419D01*
X1008009Y1218857D01*
X1009000Y1218660D01*
X1017730D01*
Y1225480D01*
D02*
G37*
G36*
X1031590D02*
X1020270D01*
Y1218660D01*
X1029000D01*
X1029991Y1218857D01*
X1030831Y1219419D01*
X1031393Y1220259D01*
X1031590Y1221250D01*
Y1225480D01*
D02*
G37*
G36*
X1151590D02*
X1140270D01*
Y1218660D01*
X1149000D01*
X1149991Y1218857D01*
X1150831Y1219419D01*
X1151393Y1220259D01*
X1151590Y1221250D01*
Y1225480D01*
D02*
G37*
G36*
X1377730D02*
X1366410D01*
Y1221250D01*
X1366599Y1220301D01*
X1366604Y1220252D01*
X1365963Y1218937D01*
X1364966Y1218805D01*
X1363266Y1218101D01*
X1361807Y1216982D01*
X1360688Y1215523D01*
X1359984Y1213823D01*
X1359911Y1213270D01*
X1373667D01*
X1373594Y1213823D01*
X1372890Y1215523D01*
X1371771Y1216982D01*
X1371239Y1217390D01*
X1371670Y1218660D01*
X1377730D01*
Y1225480D01*
D02*
G37*
G36*
X1229000Y1234581D02*
X1209000D01*
X1208108Y1234403D01*
X1207352Y1233898D01*
X1206847Y1233142D01*
X1206669Y1232250D01*
Y1221250D01*
X1206847Y1220358D01*
X1207352Y1219602D01*
X1208108Y1219097D01*
X1209000Y1218919D01*
X1219872D01*
X1229271Y1209521D01*
X1230867Y1208454D01*
X1232218Y1208185D01*
X1233605Y1207121D01*
X1235243Y1206442D01*
X1237000Y1206211D01*
X1238757Y1206442D01*
X1240395Y1207121D01*
X1241801Y1208199D01*
X1242879Y1209605D01*
X1243558Y1211243D01*
X1243789Y1213000D01*
X1243558Y1214757D01*
X1242879Y1216395D01*
X1241801Y1217801D01*
X1240395Y1218879D01*
X1238757Y1219558D01*
X1237000Y1219789D01*
X1235243Y1219558D01*
X1233764Y1218945D01*
X1231331Y1221378D01*
Y1232250D01*
X1231153Y1233142D01*
X1230648Y1233898D01*
X1229892Y1234403D01*
X1229000Y1234581D01*
D02*
G37*
G36*
X951730Y1218878D02*
X951177Y1218805D01*
X949477Y1218101D01*
X948018Y1216982D01*
X946899Y1215523D01*
X946195Y1213823D01*
X946122Y1213270D01*
X951730D01*
Y1218878D01*
D02*
G37*
G36*
X954270D02*
Y1213270D01*
X959878D01*
X959805Y1213823D01*
X959101Y1215523D01*
X957982Y1216982D01*
X956523Y1218101D01*
X954823Y1218805D01*
X954270Y1218878D01*
D02*
G37*
G36*
X1257730Y1225480D02*
X1246410D01*
Y1221250D01*
X1246607Y1220259D01*
X1247169Y1219419D01*
X1248009Y1218857D01*
X1249000Y1218660D01*
X1257730D01*
Y1225480D01*
D02*
G37*
G36*
X1063000Y1234789D02*
X1061243Y1234558D01*
X1059605Y1233879D01*
X1058199Y1232801D01*
X1057121Y1231395D01*
X1056442Y1229757D01*
X1056211Y1228000D01*
X1056442Y1226243D01*
X1057121Y1224605D01*
X1058199Y1223199D01*
X1059605Y1222121D01*
X1061243Y1221442D01*
X1063000Y1221211D01*
X1064757Y1221442D01*
X1065873Y1221904D01*
X1066250Y1221830D01*
X1086669D01*
Y1221250D01*
X1086847Y1220358D01*
X1087352Y1219602D01*
X1088108Y1219097D01*
X1089000Y1218919D01*
X1109000D01*
X1109892Y1219097D01*
X1110648Y1219602D01*
X1111153Y1220358D01*
X1111331Y1221250D01*
Y1232250D01*
X1111153Y1233142D01*
X1110648Y1233898D01*
X1109892Y1234403D01*
X1109000Y1234581D01*
X1089000D01*
X1088108Y1234403D01*
X1087352Y1233898D01*
X1086847Y1233142D01*
X1086669Y1232250D01*
Y1231671D01*
X1068668D01*
X1067801Y1232801D01*
X1066395Y1233879D01*
X1064757Y1234558D01*
X1063000Y1234789D01*
D02*
G37*
G36*
X1119000Y1225730D02*
X1113392D01*
X1113465Y1225177D01*
X1114169Y1223477D01*
X1115288Y1222018D01*
X1116747Y1220899D01*
X1118447Y1220195D01*
X1119000Y1220122D01*
Y1225730D01*
D02*
G37*
G36*
X1519730D02*
X1514122D01*
X1514195Y1225177D01*
X1514899Y1223477D01*
X1516018Y1222018D01*
X1517477Y1220899D01*
X1519177Y1220195D01*
X1519730Y1220122D01*
Y1225730D01*
D02*
G37*
G36*
X1511590Y1225480D02*
X1500270D01*
Y1218660D01*
X1509000D01*
X1509991Y1218857D01*
X1510831Y1219419D01*
X1511393Y1220259D01*
X1511590Y1221250D01*
Y1225480D01*
D02*
G37*
G36*
X1271590D02*
X1260270D01*
Y1218660D01*
X1269000D01*
X1269991Y1218857D01*
X1270831Y1219419D01*
X1271393Y1220259D01*
X1271590Y1221250D01*
Y1225480D01*
D02*
G37*
G36*
X1391590D02*
X1380270D01*
Y1218660D01*
X1389000D01*
X1389991Y1218857D01*
X1390831Y1219419D01*
X1391393Y1220259D01*
X1391590Y1221250D01*
Y1225480D01*
D02*
G37*
G36*
X1497730D02*
X1486410D01*
Y1221250D01*
X1486607Y1220259D01*
X1487169Y1219419D01*
X1488009Y1218857D01*
X1489000Y1218660D01*
X1497730D01*
Y1225480D01*
D02*
G37*
G36*
X945840Y1184230D02*
X939020D01*
Y1172910D01*
X943250D01*
X944241Y1173107D01*
X945081Y1173669D01*
X945643Y1174509D01*
X945840Y1175500D01*
Y1184230D01*
D02*
G37*
G36*
X1533101Y1219267D02*
X1531344Y1219035D01*
X1529707Y1218357D01*
X1528301Y1217278D01*
X1527222Y1215872D01*
X1526544Y1214234D01*
X1526312Y1212477D01*
X1526544Y1210720D01*
X1527222Y1209083D01*
X1528301Y1207677D01*
X1529707Y1206598D01*
X1531344Y1205920D01*
X1532906Y1205714D01*
X1535329Y1203291D01*
Y1197831D01*
X1534750D01*
X1533858Y1197653D01*
X1533102Y1197148D01*
X1532597Y1196392D01*
X1532419Y1195500D01*
Y1175500D01*
X1532597Y1174608D01*
X1533102Y1173852D01*
X1533858Y1173347D01*
X1534750Y1173169D01*
X1545750D01*
X1546642Y1173347D01*
X1547398Y1173852D01*
X1547903Y1174608D01*
X1548081Y1175500D01*
Y1195500D01*
X1547903Y1196392D01*
X1547398Y1197148D01*
X1546642Y1197653D01*
X1545750Y1197831D01*
X1545170D01*
Y1205329D01*
X1544796Y1207212D01*
X1543729Y1208808D01*
X1539865Y1212673D01*
X1539659Y1214234D01*
X1538981Y1215872D01*
X1537902Y1217278D01*
X1536496Y1218357D01*
X1534859Y1219035D01*
X1533101Y1219267D01*
D02*
G37*
G36*
X1509000Y1251581D02*
X1489000D01*
X1488108Y1251403D01*
X1487352Y1250898D01*
X1486847Y1250142D01*
X1486669Y1249250D01*
Y1238250D01*
X1486847Y1237358D01*
X1487352Y1236602D01*
X1488108Y1236097D01*
X1488459Y1236027D01*
Y1234732D01*
X1488009Y1234643D01*
X1487169Y1234081D01*
X1486607Y1233241D01*
X1486410Y1232250D01*
Y1228020D01*
X1511590D01*
Y1232250D01*
X1511393Y1233241D01*
X1510831Y1234081D01*
X1509991Y1234643D01*
X1509541Y1234732D01*
Y1236027D01*
X1509892Y1236097D01*
X1510648Y1236602D01*
X1511153Y1237358D01*
X1511317Y1238182D01*
X1536944D01*
X1551682Y1223444D01*
Y1197817D01*
X1550858Y1197653D01*
X1550102Y1197148D01*
X1549597Y1196392D01*
X1549419Y1195500D01*
Y1175500D01*
X1549597Y1174608D01*
X1550102Y1173852D01*
X1550858Y1173347D01*
X1551750Y1173169D01*
X1562750D01*
X1563642Y1173347D01*
X1564398Y1173852D01*
X1564903Y1174608D01*
X1565081Y1175500D01*
Y1195500D01*
X1564903Y1196392D01*
X1564398Y1197148D01*
X1563642Y1197653D01*
X1562818Y1197817D01*
Y1225750D01*
X1562394Y1227881D01*
X1561187Y1229687D01*
X1543187Y1247687D01*
X1541381Y1248894D01*
X1539250Y1249318D01*
X1511317D01*
X1511153Y1250142D01*
X1510648Y1250898D01*
X1509892Y1251403D01*
X1509000Y1251581D01*
D02*
G37*
G36*
X1633270Y1159878D02*
Y1154270D01*
X1638878D01*
X1638805Y1154823D01*
X1638101Y1156523D01*
X1636982Y1157982D01*
X1635523Y1159101D01*
X1633824Y1159805D01*
X1633270Y1159878D01*
D02*
G37*
G36*
X1638878Y1151730D02*
X1633270D01*
Y1146122D01*
X1633824Y1146195D01*
X1635523Y1146899D01*
X1636982Y1148018D01*
X1638101Y1149477D01*
X1638805Y1151177D01*
X1638878Y1151730D01*
D02*
G37*
G36*
X1538980Y1158090D02*
X1534750D01*
X1533759Y1157893D01*
X1532919Y1157331D01*
X1532357Y1156491D01*
X1532160Y1155500D01*
Y1146770D01*
X1538980D01*
Y1158090D01*
D02*
G37*
G36*
X1630730Y1159878D02*
X1630177Y1159805D01*
X1628477Y1159101D01*
X1627018Y1157982D01*
X1625899Y1156523D01*
X1625195Y1154823D01*
X1625122Y1154270D01*
X1630730D01*
Y1159878D01*
D02*
G37*
G36*
X1509000Y1268581D02*
X1489000D01*
X1488108Y1268403D01*
X1487352Y1267898D01*
X1486847Y1267142D01*
X1486669Y1266250D01*
Y1255250D01*
X1486847Y1254358D01*
X1487352Y1253602D01*
X1488108Y1253097D01*
X1489000Y1252919D01*
X1509000D01*
X1509892Y1253097D01*
X1510648Y1253602D01*
X1511153Y1254358D01*
X1511317Y1255182D01*
X1546944D01*
X1568682Y1233444D01*
Y1197817D01*
X1567858Y1197653D01*
X1567102Y1197148D01*
X1566597Y1196392D01*
X1566419Y1195500D01*
Y1175500D01*
X1566597Y1174608D01*
X1567102Y1173852D01*
X1567858Y1173347D01*
X1568750Y1173169D01*
X1579750D01*
X1580642Y1173347D01*
X1581398Y1173852D01*
X1581903Y1174608D01*
X1582081Y1175500D01*
Y1195500D01*
X1581903Y1196392D01*
X1581398Y1197148D01*
X1580642Y1197653D01*
X1579818Y1197817D01*
Y1235750D01*
X1579394Y1237881D01*
X1578187Y1239687D01*
X1553187Y1264687D01*
X1551381Y1265894D01*
X1549250Y1266318D01*
X1511317D01*
X1511153Y1267142D01*
X1510648Y1267898D01*
X1509892Y1268403D01*
X1509000Y1268581D01*
D02*
G37*
G36*
X1365519Y1210730D02*
X1359911D01*
X1359984Y1210176D01*
X1360688Y1208477D01*
X1361807Y1207018D01*
X1363266Y1205899D01*
X1364966Y1205195D01*
X1365519Y1205122D01*
Y1210730D01*
D02*
G37*
G36*
X1373667D02*
X1368059D01*
Y1205122D01*
X1368613Y1205195D01*
X1370312Y1205899D01*
X1371771Y1207018D01*
X1372890Y1208477D01*
X1373594Y1210176D01*
X1373667Y1210730D01*
D02*
G37*
G36*
X989000Y1234581D02*
X969000D01*
X968108Y1234403D01*
X967352Y1233898D01*
X966847Y1233142D01*
X966669Y1232250D01*
Y1221250D01*
X966847Y1220358D01*
X967352Y1219602D01*
X968108Y1219097D01*
X969000Y1218919D01*
X974080D01*
Y1216644D01*
X973120Y1215395D01*
X972442Y1213757D01*
X972211Y1212000D01*
X972442Y1210243D01*
X973120Y1208605D01*
X974199Y1207199D01*
X975605Y1206121D01*
X977243Y1205442D01*
X979000Y1205211D01*
X980757Y1205442D01*
X982394Y1206121D01*
X983801Y1207199D01*
X984880Y1208605D01*
X985558Y1210243D01*
X985789Y1212000D01*
X985558Y1213757D01*
X984880Y1215395D01*
X983921Y1216644D01*
Y1218919D01*
X989000D01*
X989892Y1219097D01*
X990648Y1219602D01*
X991153Y1220358D01*
X991331Y1221250D01*
Y1232250D01*
X991153Y1233142D01*
X990648Y1233898D01*
X989892Y1234403D01*
X989000Y1234581D01*
D02*
G37*
G36*
X959878Y1210730D02*
X954270D01*
Y1205122D01*
X954823Y1205195D01*
X956523Y1205899D01*
X957982Y1207018D01*
X959101Y1208477D01*
X959805Y1210176D01*
X959878Y1210730D01*
D02*
G37*
G36*
X943250Y1198090D02*
X939020D01*
Y1186770D01*
X945840D01*
Y1195500D01*
X945643Y1196491D01*
X945081Y1197331D01*
X944241Y1197893D01*
X943250Y1198090D01*
D02*
G37*
G36*
X1349000Y1234581D02*
X1329000D01*
X1328108Y1234403D01*
X1327352Y1233898D01*
X1326847Y1233142D01*
X1326669Y1232250D01*
Y1221250D01*
X1326847Y1220358D01*
X1327352Y1219602D01*
X1328108Y1219097D01*
X1329000Y1218919D01*
X1338080D01*
Y1214644D01*
X1337121Y1213394D01*
X1336442Y1211757D01*
X1336211Y1210000D01*
X1336442Y1208243D01*
X1337121Y1206606D01*
X1338199Y1205199D01*
X1339605Y1204120D01*
X1341243Y1203442D01*
X1343000Y1203211D01*
X1344757Y1203442D01*
X1346395Y1204120D01*
X1347801Y1205199D01*
X1348880Y1206606D01*
X1349558Y1208243D01*
X1349789Y1210000D01*
X1349558Y1211757D01*
X1348880Y1213394D01*
X1347921Y1214644D01*
Y1218919D01*
X1349000D01*
X1349892Y1219097D01*
X1350648Y1219602D01*
X1351153Y1220358D01*
X1351331Y1221250D01*
Y1232250D01*
X1351153Y1233142D01*
X1350648Y1233898D01*
X1349892Y1234403D01*
X1349000Y1234581D01*
D02*
G37*
G36*
X951730Y1210730D02*
X946122D01*
X946195Y1210176D01*
X946899Y1208477D01*
X948018Y1207018D01*
X949477Y1205899D01*
X951177Y1205195D01*
X951730Y1205122D01*
Y1210730D01*
D02*
G37*
G36*
X1206730Y1330730D02*
X1202037D01*
X1202258Y1329621D01*
X1203605Y1327605D01*
X1205621Y1326258D01*
X1206730Y1326037D01*
Y1330730D01*
D02*
G37*
G36*
X1213963D02*
X1209270D01*
Y1326037D01*
X1210378Y1326258D01*
X1212395Y1327605D01*
X1213742Y1329621D01*
X1213963Y1330730D01*
D02*
G37*
G36*
X1206730Y1337963D02*
X1205621Y1337742D01*
X1203605Y1336395D01*
X1202258Y1334379D01*
X1202037Y1333270D01*
X1206730D01*
Y1337963D01*
D02*
G37*
G36*
X1166270Y1312750D02*
Y1307270D01*
X1171750D01*
X1171682Y1307790D01*
X1170990Y1309459D01*
X1169891Y1310891D01*
X1168459Y1311991D01*
X1166790Y1312681D01*
X1166270Y1312750D01*
D02*
G37*
G36*
X1261730Y1283878D02*
X1261177Y1283805D01*
X1259477Y1283101D01*
X1258018Y1281982D01*
X1256899Y1280523D01*
X1256195Y1278823D01*
X1256122Y1278270D01*
X1261730D01*
Y1283878D01*
D02*
G37*
G36*
X1264270D02*
Y1278270D01*
X1269878D01*
X1269805Y1278823D01*
X1269101Y1280523D01*
X1267982Y1281982D01*
X1266523Y1283101D01*
X1264823Y1283805D01*
X1264270Y1283878D01*
D02*
G37*
G36*
X1163730Y1312750D02*
X1163210Y1312681D01*
X1161541Y1311991D01*
X1160109Y1310891D01*
X1159009Y1309459D01*
X1158318Y1307790D01*
X1158250Y1307270D01*
X1163730D01*
Y1312750D01*
D02*
G37*
G36*
X1209270Y1337963D02*
Y1333270D01*
X1213963D01*
X1213742Y1334379D01*
X1212395Y1336395D01*
X1210378Y1337742D01*
X1209270Y1337963D01*
D02*
G37*
G36*
X1574000Y1386879D02*
X1571184Y1386508D01*
X1568560Y1385421D01*
X1566307Y1383693D01*
X1564579Y1381440D01*
X1563492Y1378816D01*
X1563121Y1376000D01*
X1563492Y1373184D01*
X1564579Y1370560D01*
X1566307Y1368307D01*
X1568560Y1366579D01*
X1571184Y1365492D01*
X1574000Y1365121D01*
X1576816Y1365492D01*
X1579440Y1366579D01*
X1581693Y1368307D01*
X1583421Y1370560D01*
X1584508Y1373184D01*
X1584879Y1376000D01*
X1584508Y1378816D01*
X1583421Y1381440D01*
X1581693Y1383693D01*
X1579440Y1385421D01*
X1576816Y1386508D01*
X1574000Y1386879D01*
D02*
G37*
G36*
X848000Y1398392D02*
X844793Y1397970D01*
X841804Y1396732D01*
X839238Y1394763D01*
X837268Y1392196D01*
X836030Y1389207D01*
X835608Y1386000D01*
X836030Y1382793D01*
X837268Y1379804D01*
X839238Y1377238D01*
X841804Y1375268D01*
X844793Y1374030D01*
X848000Y1373608D01*
X851207Y1374030D01*
X854196Y1375268D01*
X856762Y1377238D01*
X858732Y1379804D01*
X859970Y1382793D01*
X860392Y1386000D01*
X859970Y1389207D01*
X858732Y1392196D01*
X856762Y1394763D01*
X854196Y1396732D01*
X851207Y1397970D01*
X848000Y1398392D01*
D02*
G37*
G36*
X888000D02*
X884793Y1397970D01*
X881804Y1396732D01*
X879238Y1394763D01*
X877268Y1392196D01*
X876030Y1389207D01*
X875608Y1386000D01*
X876030Y1382793D01*
X877268Y1379804D01*
X879238Y1377238D01*
X881804Y1375268D01*
X884793Y1374030D01*
X888000Y1373608D01*
X891207Y1374030D01*
X894196Y1375268D01*
X896762Y1377238D01*
X898732Y1379804D01*
X899970Y1382793D01*
X900392Y1386000D01*
X899970Y1389207D01*
X898732Y1392196D01*
X896762Y1394763D01*
X894196Y1396732D01*
X891207Y1397970D01*
X888000Y1398392D01*
D02*
G37*
G36*
X1549000Y1386879D02*
X1546184Y1386508D01*
X1543560Y1385421D01*
X1541307Y1383693D01*
X1539579Y1381440D01*
X1538492Y1378816D01*
X1538121Y1376000D01*
X1538492Y1373184D01*
X1539579Y1370560D01*
X1541307Y1368307D01*
X1543560Y1366579D01*
X1546184Y1365492D01*
X1549000Y1365121D01*
X1551816Y1365492D01*
X1554440Y1366579D01*
X1556693Y1368307D01*
X1558421Y1370560D01*
X1559508Y1373184D01*
X1559879Y1376000D01*
X1559508Y1378816D01*
X1558421Y1381440D01*
X1556693Y1383693D01*
X1554440Y1385421D01*
X1551816Y1386508D01*
X1549000Y1386879D01*
D02*
G37*
G36*
X779000Y1407894D02*
X774631Y1407464D01*
X770430Y1406189D01*
X766559Y1404120D01*
X763165Y1401335D01*
X760380Y1397941D01*
X758311Y1394070D01*
X757037Y1389869D01*
X756606Y1385500D01*
X757037Y1381131D01*
X758311Y1376930D01*
X760380Y1373059D01*
X763165Y1369665D01*
X766559Y1366880D01*
X770430Y1364811D01*
X774631Y1363537D01*
X779000Y1363106D01*
X783369Y1363537D01*
X787570Y1364811D01*
X791441Y1366880D01*
X794835Y1369665D01*
X797620Y1373059D01*
X799689Y1376930D01*
X800964Y1381131D01*
X801394Y1385500D01*
X800964Y1389869D01*
X799689Y1394070D01*
X797620Y1397941D01*
X794835Y1401335D01*
X791441Y1404120D01*
X787570Y1406189D01*
X783369Y1407464D01*
X779000Y1407894D01*
D02*
G37*
G36*
X1699000D02*
X1694631Y1407464D01*
X1690430Y1406189D01*
X1686559Y1404120D01*
X1683165Y1401335D01*
X1680380Y1397941D01*
X1678311Y1394070D01*
X1677036Y1389869D01*
X1676606Y1385500D01*
X1677036Y1381131D01*
X1678311Y1376930D01*
X1680380Y1373059D01*
X1683165Y1369665D01*
X1686559Y1366880D01*
X1690430Y1364811D01*
X1694631Y1363537D01*
X1699000Y1363106D01*
X1703369Y1363537D01*
X1707570Y1364811D01*
X1711441Y1366880D01*
X1714835Y1369665D01*
X1717620Y1373059D01*
X1719689Y1376930D01*
X1720963Y1381131D01*
X1721394Y1385500D01*
X1720963Y1389869D01*
X1719689Y1394070D01*
X1717620Y1397941D01*
X1714835Y1401335D01*
X1711441Y1404120D01*
X1707570Y1406189D01*
X1703369Y1407464D01*
X1699000Y1407894D01*
D02*
G37*
G36*
X1378000Y1391920D02*
X1172959D01*
X1171076Y1391546D01*
X1169479Y1390479D01*
X1154521Y1375521D01*
X1153454Y1373924D01*
X1153080Y1372041D01*
Y1332151D01*
X1152497Y1331279D01*
X1152044Y1329000D01*
X1152497Y1326721D01*
X1153788Y1324788D01*
X1155721Y1323497D01*
X1158000Y1323044D01*
X1160279Y1323497D01*
X1162212Y1324788D01*
X1163503Y1326721D01*
X1163956Y1329000D01*
X1163503Y1331279D01*
X1162921Y1332151D01*
Y1336946D01*
X1163257Y1337071D01*
X1164191Y1337158D01*
X1164978Y1335978D01*
X1173736Y1327221D01*
X1172626Y1325559D01*
X1172172Y1323279D01*
X1172626Y1321000D01*
X1173917Y1319068D01*
X1175849Y1317776D01*
X1178129Y1317323D01*
X1180408Y1317776D01*
X1182341Y1319068D01*
X1183632Y1321000D01*
X1184085Y1323279D01*
X1183632Y1325559D01*
X1182402Y1327400D01*
Y1328871D01*
X1182077Y1330506D01*
X1181150Y1331893D01*
X1178108Y1334935D01*
X1178734Y1336105D01*
X1179044Y1336044D01*
X1181323Y1336497D01*
X1183255Y1337788D01*
X1184547Y1339721D01*
X1185000Y1342000D01*
X1184547Y1344279D01*
X1183964Y1345151D01*
Y1346005D01*
X1194305Y1356346D01*
X1194648Y1356295D01*
X1194880Y1356017D01*
X1195421Y1354897D01*
X1195044Y1353000D01*
X1195497Y1350721D01*
X1196788Y1348788D01*
X1198721Y1347497D01*
X1201000Y1347044D01*
X1203279Y1347497D01*
X1204151Y1348080D01*
X1220962D01*
X1241079Y1327962D01*
Y1325038D01*
X1230055Y1314014D01*
X1228885Y1314639D01*
X1228956Y1315000D01*
X1228503Y1317280D01*
X1227212Y1319212D01*
X1225279Y1320503D01*
X1223000Y1320957D01*
X1220721Y1320503D01*
X1218788Y1319212D01*
X1217497Y1317280D01*
X1217065Y1315108D01*
X1189978Y1288022D01*
X1189052Y1286635D01*
X1188727Y1285000D01*
Y1278109D01*
X1187906Y1277724D01*
X1187457Y1277671D01*
X1166982Y1298145D01*
X1167366Y1299557D01*
X1168459Y1300009D01*
X1169891Y1301109D01*
X1170990Y1302541D01*
X1171682Y1304210D01*
X1171750Y1304730D01*
X1158250D01*
X1158318Y1304210D01*
X1159009Y1302541D01*
X1159505Y1301896D01*
X1158879Y1300626D01*
X1109000D01*
X1109000Y1300626D01*
X1107613Y1300350D01*
X1106436Y1299564D01*
X1103691Y1296819D01*
X1103000Y1296956D01*
X1100721Y1296503D01*
X1098788Y1295212D01*
X1097497Y1293279D01*
X1097044Y1291000D01*
X1097497Y1288721D01*
X1098788Y1286788D01*
X1100721Y1285497D01*
X1103000Y1285043D01*
X1105279Y1285497D01*
X1107212Y1286788D01*
X1108503Y1288721D01*
X1108957Y1291000D01*
X1108819Y1291691D01*
X1110502Y1293374D01*
X1114739D01*
X1115124Y1292104D01*
X1113788Y1291212D01*
X1112497Y1289279D01*
X1112044Y1287000D01*
X1112497Y1284720D01*
X1113788Y1282788D01*
X1115210Y1281838D01*
X1114825Y1280568D01*
X1081524D01*
X1060288Y1301803D01*
Y1352414D01*
X1064556Y1356682D01*
X1066212Y1357788D01*
X1067503Y1359720D01*
X1067956Y1362000D01*
X1067503Y1364279D01*
X1066212Y1366212D01*
X1064279Y1367503D01*
X1062000Y1367956D01*
X1059721Y1367503D01*
X1057788Y1366212D01*
X1056682Y1364556D01*
X1050783Y1358658D01*
X1049576Y1356851D01*
X1049153Y1354720D01*
Y1301450D01*
X1048764Y1299497D01*
X1049218Y1297218D01*
X1050509Y1295285D01*
X1052164Y1294179D01*
X1075280Y1271063D01*
X1077087Y1269856D01*
X1079218Y1269432D01*
X1087362D01*
X1087747Y1268162D01*
X1087352Y1267898D01*
X1086847Y1267142D01*
X1086683Y1266318D01*
X1031317D01*
X1031153Y1267142D01*
X1030648Y1267898D01*
X1029892Y1268403D01*
X1029000Y1268581D01*
X1009000D01*
X1008108Y1268403D01*
X1007352Y1267898D01*
X1006847Y1267142D01*
X1006669Y1266250D01*
Y1255250D01*
X1006847Y1254358D01*
X1007352Y1253602D01*
X1008108Y1253097D01*
X1009000Y1252919D01*
X1029000D01*
X1029892Y1253097D01*
X1030648Y1253602D01*
X1031153Y1254358D01*
X1031317Y1255182D01*
X1086683D01*
X1086847Y1254358D01*
X1087352Y1253602D01*
X1088108Y1253097D01*
X1089000Y1252919D01*
X1109000D01*
X1109892Y1253097D01*
X1110648Y1253602D01*
X1111153Y1254358D01*
X1111331Y1255250D01*
Y1266250D01*
X1111153Y1267142D01*
X1110648Y1267898D01*
X1110253Y1268162D01*
X1110638Y1269432D01*
X1127362D01*
X1127747Y1268162D01*
X1127352Y1267898D01*
X1126847Y1267142D01*
X1126669Y1266250D01*
Y1255250D01*
X1126847Y1254358D01*
X1127352Y1253602D01*
X1128108Y1253097D01*
X1129000Y1252919D01*
X1149000D01*
X1149892Y1253097D01*
X1150648Y1253602D01*
X1151153Y1254358D01*
X1151331Y1255250D01*
Y1266250D01*
X1151153Y1267142D01*
X1150648Y1267898D01*
X1150253Y1268162D01*
X1150638Y1269432D01*
X1152694D01*
X1156432Y1265694D01*
Y1118504D01*
X1155745Y1118414D01*
X1153645Y1117543D01*
X1151841Y1116159D01*
X1150456Y1114355D01*
X1149586Y1112254D01*
X1149289Y1110000D01*
X1149586Y1107746D01*
X1150456Y1105645D01*
X1151841Y1103841D01*
X1153645Y1102456D01*
X1155745Y1101586D01*
X1158000Y1101290D01*
X1160254Y1101586D01*
X1162355Y1102456D01*
X1164159Y1103841D01*
X1165544Y1105645D01*
X1166414Y1107746D01*
X1166711Y1110000D01*
X1166576Y1111019D01*
X1167144Y1111869D01*
X1167568Y1114000D01*
Y1268000D01*
X1167144Y1270131D01*
X1165937Y1271937D01*
X1158937Y1278937D01*
X1157131Y1280144D01*
X1155000Y1280568D01*
X1121175D01*
X1120790Y1281838D01*
X1122212Y1282788D01*
X1122604Y1283374D01*
X1157498D01*
X1170727Y1270146D01*
Y1002000D01*
X1171052Y1000365D01*
X1171979Y998978D01*
X1173365Y998052D01*
X1173933Y997939D01*
X1212243Y959630D01*
X1211492Y957816D01*
X1211121Y955000D01*
X1211492Y952184D01*
X1212579Y949560D01*
X1214307Y947307D01*
X1216561Y945579D01*
X1219184Y944492D01*
X1222000Y944121D01*
X1224816Y944492D01*
X1227439Y945579D01*
X1229693Y947307D01*
X1231422Y949560D01*
X1232508Y952184D01*
X1232879Y955000D01*
X1232508Y957816D01*
X1231422Y960440D01*
X1229693Y962693D01*
X1227439Y964421D01*
X1224816Y965508D01*
X1222000Y965879D01*
X1219184Y965508D01*
X1217370Y964757D01*
X1179273Y1002854D01*
Y1271000D01*
X1178948Y1272635D01*
X1178022Y1274022D01*
X1176635Y1274948D01*
X1176067Y1275061D01*
X1161564Y1289564D01*
X1160387Y1290350D01*
X1159000Y1290626D01*
X1159000Y1290626D01*
X1122604D01*
X1122212Y1291212D01*
X1120876Y1292104D01*
X1121261Y1293374D01*
X1161498D01*
X1181374Y1273498D01*
Y1017000D01*
X1181374Y1017000D01*
X1181650Y1015612D01*
X1182436Y1014436D01*
X1212243Y984630D01*
X1211492Y982816D01*
X1211121Y980000D01*
X1211492Y977184D01*
X1212579Y974560D01*
X1214307Y972307D01*
X1216561Y970579D01*
X1219184Y969492D01*
X1222000Y969121D01*
X1224816Y969492D01*
X1227439Y970579D01*
X1229693Y972307D01*
X1231422Y974560D01*
X1232508Y977184D01*
X1232879Y980000D01*
X1232508Y982816D01*
X1231422Y985440D01*
X1229693Y987693D01*
X1227439Y989421D01*
X1224816Y990508D01*
X1222000Y990879D01*
X1219184Y990508D01*
X1217371Y989757D01*
X1188626Y1018502D01*
Y1250717D01*
X1189896Y1251102D01*
X1189978Y1250978D01*
X1200228Y1240728D01*
X1201615Y1239802D01*
X1203250Y1239477D01*
X1206669D01*
Y1238250D01*
X1206847Y1237358D01*
X1207352Y1236602D01*
X1208108Y1236097D01*
X1209000Y1235919D01*
X1229000D01*
X1229892Y1236097D01*
X1230648Y1236602D01*
X1231153Y1237358D01*
X1231331Y1238250D01*
Y1249250D01*
X1231153Y1250142D01*
X1230648Y1250898D01*
X1229892Y1251403D01*
X1229000Y1251581D01*
X1209000D01*
X1208108Y1251403D01*
X1207352Y1250898D01*
X1206847Y1250142D01*
X1206669Y1249250D01*
Y1248023D01*
X1205020D01*
X1197273Y1255770D01*
Y1283230D01*
X1222352Y1308309D01*
X1222528Y1308282D01*
X1222974Y1306932D01*
X1215521Y1299479D01*
X1214454Y1297883D01*
X1214080Y1296000D01*
Y1268581D01*
X1209000D01*
X1208108Y1268403D01*
X1207352Y1267898D01*
X1206847Y1267142D01*
X1206669Y1266250D01*
Y1255250D01*
X1206847Y1254358D01*
X1207352Y1253602D01*
X1208108Y1253097D01*
X1209000Y1252919D01*
X1229000D01*
X1229892Y1253097D01*
X1230648Y1253602D01*
X1231153Y1254358D01*
X1231331Y1255250D01*
Y1266250D01*
X1231153Y1267142D01*
X1230648Y1267898D01*
X1229892Y1268403D01*
X1229000Y1268581D01*
X1223921D01*
Y1293962D01*
X1241573Y1311614D01*
X1242521Y1311521D01*
X1248484Y1305558D01*
X1247674Y1304571D01*
X1246279Y1305503D01*
X1244000Y1305956D01*
X1241721Y1305503D01*
X1239788Y1304212D01*
X1238497Y1302279D01*
X1238044Y1300000D01*
X1238497Y1297720D01*
X1239788Y1295788D01*
X1241721Y1294497D01*
X1243892Y1294065D01*
X1247978Y1289978D01*
X1249365Y1289052D01*
X1251000Y1288727D01*
X1371000D01*
X1372635Y1289052D01*
X1374022Y1289978D01*
X1434123Y1350079D01*
X1557962D01*
X1668080Y1239962D01*
Y1098038D01*
X1633521Y1063479D01*
X1632454Y1061883D01*
X1632079Y1060000D01*
Y980151D01*
X1631497Y979279D01*
X1631044Y977000D01*
X1631497Y974721D01*
X1632788Y972788D01*
X1634721Y971497D01*
X1637000Y971043D01*
X1639279Y971497D01*
X1641212Y972788D01*
X1642503Y974721D01*
X1642957Y977000D01*
X1642503Y979279D01*
X1641920Y980151D01*
Y1057962D01*
X1676479Y1092521D01*
X1677546Y1094117D01*
X1677921Y1096000D01*
Y1242000D01*
X1677546Y1243883D01*
X1676479Y1245479D01*
X1563479Y1358479D01*
X1561883Y1359546D01*
X1560000Y1359921D01*
X1433000D01*
X1431117Y1359546D01*
X1429521Y1358479D01*
X1428454Y1356883D01*
X1428358Y1356401D01*
X1369230Y1297273D01*
X1365883D01*
X1365284Y1298393D01*
X1365503Y1298721D01*
X1365957Y1301000D01*
X1365503Y1303279D01*
X1364212Y1305212D01*
X1362279Y1306503D01*
X1361090Y1306740D01*
X1359883Y1307546D01*
X1358000Y1307921D01*
X1260038D01*
X1250920Y1317038D01*
Y1323000D01*
Y1330000D01*
X1250546Y1331883D01*
X1249479Y1333479D01*
X1227149Y1355809D01*
X1227675Y1357079D01*
X1229962D01*
X1273521Y1313521D01*
X1275117Y1312454D01*
X1277000Y1312079D01*
X1367426D01*
X1367497Y1311721D01*
X1368788Y1309788D01*
X1370721Y1308497D01*
X1373000Y1308044D01*
X1375279Y1308497D01*
X1377212Y1309788D01*
X1378503Y1311721D01*
X1378956Y1314000D01*
X1378503Y1316279D01*
X1377212Y1318212D01*
X1375279Y1319503D01*
X1374251Y1319708D01*
X1373479Y1320479D01*
X1371883Y1321546D01*
X1370000Y1321920D01*
X1279038D01*
X1235479Y1365479D01*
X1233883Y1366546D01*
X1232000Y1366920D01*
X1193000D01*
X1191117Y1366546D01*
X1189521Y1365479D01*
X1175564Y1351523D01*
X1174498Y1349927D01*
X1174123Y1348044D01*
Y1345298D01*
X1173543Y1344682D01*
X1172273Y1345185D01*
Y1362230D01*
X1181770Y1371727D01*
X1352230D01*
X1379411Y1344546D01*
X1379339Y1344000D01*
X1379566Y1342276D01*
X1380231Y1340670D01*
X1381290Y1339290D01*
X1382670Y1338231D01*
X1384276Y1337566D01*
X1386000Y1337339D01*
X1387724Y1337566D01*
X1389330Y1338231D01*
X1390710Y1339290D01*
X1391769Y1340670D01*
X1392434Y1342276D01*
X1392661Y1344000D01*
X1392434Y1345724D01*
X1391769Y1347330D01*
X1390710Y1348710D01*
X1389330Y1349769D01*
X1387724Y1350434D01*
X1386000Y1350661D01*
X1385454Y1350589D01*
X1357022Y1379021D01*
X1355635Y1379948D01*
X1354000Y1380273D01*
X1180000D01*
X1178365Y1379948D01*
X1176978Y1379021D01*
X1176978Y1379021D01*
X1164978Y1367021D01*
X1164191Y1365842D01*
X1163257Y1365929D01*
X1162921Y1366054D01*
Y1370003D01*
X1174997Y1382079D01*
X1375962D01*
X1388384Y1369657D01*
X1388566Y1368276D01*
X1389231Y1366669D01*
X1390290Y1365290D01*
X1391669Y1364231D01*
X1393276Y1363566D01*
X1395000Y1363339D01*
X1396724Y1363566D01*
X1398331Y1364231D01*
X1399710Y1365290D01*
X1400769Y1366669D01*
X1401434Y1368276D01*
X1401661Y1370000D01*
X1401434Y1371724D01*
X1400769Y1373331D01*
X1399710Y1374710D01*
X1398331Y1375769D01*
X1396724Y1376434D01*
X1395343Y1376616D01*
X1381479Y1390479D01*
X1379883Y1391546D01*
X1378000Y1391920D01*
D02*
G37*
G36*
X1469000Y1234581D02*
X1449000D01*
X1448108Y1234403D01*
X1447352Y1233898D01*
X1446847Y1233142D01*
X1446669Y1232250D01*
Y1230921D01*
X1441644D01*
X1440394Y1231880D01*
X1438757Y1232558D01*
X1437000Y1232789D01*
X1435243Y1232558D01*
X1433605Y1231880D01*
X1432199Y1230801D01*
X1431120Y1229395D01*
X1430442Y1227757D01*
X1430211Y1226000D01*
X1430442Y1224243D01*
X1431120Y1222606D01*
X1432199Y1221199D01*
X1433605Y1220120D01*
X1435243Y1219442D01*
X1437000Y1219211D01*
X1438757Y1219442D01*
X1440394Y1220120D01*
X1441644Y1221079D01*
X1446703D01*
X1446847Y1220358D01*
X1447352Y1219602D01*
X1448108Y1219097D01*
X1449000Y1218919D01*
X1469000D01*
X1469892Y1219097D01*
X1470648Y1219602D01*
X1471153Y1220358D01*
X1471331Y1221250D01*
Y1232250D01*
X1471153Y1233142D01*
X1470648Y1233898D01*
X1469892Y1234403D01*
X1469000Y1234581D01*
D02*
G37*
G36*
X1149000Y1251581D02*
X1129000D01*
X1128108Y1251403D01*
X1127352Y1250898D01*
X1126847Y1250142D01*
X1126669Y1249250D01*
Y1238250D01*
X1126847Y1237358D01*
X1127352Y1236602D01*
X1128108Y1236097D01*
X1128458Y1236027D01*
Y1234732D01*
X1128009Y1234643D01*
X1127169Y1234081D01*
X1126607Y1233241D01*
X1126459Y1232495D01*
X1125696Y1232147D01*
X1125140Y1232067D01*
X1123793Y1233101D01*
X1122093Y1233805D01*
X1121540Y1233878D01*
Y1227000D01*
Y1220122D01*
X1122093Y1220195D01*
X1123793Y1220899D01*
X1125140Y1221933D01*
X1125615Y1221838D01*
X1126410Y1221442D01*
Y1221250D01*
X1126607Y1220259D01*
X1127169Y1219419D01*
X1128009Y1218857D01*
X1129000Y1218660D01*
X1137730D01*
Y1226750D01*
X1139000D01*
Y1228020D01*
X1151590D01*
Y1232250D01*
X1151393Y1233241D01*
X1150831Y1234081D01*
X1149991Y1234643D01*
X1149541Y1234732D01*
Y1236027D01*
X1149892Y1236097D01*
X1150648Y1236602D01*
X1151153Y1237358D01*
X1151331Y1238250D01*
Y1249250D01*
X1151153Y1250142D01*
X1150648Y1250898D01*
X1149892Y1251403D01*
X1149000Y1251581D01*
D02*
G37*
G36*
X989000D02*
X969000D01*
X968108Y1251403D01*
X967352Y1250898D01*
X966847Y1250142D01*
X966683Y1249318D01*
X950750D01*
X948619Y1248894D01*
X946813Y1247687D01*
X916813Y1217687D01*
X915606Y1215881D01*
X915182Y1213750D01*
Y1197817D01*
X914358Y1197653D01*
X913602Y1197148D01*
X913097Y1196392D01*
X912919Y1195500D01*
Y1175500D01*
X913097Y1174608D01*
X913602Y1173852D01*
X914358Y1173347D01*
X915250Y1173169D01*
X926250D01*
X927142Y1173347D01*
X927898Y1173852D01*
X928403Y1174608D01*
X928473Y1174958D01*
X929768D01*
X929857Y1174509D01*
X930419Y1173669D01*
X931259Y1173107D01*
X932250Y1172910D01*
X936480D01*
Y1185500D01*
Y1198090D01*
X932250D01*
X931259Y1197893D01*
X930419Y1197331D01*
X929857Y1196491D01*
X929768Y1196041D01*
X928473D01*
X928403Y1196392D01*
X927898Y1197148D01*
X927142Y1197653D01*
X926318Y1197817D01*
Y1211444D01*
X953056Y1238182D01*
X966683D01*
X966847Y1237358D01*
X967352Y1236602D01*
X968108Y1236097D01*
X969000Y1235919D01*
X989000D01*
X989892Y1236097D01*
X990648Y1236602D01*
X991153Y1237358D01*
X991331Y1238250D01*
Y1249250D01*
X991153Y1250142D01*
X990648Y1250898D01*
X989892Y1251403D01*
X989000Y1251581D01*
D02*
G37*
G36*
X1522270Y1233878D02*
Y1228270D01*
X1527878D01*
X1527805Y1228823D01*
X1527101Y1230523D01*
X1525982Y1231982D01*
X1524523Y1233101D01*
X1522823Y1233805D01*
X1522270Y1233878D01*
D02*
G37*
G36*
X1527878Y1225730D02*
X1522270D01*
Y1220122D01*
X1522823Y1220195D01*
X1524523Y1220899D01*
X1525982Y1222018D01*
X1527101Y1223477D01*
X1527805Y1225177D01*
X1527878Y1225730D01*
D02*
G37*
G36*
X1119000Y1233878D02*
X1118447Y1233805D01*
X1116747Y1233101D01*
X1115288Y1231982D01*
X1114169Y1230523D01*
X1113465Y1228823D01*
X1113392Y1228270D01*
X1119000D01*
Y1233878D01*
D02*
G37*
G36*
X1519730D02*
X1519177Y1233805D01*
X1517477Y1233101D01*
X1516018Y1231982D01*
X1514899Y1230523D01*
X1514195Y1228823D01*
X1514122Y1228270D01*
X1519730D01*
Y1233878D01*
D02*
G37*
G36*
X1109000Y1251581D02*
X1089000D01*
X1088108Y1251403D01*
X1087352Y1250898D01*
X1086847Y1250142D01*
X1086683Y1249318D01*
X1031317D01*
X1031153Y1250142D01*
X1030648Y1250898D01*
X1029892Y1251403D01*
X1029000Y1251581D01*
X1009000D01*
X1008108Y1251403D01*
X1007352Y1250898D01*
X1006847Y1250142D01*
X1006669Y1249250D01*
Y1238250D01*
X1006847Y1237358D01*
X1007352Y1236602D01*
X1008108Y1236097D01*
X1008458Y1236027D01*
Y1234732D01*
X1008009Y1234643D01*
X1007169Y1234081D01*
X1006607Y1233241D01*
X1006410Y1232250D01*
Y1228020D01*
X1031590D01*
Y1232250D01*
X1031393Y1233241D01*
X1030831Y1234081D01*
X1029991Y1234643D01*
X1029541Y1234732D01*
Y1236027D01*
X1029892Y1236097D01*
X1030648Y1236602D01*
X1031153Y1237358D01*
X1031317Y1238182D01*
X1086683D01*
X1086847Y1237358D01*
X1087352Y1236602D01*
X1088108Y1236097D01*
X1089000Y1235919D01*
X1109000D01*
X1109892Y1236097D01*
X1110648Y1236602D01*
X1111153Y1237358D01*
X1111331Y1238250D01*
Y1249250D01*
X1111153Y1250142D01*
X1110648Y1250898D01*
X1109892Y1251403D01*
X1109000Y1251581D01*
D02*
G37*
G36*
X1469000Y1268581D02*
X1449000D01*
X1448108Y1268403D01*
X1447352Y1267898D01*
X1446847Y1267142D01*
X1446683Y1266318D01*
X1391317D01*
X1391153Y1267142D01*
X1390648Y1267898D01*
X1389892Y1268403D01*
X1389000Y1268581D01*
X1369000D01*
X1368108Y1268403D01*
X1367352Y1267898D01*
X1366847Y1267142D01*
X1366669Y1266250D01*
Y1255250D01*
X1366847Y1254358D01*
X1367352Y1253602D01*
X1368108Y1253097D01*
X1369000Y1252919D01*
X1389000D01*
X1389892Y1253097D01*
X1390648Y1253602D01*
X1391153Y1254358D01*
X1391317Y1255182D01*
X1446683D01*
X1446847Y1254358D01*
X1447352Y1253602D01*
X1448108Y1253097D01*
X1449000Y1252919D01*
X1469000D01*
X1469892Y1253097D01*
X1470648Y1253602D01*
X1471153Y1254358D01*
X1471331Y1255250D01*
Y1266250D01*
X1471153Y1267142D01*
X1470648Y1267898D01*
X1469892Y1268403D01*
X1469000Y1268581D01*
D02*
G37*
G36*
X1261730Y1275730D02*
X1256122D01*
X1256195Y1275177D01*
X1256899Y1273477D01*
X1258018Y1272018D01*
X1259477Y1270899D01*
X1261177Y1270195D01*
X1261730Y1270122D01*
Y1275730D01*
D02*
G37*
G36*
X1269878D02*
X1264270D01*
Y1270122D01*
X1264823Y1270195D01*
X1266523Y1270899D01*
X1267982Y1272018D01*
X1269101Y1273477D01*
X1269805Y1275177D01*
X1269878Y1275730D01*
D02*
G37*
G36*
X1349000Y1268581D02*
X1329000D01*
X1328108Y1268403D01*
X1327352Y1267898D01*
X1326847Y1267142D01*
X1326683Y1266318D01*
X1271317D01*
X1271153Y1267142D01*
X1270648Y1267898D01*
X1269892Y1268403D01*
X1269000Y1268581D01*
X1249000D01*
X1248108Y1268403D01*
X1247352Y1267898D01*
X1246847Y1267142D01*
X1246669Y1266250D01*
Y1255250D01*
X1246847Y1254358D01*
X1247352Y1253602D01*
X1248108Y1253097D01*
X1249000Y1252919D01*
X1269000D01*
X1269892Y1253097D01*
X1270648Y1253602D01*
X1271153Y1254358D01*
X1271317Y1255182D01*
X1326683D01*
X1326847Y1254358D01*
X1327352Y1253602D01*
X1328108Y1253097D01*
X1329000Y1252919D01*
X1349000D01*
X1349892Y1253097D01*
X1350648Y1253602D01*
X1351153Y1254358D01*
X1351331Y1255250D01*
Y1266250D01*
X1351153Y1267142D01*
X1350648Y1267898D01*
X1349892Y1268403D01*
X1349000Y1268581D01*
D02*
G37*
G36*
Y1251581D02*
X1329000D01*
X1328108Y1251403D01*
X1327352Y1250898D01*
X1326847Y1250142D01*
X1326683Y1249318D01*
X1271317D01*
X1271153Y1250142D01*
X1270648Y1250898D01*
X1269892Y1251403D01*
X1269000Y1251581D01*
X1249000D01*
X1248108Y1251403D01*
X1247352Y1250898D01*
X1246847Y1250142D01*
X1246669Y1249250D01*
Y1238250D01*
X1246847Y1237358D01*
X1247352Y1236602D01*
X1248108Y1236097D01*
X1248458Y1236027D01*
Y1234732D01*
X1248009Y1234643D01*
X1247169Y1234081D01*
X1246607Y1233241D01*
X1246410Y1232250D01*
Y1228020D01*
X1271590D01*
Y1232250D01*
X1271393Y1233241D01*
X1270831Y1234081D01*
X1269991Y1234643D01*
X1269541Y1234732D01*
Y1236027D01*
X1269892Y1236097D01*
X1270648Y1236602D01*
X1271153Y1237358D01*
X1271317Y1238182D01*
X1326683D01*
X1326847Y1237358D01*
X1327352Y1236602D01*
X1328108Y1236097D01*
X1329000Y1235919D01*
X1349000D01*
X1349892Y1236097D01*
X1350648Y1236602D01*
X1351153Y1237358D01*
X1351331Y1238250D01*
Y1249250D01*
X1351153Y1250142D01*
X1350648Y1250898D01*
X1349892Y1251403D01*
X1349000Y1251581D01*
D02*
G37*
G36*
X1469000D02*
X1449000D01*
X1448108Y1251403D01*
X1447352Y1250898D01*
X1446847Y1250142D01*
X1446683Y1249318D01*
X1391317D01*
X1391153Y1250142D01*
X1390648Y1250898D01*
X1389892Y1251403D01*
X1389000Y1251581D01*
X1369000D01*
X1368108Y1251403D01*
X1367352Y1250898D01*
X1366847Y1250142D01*
X1366669Y1249250D01*
Y1238250D01*
X1366847Y1237358D01*
X1367352Y1236602D01*
X1368108Y1236097D01*
X1368459Y1236027D01*
Y1234732D01*
X1368009Y1234643D01*
X1367169Y1234081D01*
X1366607Y1233241D01*
X1366410Y1232250D01*
Y1228020D01*
X1391590D01*
Y1232250D01*
X1391393Y1233241D01*
X1390831Y1234081D01*
X1389991Y1234643D01*
X1389541Y1234732D01*
Y1236027D01*
X1389892Y1236097D01*
X1390648Y1236602D01*
X1391153Y1237358D01*
X1391317Y1238182D01*
X1446683D01*
X1446847Y1237358D01*
X1447352Y1236602D01*
X1448108Y1236097D01*
X1449000Y1235919D01*
X1469000D01*
X1469892Y1236097D01*
X1470648Y1236602D01*
X1471153Y1237358D01*
X1471331Y1238250D01*
Y1249250D01*
X1471153Y1250142D01*
X1470648Y1250898D01*
X1469892Y1251403D01*
X1469000Y1251581D01*
D02*
G37*
G36*
X989000Y1268581D02*
X969000D01*
X968108Y1268403D01*
X967352Y1267898D01*
X966847Y1267142D01*
X966683Y1266318D01*
X938750D01*
X936619Y1265894D01*
X934813Y1264687D01*
X899813Y1229687D01*
X898606Y1227881D01*
X898182Y1225750D01*
Y1197817D01*
X897358Y1197653D01*
X896602Y1197148D01*
X896097Y1196392D01*
X895919Y1195500D01*
Y1175500D01*
X896097Y1174608D01*
X896602Y1173852D01*
X897358Y1173347D01*
X898250Y1173169D01*
X909250D01*
X910142Y1173347D01*
X910898Y1173852D01*
X911403Y1174608D01*
X911581Y1175500D01*
Y1195500D01*
X911403Y1196392D01*
X910898Y1197148D01*
X910142Y1197653D01*
X909318Y1197817D01*
Y1223444D01*
X941056Y1255182D01*
X966683D01*
X966847Y1254358D01*
X967352Y1253602D01*
X968108Y1253097D01*
X969000Y1252919D01*
X989000D01*
X989892Y1253097D01*
X990648Y1253602D01*
X991153Y1254358D01*
X991331Y1255250D01*
Y1266250D01*
X991153Y1267142D01*
X990648Y1267898D01*
X989892Y1268403D01*
X989000Y1268581D01*
D02*
G37*
G36*
X1630730Y1151730D02*
X1625122D01*
X1625195Y1151177D01*
X1625899Y1149477D01*
X1627018Y1148018D01*
X1628477Y1146899D01*
X1630177Y1146195D01*
X1630730Y1146122D01*
Y1151730D01*
D02*
G37*
G36*
X1112270Y1022800D02*
Y1015270D01*
X1119799D01*
X1119661Y1016321D01*
X1118765Y1018483D01*
X1117340Y1020340D01*
X1115483Y1021765D01*
X1113321Y1022661D01*
X1112270Y1022800D01*
D02*
G37*
G36*
X1074730Y1023800D02*
X1073679Y1023661D01*
X1071517Y1022765D01*
X1069660Y1021340D01*
X1068235Y1019483D01*
X1067339Y1017321D01*
X1067200Y1016270D01*
X1074730D01*
Y1023800D01*
D02*
G37*
G36*
X1077270D02*
Y1016270D01*
X1084799D01*
X1084661Y1017321D01*
X1083765Y1019483D01*
X1082340Y1021340D01*
X1080483Y1022765D01*
X1078321Y1023661D01*
X1077270Y1023800D01*
D02*
G37*
G36*
X1109730Y1022800D02*
X1108679Y1022661D01*
X1106517Y1021765D01*
X1104660Y1020340D01*
X1103235Y1018483D01*
X1102339Y1016321D01*
X1102200Y1015270D01*
X1109730D01*
Y1022800D01*
D02*
G37*
G36*
X1220730Y1015968D02*
X1219118Y1015756D01*
X1216432Y1014643D01*
X1214126Y1012874D01*
X1212357Y1010568D01*
X1211244Y1007882D01*
X1211032Y1006270D01*
X1220730D01*
Y1015968D01*
D02*
G37*
G36*
X1223270D02*
Y1006270D01*
X1232968D01*
X1232756Y1007882D01*
X1231643Y1010568D01*
X1229874Y1012874D01*
X1227568Y1014643D01*
X1224882Y1015756D01*
X1223270Y1015968D01*
D02*
G37*
G36*
X1538980Y1024230D02*
X1532160D01*
Y1015500D01*
X1532357Y1014509D01*
X1532919Y1013669D01*
X1533759Y1013107D01*
X1534750Y1012910D01*
X1538980D01*
Y1024230D01*
D02*
G37*
G36*
X1245730Y1028730D02*
X1236032D01*
X1236244Y1027118D01*
X1237357Y1024432D01*
X1239126Y1022126D01*
X1241432Y1020357D01*
X1244118Y1019244D01*
X1245730Y1019032D01*
Y1028730D01*
D02*
G37*
G36*
X1054070Y1033000D02*
X1046540D01*
Y1025471D01*
X1047591Y1025609D01*
X1049753Y1026505D01*
X1051610Y1027930D01*
X1053035Y1029787D01*
X1053931Y1031949D01*
X1054070Y1033000D01*
D02*
G37*
G36*
X1538980Y1038090D02*
X1534750D01*
X1533759Y1037893D01*
X1532919Y1037331D01*
X1532357Y1036491D01*
X1532160Y1035500D01*
Y1026770D01*
X1538980D01*
Y1038090D01*
D02*
G37*
G36*
X1515730Y1035730D02*
X1510122D01*
X1510195Y1035176D01*
X1510899Y1033477D01*
X1512018Y1032018D01*
X1513477Y1030899D01*
X1515177Y1030195D01*
X1515730Y1030122D01*
Y1035730D01*
D02*
G37*
G36*
X1044000Y1033000D02*
X1036470D01*
X1036609Y1031949D01*
X1037505Y1029787D01*
X1038930Y1027930D01*
X1040787Y1026505D01*
X1042949Y1025609D01*
X1044000Y1025471D01*
Y1033000D01*
D02*
G37*
G36*
X1257968Y1028730D02*
X1248270D01*
Y1019032D01*
X1249882Y1019244D01*
X1252568Y1020357D01*
X1254874Y1022126D01*
X1256643Y1024432D01*
X1257756Y1027118D01*
X1257968Y1028730D01*
D02*
G37*
G36*
X1222000Y1040879D02*
X1219184Y1040508D01*
X1216561Y1039421D01*
X1214307Y1037693D01*
X1212579Y1035440D01*
X1211492Y1032816D01*
X1211121Y1030000D01*
X1211492Y1027184D01*
X1212579Y1024560D01*
X1214307Y1022307D01*
X1216561Y1020579D01*
X1219184Y1019492D01*
X1222000Y1019121D01*
X1224816Y1019492D01*
X1227439Y1020579D01*
X1229693Y1022307D01*
X1231422Y1024560D01*
X1232508Y1027184D01*
X1232879Y1030000D01*
X1232508Y1032816D01*
X1231422Y1035440D01*
X1229693Y1037693D01*
X1227439Y1039421D01*
X1224816Y1040508D01*
X1222000Y1040879D01*
D02*
G37*
G36*
X943250Y1037831D02*
X932250D01*
X931358Y1037653D01*
X930602Y1037148D01*
X930097Y1036392D01*
X929919Y1035500D01*
Y1015500D01*
X930097Y1014608D01*
X930602Y1013852D01*
X931358Y1013347D01*
X932250Y1013169D01*
X943250D01*
X944142Y1013347D01*
X944898Y1013852D01*
X945403Y1014608D01*
X945581Y1015500D01*
Y1020579D01*
X985007D01*
X985605Y1020120D01*
X987243Y1019442D01*
X989000Y1019211D01*
X990757Y1019442D01*
X992395Y1020120D01*
X993801Y1021199D01*
X994880Y1022606D01*
X995558Y1024243D01*
X995789Y1026000D01*
X995558Y1027757D01*
X994880Y1029395D01*
X993801Y1030801D01*
X992395Y1031880D01*
X990757Y1032558D01*
X989000Y1032789D01*
X987243Y1032558D01*
X985605Y1031880D01*
X984199Y1030801D01*
X983908Y1030421D01*
X945581D01*
Y1035500D01*
X945403Y1036392D01*
X944898Y1037148D01*
X944142Y1037653D01*
X943250Y1037831D01*
D02*
G37*
G36*
X1247000Y965879D02*
X1244184Y965508D01*
X1241561Y964421D01*
X1239307Y962693D01*
X1237579Y960440D01*
X1236492Y957816D01*
X1236121Y955000D01*
X1236492Y952184D01*
X1237579Y949560D01*
X1239307Y947307D01*
X1241561Y945579D01*
X1244184Y944492D01*
X1247000Y944121D01*
X1249816Y944492D01*
X1252439Y945579D01*
X1254693Y947307D01*
X1256422Y949560D01*
X1257508Y952184D01*
X1257879Y955000D01*
X1257508Y957816D01*
X1256422Y960440D01*
X1254693Y962693D01*
X1252439Y964421D01*
X1249816Y965508D01*
X1247000Y965879D01*
D02*
G37*
G36*
X943250Y958090D02*
X939020D01*
Y946770D01*
X945840D01*
Y955500D01*
X945643Y956491D01*
X945081Y957331D01*
X944241Y957893D01*
X943250Y958090D01*
D02*
G37*
G36*
X1545750Y957831D02*
X1534750D01*
X1533858Y957653D01*
X1533102Y957148D01*
X1532597Y956392D01*
X1532419Y955500D01*
Y950421D01*
X1515144D01*
X1513895Y951379D01*
X1512257Y952058D01*
X1510500Y952289D01*
X1508743Y952058D01*
X1507105Y951379D01*
X1505699Y950301D01*
X1504621Y948895D01*
X1503942Y947257D01*
X1503711Y945500D01*
X1503942Y943743D01*
X1504621Y942105D01*
X1505699Y940699D01*
X1507105Y939621D01*
X1508743Y938942D01*
X1510500Y938711D01*
X1512257Y938942D01*
X1513895Y939621D01*
X1515144Y940580D01*
X1532419D01*
Y935500D01*
X1532597Y934608D01*
X1533102Y933852D01*
X1533858Y933347D01*
X1534750Y933169D01*
X1545750D01*
X1546642Y933347D01*
X1547398Y933852D01*
X1547903Y934608D01*
X1548081Y935500D01*
Y955500D01*
X1547903Y956392D01*
X1547398Y957148D01*
X1546642Y957653D01*
X1545750Y957831D01*
D02*
G37*
G36*
X961770Y943378D02*
Y937770D01*
X967378D01*
X967305Y938323D01*
X966601Y940023D01*
X965482Y941482D01*
X964023Y942601D01*
X962323Y943305D01*
X961770Y943378D01*
D02*
G37*
G36*
X1545750Y1038090D02*
X1541520D01*
Y1025500D01*
Y1012910D01*
X1545750D01*
X1546741Y1013107D01*
X1547581Y1013669D01*
X1548143Y1014509D01*
X1548232Y1014958D01*
X1549527D01*
X1549597Y1014608D01*
X1550102Y1013852D01*
X1550858Y1013347D01*
X1551682Y1013183D01*
Y957817D01*
X1550858Y957653D01*
X1550102Y957148D01*
X1549597Y956392D01*
X1549419Y955500D01*
Y935500D01*
X1549597Y934608D01*
X1550102Y933852D01*
X1550858Y933347D01*
X1551750Y933169D01*
X1562750D01*
X1563642Y933347D01*
X1564398Y933852D01*
X1564903Y934608D01*
X1565081Y935500D01*
Y955500D01*
X1564903Y956392D01*
X1564398Y957148D01*
X1563642Y957653D01*
X1562818Y957817D01*
Y1013183D01*
X1563642Y1013347D01*
X1564398Y1013852D01*
X1564903Y1014608D01*
X1565081Y1015500D01*
Y1035500D01*
X1564903Y1036392D01*
X1564398Y1037148D01*
X1563642Y1037653D01*
X1562750Y1037831D01*
X1551750D01*
X1550858Y1037653D01*
X1550102Y1037148D01*
X1549597Y1036392D01*
X1549527Y1036041D01*
X1548232D01*
X1548143Y1036491D01*
X1547581Y1037331D01*
X1546741Y1037893D01*
X1545750Y1038090D01*
D02*
G37*
G36*
X1579750Y1037831D02*
X1568750D01*
X1567858Y1037653D01*
X1567102Y1037148D01*
X1566597Y1036392D01*
X1566419Y1035500D01*
Y1015500D01*
X1566597Y1014608D01*
X1567102Y1013852D01*
X1567858Y1013347D01*
X1568682Y1013183D01*
Y957817D01*
X1567858Y957653D01*
X1567102Y957148D01*
X1566597Y956392D01*
X1566419Y955500D01*
Y935500D01*
X1566597Y934608D01*
X1567102Y933852D01*
X1567858Y933347D01*
X1568750Y933169D01*
X1579750D01*
X1580642Y933347D01*
X1581398Y933852D01*
X1581903Y934608D01*
X1582081Y935500D01*
Y955500D01*
X1581903Y956392D01*
X1581398Y957148D01*
X1580642Y957653D01*
X1579818Y957817D01*
Y1013183D01*
X1580642Y1013347D01*
X1581398Y1013852D01*
X1581903Y1014608D01*
X1582081Y1015500D01*
Y1035500D01*
X1581903Y1036392D01*
X1581398Y1037148D01*
X1580642Y1037653D01*
X1579750Y1037831D01*
D02*
G37*
G36*
X959230Y943378D02*
X958677Y943305D01*
X956977Y942601D01*
X955518Y941482D01*
X954399Y940023D01*
X953695Y938323D01*
X953622Y937770D01*
X959230D01*
Y943378D01*
D02*
G37*
G36*
X1303000Y1234957D02*
X1300721Y1234503D01*
X1298788Y1233212D01*
X1297497Y1231280D01*
X1297044Y1229000D01*
X1297497Y1226721D01*
X1298727Y1224880D01*
Y1008770D01*
X1274230Y984273D01*
X1256905D01*
X1256422Y985440D01*
X1254693Y987693D01*
X1252439Y989421D01*
X1249816Y990508D01*
X1247000Y990879D01*
X1244184Y990508D01*
X1241561Y989421D01*
X1239307Y987693D01*
X1237579Y985440D01*
X1236492Y982816D01*
X1236121Y980000D01*
X1236492Y977184D01*
X1237579Y974560D01*
X1239307Y972307D01*
X1241561Y970579D01*
X1244184Y969492D01*
X1247000Y969121D01*
X1249816Y969492D01*
X1252439Y970579D01*
X1254693Y972307D01*
X1256422Y974560D01*
X1256905Y975727D01*
X1276000D01*
X1277635Y976052D01*
X1279022Y976978D01*
X1306022Y1003978D01*
X1306022Y1003978D01*
X1306948Y1005365D01*
X1307273Y1007000D01*
X1307273Y1007000D01*
Y1224880D01*
X1308503Y1226721D01*
X1308956Y1229000D01*
X1308503Y1231280D01*
X1307212Y1233212D01*
X1305280Y1234503D01*
X1303000Y1234957D01*
D02*
G37*
G36*
X1119799Y1012730D02*
X1112270D01*
Y1005201D01*
X1113321Y1005339D01*
X1115483Y1006235D01*
X1117340Y1007660D01*
X1118765Y1009517D01*
X1119661Y1011679D01*
X1119799Y1012730D01*
D02*
G37*
G36*
X1074730Y1013730D02*
X1067200D01*
X1067339Y1012679D01*
X1068235Y1010517D01*
X1069660Y1008660D01*
X1071517Y1007235D01*
X1073679Y1006339D01*
X1074730Y1006200D01*
Y1013730D01*
D02*
G37*
G36*
X1084799D02*
X1077270D01*
Y1006200D01*
X1078321Y1006339D01*
X1080483Y1007235D01*
X1082340Y1008660D01*
X1083765Y1010517D01*
X1084661Y1012679D01*
X1084799Y1013730D01*
D02*
G37*
G36*
X1109730Y1012730D02*
X1102200D01*
X1102339Y1011679D01*
X1103235Y1009517D01*
X1104660Y1007660D01*
X1106517Y1006235D01*
X1108679Y1005339D01*
X1109730Y1005201D01*
Y1012730D01*
D02*
G37*
G36*
X1220730Y1003730D02*
X1211032D01*
X1211244Y1002118D01*
X1212357Y999432D01*
X1214126Y997126D01*
X1216432Y995357D01*
X1219118Y994244D01*
X1220730Y994032D01*
Y1003730D01*
D02*
G37*
G36*
X1232968D02*
X1223270D01*
Y994032D01*
X1224882Y994244D01*
X1227568Y995357D01*
X1229874Y997126D01*
X1231643Y999432D01*
X1232756Y1002118D01*
X1232968Y1003730D01*
D02*
G37*
G36*
X1247000Y1015879D02*
X1244184Y1015508D01*
X1241561Y1014421D01*
X1239307Y1012693D01*
X1237579Y1010440D01*
X1236492Y1007816D01*
X1236121Y1005000D01*
X1236492Y1002184D01*
X1237579Y999560D01*
X1239307Y997307D01*
X1241561Y995579D01*
X1244184Y994492D01*
X1247000Y994121D01*
X1249816Y994492D01*
X1252439Y995579D01*
X1254693Y997307D01*
X1256422Y999560D01*
X1257508Y1002184D01*
X1257879Y1005000D01*
X1257508Y1007816D01*
X1256422Y1010440D01*
X1254693Y1012693D01*
X1252439Y1014421D01*
X1249816Y1015508D01*
X1247000Y1015879D01*
D02*
G37*
G36*
X1579750Y1157831D02*
X1568750D01*
X1567858Y1157653D01*
X1567102Y1157148D01*
X1566597Y1156392D01*
X1566419Y1155500D01*
Y1135500D01*
X1566597Y1134608D01*
X1567102Y1133852D01*
X1567858Y1133347D01*
X1568682Y1133183D01*
Y1077817D01*
X1567858Y1077653D01*
X1567102Y1077148D01*
X1566597Y1076392D01*
X1566419Y1075500D01*
Y1055500D01*
X1566597Y1054608D01*
X1567102Y1053852D01*
X1567858Y1053347D01*
X1568750Y1053169D01*
X1579750D01*
X1580642Y1053347D01*
X1581398Y1053852D01*
X1581903Y1054608D01*
X1582081Y1055500D01*
Y1075500D01*
X1581903Y1076392D01*
X1581398Y1077148D01*
X1580642Y1077653D01*
X1579818Y1077817D01*
Y1133183D01*
X1580642Y1133347D01*
X1581398Y1133852D01*
X1581903Y1134608D01*
X1582081Y1135500D01*
Y1155500D01*
X1581903Y1156392D01*
X1581398Y1157148D01*
X1580642Y1157653D01*
X1579750Y1157831D01*
D02*
G37*
G36*
X1017730Y1066799D02*
X1016679Y1066661D01*
X1014517Y1065765D01*
X1012660Y1064340D01*
X1011235Y1062483D01*
X1010339Y1060321D01*
X1010201Y1059270D01*
X1017730D01*
Y1066799D01*
D02*
G37*
G36*
X1020270D02*
Y1059270D01*
X1027800D01*
X1027661Y1060321D01*
X1026765Y1062483D01*
X1025340Y1064340D01*
X1023483Y1065765D01*
X1021321Y1066661D01*
X1020270Y1066799D01*
D02*
G37*
G36*
X1545750Y1158090D02*
X1541520D01*
Y1145500D01*
Y1132910D01*
X1545750D01*
X1546741Y1133107D01*
X1547581Y1133669D01*
X1548143Y1134509D01*
X1548232Y1134958D01*
X1549527D01*
X1549597Y1134608D01*
X1550102Y1133852D01*
X1550858Y1133347D01*
X1551682Y1133183D01*
Y1077817D01*
X1550858Y1077653D01*
X1550102Y1077148D01*
X1549597Y1076392D01*
X1549419Y1075500D01*
Y1055500D01*
X1549597Y1054608D01*
X1550102Y1053852D01*
X1550858Y1053347D01*
X1551750Y1053169D01*
X1562750D01*
X1563642Y1053347D01*
X1564398Y1053852D01*
X1564903Y1054608D01*
X1565081Y1055500D01*
Y1075500D01*
X1564903Y1076392D01*
X1564398Y1077148D01*
X1563642Y1077653D01*
X1562818Y1077817D01*
Y1133183D01*
X1563642Y1133347D01*
X1564398Y1133852D01*
X1564903Y1134608D01*
X1565081Y1135500D01*
Y1155500D01*
X1564903Y1156392D01*
X1564398Y1157148D01*
X1563642Y1157653D01*
X1562750Y1157831D01*
X1551750D01*
X1550858Y1157653D01*
X1550102Y1157148D01*
X1549597Y1156392D01*
X1549527Y1156041D01*
X1548232D01*
X1548143Y1156491D01*
X1547581Y1157331D01*
X1546741Y1157893D01*
X1545750Y1158090D01*
D02*
G37*
G36*
X926250Y1157831D02*
X915250D01*
X914358Y1157653D01*
X913602Y1157148D01*
X913097Y1156392D01*
X912919Y1155500D01*
Y1135500D01*
X913097Y1134608D01*
X913602Y1133852D01*
X914358Y1133347D01*
X915182Y1133183D01*
Y1077817D01*
X914358Y1077653D01*
X913602Y1077148D01*
X913097Y1076392D01*
X912919Y1075500D01*
Y1055500D01*
X913097Y1054608D01*
X913602Y1053852D01*
X914358Y1053347D01*
X915250Y1053169D01*
X926250D01*
X927142Y1053347D01*
X927898Y1053852D01*
X928403Y1054608D01*
X928473Y1054958D01*
X929768D01*
X929857Y1054509D01*
X930419Y1053669D01*
X931259Y1053107D01*
X932250Y1052910D01*
X936480D01*
Y1065500D01*
Y1078090D01*
X932250D01*
X931259Y1077893D01*
X930419Y1077331D01*
X929857Y1076491D01*
X929768Y1076041D01*
X928473D01*
X928403Y1076392D01*
X927898Y1077148D01*
X927142Y1077653D01*
X926318Y1077817D01*
Y1133183D01*
X927142Y1133347D01*
X927898Y1133852D01*
X928403Y1134608D01*
X928581Y1135500D01*
Y1155500D01*
X928403Y1156392D01*
X927898Y1157148D01*
X927142Y1157653D01*
X926250Y1157831D01*
D02*
G37*
G36*
X945840Y1064230D02*
X939020D01*
Y1052910D01*
X943250D01*
X944241Y1053107D01*
X945081Y1053669D01*
X945643Y1054509D01*
X945840Y1055500D01*
Y1064230D01*
D02*
G37*
G36*
X909250Y1157831D02*
X898250D01*
X897358Y1157653D01*
X896602Y1157148D01*
X896097Y1156392D01*
X895919Y1155500D01*
Y1135500D01*
X896097Y1134608D01*
X896602Y1133852D01*
X897358Y1133347D01*
X898182Y1133183D01*
Y1077817D01*
X897358Y1077653D01*
X896602Y1077148D01*
X896097Y1076392D01*
X895919Y1075500D01*
Y1055500D01*
X896097Y1054608D01*
X896602Y1053852D01*
X897358Y1053347D01*
X898250Y1053169D01*
X909250D01*
X910142Y1053347D01*
X910898Y1053852D01*
X911403Y1054608D01*
X911581Y1055500D01*
Y1075500D01*
X911403Y1076392D01*
X910898Y1077148D01*
X910142Y1077653D01*
X909318Y1077817D01*
Y1133183D01*
X910142Y1133347D01*
X910898Y1133852D01*
X911403Y1134608D01*
X911581Y1135500D01*
Y1155500D01*
X911403Y1156392D01*
X910898Y1157148D01*
X910142Y1157653D01*
X909250Y1157831D01*
D02*
G37*
G36*
X1108730Y1068730D02*
X1101200D01*
X1101339Y1067679D01*
X1102235Y1065517D01*
X1103660Y1063660D01*
X1105517Y1062235D01*
X1107679Y1061339D01*
X1108730Y1061200D01*
Y1068730D01*
D02*
G37*
G36*
X1111270Y1078800D02*
Y1071270D01*
X1118800D01*
X1118661Y1072321D01*
X1117765Y1074483D01*
X1116340Y1076340D01*
X1114483Y1077765D01*
X1112321Y1078661D01*
X1111270Y1078800D01*
D02*
G37*
G36*
X943250Y1157831D02*
X932250D01*
X931358Y1157653D01*
X930602Y1157148D01*
X930097Y1156392D01*
X929919Y1155500D01*
Y1135500D01*
X930097Y1134608D01*
X930602Y1133852D01*
X931358Y1133347D01*
X932250Y1133169D01*
X934872D01*
X944237Y1123805D01*
X944442Y1122243D01*
X945120Y1120605D01*
X946199Y1119199D01*
X947606Y1118120D01*
X949243Y1117442D01*
X951000Y1117211D01*
X952757Y1117442D01*
X954395Y1118120D01*
X955801Y1119199D01*
X956880Y1120605D01*
X957558Y1122243D01*
X957789Y1124000D01*
X957558Y1125757D01*
X956880Y1127394D01*
X955801Y1128801D01*
X954395Y1129880D01*
X952757Y1130558D01*
X951195Y1130763D01*
X945581Y1136378D01*
Y1155500D01*
X945403Y1156392D01*
X944898Y1157148D01*
X944142Y1157653D01*
X943250Y1157831D01*
D02*
G37*
G36*
X1538980Y1144230D02*
X1532160D01*
Y1135500D01*
X1532357Y1134509D01*
X1532919Y1133669D01*
X1533759Y1133107D01*
X1534750Y1132910D01*
X1538980D01*
Y1144230D01*
D02*
G37*
G36*
X1108730Y1078800D02*
X1107679Y1078661D01*
X1105517Y1077765D01*
X1103660Y1076340D01*
X1102235Y1074483D01*
X1101339Y1072321D01*
X1101200Y1071270D01*
X1108730D01*
Y1078800D01*
D02*
G37*
G36*
X1118800Y1068730D02*
X1111270D01*
Y1061200D01*
X1112321Y1061339D01*
X1114483Y1062235D01*
X1116340Y1063660D01*
X1117765Y1065517D01*
X1118661Y1067679D01*
X1118800Y1068730D01*
D02*
G37*
G36*
X943250Y1078090D02*
X939020D01*
Y1066770D01*
X945840D01*
Y1075500D01*
X945643Y1076491D01*
X945081Y1077331D01*
X944241Y1077893D01*
X943250Y1078090D01*
D02*
G37*
G36*
X1545750Y1077831D02*
X1534750D01*
X1533858Y1077653D01*
X1533102Y1077148D01*
X1532597Y1076392D01*
X1532419Y1075500D01*
Y1070421D01*
X1522144D01*
X1520894Y1071379D01*
X1519257Y1072058D01*
X1517500Y1072289D01*
X1515743Y1072058D01*
X1514105Y1071379D01*
X1512699Y1070301D01*
X1511620Y1068895D01*
X1510942Y1067257D01*
X1510711Y1065500D01*
X1510942Y1063743D01*
X1511620Y1062105D01*
X1512699Y1060699D01*
X1514105Y1059621D01*
X1515743Y1058942D01*
X1517500Y1058711D01*
X1519257Y1058942D01*
X1520894Y1059621D01*
X1522144Y1060580D01*
X1532419D01*
Y1055500D01*
X1532597Y1054608D01*
X1533102Y1053852D01*
X1533858Y1053347D01*
X1534750Y1053169D01*
X1545750D01*
X1546642Y1053347D01*
X1547398Y1053852D01*
X1547903Y1054608D01*
X1548081Y1055500D01*
Y1075500D01*
X1547903Y1076392D01*
X1547398Y1077148D01*
X1546642Y1077653D01*
X1545750Y1077831D01*
D02*
G37*
G36*
X1109730Y1041730D02*
X1102200D01*
X1102339Y1040679D01*
X1103235Y1038517D01*
X1104660Y1036660D01*
X1106517Y1035235D01*
X1108679Y1034339D01*
X1109730Y1034201D01*
Y1041730D01*
D02*
G37*
G36*
X1119799D02*
X1112270D01*
Y1034201D01*
X1113321Y1034339D01*
X1115483Y1035235D01*
X1117340Y1036660D01*
X1118765Y1038517D01*
X1119661Y1040679D01*
X1119799Y1041730D01*
D02*
G37*
G36*
X1044000Y1043070D02*
X1042949Y1042931D01*
X1040787Y1042035D01*
X1038930Y1040610D01*
X1037505Y1038753D01*
X1036609Y1036591D01*
X1036470Y1035540D01*
X1044000D01*
Y1043070D01*
D02*
G37*
G36*
X1248270Y1040968D02*
Y1031270D01*
X1257968D01*
X1257756Y1032882D01*
X1256643Y1035568D01*
X1254874Y1037874D01*
X1252568Y1039643D01*
X1249882Y1040756D01*
X1248270Y1040968D01*
D02*
G37*
G36*
X1523878Y1035730D02*
X1518270D01*
Y1030122D01*
X1518824Y1030195D01*
X1520523Y1030899D01*
X1521982Y1032018D01*
X1523101Y1033477D01*
X1523805Y1035176D01*
X1523878Y1035730D01*
D02*
G37*
G36*
X1440000Y1344956D02*
X1437720Y1344503D01*
X1435788Y1343212D01*
X1434497Y1341279D01*
X1434043Y1339000D01*
X1434497Y1336720D01*
X1435788Y1334788D01*
X1437720Y1333497D01*
X1440000Y1333044D01*
X1442279Y1333497D01*
X1443151Y1334079D01*
X1543962D01*
X1654079Y1223962D01*
Y1116038D01*
X1616521Y1078479D01*
X1615454Y1076883D01*
X1615079Y1075000D01*
Y1040151D01*
X1614497Y1039279D01*
X1614044Y1037000D01*
X1614497Y1034721D01*
X1615788Y1032788D01*
X1617721Y1031497D01*
X1620000Y1031044D01*
X1622280Y1031497D01*
X1624212Y1032788D01*
X1625503Y1034721D01*
X1625957Y1037000D01*
X1625503Y1039279D01*
X1624921Y1040151D01*
Y1072962D01*
X1662479Y1110521D01*
X1663546Y1112117D01*
X1663920Y1114000D01*
Y1226000D01*
X1663546Y1227883D01*
X1662479Y1229479D01*
X1549479Y1342479D01*
X1547883Y1343546D01*
X1546000Y1343920D01*
X1443151D01*
X1442279Y1344503D01*
X1440000Y1344956D01*
D02*
G37*
G36*
X1245730Y1040968D02*
X1244118Y1040756D01*
X1241432Y1039643D01*
X1239126Y1037874D01*
X1237357Y1035568D01*
X1236244Y1032882D01*
X1236032Y1031270D01*
X1245730D01*
Y1040968D01*
D02*
G37*
G36*
X1046540Y1043070D02*
Y1035540D01*
X1054070D01*
X1053931Y1036591D01*
X1053035Y1038753D01*
X1051610Y1040610D01*
X1049753Y1042035D01*
X1047591Y1042931D01*
X1046540Y1043070D01*
D02*
G37*
G36*
X1112270Y1051799D02*
Y1044270D01*
X1119799D01*
X1119661Y1045321D01*
X1118765Y1047483D01*
X1117340Y1049340D01*
X1115483Y1050765D01*
X1113321Y1051661D01*
X1112270Y1051799D01*
D02*
G37*
G36*
X1017730Y1056730D02*
X1010201D01*
X1010339Y1055679D01*
X1011235Y1053517D01*
X1012660Y1051660D01*
X1014517Y1050235D01*
X1016679Y1049339D01*
X1017730Y1049201D01*
Y1056730D01*
D02*
G37*
G36*
X1027800D02*
X1020270D01*
Y1049201D01*
X1021321Y1049339D01*
X1023483Y1050235D01*
X1025340Y1051660D01*
X1026765Y1053517D01*
X1027661Y1055679D01*
X1027800Y1056730D01*
D02*
G37*
G36*
X1109730Y1051799D02*
X1108679Y1051661D01*
X1106517Y1050765D01*
X1104660Y1049340D01*
X1103235Y1047483D01*
X1102339Y1045321D01*
X1102200Y1044270D01*
X1109730D01*
Y1051799D01*
D02*
G37*
G36*
X1515730Y1043878D02*
X1515177Y1043805D01*
X1513477Y1043101D01*
X1512018Y1041982D01*
X1510899Y1040523D01*
X1510195Y1038823D01*
X1510122Y1038270D01*
X1515730D01*
Y1043878D01*
D02*
G37*
G36*
X1518270D02*
Y1038270D01*
X1523878D01*
X1523805Y1038823D01*
X1523101Y1040523D01*
X1521982Y1041982D01*
X1520523Y1043101D01*
X1518824Y1043805D01*
X1518270Y1043878D01*
D02*
G37*
G36*
X1414000Y1323956D02*
X1411720Y1323503D01*
X1409788Y1322212D01*
X1408497Y1320280D01*
X1408044Y1318000D01*
X1408497Y1315721D01*
X1409788Y1313788D01*
X1411720Y1312497D01*
X1412749Y1312292D01*
X1413521Y1311521D01*
X1415117Y1310454D01*
X1417000Y1310079D01*
X1548962D01*
X1641080Y1217962D01*
Y1132038D01*
X1595521Y1086479D01*
X1594454Y1084883D01*
X1594079Y1083000D01*
Y1049151D01*
X1593497Y1048279D01*
X1593044Y1046000D01*
X1593497Y1043720D01*
X1594788Y1041788D01*
X1596721Y1040497D01*
X1599000Y1040043D01*
X1601279Y1040497D01*
X1603212Y1041788D01*
X1604503Y1043720D01*
X1604957Y1046000D01*
X1604503Y1048279D01*
X1603920Y1049151D01*
Y1080962D01*
X1649479Y1126521D01*
X1650546Y1128117D01*
X1650921Y1130000D01*
Y1220000D01*
X1650546Y1221883D01*
X1649479Y1223479D01*
X1554479Y1318479D01*
X1552883Y1319546D01*
X1551000Y1319921D01*
X1419574D01*
X1419503Y1320280D01*
X1418212Y1322212D01*
X1416279Y1323503D01*
X1414000Y1323956D01*
D02*
G37*
%LPD*%
D10*
X1099000Y1260750D02*
D03*
Y1243750D02*
D03*
Y1226750D02*
D03*
X1139000D02*
D03*
Y1243750D02*
D03*
Y1260750D02*
D03*
X979000D02*
D03*
Y1243750D02*
D03*
Y1226750D02*
D03*
X1019000D02*
D03*
Y1243750D02*
D03*
Y1260750D02*
D03*
X1139000Y590250D02*
D03*
Y607250D02*
D03*
Y624250D02*
D03*
X1099000D02*
D03*
Y607250D02*
D03*
Y590250D02*
D03*
X1259000D02*
D03*
Y607250D02*
D03*
Y624250D02*
D03*
X1219000D02*
D03*
Y607250D02*
D03*
Y590250D02*
D03*
Y1260750D02*
D03*
Y1243750D02*
D03*
Y1226750D02*
D03*
X1259000D02*
D03*
Y1243750D02*
D03*
Y1260750D02*
D03*
X1339000D02*
D03*
Y1243750D02*
D03*
Y1226750D02*
D03*
X1379000D02*
D03*
Y1243750D02*
D03*
Y1260750D02*
D03*
X1459000D02*
D03*
Y1243750D02*
D03*
Y1226750D02*
D03*
X1499000D02*
D03*
Y1243750D02*
D03*
Y1260750D02*
D03*
Y590250D02*
D03*
Y607250D02*
D03*
Y624250D02*
D03*
X1459000D02*
D03*
Y607250D02*
D03*
Y590250D02*
D03*
X1379000D02*
D03*
Y607250D02*
D03*
Y624250D02*
D03*
X1339000D02*
D03*
Y607250D02*
D03*
Y590250D02*
D03*
X1019000D02*
D03*
Y607250D02*
D03*
Y624250D02*
D03*
X979000D02*
D03*
Y607250D02*
D03*
Y590250D02*
D03*
D11*
X903750Y1145500D02*
D03*
X920750D02*
D03*
X937750D02*
D03*
Y1185500D02*
D03*
X920750D02*
D03*
X903750D02*
D03*
Y1025500D02*
D03*
X920750D02*
D03*
X937750D02*
D03*
Y1065500D02*
D03*
X920750D02*
D03*
X903750D02*
D03*
Y905500D02*
D03*
X920750D02*
D03*
X937750D02*
D03*
Y945500D02*
D03*
X920750D02*
D03*
X903750D02*
D03*
Y785500D02*
D03*
X920750D02*
D03*
X937750D02*
D03*
Y825500D02*
D03*
X920750D02*
D03*
X903750D02*
D03*
Y665500D02*
D03*
X920750D02*
D03*
X937750D02*
D03*
Y705500D02*
D03*
X920750D02*
D03*
X903750D02*
D03*
X1574250Y1185500D02*
D03*
X1557250D02*
D03*
X1540250D02*
D03*
Y1145500D02*
D03*
X1557250D02*
D03*
X1574250D02*
D03*
Y1065500D02*
D03*
X1557250D02*
D03*
X1540250D02*
D03*
Y1025500D02*
D03*
X1557250D02*
D03*
X1574250D02*
D03*
Y945500D02*
D03*
X1557250D02*
D03*
X1540250D02*
D03*
Y905500D02*
D03*
X1557250D02*
D03*
X1574250D02*
D03*
Y825500D02*
D03*
X1557250D02*
D03*
X1540250D02*
D03*
Y785500D02*
D03*
X1557250D02*
D03*
X1574250D02*
D03*
Y705500D02*
D03*
X1557250D02*
D03*
X1540250D02*
D03*
Y665500D02*
D03*
X1557250D02*
D03*
X1574250D02*
D03*
D12*
X1560000Y1355000D02*
X1673000Y1242000D01*
X1433000Y1355000D02*
X1560000D01*
X1019000Y624250D02*
X1020000Y625250D01*
X1019000Y626250D02*
Y646000D01*
X937750Y905500D02*
X959500D01*
X960000Y905000D01*
X1065000Y1228000D02*
X1066250Y1226750D01*
X937750Y1137250D02*
Y1145500D01*
Y1137250D02*
X951000Y1124000D01*
X1219000Y1226750D02*
X1232750Y1213000D01*
X1237000D01*
X1458250Y1226000D02*
X1459000Y1226750D01*
X1437000Y1226000D02*
X1458250D01*
X1533101Y1212477D02*
X1540250Y1205329D01*
Y1185500D02*
Y1205329D01*
X1517500Y1065500D02*
X1540250D01*
X1517000Y1066000D02*
X1517500Y1065500D01*
X1510500Y945500D02*
X1540250D01*
X1510000Y946000D02*
X1510500Y945500D01*
X1513500Y825500D02*
X1540250D01*
X1513000Y825000D02*
X1513500Y825500D01*
X1509500Y705500D02*
X1540250D01*
X1509000Y705000D02*
X1509500Y705500D01*
X1499000Y624250D02*
Y649000D01*
X937750Y1025500D02*
X988500D01*
X989000Y1026000D01*
X937750Y785500D02*
X965500D01*
X966000Y786000D01*
X1139000Y624250D02*
Y654000D01*
X1259000Y624250D02*
Y656000D01*
X1259000Y656000D02*
X1259000Y656000D01*
X1379000Y624250D02*
Y659000D01*
X1066250Y1226750D02*
X1099000D01*
X1599000Y1083000D02*
X1646000Y1130000D01*
X1417000Y1315000D02*
X1551000D01*
X1646000Y1220000D01*
Y1130000D02*
Y1220000D01*
X1659000Y1114000D02*
Y1226000D01*
X1673000Y1096000D02*
Y1242000D01*
X1223000Y1353000D02*
X1246000Y1330000D01*
X1277000Y1317000D02*
X1370000D01*
X1201000Y1353000D02*
X1223000D01*
X1179044Y1342000D02*
Y1348044D01*
X1193000Y1362000D01*
X1232000D01*
X1277000Y1317000D01*
X1246000Y1315000D02*
X1258000Y1303000D01*
X1358000D01*
X1637000Y1060000D02*
X1673000Y1096000D01*
X1637000Y977000D02*
Y1060000D01*
X1620000Y1075000D02*
X1659000Y1114000D01*
X1620000Y1037000D02*
Y1075000D01*
X1599000Y1046000D02*
Y1083000D01*
X1219000Y1260750D02*
Y1296000D01*
X1246000Y1323000D01*
Y1315000D02*
Y1323000D01*
Y1330000D01*
X1358000Y1303000D02*
X1360000Y1301000D01*
X1370000Y1317000D02*
X1373000Y1314000D01*
X1440000Y1339000D02*
X1546000D01*
X1659000Y1226000D01*
X1414000Y1318000D02*
X1417000Y1315000D01*
X937750Y665500D02*
X957500D01*
X958000Y666000D01*
X1339000Y1226750D02*
X1342375Y1223375D01*
X1342730Y1223730D02*
X1343000Y1223460D01*
Y1210000D02*
Y1223460D01*
X979000Y1212000D02*
Y1226750D01*
X1378000Y1387000D02*
X1395000Y1370000D01*
X1158000Y1329000D02*
Y1372041D01*
X1172959Y1387000D01*
X1378000D01*
X1019000Y626250D02*
X1020000Y625250D01*
X1342375Y1223375D02*
X1342730Y1223730D01*
D13*
X1371000Y1293000D02*
X1433000Y1355000D01*
X1203250Y1243750D02*
X1219000D01*
X1193000Y1254000D02*
X1203250Y1243750D01*
X1193000Y1254000D02*
Y1285000D01*
X1223000Y1315000D01*
X1175000Y1002000D02*
Y1271000D01*
X1303000Y1007000D02*
Y1229000D01*
X1276000Y980000D02*
X1303000Y1007000D01*
X1247000Y980000D02*
X1276000D01*
X1244000Y1300000D02*
X1251000Y1293000D01*
X1168000Y1364000D02*
X1180000Y1376000D01*
X1354000D01*
X1386000Y1344000D01*
X1168000Y1339000D02*
Y1364000D01*
Y1339000D02*
X1178129Y1328871D01*
Y1323279D02*
Y1328871D01*
X1251000Y1293000D02*
X1371000D01*
D14*
X1499000Y1260750D02*
X1549250D01*
X1574250Y1235750D01*
Y1185500D02*
Y1235750D01*
X1499000Y1243750D02*
X1539250D01*
X1557250Y1225750D01*
Y1185500D02*
Y1225750D01*
Y1065500D02*
Y1145500D01*
X1574250Y1065500D02*
Y1145500D01*
X1557250Y945500D02*
Y1025500D01*
X1574250Y945500D02*
Y1025500D01*
X1557250Y825500D02*
Y905500D01*
X1574250Y825500D02*
Y905500D01*
X1557250Y705500D02*
Y785500D01*
X1574250Y705500D02*
Y785500D01*
X1557250Y627250D02*
Y665500D01*
X1537250Y607250D02*
X1557250Y627250D01*
X1499000Y607250D02*
X1537250D01*
X1574250Y619250D02*
Y665500D01*
X1545250Y590250D02*
X1574250Y619250D01*
X1499000Y590250D02*
X1545250D01*
X1379000Y607250D02*
X1459000D01*
X1379000Y590250D02*
X1459000D01*
X1259000Y607250D02*
X1339000D01*
X1259000Y590250D02*
X1339000D01*
X1139000Y607250D02*
X1219000D01*
X1139000Y590250D02*
X1219000D01*
X1019000Y607250D02*
X1099000D01*
X1019000Y590250D02*
X1099000D01*
X945750Y607250D02*
X979000D01*
X920750Y632250D02*
X945750Y607250D01*
X920750Y632250D02*
Y665500D01*
Y705500D02*
Y785500D01*
X903750Y705500D02*
Y785500D01*
X920750Y825500D02*
Y905500D01*
X903750Y825500D02*
Y905500D01*
X920750Y945500D02*
Y1025500D01*
X903750Y945500D02*
Y1025500D01*
X920750Y1065500D02*
Y1145500D01*
X903750Y1065500D02*
Y1145500D01*
X920750Y1185500D02*
Y1213750D01*
X950750Y1243750D01*
X979000D01*
X903750Y1185500D02*
Y1225750D01*
X938750Y1260750D01*
X979000D01*
X1259000D02*
X1339000D01*
X1259000Y1243750D02*
X1339000D01*
X1379000Y1260750D02*
X1459000D01*
X1379000Y1243750D02*
X1459000D01*
X903750Y623250D02*
Y665500D01*
Y623250D02*
X936750Y590250D01*
X979000D01*
X1054721Y1299497D02*
Y1354720D01*
X1062000Y1362000D01*
X1019000Y1260750D02*
X1099000D01*
X1019000Y1243750D02*
X1099000D01*
X1054721Y1299497D02*
X1079218Y1275000D01*
X1155000D01*
X1158000Y1110000D02*
X1162000Y1114000D01*
Y1268000D01*
X1155000Y1275000D02*
X1162000Y1268000D01*
D15*
X1103000Y1291000D02*
X1109000Y1297000D01*
X1163000D01*
X1185000Y1017000D02*
X1222000Y980000D01*
X1175000Y1002000D02*
X1222000Y955000D01*
X1185000Y1017000D02*
Y1275000D01*
X1163000Y1297000D02*
X1185000Y1275000D01*
X1118000Y1287000D02*
X1159000D01*
X1175000Y1271000D01*
D16*
X779000Y1385500D02*
D03*
X1699000Y465500D02*
D03*
Y1385500D02*
D03*
X779000Y465500D02*
D03*
X1469000Y925500D02*
D03*
X1009000D02*
D03*
D17*
X1352500Y818000D02*
D03*
D18*
X1070500D02*
D03*
D19*
X848000Y1386000D02*
D03*
X888000D02*
D03*
D20*
X1247000Y1030000D02*
D03*
Y1005000D02*
D03*
Y980000D02*
D03*
Y955000D02*
D03*
Y930000D02*
D03*
X1222000D02*
D03*
Y955000D02*
D03*
Y980000D02*
D03*
Y1005000D02*
D03*
Y1030000D02*
D03*
X1564000Y459000D02*
D03*
X1589000D02*
D03*
X1614000D02*
D03*
X1549000Y1376000D02*
D03*
X1574000D02*
D03*
X1424550Y461937D02*
D03*
X1399550D02*
D03*
D21*
X1019000Y1058000D02*
D03*
X1045270Y1034270D02*
D03*
X1076000Y1015000D02*
D03*
X1111000Y1014000D02*
D03*
Y1043000D02*
D03*
X1110000Y1070000D02*
D03*
X979000Y645000D02*
D03*
X958000Y666000D02*
D03*
Y705000D02*
D03*
X1019000Y646000D02*
D03*
X1491000Y528000D02*
D03*
X1158000Y1110000D02*
D03*
D22*
X1054721Y1299497D02*
D03*
X1062000Y1362000D02*
D03*
X1208000Y1332000D02*
D03*
X1223000Y1315000D02*
D03*
X1103000Y1291000D02*
D03*
X1303000Y1229000D02*
D03*
X1179044Y1342000D02*
D03*
X1201000Y1353000D02*
D03*
X1637000Y977000D02*
D03*
X1620000Y1037000D02*
D03*
X1599000Y1046000D02*
D03*
X1244000Y1300000D02*
D03*
X1158000Y1329000D02*
D03*
X1178129Y1323279D02*
D03*
X1360000Y1301000D02*
D03*
X1373000Y1314000D02*
D03*
X1414000Y1318000D02*
D03*
X1440000Y1339000D02*
D03*
X1118000Y1287000D02*
D03*
D23*
X1642000Y534000D02*
D03*
X1263000Y1277000D02*
D03*
X960000Y905000D02*
D03*
X960500Y936500D02*
D03*
X1063000Y1228000D02*
D03*
X953000Y1212000D02*
D03*
X951000Y1124000D02*
D03*
X1237000Y1213000D02*
D03*
X1632000Y1153000D02*
D03*
X1437000Y1226000D02*
D03*
X1533101Y1212477D02*
D03*
X1517500Y1065500D02*
D03*
X1517000Y1037000D02*
D03*
X1511000Y915000D02*
D03*
X1510500Y945500D02*
D03*
X1513000Y825000D02*
D03*
X1510000Y676000D02*
D03*
X1509000Y705000D02*
D03*
X1499000Y649000D02*
D03*
X1469000D02*
D03*
X989000Y1026000D02*
D03*
X965500Y785500D02*
D03*
X966000Y818000D02*
D03*
X1139000Y654000D02*
D03*
X1109000D02*
D03*
X1228000Y655000D02*
D03*
X1259000Y656000D02*
D03*
X1379000Y659000D02*
D03*
X1349000D02*
D03*
X1528000Y531000D02*
D03*
X1366789Y1212000D02*
D03*
X1514000Y798000D02*
D03*
X1521000Y1227000D02*
D03*
X1343000Y1210000D02*
D03*
X979000Y1212000D02*
D03*
X1120270Y1227000D02*
D03*
D24*
X1165000Y1306000D02*
D03*
X1395000Y1370000D02*
D03*
X1386000Y1344000D02*
D03*
M02*
