G04 Layer_Color=32896*
%FSLAX44Y44*%
%MOMM*%
G71*
G01*
G75*
%ADD15C,0.2540*%
%ADD42C,0.1250*%
%ADD43C,0.1016*%
%ADD45C,0.1270*%
%ADD71C,0.0750*%
D15*
X1395110Y1139760D02*
G03*
X1395110Y1139760I-1270J0D01*
G01*
X966220Y1143000D02*
G03*
X966220Y1143000I-1270J0D01*
G01*
X1074270Y1290610D02*
G03*
X1074270Y1290610I-1270J0D01*
G01*
X754120Y1104020D02*
Y1109100D01*
X764280Y1119260D01*
X769360D01*
X843020Y1120530D02*
X865880D01*
Y1100210D02*
Y1120530D01*
X759200Y963050D02*
X810000D01*
X752850Y969400D02*
X759200Y963050D01*
X810000D02*
X860800D01*
X867150Y969400D01*
D42*
X904750Y1394250D02*
Y1426000D01*
X815850Y1394250D02*
Y1426000D01*
X904750D01*
X1446580Y509890D02*
Y517510D01*
X1417370D02*
X1446580D01*
X1417370Y509890D02*
Y517510D01*
Y509890D02*
X1446580D01*
X1235650Y1321990D02*
Y1342310D01*
X1229300Y1321990D02*
X1235650D01*
X1229300D02*
Y1342310D01*
X1235650D01*
D43*
X1048260Y1387508D02*
X1049318Y1388566D01*
X1051434D01*
X1052492Y1387508D01*
Y1383276D01*
X1051434Y1382218D01*
X1049318D01*
X1048260Y1383276D01*
X1046144Y1382218D02*
X1044028D01*
X1045086D01*
Y1388566D01*
X1046144Y1387508D01*
X1203254Y1326378D02*
X1204312Y1327436D01*
X1206428D01*
X1207486Y1326378D01*
Y1322146D01*
X1206428Y1321088D01*
X1204312D01*
X1203254Y1322146D01*
X1196906Y1321088D02*
X1201138D01*
X1196906Y1325320D01*
Y1326378D01*
X1197964Y1327436D01*
X1200080D01*
X1201138Y1326378D01*
X885210Y1175768D02*
X884152Y1176826D01*
Y1178942D01*
X885210Y1180000D01*
X889442D01*
X890500Y1178942D01*
Y1176826D01*
X889442Y1175768D01*
X884152Y1169420D02*
Y1173652D01*
X887326D01*
X886268Y1171536D01*
Y1170478D01*
X887326Y1169420D01*
X889442D01*
X890500Y1170478D01*
Y1172594D01*
X889442Y1173652D01*
X881768Y1069290D02*
X882826Y1070348D01*
X884942D01*
X886000Y1069290D01*
Y1065058D01*
X884942Y1064000D01*
X882826D01*
X881768Y1065058D01*
X875420Y1070348D02*
X877536Y1069290D01*
X879652Y1067174D01*
Y1065058D01*
X878594Y1064000D01*
X876478D01*
X875420Y1065058D01*
Y1066116D01*
X876478Y1067174D01*
X879652D01*
X914768Y1065290D02*
X915826Y1066348D01*
X917942D01*
X919000Y1065290D01*
Y1061058D01*
X917942Y1060000D01*
X915826D01*
X914768Y1061058D01*
X912652Y1066348D02*
X908420D01*
Y1065290D01*
X912652Y1061058D01*
Y1060000D01*
X752210Y1227768D02*
X751152Y1228826D01*
Y1230942D01*
X752210Y1232000D01*
X756442D01*
X757500Y1230942D01*
Y1228826D01*
X756442Y1227768D01*
X752210Y1225652D02*
X751152Y1224594D01*
Y1222478D01*
X752210Y1221420D01*
X753268D01*
X754326Y1222478D01*
X755384Y1221420D01*
X756442D01*
X757500Y1222478D01*
Y1224594D01*
X756442Y1225652D01*
X755384D01*
X754326Y1224594D01*
X753268Y1225652D01*
X752210D01*
X754326Y1224594D02*
Y1222478D01*
X751710Y1199768D02*
X750652Y1200826D01*
Y1202942D01*
X751710Y1204000D01*
X755942D01*
X757000Y1202942D01*
Y1200826D01*
X755942Y1199768D01*
Y1197652D02*
X757000Y1196594D01*
Y1194478D01*
X755942Y1193420D01*
X751710D01*
X750652Y1194478D01*
Y1196594D01*
X751710Y1197652D01*
X752768D01*
X753826Y1196594D01*
Y1193420D01*
X801710Y1143768D02*
X800652Y1144826D01*
Y1146942D01*
X801710Y1148000D01*
X805942D01*
X807000Y1146942D01*
Y1144826D01*
X805942Y1143768D01*
X807000Y1141652D02*
Y1139536D01*
Y1140594D01*
X800652D01*
X801710Y1141652D01*
Y1136362D02*
X800652Y1135304D01*
Y1133188D01*
X801710Y1132130D01*
X805942D01*
X807000Y1133188D01*
Y1135304D01*
X805942Y1136362D01*
X801710D01*
X1248632Y1298586D02*
X1249690Y1299644D01*
X1251806D01*
X1252864Y1298586D01*
Y1294354D01*
X1251806Y1293296D01*
X1249690D01*
X1248632Y1294354D01*
X1246516Y1293296D02*
X1244400D01*
X1245458D01*
Y1299644D01*
X1246516Y1298586D01*
X1241226Y1293296D02*
X1239110D01*
X1240168D01*
Y1299644D01*
X1241226Y1298586D01*
X1364816Y1267890D02*
X1365874Y1268948D01*
X1367990D01*
X1369048Y1267890D01*
Y1263658D01*
X1367990Y1262600D01*
X1365874D01*
X1364816Y1263658D01*
X1362700Y1262600D02*
X1360584D01*
X1361642D01*
Y1268948D01*
X1362700Y1267890D01*
X1353178Y1262600D02*
X1357410D01*
X1353178Y1266832D01*
Y1267890D01*
X1354236Y1268948D01*
X1356352D01*
X1357410Y1267890D01*
X1493780Y1248556D02*
X1494838Y1249614D01*
X1496954D01*
X1498012Y1248556D01*
Y1244324D01*
X1496954Y1243266D01*
X1494838D01*
X1493780Y1244324D01*
X1491664Y1243266D02*
X1489548D01*
X1490606D01*
Y1249614D01*
X1491664Y1248556D01*
X1486374D02*
X1485316Y1249614D01*
X1483200D01*
X1482142Y1248556D01*
Y1247498D01*
X1483200Y1246440D01*
X1484258D01*
X1483200D01*
X1482142Y1245382D01*
Y1244324D01*
X1483200Y1243266D01*
X1485316D01*
X1486374Y1244324D01*
X1605778Y1193248D02*
X1606836Y1194306D01*
X1608952D01*
X1610010Y1193248D01*
Y1189016D01*
X1608952Y1187958D01*
X1606836D01*
X1605778Y1189016D01*
X1603662Y1187958D02*
X1601546D01*
X1602604D01*
Y1194306D01*
X1603662Y1193248D01*
X1595198Y1187958D02*
Y1194306D01*
X1598372Y1191132D01*
X1594140D01*
X1544910Y1076866D02*
X1545968Y1077924D01*
X1548084D01*
X1549142Y1076866D01*
Y1072634D01*
X1548084Y1071576D01*
X1545968D01*
X1544910Y1072634D01*
X1542794Y1071576D02*
X1540678D01*
X1541736D01*
Y1077924D01*
X1542794Y1076866D01*
X1533272Y1077924D02*
X1537504D01*
Y1074750D01*
X1535388Y1075808D01*
X1534330D01*
X1533272Y1074750D01*
Y1072634D01*
X1534330Y1071576D01*
X1536446D01*
X1537504Y1072634D01*
X1544894Y955424D02*
X1545952Y956482D01*
X1548068D01*
X1549126Y955424D01*
Y951192D01*
X1548068Y950134D01*
X1545952D01*
X1544894Y951192D01*
X1542778Y950134D02*
X1540662D01*
X1541720D01*
Y956482D01*
X1542778Y955424D01*
X1533256Y956482D02*
X1535372Y955424D01*
X1537488Y953308D01*
Y951192D01*
X1536430Y950134D01*
X1534314D01*
X1533256Y951192D01*
Y952250D01*
X1534314Y953308D01*
X1537488D01*
X1544802Y837346D02*
X1545860Y838404D01*
X1547976D01*
X1549034Y837346D01*
Y833114D01*
X1547976Y832056D01*
X1545860D01*
X1544802Y833114D01*
X1542686Y832056D02*
X1540570D01*
X1541628D01*
Y838404D01*
X1542686Y837346D01*
X1537396Y838404D02*
X1533164D01*
Y837346D01*
X1537396Y833114D01*
Y832056D01*
X1544832Y716428D02*
X1545890Y717486D01*
X1548006D01*
X1549064Y716428D01*
Y712196D01*
X1548006Y711138D01*
X1545890D01*
X1544832Y712196D01*
X1542716Y711138D02*
X1540600D01*
X1541658D01*
Y717486D01*
X1542716Y716428D01*
X1537426D02*
X1536368Y717486D01*
X1534252D01*
X1533194Y716428D01*
Y715370D01*
X1534252Y714312D01*
X1533194Y713254D01*
Y712196D01*
X1534252Y711138D01*
X1536368D01*
X1537426Y712196D01*
Y713254D01*
X1536368Y714312D01*
X1537426Y715370D01*
Y716428D01*
X1536368Y714312D02*
X1534252D01*
X1491828Y646354D02*
X1492886Y647412D01*
X1495002D01*
X1496060Y646354D01*
Y642122D01*
X1495002Y641064D01*
X1492886D01*
X1491828Y642122D01*
X1489712Y641064D02*
X1487596D01*
X1488654D01*
Y647412D01*
X1489712Y646354D01*
X1484422Y642122D02*
X1483364Y641064D01*
X1481248D01*
X1480190Y642122D01*
Y646354D01*
X1481248Y647412D01*
X1483364D01*
X1484422Y646354D01*
Y645296D01*
X1483364Y644238D01*
X1480190D01*
X1372686Y646548D02*
X1373744Y647606D01*
X1375860D01*
X1376918Y646548D01*
Y642316D01*
X1375860Y641258D01*
X1373744D01*
X1372686Y642316D01*
X1366338Y641258D02*
X1370570D01*
X1366338Y645490D01*
Y646548D01*
X1367396Y647606D01*
X1369512D01*
X1370570Y646548D01*
X1364222D02*
X1363164Y647606D01*
X1361048D01*
X1359990Y646548D01*
Y642316D01*
X1361048Y641258D01*
X1363164D01*
X1364222Y642316D01*
Y646548D01*
X1251830Y646500D02*
X1252888Y647558D01*
X1255004D01*
X1256062Y646500D01*
Y642268D01*
X1255004Y641210D01*
X1252888D01*
X1251830Y642268D01*
X1245482Y641210D02*
X1249714D01*
X1245482Y645442D01*
Y646500D01*
X1246540Y647558D01*
X1248656D01*
X1249714Y646500D01*
X1243366Y641210D02*
X1241250D01*
X1242308D01*
Y647558D01*
X1243366Y646500D01*
X1131704Y645376D02*
X1132762Y646434D01*
X1134878D01*
X1135936Y645376D01*
Y641144D01*
X1134878Y640086D01*
X1132762D01*
X1131704Y641144D01*
X1125356Y640086D02*
X1129588D01*
X1125356Y644318D01*
Y645376D01*
X1126414Y646434D01*
X1128530D01*
X1129588Y645376D01*
X1119008Y640086D02*
X1123240D01*
X1119008Y644318D01*
Y645376D01*
X1120066Y646434D01*
X1122182D01*
X1123240Y645376D01*
X1011270Y645390D02*
X1012328Y646448D01*
X1014444D01*
X1015502Y645390D01*
Y641158D01*
X1014444Y640100D01*
X1012328D01*
X1011270Y641158D01*
X1004922Y640100D02*
X1009154D01*
X1004922Y644332D01*
Y645390D01*
X1005980Y646448D01*
X1008096D01*
X1009154Y645390D01*
X1002806D02*
X1001748Y646448D01*
X999632D01*
X998574Y645390D01*
Y644332D01*
X999632Y643274D01*
X1000690D01*
X999632D01*
X998574Y642216D01*
Y641158D01*
X999632Y640100D01*
X1001748D01*
X1002806Y641158D01*
X942730Y716886D02*
X943788Y717944D01*
X945904D01*
X946962Y716886D01*
Y712654D01*
X945904Y711596D01*
X943788D01*
X942730Y712654D01*
X936382Y711596D02*
X940614D01*
X936382Y715828D01*
Y716886D01*
X937440Y717944D01*
X939556D01*
X940614Y716886D01*
X931092Y711596D02*
Y717944D01*
X934266Y714770D01*
X930034D01*
X942890Y838868D02*
X943948Y839926D01*
X946064D01*
X947122Y838868D01*
Y834636D01*
X946064Y833578D01*
X943948D01*
X942890Y834636D01*
X936542Y833578D02*
X940774D01*
X936542Y837810D01*
Y838868D01*
X937600Y839926D01*
X939716D01*
X940774Y838868D01*
X930194Y839926D02*
X934426D01*
Y836752D01*
X932310Y837810D01*
X931252D01*
X930194Y836752D01*
Y834636D01*
X931252Y833578D01*
X933368D01*
X934426Y834636D01*
X942954Y957488D02*
X944012Y958546D01*
X946128D01*
X947186Y957488D01*
Y953256D01*
X946128Y952198D01*
X944012D01*
X942954Y953256D01*
X936606Y952198D02*
X940838D01*
X936606Y956430D01*
Y957488D01*
X937664Y958546D01*
X939780D01*
X940838Y957488D01*
X930258Y958546D02*
X932374Y957488D01*
X934490Y955372D01*
Y953256D01*
X933432Y952198D01*
X931316D01*
X930258Y953256D01*
Y954314D01*
X931316Y955372D01*
X934490D01*
X966828Y1074764D02*
X967886Y1075822D01*
X970002D01*
X971060Y1074764D01*
Y1070532D01*
X970002Y1069474D01*
X967886D01*
X966828Y1070532D01*
X960480Y1069474D02*
X964712D01*
X960480Y1073706D01*
Y1074764D01*
X961538Y1075822D01*
X963654D01*
X964712Y1074764D01*
X958364Y1075822D02*
X954132D01*
Y1074764D01*
X958364Y1070532D01*
Y1069474D01*
X942760Y1197294D02*
X943818Y1198352D01*
X945934D01*
X946992Y1197294D01*
Y1193062D01*
X945934Y1192004D01*
X943818D01*
X942760Y1193062D01*
X936412Y1192004D02*
X940644D01*
X936412Y1196236D01*
Y1197294D01*
X937470Y1198352D01*
X939586D01*
X940644Y1197294D01*
X934296D02*
X933238Y1198352D01*
X931122D01*
X930064Y1197294D01*
Y1196236D01*
X931122Y1195178D01*
X930064Y1194120D01*
Y1193062D01*
X931122Y1192004D01*
X933238D01*
X934296Y1193062D01*
Y1194120D01*
X933238Y1195178D01*
X934296Y1196236D01*
Y1197294D01*
X933238Y1195178D02*
X931122D01*
X983210Y1251476D02*
X984268Y1252534D01*
X986384D01*
X987442Y1251476D01*
Y1247244D01*
X986384Y1246186D01*
X984268D01*
X983210Y1247244D01*
X976862Y1246186D02*
X981094D01*
X976862Y1250418D01*
Y1251476D01*
X977920Y1252534D01*
X980036D01*
X981094Y1251476D01*
X974746Y1247244D02*
X973688Y1246186D01*
X971572D01*
X970514Y1247244D01*
Y1251476D01*
X971572Y1252534D01*
X973688D01*
X974746Y1251476D01*
Y1250418D01*
X973688Y1249360D01*
X970514D01*
X1104242Y1251462D02*
X1105300Y1252520D01*
X1107416D01*
X1108474Y1251462D01*
Y1247230D01*
X1107416Y1246172D01*
X1105300D01*
X1104242Y1247230D01*
X1102126Y1251462D02*
X1101068Y1252520D01*
X1098952D01*
X1097894Y1251462D01*
Y1250404D01*
X1098952Y1249346D01*
X1100010D01*
X1098952D01*
X1097894Y1248288D01*
Y1247230D01*
X1098952Y1246172D01*
X1101068D01*
X1102126Y1247230D01*
X1095778Y1251462D02*
X1094720Y1252520D01*
X1092604D01*
X1091546Y1251462D01*
Y1247230D01*
X1092604Y1246172D01*
X1094720D01*
X1095778Y1247230D01*
Y1251462D01*
X1470848Y547138D02*
X1471906Y548196D01*
X1474022D01*
X1475080Y547138D01*
Y542906D01*
X1474022Y541848D01*
X1471906D01*
X1470848Y542906D01*
X1468732Y547138D02*
X1467674Y548196D01*
X1465558D01*
X1464500Y547138D01*
Y546080D01*
X1465558Y545022D01*
X1466616D01*
X1465558D01*
X1464500Y543964D01*
Y542906D01*
X1465558Y541848D01*
X1467674D01*
X1468732Y542906D01*
X1462384Y541848D02*
X1460268D01*
X1461326D01*
Y548196D01*
X1462384Y547138D01*
X1576795Y578925D02*
X1577853Y579983D01*
X1579969D01*
X1581027Y578925D01*
Y574693D01*
X1579969Y573635D01*
X1577853D01*
X1576795Y574693D01*
X1574679Y578925D02*
X1573621Y579983D01*
X1571505D01*
X1570447Y578925D01*
Y577867D01*
X1571505Y576809D01*
X1572563D01*
X1571505D01*
X1570447Y575751D01*
Y574693D01*
X1571505Y573635D01*
X1573621D01*
X1574679Y574693D01*
X1564099Y573635D02*
X1568331D01*
X1564099Y577867D01*
Y578925D01*
X1565157Y579983D01*
X1567273D01*
X1568331Y578925D01*
X1618828Y579782D02*
X1619886Y580840D01*
X1622002D01*
X1623060Y579782D01*
Y575550D01*
X1622002Y574492D01*
X1619886D01*
X1618828Y575550D01*
X1616712Y579782D02*
X1615654Y580840D01*
X1613538D01*
X1612480Y579782D01*
Y578724D01*
X1613538Y577666D01*
X1614596D01*
X1613538D01*
X1612480Y576608D01*
Y575550D01*
X1613538Y574492D01*
X1615654D01*
X1616712Y575550D01*
X1610364Y579782D02*
X1609306Y580840D01*
X1607190D01*
X1606132Y579782D01*
Y578724D01*
X1607190Y577666D01*
X1608248D01*
X1607190D01*
X1606132Y576608D01*
Y575550D01*
X1607190Y574492D01*
X1609306D01*
X1610364Y575550D01*
X1358732Y882648D02*
X1360848D01*
X1359790D01*
Y877358D01*
X1360848Y876300D01*
X1361906D01*
X1362964Y877358D01*
X1356616Y876300D02*
X1354500D01*
X1355558D01*
Y882648D01*
X1356616Y881590D01*
X1370670Y1219452D02*
X1372786D01*
X1371728D01*
Y1214162D01*
X1372786Y1213104D01*
X1373844D01*
X1374902Y1214162D01*
X1364322Y1213104D02*
X1368554D01*
X1364322Y1217336D01*
Y1218394D01*
X1365380Y1219452D01*
X1367496D01*
X1368554Y1218394D01*
X1551772Y1218944D02*
X1553888D01*
X1552830D01*
Y1213654D01*
X1553888Y1212596D01*
X1554946D01*
X1556004Y1213654D01*
X1549656Y1217886D02*
X1548598Y1218944D01*
X1546482D01*
X1545424Y1217886D01*
Y1216828D01*
X1546482Y1215770D01*
X1547540D01*
X1546482D01*
X1545424Y1214712D01*
Y1213654D01*
X1546482Y1212596D01*
X1548598D01*
X1549656Y1213654D01*
X913000Y1397000D02*
X919348D01*
Y1400174D01*
X918290Y1401232D01*
X916174D01*
X915116Y1400174D01*
Y1397000D01*
X919348Y1403348D02*
X913000D01*
X915116Y1405464D01*
X913000Y1407580D01*
X919348D01*
X913000Y1409696D02*
X919348D01*
Y1412870D01*
X918290Y1413928D01*
X916174D01*
X915116Y1412870D01*
Y1409696D01*
Y1411812D02*
X913000Y1413928D01*
Y1416044D02*
Y1418160D01*
Y1417102D01*
X919348D01*
X918290Y1416044D01*
X890000Y1204000D02*
X883652D01*
Y1200826D01*
X884710Y1199768D01*
X886826D01*
X887884Y1200826D01*
Y1204000D01*
Y1201884D02*
X890000Y1199768D01*
Y1193420D02*
Y1197652D01*
X885768Y1193420D01*
X884710D01*
X883652Y1194478D01*
Y1196594D01*
X884710Y1197652D01*
X841000Y1238000D02*
X834652D01*
Y1234826D01*
X835710Y1233768D01*
X837826D01*
X838884Y1234826D01*
Y1238000D01*
Y1235884D02*
X841000Y1233768D01*
X835710Y1231652D02*
X834652Y1230594D01*
Y1228478D01*
X835710Y1227420D01*
X836768D01*
X837826Y1228478D01*
Y1229536D01*
Y1228478D01*
X838884Y1227420D01*
X839942D01*
X841000Y1228478D01*
Y1230594D01*
X839942Y1231652D01*
X756000Y1177000D02*
X749652D01*
Y1173826D01*
X750710Y1172768D01*
X752826D01*
X753884Y1173826D01*
Y1177000D01*
Y1174884D02*
X756000Y1172768D01*
Y1167478D02*
X749652D01*
X752826Y1170652D01*
Y1166420D01*
X749500Y1143000D02*
X755848D01*
Y1146174D01*
X754790Y1147232D01*
X752674D01*
X751616Y1146174D01*
Y1143000D01*
Y1145116D02*
X749500Y1147232D01*
X755848Y1153580D02*
Y1149348D01*
X752674D01*
X753732Y1151464D01*
Y1152522D01*
X752674Y1153580D01*
X750558D01*
X749500Y1152522D01*
Y1150406D01*
X750558Y1149348D01*
X820000Y1153000D02*
Y1159348D01*
X816826D01*
X815768Y1158290D01*
Y1156174D01*
X816826Y1155116D01*
X820000D01*
X817884D02*
X815768Y1153000D01*
X809420Y1159348D02*
X811536Y1158290D01*
X813652Y1156174D01*
Y1154058D01*
X812594Y1153000D01*
X810478D01*
X809420Y1154058D01*
Y1155116D01*
X810478Y1156174D01*
X813652D01*
X1485028Y478950D02*
Y485298D01*
X1481854D01*
X1480796Y484240D01*
Y482124D01*
X1481854Y481066D01*
X1485028D01*
X1482912D02*
X1480796Y478950D01*
X1478680Y485298D02*
X1474448D01*
Y484240D01*
X1478680Y480008D01*
Y478950D01*
X1547000Y479500D02*
Y485848D01*
X1543826D01*
X1542768Y484790D01*
Y482674D01*
X1543826Y481616D01*
X1547000D01*
X1544884D02*
X1542768Y479500D01*
X1540652Y484790D02*
X1539594Y485848D01*
X1537478D01*
X1536420Y484790D01*
Y483732D01*
X1537478Y482674D01*
X1536420Y481616D01*
Y480558D01*
X1537478Y479500D01*
X1539594D01*
X1540652Y480558D01*
Y481616D01*
X1539594Y482674D01*
X1540652Y483732D01*
Y484790D01*
X1539594Y482674D02*
X1537478D01*
X1647000Y478000D02*
Y484348D01*
X1643826D01*
X1642768Y483290D01*
Y481174D01*
X1643826Y480116D01*
X1647000D01*
X1644884D02*
X1642768Y478000D01*
X1640652Y479058D02*
X1639594Y478000D01*
X1637478D01*
X1636420Y479058D01*
Y483290D01*
X1637478Y484348D01*
X1639594D01*
X1640652Y483290D01*
Y482232D01*
X1639594Y481174D01*
X1636420D01*
X1579000Y479500D02*
Y485848D01*
X1575826D01*
X1574768Y484790D01*
Y482674D01*
X1575826Y481616D01*
X1579000D01*
X1576884D02*
X1574768Y479500D01*
X1572652D02*
X1570536D01*
X1571594D01*
Y485848D01*
X1572652Y484790D01*
X1567362D02*
X1566304Y485848D01*
X1564188D01*
X1563130Y484790D01*
Y480558D01*
X1564188Y479500D01*
X1566304D01*
X1567362Y480558D01*
Y484790D01*
X1621000Y480000D02*
Y486348D01*
X1617826D01*
X1616768Y485290D01*
Y483174D01*
X1617826Y482116D01*
X1621000D01*
X1618884D02*
X1616768Y480000D01*
X1614652D02*
X1612536D01*
X1613594D01*
Y486348D01*
X1614652Y485290D01*
X1609362Y480000D02*
X1607246D01*
X1608304D01*
Y486348D01*
X1609362Y485290D01*
X1137118Y1373630D02*
Y1368340D01*
X1136060Y1367282D01*
X1133944D01*
X1132886Y1368340D01*
Y1373630D01*
X1130770Y1367282D02*
X1128654D01*
X1129712D01*
Y1373630D01*
X1130770Y1372572D01*
X769000Y954348D02*
Y949058D01*
X767942Y948000D01*
X765826D01*
X764768Y949058D01*
Y954348D01*
X758420Y948000D02*
X762652D01*
X758420Y952232D01*
Y953290D01*
X759478Y954348D01*
X761594D01*
X762652Y953290D01*
X1452286Y545862D02*
Y540572D01*
X1451228Y539514D01*
X1449112D01*
X1448054Y540572D01*
Y545862D01*
X1441706Y539514D02*
X1445938D01*
X1441706Y543746D01*
Y544804D01*
X1442764Y545862D01*
X1444880D01*
X1445938Y544804D01*
X1439590D02*
X1438532Y545862D01*
X1436416D01*
X1435358Y544804D01*
Y543746D01*
X1436416Y542688D01*
X1437474D01*
X1436416D01*
X1435358Y541630D01*
Y540572D01*
X1436416Y539514D01*
X1438532D01*
X1439590Y540572D01*
X1240000Y1314348D02*
Y1309058D01*
X1238942Y1308000D01*
X1236826D01*
X1235768Y1309058D01*
Y1314348D01*
X1229420Y1308000D02*
X1233652D01*
X1229420Y1312232D01*
Y1313290D01*
X1230478Y1314348D01*
X1232594D01*
X1233652Y1313290D01*
X1224130Y1308000D02*
Y1314348D01*
X1227304Y1311174D01*
X1223072D01*
X753000Y1123000D02*
X755116D01*
X754058D01*
Y1116652D01*
X753000Y1117710D01*
D45*
X1106020Y1299500D02*
G03*
X1098400Y1299500I-3810J0D01*
G01*
X1062480Y858230D02*
X1363470D01*
X1062480Y778220D02*
X1363470D01*
Y858230D01*
X1062480Y778220D02*
Y858230D01*
X1091690Y766790D02*
X1094230Y764250D01*
Y773140D01*
X1091690D02*
X1094230D01*
X1096770D01*
X1091690Y862040D02*
X1092960Y860770D01*
X1095500D01*
X1096770Y862040D01*
Y864580D01*
X1095500Y865850D02*
X1096770Y864580D01*
X1092960Y865850D02*
X1095500D01*
X1091690Y867120D02*
X1092960Y865850D01*
X1091690Y867120D02*
Y869660D01*
X1096770D01*
X1395110Y1123250D02*
Y1129600D01*
Y1123250D02*
X1556400D01*
Y1205800D01*
X1393840D02*
X1556400D01*
X1393840Y1148650D02*
Y1205800D01*
X964950Y1189990D02*
Y1206500D01*
X1375160D01*
Y1117600D02*
Y1206500D01*
X964950Y1117600D02*
X1375160D01*
X964950Y1155700D02*
Y1189990D01*
Y1117600D02*
Y1130300D01*
X1233500Y1283500D02*
X1236500D01*
X1233500Y1270500D02*
X1236500D01*
X1366500Y1236000D02*
Y1239000D01*
X1353500Y1236000D02*
Y1239000D01*
X1478500Y1233500D02*
X1481500D01*
X1478500Y1220500D02*
X1481500D01*
X1607500Y1161500D02*
Y1164500D01*
X1594500Y1161500D02*
Y1164500D01*
X1546500Y1045000D02*
Y1048000D01*
X1533500Y1045000D02*
Y1048000D01*
X1546500Y923500D02*
Y926500D01*
X1533500Y923500D02*
Y926500D01*
X1546500Y805500D02*
Y808500D01*
X1533500Y805500D02*
Y808500D01*
X1546500Y684500D02*
Y687500D01*
X1533500Y684500D02*
Y687500D01*
X1476500Y618500D02*
X1479500D01*
X1476500Y631500D02*
X1479500D01*
X1357500Y618500D02*
X1360500D01*
X1357500Y631500D02*
X1360500D01*
X1236500Y618500D02*
X1239500D01*
X1236500Y631500D02*
X1239500D01*
X1116500Y617500D02*
X1119500D01*
X1116500Y630500D02*
X1119500D01*
X996000Y617500D02*
X999000D01*
X996000Y630500D02*
X999000D01*
X931500Y685000D02*
Y688000D01*
X944500Y685000D02*
Y688000D01*
X931500Y807000D02*
Y810000D01*
X944500Y807000D02*
Y810000D01*
X931500Y925500D02*
Y928500D01*
X944500Y925500D02*
Y928500D01*
X955500Y1043000D02*
Y1046000D01*
X968500Y1043000D02*
Y1046000D01*
X931500Y1165500D02*
Y1168500D01*
X944500Y1165500D02*
Y1168500D01*
X968000Y1223500D02*
X971000D01*
X968000Y1236500D02*
X971000D01*
X1089000D02*
X1092000D01*
X1089000Y1223500D02*
X1092000D01*
X876500Y1090000D02*
Y1093000D01*
X889500Y1090000D02*
Y1093000D01*
X931510Y1070710D02*
Y1091030D01*
X898490Y1070710D02*
X931510D01*
X898490D02*
Y1112620D01*
X931510D01*
Y1091030D02*
Y1112620D01*
X898490Y1091030D02*
X931510D01*
X860500Y1181500D02*
X863500D01*
X860500Y1168500D02*
X863500D01*
X845490Y1188840D02*
X878510D01*
Y1209160D01*
X845490D02*
X878510D01*
X845490Y1188840D02*
Y1209160D01*
X798990Y1184160D02*
X832010D01*
X798990Y1163840D02*
Y1184160D01*
Y1163840D02*
X832010D01*
Y1184160D01*
X761990Y1138840D02*
X795010D01*
Y1159160D01*
X761990D02*
X795010D01*
X761990Y1138840D02*
Y1159160D01*
X826500Y1147500D02*
X829500D01*
X826500Y1134500D02*
X829500D01*
X778000Y1220500D02*
X781000D01*
X778000Y1233500D02*
X781000D01*
X778500Y1193500D02*
X781500D01*
X778500Y1206500D02*
X781500D01*
X761490Y1184160D02*
X794510D01*
X761490Y1163840D02*
Y1184160D01*
Y1163840D02*
X794510D01*
Y1184160D01*
X845490Y1215840D02*
X878510D01*
Y1236160D01*
X845490D02*
X878510D01*
X845490Y1215840D02*
Y1236160D01*
X1578500Y547000D02*
Y550000D01*
X1565500Y547000D02*
Y550000D01*
X1620500Y548000D02*
Y551000D01*
X1607500Y548000D02*
Y551000D01*
X1088240Y1299500D02*
X1098400D01*
X1106020D02*
X1113640D01*
Y1360460D01*
X1088240D02*
X1113640D01*
X1088240Y1299500D02*
Y1360460D01*
X1459410Y515270D02*
Y518270D01*
X1472410Y515270D02*
Y518270D01*
X1452490Y451840D02*
X1485510D01*
Y472160D01*
X1452490D02*
X1485510D01*
X1452490Y451840D02*
Y472160D01*
X1603840Y490990D02*
Y524010D01*
Y490990D02*
X1624160D01*
Y524010D01*
X1603840D02*
X1624160D01*
X1554160Y491490D02*
Y524510D01*
X1533840D02*
X1554160D01*
X1533840Y491490D02*
Y524510D01*
Y491490D02*
X1554160D01*
X1561840Y490490D02*
Y523510D01*
Y490490D02*
X1582160D01*
Y523510D01*
X1561840D02*
X1582160D01*
X1652160Y490990D02*
Y524010D01*
X1631840D02*
X1652160D01*
X1631840Y490990D02*
Y524010D01*
Y490990D02*
X1652160D01*
X1188000Y1298500D02*
X1191000D01*
X1188000Y1311500D02*
X1191000D01*
X1033000Y1359500D02*
X1036000D01*
X1033000Y1372500D02*
X1036000D01*
D71*
X1452452Y499730D02*
X1449787Y502396D01*
Y499730D02*
X1452452Y502396D01*
X1451119Y499730D02*
Y502396D01*
X1449787Y501063D02*
X1452452D01*
X1243270Y1346912D02*
X1240604Y1344247D01*
X1243270D02*
X1240604Y1346912D01*
X1243270Y1345579D02*
X1240604D01*
X1241937Y1344247D02*
Y1346912D01*
M02*
