G04 Layer_Color=65535*
%FSLAX44Y44*%
%MOMM*%
G71*
G01*
G75*
%ADD42C,0.1250*%
%ADD43C,0.1016*%
%ADD44C,0.1000*%
%ADD45C,0.1270*%
D42*
X1084710Y1260260D02*
X1094870Y1270420D01*
X1084710Y1218350D02*
Y1260260D01*
Y1218350D02*
X1152020D01*
Y1270420D01*
X1094870D02*
X1152020D01*
X964710Y1260260D02*
X974870Y1270420D01*
X964710Y1218350D02*
Y1260260D01*
Y1218350D02*
X1032020D01*
Y1270420D01*
X974870D02*
X1032020D01*
X894080Y1141370D02*
X904240Y1131210D01*
X946150D01*
Y1198520D01*
X894080D02*
X946150D01*
X894080Y1141370D02*
Y1198520D01*
Y1021370D02*
X904240Y1011210D01*
X946150D01*
Y1078520D01*
X894080D02*
X946150D01*
X894080Y1021370D02*
Y1078520D01*
Y901370D02*
X904240Y891210D01*
X946150D01*
Y958520D01*
X894080D02*
X946150D01*
X894080Y901370D02*
Y958520D01*
Y781370D02*
X904240Y771210D01*
X946150D01*
Y838520D01*
X894080D02*
X946150D01*
X894080Y781370D02*
Y838520D01*
Y661370D02*
X904240Y651210D01*
X946150D01*
Y718520D01*
X894080D02*
X946150D01*
X894080Y661370D02*
Y718520D01*
X1143130Y580580D02*
X1153290Y590740D01*
Y632650D01*
X1085980D02*
X1153290D01*
X1085980Y580580D02*
Y632650D01*
Y580580D02*
X1143130D01*
X1263130D02*
X1273290Y590740D01*
Y632650D01*
X1205980D02*
X1273290D01*
X1205980Y580580D02*
Y632650D01*
Y580580D02*
X1263130D01*
X1204710Y1260260D02*
X1214870Y1270420D01*
X1204710Y1218350D02*
Y1260260D01*
Y1218350D02*
X1272020D01*
Y1270420D01*
X1214870D02*
X1272020D01*
X1324710Y1260260D02*
X1334870Y1270420D01*
X1324710Y1218350D02*
Y1260260D01*
Y1218350D02*
X1392020D01*
Y1270420D01*
X1334870D02*
X1392020D01*
X1444710Y1260260D02*
X1454870Y1270420D01*
X1444710Y1218350D02*
Y1260260D01*
Y1218350D02*
X1512020D01*
Y1270420D01*
X1454870D02*
X1512020D01*
X1573760Y1199790D02*
X1583920Y1189630D01*
X1531850Y1199790D02*
X1573760D01*
X1531850Y1132480D02*
Y1199790D01*
Y1132480D02*
X1583920D01*
Y1189630D01*
X1573760Y1079790D02*
X1583920Y1069630D01*
X1531850Y1079790D02*
X1573760D01*
X1531850Y1012480D02*
Y1079790D01*
Y1012480D02*
X1583920D01*
Y1069630D01*
X1573760Y959790D02*
X1583920Y949630D01*
X1531850Y959790D02*
X1573760D01*
X1531850Y892480D02*
Y959790D01*
Y892480D02*
X1583920D01*
Y949630D01*
X1573760Y839790D02*
X1583920Y829630D01*
X1531850Y839790D02*
X1573760D01*
X1531850Y772480D02*
Y839790D01*
Y772480D02*
X1583920D01*
Y829630D01*
X1573760Y719790D02*
X1583920Y709630D01*
X1531850Y719790D02*
X1573760D01*
X1531850Y652480D02*
Y719790D01*
Y652480D02*
X1583920D01*
Y709630D01*
X1503130Y580580D02*
X1513290Y590740D01*
Y632650D01*
X1445980D02*
X1513290D01*
X1445980Y580580D02*
Y632650D01*
Y580580D02*
X1503130D01*
X1383130D02*
X1393290Y590740D01*
Y632650D01*
X1325980D02*
X1393290D01*
X1325980Y580580D02*
Y632650D01*
Y580580D02*
X1383130D01*
X1023130D02*
X1033290Y590740D01*
Y632650D01*
X965980D02*
X1033290D01*
X965980Y580580D02*
Y632650D01*
Y580580D02*
X1023130D01*
D43*
X770000Y1350500D02*
Y1356848D01*
X772116Y1354732D01*
X774232Y1356848D01*
Y1350500D01*
X776348Y1356848D02*
Y1350500D01*
Y1353674D01*
X780580D01*
Y1356848D01*
Y1350500D01*
X782696Y1355790D02*
X783754Y1356848D01*
X785870D01*
X786928Y1355790D01*
Y1354732D01*
X785870Y1353674D01*
X786928Y1352616D01*
Y1351558D01*
X785870Y1350500D01*
X783754D01*
X782696Y1351558D01*
Y1352616D01*
X783754Y1353674D01*
X782696Y1354732D01*
Y1355790D01*
X783754Y1353674D02*
X785870D01*
X1690000Y1351500D02*
Y1357848D01*
X1692116Y1355732D01*
X1694232Y1357848D01*
Y1351500D01*
X1696348Y1357848D02*
Y1351500D01*
Y1354674D01*
X1700580D01*
Y1357848D01*
Y1351500D01*
X1702696Y1357848D02*
X1706928D01*
Y1356790D01*
X1702696Y1352558D01*
Y1351500D01*
X770000Y495500D02*
Y501848D01*
X772116Y499732D01*
X774232Y501848D01*
Y495500D01*
X776348Y501848D02*
Y495500D01*
Y498674D01*
X780580D01*
Y501848D01*
Y495500D01*
X786928Y501848D02*
X784812Y500790D01*
X782696Y498674D01*
Y496558D01*
X783754Y495500D01*
X785870D01*
X786928Y496558D01*
Y497616D01*
X785870Y498674D01*
X782696D01*
X1692000Y493500D02*
Y499848D01*
X1694116Y497732D01*
X1696232Y499848D01*
Y493500D01*
X1698348Y499848D02*
Y493500D01*
Y496674D01*
X1702580D01*
Y499848D01*
Y493500D01*
X1708928Y499848D02*
X1704696D01*
Y496674D01*
X1706812Y497732D01*
X1707870D01*
X1708928Y496674D01*
Y494558D01*
X1707870Y493500D01*
X1705754D01*
X1704696Y494558D01*
X1449070Y952500D02*
Y958848D01*
X1451186Y956732D01*
X1453302Y958848D01*
Y952500D01*
X1455418Y958848D02*
Y952500D01*
Y955674D01*
X1459650D01*
Y958848D01*
Y952500D01*
X1465998D02*
X1461766D01*
X1465998Y956732D01*
Y957790D01*
X1464940Y958848D01*
X1462824D01*
X1461766Y957790D01*
X989076Y952500D02*
Y958848D01*
X991192Y956732D01*
X993308Y958848D01*
Y952500D01*
X995424Y958848D02*
Y952500D01*
Y955674D01*
X999656D01*
Y958848D01*
Y952500D01*
X1001772D02*
X1003888D01*
X1002830D01*
Y958848D01*
X1001772Y957790D01*
X1204350Y1051962D02*
Y1045614D01*
X1208582D01*
X1214930Y1050904D02*
X1213872Y1051962D01*
X1211756D01*
X1210698Y1050904D01*
Y1046672D01*
X1211756Y1045614D01*
X1213872D01*
X1214930Y1046672D01*
X1217046Y1051962D02*
Y1045614D01*
X1220220D01*
X1221278Y1046672D01*
Y1050904D01*
X1220220Y1051962D01*
X1217046D01*
X1223394Y1045614D02*
X1225510D01*
X1224452D01*
Y1051962D01*
X1223394Y1050904D01*
X1527000Y456000D02*
Y462348D01*
X1530174D01*
X1531232Y461290D01*
Y459174D01*
X1530174Y458116D01*
X1527000D01*
X1529116D02*
X1531232Y456000D01*
X1536522Y462348D02*
X1534406D01*
X1533348Y461290D01*
Y457058D01*
X1534406Y456000D01*
X1536522D01*
X1537580Y457058D01*
Y461290D01*
X1536522Y462348D01*
X1539696D02*
X1543928D01*
X1541812D01*
Y456000D01*
X1546044D02*
X1548160D01*
X1547102D01*
Y462348D01*
X1546044Y461290D01*
X1396232Y481290D02*
X1395174Y482348D01*
X1393058D01*
X1392000Y481290D01*
Y480232D01*
X1393058Y479174D01*
X1395174D01*
X1396232Y478116D01*
Y477058D01*
X1395174Y476000D01*
X1393058D01*
X1392000Y477058D01*
X1398348Y482348D02*
Y476000D01*
X1400464Y478116D01*
X1402580Y476000D01*
Y482348D01*
X1404696Y476000D02*
X1406812D01*
X1405754D01*
Y482348D01*
X1404696Y481290D01*
X1202182Y1288032D02*
Y1282742D01*
X1203240Y1281684D01*
X1205356D01*
X1206414Y1282742D01*
Y1288032D01*
X1208530Y1286974D02*
X1209588Y1288032D01*
X1211704D01*
X1212762Y1286974D01*
Y1285916D01*
X1211704Y1284858D01*
X1210646D01*
X1211704D01*
X1212762Y1283800D01*
Y1282742D01*
X1211704Y1281684D01*
X1209588D01*
X1208530Y1282742D01*
X1322070Y1288032D02*
Y1282742D01*
X1323128Y1281684D01*
X1325244D01*
X1326302Y1282742D01*
Y1288032D01*
X1331592Y1281684D02*
Y1288032D01*
X1328418Y1284858D01*
X1332650D01*
X1442212Y1288032D02*
Y1282742D01*
X1443270Y1281684D01*
X1445386D01*
X1446444Y1282742D01*
Y1288032D01*
X1452792D02*
X1448560D01*
Y1284858D01*
X1450676Y1285916D01*
X1451734D01*
X1452792Y1284858D01*
Y1282742D01*
X1451734Y1281684D01*
X1449618D01*
X1448560Y1282742D01*
X1532128Y1215896D02*
Y1210606D01*
X1533186Y1209548D01*
X1535302D01*
X1536360Y1210606D01*
Y1215896D01*
X1542708D02*
X1540592Y1214838D01*
X1538476Y1212722D01*
Y1210606D01*
X1539534Y1209548D01*
X1541650D01*
X1542708Y1210606D01*
Y1211664D01*
X1541650Y1212722D01*
X1538476D01*
X1532128Y1095754D02*
Y1090464D01*
X1533186Y1089406D01*
X1535302D01*
X1536360Y1090464D01*
Y1095754D01*
X1538476D02*
X1542708D01*
Y1094696D01*
X1538476Y1090464D01*
Y1089406D01*
X1532128Y975866D02*
Y970576D01*
X1533186Y969518D01*
X1535302D01*
X1536360Y970576D01*
Y975866D01*
X1538476Y974808D02*
X1539534Y975866D01*
X1541650D01*
X1542708Y974808D01*
Y973750D01*
X1541650Y972692D01*
X1542708Y971634D01*
Y970576D01*
X1541650Y969518D01*
X1539534D01*
X1538476Y970576D01*
Y971634D01*
X1539534Y972692D01*
X1538476Y973750D01*
Y974808D01*
X1539534Y972692D02*
X1541650D01*
X1532128Y855724D02*
Y850434D01*
X1533186Y849376D01*
X1535302D01*
X1536360Y850434D01*
Y855724D01*
X1538476Y850434D02*
X1539534Y849376D01*
X1541650D01*
X1542708Y850434D01*
Y854666D01*
X1541650Y855724D01*
X1539534D01*
X1538476Y854666D01*
Y853608D01*
X1539534Y852550D01*
X1542708D01*
X1532128Y735836D02*
Y730546D01*
X1533186Y729488D01*
X1535302D01*
X1536360Y730546D01*
Y735836D01*
X1538476Y729488D02*
X1540592D01*
X1539534D01*
Y735836D01*
X1538476Y734778D01*
X1543766D02*
X1544824Y735836D01*
X1546940D01*
X1547998Y734778D01*
Y730546D01*
X1546940Y729488D01*
X1544824D01*
X1543766Y730546D01*
Y734778D01*
X1446276Y645666D02*
Y640376D01*
X1447334Y639318D01*
X1449450D01*
X1450508Y640376D01*
Y645666D01*
X1452624Y639318D02*
X1454740D01*
X1453682D01*
Y645666D01*
X1452624Y644608D01*
X1457914Y639318D02*
X1460030D01*
X1458972D01*
Y645666D01*
X1457914Y644608D01*
X1326388Y645666D02*
Y640376D01*
X1327446Y639318D01*
X1329562D01*
X1330620Y640376D01*
Y645666D01*
X1332736Y639318D02*
X1334852D01*
X1333794D01*
Y645666D01*
X1332736Y644608D01*
X1342258Y639318D02*
X1338026D01*
X1342258Y643550D01*
Y644608D01*
X1341200Y645666D01*
X1339084D01*
X1338026Y644608D01*
X1082294Y1288032D02*
Y1282742D01*
X1083352Y1281684D01*
X1085468D01*
X1086526Y1282742D01*
Y1288032D01*
X1088642Y1281684D02*
X1090758D01*
X1089700D01*
Y1288032D01*
X1088642Y1286974D01*
X1093932D02*
X1094990Y1288032D01*
X1097106D01*
X1098164Y1286974D01*
Y1285916D01*
X1097106Y1284858D01*
X1096048D01*
X1097106D01*
X1098164Y1283800D01*
Y1282742D01*
X1097106Y1281684D01*
X1094990D01*
X1093932Y1282742D01*
X962152Y1288032D02*
Y1282742D01*
X963210Y1281684D01*
X965326D01*
X966384Y1282742D01*
Y1288032D01*
X968500Y1281684D02*
X970616D01*
X969558D01*
Y1288032D01*
X968500Y1286974D01*
X976964Y1281684D02*
Y1288032D01*
X973790Y1284858D01*
X978022D01*
X890016Y1211578D02*
Y1206288D01*
X891074Y1205230D01*
X893190D01*
X894248Y1206288D01*
Y1211578D01*
X896364Y1205230D02*
X898480D01*
X897422D01*
Y1211578D01*
X896364Y1210520D01*
X905886Y1211578D02*
X901654D01*
Y1208404D01*
X903770Y1209462D01*
X904828D01*
X905886Y1208404D01*
Y1206288D01*
X904828Y1205230D01*
X902712D01*
X901654Y1206288D01*
X890016Y1091690D02*
Y1086400D01*
X891074Y1085342D01*
X893190D01*
X894248Y1086400D01*
Y1091690D01*
X896364Y1085342D02*
X898480D01*
X897422D01*
Y1091690D01*
X896364Y1090632D01*
X905886Y1091690D02*
X903770Y1090632D01*
X901654Y1088516D01*
Y1086400D01*
X902712Y1085342D01*
X904828D01*
X905886Y1086400D01*
Y1087458D01*
X904828Y1088516D01*
X901654D01*
X890016Y971548D02*
Y966258D01*
X891074Y965200D01*
X893190D01*
X894248Y966258D01*
Y971548D01*
X896364Y965200D02*
X898480D01*
X897422D01*
Y971548D01*
X896364Y970490D01*
X901654Y971548D02*
X905886D01*
Y970490D01*
X901654Y966258D01*
Y965200D01*
X890016Y851660D02*
Y846370D01*
X891074Y845312D01*
X893190D01*
X894248Y846370D01*
Y851660D01*
X896364Y845312D02*
X898480D01*
X897422D01*
Y851660D01*
X896364Y850602D01*
X901654D02*
X902712Y851660D01*
X904828D01*
X905886Y850602D01*
Y849544D01*
X904828Y848486D01*
X905886Y847428D01*
Y846370D01*
X904828Y845312D01*
X902712D01*
X901654Y846370D01*
Y847428D01*
X902712Y848486D01*
X901654Y849544D01*
Y850602D01*
X902712Y848486D02*
X904828D01*
X890016Y731518D02*
Y726228D01*
X891074Y725170D01*
X893190D01*
X894248Y726228D01*
Y731518D01*
X896364Y725170D02*
X898480D01*
X897422D01*
Y731518D01*
X896364Y730460D01*
X901654Y726228D02*
X902712Y725170D01*
X904828D01*
X905886Y726228D01*
Y730460D01*
X904828Y731518D01*
X902712D01*
X901654Y730460D01*
Y729402D01*
X902712Y728344D01*
X905886D01*
X950000Y643348D02*
Y638058D01*
X951058Y637000D01*
X953174D01*
X954232Y638058D01*
Y643348D01*
X960580Y637000D02*
X956348D01*
X960580Y641232D01*
Y642290D01*
X959522Y643348D01*
X957406D01*
X956348Y642290D01*
X962696D02*
X963754Y643348D01*
X965870D01*
X966928Y642290D01*
Y638058D01*
X965870Y637000D01*
X963754D01*
X962696Y638058D01*
Y642290D01*
X1086358Y645666D02*
Y640376D01*
X1087416Y639318D01*
X1089532D01*
X1090590Y640376D01*
Y645666D01*
X1096938Y639318D02*
X1092706D01*
X1096938Y643550D01*
Y644608D01*
X1095880Y645666D01*
X1093764D01*
X1092706Y644608D01*
X1099054Y639318D02*
X1101170D01*
X1100112D01*
Y645666D01*
X1099054Y644608D01*
X1206246Y645666D02*
Y640376D01*
X1207304Y639318D01*
X1209420D01*
X1210478Y640376D01*
Y645666D01*
X1216826Y639318D02*
X1212594D01*
X1216826Y643550D01*
Y644608D01*
X1215768Y645666D01*
X1213652D01*
X1212594Y644608D01*
X1223174Y639318D02*
X1218942D01*
X1223174Y643550D01*
Y644608D01*
X1222116Y645666D01*
X1220000D01*
X1218942Y644608D01*
X1545828Y1395812D02*
X1544770Y1396870D01*
X1542654D01*
X1541596Y1395812D01*
Y1394754D01*
X1542654Y1393696D01*
X1544770D01*
X1545828Y1392638D01*
Y1391580D01*
X1544770Y1390522D01*
X1542654D01*
X1541596Y1391580D01*
X1547944Y1390522D02*
Y1396870D01*
X1551118D01*
X1552176Y1395812D01*
Y1393696D01*
X1551118Y1392638D01*
X1547944D01*
X1554292Y1396870D02*
Y1390522D01*
Y1392638D01*
X1558524Y1396870D01*
X1555350Y1393696D01*
X1558524Y1390522D01*
X1560640D02*
Y1396870D01*
X1563814D01*
X1564872Y1395812D01*
Y1393696D01*
X1563814Y1392638D01*
X1560640D01*
X1562756D02*
X1564872Y1390522D01*
X1566988D02*
X1569104D01*
X1568046D01*
Y1396870D01*
X1566988Y1395812D01*
D44*
X1082170Y1274585D02*
X1085502Y1271253D01*
X1082170D02*
X1085502Y1274585D01*
X1082170Y1272919D02*
X1085502D01*
X1083836Y1271253D02*
Y1274585D01*
X962170D02*
X965502Y1271253D01*
X962170D02*
X965502Y1274585D01*
X962170Y1272919D02*
X965502D01*
X963836Y1271253D02*
Y1274585D01*
X889915Y1128670D02*
X893247Y1132002D01*
Y1128670D02*
X889915Y1132002D01*
X891581Y1128670D02*
Y1132002D01*
X893247Y1130336D02*
X889915D01*
Y1008670D02*
X893247Y1012002D01*
Y1008670D02*
X889915Y1012002D01*
X891581Y1008670D02*
Y1012002D01*
X893247Y1010336D02*
X889915D01*
Y888670D02*
X893247Y892002D01*
Y888670D02*
X889915Y892002D01*
X891581Y888670D02*
Y892002D01*
X893247Y890336D02*
X889915D01*
Y768670D02*
X893247Y772002D01*
Y768670D02*
X889915Y772002D01*
X891581Y768670D02*
Y772002D01*
X893247Y770336D02*
X889915D01*
Y648670D02*
X893247Y652002D01*
Y648670D02*
X889915Y652002D01*
X891581Y648670D02*
Y652002D01*
X893247Y650336D02*
X889915D01*
X1155830Y576415D02*
X1152498Y579747D01*
X1155830D02*
X1152498Y576415D01*
X1155830Y578081D02*
X1152498D01*
X1154164Y579747D02*
Y576415D01*
X1275830D02*
X1272498Y579747D01*
X1275830D02*
X1272498Y576415D01*
X1275830Y578081D02*
X1272498D01*
X1274164Y579747D02*
Y576415D01*
X1202170Y1274585D02*
X1205502Y1271253D01*
X1202170D02*
X1205502Y1274585D01*
X1202170Y1272919D02*
X1205502D01*
X1203836Y1271253D02*
Y1274585D01*
X1322170D02*
X1325502Y1271253D01*
X1322170D02*
X1325502Y1274585D01*
X1322170Y1272919D02*
X1325502D01*
X1323836Y1271253D02*
Y1274585D01*
X1442170D02*
X1445502Y1271253D01*
X1442170D02*
X1445502Y1274585D01*
X1442170Y1272919D02*
X1445502D01*
X1443836Y1271253D02*
Y1274585D01*
X1588085Y1202330D02*
X1584753Y1198998D01*
Y1202330D02*
X1588085Y1198998D01*
X1586419Y1202330D02*
Y1198998D01*
X1584753Y1200664D02*
X1588085D01*
Y1082330D02*
X1584753Y1078998D01*
Y1082330D02*
X1588085Y1078998D01*
X1586419Y1082330D02*
Y1078998D01*
X1584753Y1080664D02*
X1588085D01*
Y962330D02*
X1584753Y958998D01*
Y962330D02*
X1588085Y958998D01*
X1586419Y962330D02*
Y958998D01*
X1584753Y960664D02*
X1588085D01*
Y842330D02*
X1584753Y838998D01*
Y842330D02*
X1588085Y838998D01*
X1586419Y842330D02*
Y838998D01*
X1584753Y840664D02*
X1588085D01*
Y722330D02*
X1584753Y718998D01*
Y722330D02*
X1588085Y718998D01*
X1586419Y722330D02*
Y718998D01*
X1584753Y720664D02*
X1588085D01*
X1515830Y576415D02*
X1512498Y579747D01*
X1515830D02*
X1512498Y576415D01*
X1515830Y578081D02*
X1512498D01*
X1514164Y579747D02*
Y576415D01*
X1395830D02*
X1392498Y579747D01*
X1395830D02*
X1392498Y576415D01*
X1395830Y578081D02*
X1392498D01*
X1394164Y579747D02*
Y576415D01*
X1035830D02*
X1032498Y579747D01*
X1035830D02*
X1032498Y576415D01*
X1035830Y578081D02*
X1032498D01*
X1034164Y579747D02*
Y576415D01*
X1209255Y1033818D02*
X1210088Y1034651D01*
Y1036317D01*
X1209255Y1037150D01*
X1205923D01*
X1205090Y1036317D01*
Y1034651D01*
X1205923Y1033818D01*
X1207589D01*
Y1035484D01*
X1205090Y1032152D02*
X1208422D01*
Y1029652D01*
X1207589Y1028819D01*
X1205090D01*
X1210088Y1023821D02*
X1205090D01*
Y1026320D01*
X1205923Y1027153D01*
X1207589D01*
X1208422Y1026320D01*
Y1023821D01*
X1209255Y939838D02*
X1210088Y940671D01*
Y942337D01*
X1209255Y943170D01*
X1205923D01*
X1205090Y942337D01*
Y940671D01*
X1205923Y939838D01*
X1205090Y938172D02*
X1208422D01*
X1210088Y936506D01*
X1208422Y934839D01*
X1205090D01*
X1207589D01*
Y938172D01*
X1205090Y933173D02*
X1210088D01*
Y930674D01*
X1209255Y929841D01*
X1207589D01*
X1206756Y930674D01*
Y933173D01*
Y931507D02*
X1205090Y929841D01*
X1210088Y928175D02*
X1205090D01*
Y925676D01*
X1205923Y924843D01*
X1209255D01*
X1210088Y925676D01*
Y928175D01*
X1204257Y923176D02*
Y919844D01*
X1209255Y914846D02*
X1210088Y915679D01*
Y917345D01*
X1209255Y918178D01*
X1205923D01*
X1205090Y917345D01*
Y915679D01*
X1205923Y914846D01*
X1209255Y909848D02*
X1210088Y910681D01*
Y912347D01*
X1209255Y913180D01*
X1208422D01*
X1207589Y912347D01*
Y910681D01*
X1206756Y909848D01*
X1205923D01*
X1205090Y910681D01*
Y912347D01*
X1205923Y913180D01*
X1263428Y945710D02*
Y942378D01*
Y944044D01*
X1258430D01*
X1263428Y937379D02*
Y940712D01*
X1260929D01*
Y939045D01*
Y940712D01*
X1258430D01*
X1263428Y935713D02*
Y932381D01*
Y934047D01*
X1258430D01*
X1257597Y930715D02*
Y927383D01*
X1262595Y922384D02*
X1263428Y923217D01*
Y924883D01*
X1262595Y925716D01*
X1259263D01*
X1258430Y924883D01*
Y923217D01*
X1259263Y922384D01*
X1262595Y917386D02*
X1263428Y918219D01*
Y919885D01*
X1262595Y920718D01*
X1261762D01*
X1260929Y919885D01*
Y918219D01*
X1260096Y917386D01*
X1259263D01*
X1258430Y918219D01*
Y919885D01*
X1259263Y920718D01*
X1263428Y1038420D02*
X1258430D01*
Y1035088D01*
X1263428Y1033422D02*
Y1031756D01*
Y1032589D01*
X1258430D01*
Y1033422D01*
Y1031756D01*
X1263428Y1029256D02*
Y1025924D01*
Y1027590D01*
X1258430D01*
X1263428Y1020926D02*
Y1024258D01*
X1258430D01*
Y1020926D01*
X1260929Y1024258D02*
Y1022592D01*
X1271048Y987620D02*
X1266050D01*
Y984288D01*
X1270215Y979289D02*
X1271048Y980122D01*
Y981789D01*
X1270215Y982622D01*
X1266883D01*
X1266050Y981789D01*
Y980122D01*
X1266883Y979289D01*
X1271048Y977623D02*
X1266050D01*
Y975124D01*
X1266883Y974291D01*
X1270215D01*
X1271048Y975124D01*
Y977623D01*
X1611860Y476698D02*
Y471700D01*
X1614359D01*
X1615192Y472533D01*
Y473366D01*
X1614359Y474199D01*
X1611860D01*
X1614359D01*
X1615192Y475032D01*
Y475865D01*
X1614359Y476698D01*
X1611860D01*
X1584712Y475865D02*
X1583879Y476698D01*
X1582213D01*
X1581380Y475865D01*
Y472533D01*
X1582213Y471700D01*
X1583879D01*
X1584712Y472533D01*
Y474199D01*
X1583046D01*
X1586378Y471700D02*
Y476698D01*
X1589711Y471700D01*
Y476698D01*
X1591377D02*
Y471700D01*
X1593876D01*
X1594709Y472533D01*
Y475865D01*
X1593876Y476698D01*
X1591377D01*
X1562330Y471700D02*
Y475032D01*
X1563996Y476698D01*
X1565662Y475032D01*
Y471700D01*
Y474199D01*
X1562330D01*
X1549870Y1362071D02*
X1546538D01*
X1576540D02*
X1573208D01*
X1574874Y1360405D02*
Y1363737D01*
X1419470Y445508D02*
Y450507D01*
X1416971D01*
X1416138Y449674D01*
Y448841D01*
X1416971Y448008D01*
X1419470D01*
X1416971D01*
X1416138Y447174D01*
Y446341D01*
X1416971Y445508D01*
X1419470D01*
X1414472D02*
X1411140D01*
X1412806D01*
Y450507D01*
X1409474D02*
Y445508D01*
X1406141Y450507D01*
Y445508D01*
D45*
X1446000Y702000D02*
Y707078D01*
X1447270D01*
X1448539Y705809D01*
Y702000D01*
Y705809D01*
X1449809Y707078D01*
X1451078Y705809D01*
Y702000D01*
X1457426D02*
X1454887D01*
X1453618Y703270D01*
Y705809D01*
X1454887Y707078D01*
X1457426D01*
X1458696Y705809D01*
Y704539D01*
X1453618D01*
X1461235Y702000D02*
Y709617D01*
Y704539D02*
X1465044Y707078D01*
X1461235Y704539D02*
X1465044Y702000D01*
M02*
