G04 Layer_Physical_Order=2*
G04 Layer_Color=16711680*
%FSLAX44Y44*%
%MOMM*%
G71*
G01*
G75*
%ADD12C,0.5080*%
%ADD13C,0.3810*%
%ADD14C,0.6350*%
%ADD15C,0.2540*%
%ADD16C,4.0000*%
%ADD17C,1.3000*%
%ADD18C,0.9000*%
%ADD19C,2.0000*%
%ADD20C,1.7000*%
%ADD21C,1.2700*%
%ADD22C,0.7112*%
%ADD23C,0.8890*%
%ADD24C,0.8636*%
%ADD25R,0.5000X2.0000*%
%ADD26R,1.1200X1.8300*%
%ADD27R,1.0000X2.6000*%
%ADD28R,2.2000X2.0000*%
%ADD29R,1.3000X1.5000*%
%ADD30R,1.5000X1.3000*%
%ADD31R,3.0000X1.2000*%
%ADD32R,5.3500X8.5400*%
%ADD33R,0.8900X3.0600*%
%ADD34R,1.2000X1.5000*%
%ADD35R,1.6000X0.3000*%
%ADD36R,0.6000X1.1000*%
%ADD37R,1.5000X1.2000*%
%ADD38R,0.5200X0.4200*%
%ADD39C,1.2700*%
%ADD40C,1.0160*%
%ADD41C,1.9050*%
G36*
X1735374Y429126D02*
X742626D01*
Y1421874D01*
X1735374D01*
Y429126D01*
D02*
G37*
%LPC*%
G36*
X1509230Y944230D02*
X1503622D01*
X1503695Y943677D01*
X1504399Y941977D01*
X1505518Y940518D01*
X1506977Y939399D01*
X1508676Y938695D01*
X1509230Y938622D01*
Y944230D01*
D02*
G37*
G36*
X1517378D02*
X1511770D01*
Y938622D01*
X1512323Y938695D01*
X1514023Y939399D01*
X1515482Y940518D01*
X1516601Y941977D01*
X1517305Y943677D01*
X1517378Y944230D01*
D02*
G37*
G36*
X1222000Y965879D02*
X1219184Y965508D01*
X1216561Y964421D01*
X1214307Y962693D01*
X1212579Y960440D01*
X1211492Y957816D01*
X1211121Y955000D01*
X1211492Y952184D01*
X1212579Y949560D01*
X1214307Y947307D01*
X1216561Y945579D01*
X1219184Y944492D01*
X1222000Y944121D01*
X1224816Y944492D01*
X1227439Y945579D01*
X1229693Y947307D01*
X1231422Y949560D01*
X1232508Y952184D01*
X1232879Y955000D01*
X1232508Y957816D01*
X1231422Y960440D01*
X1229693Y962693D01*
X1227439Y964421D01*
X1224816Y965508D01*
X1222000Y965879D01*
D02*
G37*
G36*
X1547500Y943590D02*
X1541270D01*
Y935770D01*
X1550090D01*
Y941000D01*
X1549893Y941991D01*
X1549331Y942831D01*
X1548491Y943393D01*
X1547500Y943590D01*
D02*
G37*
G36*
X1550090Y933230D02*
X1540000D01*
X1529910D01*
Y928000D01*
X1530107Y927009D01*
X1530669Y926169D01*
X1531509Y925607D01*
X1531959Y925518D01*
Y924223D01*
X1531608Y924153D01*
X1530852Y923648D01*
X1530347Y922892D01*
X1530169Y922000D01*
Y919773D01*
X1515822D01*
X1515801Y919801D01*
X1514395Y920880D01*
X1512757Y921558D01*
X1511000Y921789D01*
X1509243Y921558D01*
X1507605Y920880D01*
X1506199Y919801D01*
X1505121Y918395D01*
X1504442Y916757D01*
X1504211Y915000D01*
X1504442Y913243D01*
X1505121Y911605D01*
X1506199Y910199D01*
X1507605Y909120D01*
X1509243Y908442D01*
X1511000Y908211D01*
X1512757Y908442D01*
X1514395Y909120D01*
X1515801Y910199D01*
X1516589Y911227D01*
X1530169D01*
Y909000D01*
X1530347Y908108D01*
X1530852Y907352D01*
X1531608Y906847D01*
X1532500Y906669D01*
X1547500D01*
X1548392Y906847D01*
X1549148Y907352D01*
X1549653Y908108D01*
X1549831Y909000D01*
Y922000D01*
X1549653Y922892D01*
X1549148Y923648D01*
X1548392Y924153D01*
X1548041Y924223D01*
Y925518D01*
X1548491Y925607D01*
X1549331Y926169D01*
X1549893Y927009D01*
X1550090Y928000D01*
Y933230D01*
D02*
G37*
G36*
X1222000Y940879D02*
X1219184Y940508D01*
X1216561Y939421D01*
X1214307Y937693D01*
X1212579Y935440D01*
X1211492Y932816D01*
X1211121Y930000D01*
X1211492Y927184D01*
X1212579Y924560D01*
X1214307Y922307D01*
X1216561Y920579D01*
X1219184Y919492D01*
X1222000Y919121D01*
X1224816Y919492D01*
X1227439Y920579D01*
X1229693Y922307D01*
X1231422Y924560D01*
X1232508Y927184D01*
X1232879Y930000D01*
X1232508Y932816D01*
X1231422Y935440D01*
X1229693Y937693D01*
X1227439Y939421D01*
X1224816Y940508D01*
X1222000Y940879D01*
D02*
G37*
G36*
X1538730Y943590D02*
X1532500D01*
X1531509Y943393D01*
X1530669Y942831D01*
X1530107Y941991D01*
X1529910Y941000D01*
Y935770D01*
X1538730D01*
Y943590D01*
D02*
G37*
G36*
X945500Y945331D02*
X930500D01*
X929608Y945153D01*
X928852Y944648D01*
X928347Y943892D01*
X928169Y943000D01*
Y930000D01*
X928347Y929108D01*
X928852Y928352D01*
X929608Y927847D01*
X929959Y927777D01*
Y926482D01*
X929509Y926393D01*
X928669Y925831D01*
X928107Y924991D01*
X927910Y924000D01*
Y918770D01*
X938000D01*
Y917500D01*
D01*
Y918770D01*
X948090D01*
Y924000D01*
X947893Y924991D01*
X947331Y925831D01*
X946491Y926393D01*
X946041Y926482D01*
Y927777D01*
X946392Y927847D01*
X947148Y928352D01*
X947653Y929108D01*
X947831Y930000D01*
Y931580D01*
X955856D01*
X957105Y930620D01*
X958743Y929942D01*
X960500Y929711D01*
X962257Y929942D01*
X963895Y930620D01*
X965301Y931699D01*
X966379Y933105D01*
X967058Y934743D01*
X967289Y936500D01*
X967058Y938257D01*
X966379Y939894D01*
X965301Y941301D01*
X963895Y942380D01*
X962257Y943058D01*
X960500Y943289D01*
X958743Y943058D01*
X957105Y942380D01*
X955856Y941421D01*
X947831D01*
Y943000D01*
X947653Y943892D01*
X947148Y944648D01*
X946392Y945153D01*
X945500Y945331D01*
D02*
G37*
G36*
X1509230Y952378D02*
X1508676Y952305D01*
X1506977Y951601D01*
X1505518Y950482D01*
X1504399Y949023D01*
X1503695Y947324D01*
X1503622Y946770D01*
X1509230D01*
Y952378D01*
D02*
G37*
G36*
X1247000Y1015879D02*
X1244184Y1015508D01*
X1241561Y1014421D01*
X1239307Y1012693D01*
X1237579Y1010440D01*
X1236492Y1007816D01*
X1236121Y1005000D01*
X1236492Y1002184D01*
X1237579Y999560D01*
X1239307Y997307D01*
X1241561Y995579D01*
X1244184Y994492D01*
X1247000Y994121D01*
X1249816Y994492D01*
X1252439Y995579D01*
X1254693Y997307D01*
X1256422Y999560D01*
X1257508Y1002184D01*
X1257879Y1005000D01*
X1257508Y1007816D01*
X1256422Y1010440D01*
X1254693Y1012693D01*
X1252439Y1014421D01*
X1249816Y1015508D01*
X1247000Y1015879D01*
D02*
G37*
G36*
X1222000D02*
X1219184Y1015508D01*
X1216561Y1014421D01*
X1214307Y1012693D01*
X1212579Y1010440D01*
X1211492Y1007816D01*
X1211121Y1005000D01*
X1211492Y1002184D01*
X1212579Y999560D01*
X1214307Y997307D01*
X1216561Y995579D01*
X1219184Y994492D01*
X1222000Y994121D01*
X1224816Y994492D01*
X1227439Y995579D01*
X1229693Y997307D01*
X1231422Y999560D01*
X1232508Y1002184D01*
X1232879Y1005000D01*
X1232508Y1007816D01*
X1231422Y1010440D01*
X1229693Y1012693D01*
X1227439Y1014421D01*
X1224816Y1015508D01*
X1222000Y1015879D01*
D02*
G37*
G36*
X1612730Y568090D02*
X1606500D01*
X1605509Y567893D01*
X1604669Y567331D01*
X1604107Y566491D01*
X1603910Y565500D01*
Y560270D01*
X1612730D01*
Y568090D01*
D02*
G37*
G36*
X1621500D02*
X1615270D01*
Y560270D01*
X1624090D01*
Y565500D01*
X1623893Y566491D01*
X1623331Y567331D01*
X1622491Y567893D01*
X1621500Y568090D01*
D02*
G37*
G36*
X839340Y1015730D02*
X811270D01*
Y971710D01*
X836750D01*
X837741Y971907D01*
X838581Y972469D01*
X839143Y973309D01*
X839340Y974300D01*
Y1015730D01*
D02*
G37*
G36*
X1222000Y990879D02*
X1219184Y990508D01*
X1216561Y989421D01*
X1214307Y987693D01*
X1212579Y985440D01*
X1211492Y982816D01*
X1211121Y980000D01*
X1211492Y977184D01*
X1212579Y974560D01*
X1214307Y972307D01*
X1216561Y970579D01*
X1219184Y969492D01*
X1222000Y969121D01*
X1224816Y969492D01*
X1227439Y970579D01*
X1229693Y972307D01*
X1231422Y974560D01*
X1232508Y977184D01*
X1232879Y980000D01*
X1232508Y982816D01*
X1231422Y985440D01*
X1229693Y987693D01*
X1227439Y989421D01*
X1224816Y990508D01*
X1222000Y990879D01*
D02*
G37*
G36*
X1511770Y952378D02*
Y946770D01*
X1517378D01*
X1517305Y947324D01*
X1516601Y949023D01*
X1515482Y950482D01*
X1514023Y951601D01*
X1512323Y952305D01*
X1511770Y952378D01*
D02*
G37*
G36*
X808730Y1015730D02*
X780660D01*
Y974300D01*
X780857Y973309D01*
X781419Y972469D01*
X782259Y971907D01*
X783250Y971710D01*
X808730D01*
Y1015730D01*
D02*
G37*
G36*
X1247000Y990879D02*
X1244184Y990508D01*
X1241561Y989421D01*
X1239307Y987693D01*
X1237579Y985440D01*
X1236492Y982816D01*
X1236121Y980000D01*
X1236492Y977184D01*
X1237579Y974560D01*
X1239307Y972307D01*
X1241561Y970579D01*
X1244184Y969492D01*
X1247000Y969121D01*
X1249816Y969492D01*
X1252439Y970579D01*
X1254693Y972307D01*
X1256422Y974560D01*
X1257508Y977184D01*
X1257879Y980000D01*
X1257508Y982816D01*
X1256422Y985440D01*
X1254693Y987693D01*
X1252439Y989421D01*
X1249816Y990508D01*
X1247000Y990879D01*
D02*
G37*
G36*
X1246230Y852590D02*
X1245000D01*
X1244009Y852393D01*
X1243271Y851900D01*
X1242892Y852153D01*
X1242000Y852331D01*
X1237000D01*
X1236108Y852153D01*
X1235500Y851747D01*
X1234892Y852153D01*
X1234000Y852331D01*
X1229000D01*
X1228108Y852153D01*
X1227500Y851747D01*
X1226892Y852153D01*
X1226000Y852331D01*
X1221000D01*
X1220108Y852153D01*
X1219500Y851747D01*
X1218892Y852153D01*
X1218000Y852331D01*
X1213000D01*
X1212108Y852153D01*
X1211729Y851900D01*
X1210991Y852393D01*
X1210000Y852590D01*
X1208770D01*
Y840000D01*
Y827410D01*
X1210000D01*
X1210991Y827607D01*
X1211729Y828100D01*
X1212108Y827847D01*
X1213000Y827669D01*
X1218000D01*
X1218892Y827847D01*
X1219500Y828253D01*
X1220108Y827847D01*
X1221000Y827669D01*
X1226000D01*
X1226892Y827847D01*
X1227500Y828253D01*
X1228108Y827847D01*
X1229000Y827669D01*
X1234000D01*
X1234892Y827847D01*
X1235500Y828253D01*
X1236108Y827847D01*
X1237000Y827669D01*
X1242000D01*
X1242892Y827847D01*
X1243271Y828100D01*
X1244009Y827607D01*
X1245000Y827410D01*
X1246230D01*
Y840000D01*
Y852590D01*
D02*
G37*
G36*
X1206230D02*
X1205000D01*
X1204009Y852393D01*
X1203271Y851900D01*
X1202892Y852153D01*
X1202000Y852331D01*
X1197000D01*
X1196108Y852153D01*
X1195500Y851747D01*
X1194892Y852153D01*
X1194000Y852331D01*
X1189000D01*
X1188108Y852153D01*
X1187729Y851900D01*
X1186991Y852393D01*
X1186000Y852590D01*
X1184770D01*
Y840000D01*
Y827410D01*
X1186000D01*
X1186991Y827607D01*
X1187729Y828100D01*
X1188108Y827847D01*
X1189000Y827669D01*
X1194000D01*
X1194892Y827847D01*
X1195500Y828253D01*
X1196108Y827847D01*
X1197000Y827669D01*
X1202000D01*
X1202892Y827847D01*
X1203271Y828100D01*
X1204009Y827607D01*
X1205000Y827410D01*
X1206230D01*
Y840000D01*
Y852590D01*
D02*
G37*
G36*
X1110230D02*
X1109000D01*
X1108009Y852393D01*
X1107271Y851900D01*
X1106892Y852153D01*
X1106000Y852331D01*
X1101000D01*
X1100108Y852153D01*
X1099500Y851747D01*
X1098892Y852153D01*
X1098000Y852331D01*
X1093000D01*
X1092108Y852153D01*
X1091352Y851648D01*
X1090847Y850892D01*
X1090669Y850000D01*
Y830000D01*
X1090847Y829108D01*
X1091352Y828352D01*
X1092108Y827847D01*
X1093000Y827669D01*
X1098000D01*
X1098892Y827847D01*
X1099500Y828253D01*
X1100108Y827847D01*
X1101000Y827669D01*
X1106000D01*
X1106892Y827847D01*
X1107271Y828100D01*
X1108009Y827607D01*
X1109000Y827410D01*
X1110230D01*
Y840000D01*
Y852590D01*
D02*
G37*
G36*
X1318230D02*
X1317000D01*
X1316009Y852393D01*
X1315271Y851900D01*
X1314892Y852153D01*
X1314000Y852331D01*
X1309000D01*
X1308108Y852153D01*
X1307500Y851747D01*
X1306892Y852153D01*
X1306000Y852331D01*
X1301000D01*
X1300108Y852153D01*
X1299729Y851900D01*
X1298991Y852393D01*
X1298000Y852590D01*
X1296770D01*
Y840000D01*
Y827410D01*
X1298000D01*
X1298991Y827607D01*
X1299729Y828100D01*
X1300108Y827847D01*
X1301000Y827669D01*
X1306000D01*
X1306892Y827847D01*
X1307500Y828253D01*
X1308108Y827847D01*
X1309000Y827669D01*
X1314000D01*
X1314892Y827847D01*
X1315271Y828100D01*
X1316009Y827607D01*
X1317000Y827410D01*
X1318230D01*
Y840000D01*
Y852590D01*
D02*
G37*
G36*
X1294230D02*
X1293000D01*
X1292009Y852393D01*
X1291271Y851900D01*
X1290892Y852153D01*
X1290000Y852331D01*
X1285000D01*
X1284108Y852153D01*
X1283500Y851747D01*
X1282892Y852153D01*
X1282000Y852331D01*
X1277000D01*
X1276108Y852153D01*
X1275729Y851900D01*
X1274991Y852393D01*
X1274000Y852590D01*
X1272770D01*
Y840000D01*
Y827410D01*
X1274000D01*
X1274991Y827607D01*
X1275729Y828100D01*
X1276108Y827847D01*
X1277000Y827669D01*
X1282000D01*
X1282892Y827847D01*
X1283500Y828253D01*
X1284108Y827847D01*
X1285000Y827669D01*
X1290000D01*
X1290892Y827847D01*
X1291271Y828100D01*
X1292009Y827607D01*
X1293000Y827410D01*
X1294230D01*
Y840000D01*
Y852590D01*
D02*
G37*
G36*
X1158230D02*
X1157000D01*
X1156009Y852393D01*
X1155271Y851900D01*
X1154892Y852153D01*
X1154000Y852331D01*
X1149000D01*
X1148108Y852153D01*
X1147500Y851747D01*
X1146892Y852153D01*
X1146000Y852331D01*
X1141000D01*
X1140108Y852153D01*
X1139729Y851900D01*
X1138991Y852393D01*
X1138000Y852590D01*
X1136770D01*
Y840000D01*
Y827410D01*
X1138000D01*
X1138991Y827607D01*
X1139729Y828100D01*
X1140108Y827847D01*
X1141000Y827669D01*
X1146000D01*
X1146892Y827847D01*
X1147500Y828253D01*
X1148108Y827847D01*
X1149000Y827669D01*
X1154000D01*
X1154892Y827847D01*
X1155271Y828100D01*
X1156009Y827607D01*
X1157000Y827410D01*
X1158230D01*
Y840000D01*
Y852590D01*
D02*
G37*
G36*
X1322000D02*
X1320770D01*
Y840000D01*
Y827410D01*
X1322000D01*
X1322991Y827607D01*
X1323729Y828100D01*
X1324108Y827847D01*
X1325000Y827669D01*
X1330000D01*
X1330892Y827847D01*
X1331648Y828352D01*
X1332153Y829108D01*
X1332331Y830000D01*
Y850000D01*
X1332153Y850892D01*
X1331648Y851648D01*
X1330892Y852153D01*
X1330000Y852331D01*
X1325000D01*
X1324108Y852153D01*
X1323729Y851900D01*
X1322991Y852393D01*
X1322000Y852590D01*
D02*
G37*
G36*
X1270230D02*
X1269000D01*
X1268009Y852393D01*
X1267271Y851900D01*
X1266892Y852153D01*
X1266000Y852331D01*
X1261000D01*
X1260108Y852153D01*
X1259500Y851747D01*
X1258892Y852153D01*
X1258000Y852331D01*
X1253000D01*
X1252108Y852153D01*
X1251729Y851900D01*
X1250991Y852393D01*
X1250000Y852590D01*
X1248770D01*
Y840000D01*
Y827410D01*
X1250000D01*
X1250991Y827607D01*
X1251729Y828100D01*
X1252108Y827847D01*
X1253000Y827669D01*
X1258000D01*
X1258892Y827847D01*
X1259500Y828253D01*
X1260108Y827847D01*
X1261000Y827669D01*
X1266000D01*
X1266892Y827847D01*
X1267271Y828100D01*
X1268009Y827607D01*
X1269000Y827410D01*
X1270230D01*
Y840000D01*
Y852590D01*
D02*
G37*
G36*
X1182230D02*
X1181000D01*
X1180009Y852393D01*
X1179271Y851900D01*
X1178892Y852153D01*
X1178000Y852331D01*
X1173000D01*
X1172108Y852153D01*
X1171500Y851747D01*
X1170892Y852153D01*
X1170000Y852331D01*
X1165000D01*
X1164108Y852153D01*
X1163729Y851900D01*
X1162991Y852393D01*
X1162000Y852590D01*
X1160770D01*
Y840000D01*
Y827410D01*
X1162000D01*
X1162991Y827607D01*
X1163729Y828100D01*
X1164108Y827847D01*
X1165000Y827669D01*
X1170000D01*
X1170892Y827847D01*
X1171500Y828253D01*
X1172108Y827847D01*
X1173000Y827669D01*
X1178000D01*
X1178892Y827847D01*
X1179271Y828100D01*
X1180009Y827607D01*
X1181000Y827410D01*
X1182230D01*
Y840000D01*
Y852590D01*
D02*
G37*
G36*
X961270Y911878D02*
Y906270D01*
X966878D01*
X966805Y906823D01*
X966101Y908523D01*
X964982Y909982D01*
X963523Y911101D01*
X961824Y911805D01*
X961270Y911878D01*
D02*
G37*
G36*
X958730D02*
X958177Y911805D01*
X956477Y911101D01*
X955018Y909982D01*
X953899Y908523D01*
X953195Y906823D01*
X953122Y906270D01*
X958730D01*
Y911878D01*
D02*
G37*
G36*
X948090Y916230D02*
X939270D01*
Y908410D01*
X945500D01*
X946491Y908607D01*
X947331Y909169D01*
X947893Y910009D01*
X948090Y911000D01*
Y916230D01*
D02*
G37*
G36*
X936730D02*
X927910D01*
Y911000D01*
X928107Y910009D01*
X928669Y909169D01*
X929509Y908607D01*
X930500Y908410D01*
X936730D01*
Y916230D01*
D02*
G37*
G36*
X1469000Y947894D02*
X1464631Y947464D01*
X1460430Y946189D01*
X1456559Y944120D01*
X1453165Y941335D01*
X1450380Y937941D01*
X1448311Y934070D01*
X1447036Y929869D01*
X1446606Y925500D01*
X1447036Y921131D01*
X1448311Y916930D01*
X1450380Y913059D01*
X1453165Y909665D01*
X1456559Y906880D01*
X1460430Y904811D01*
X1464631Y903537D01*
X1469000Y903106D01*
X1473369Y903537D01*
X1477570Y904811D01*
X1481441Y906880D01*
X1484835Y909665D01*
X1487620Y913059D01*
X1489689Y916930D01*
X1490963Y921131D01*
X1491394Y925500D01*
X1490963Y929869D01*
X1489689Y934070D01*
X1487620Y937941D01*
X1484835Y941335D01*
X1481441Y944120D01*
X1477570Y946189D01*
X1473369Y947464D01*
X1469000Y947894D01*
D02*
G37*
G36*
X958730Y903730D02*
X953122D01*
X953195Y903177D01*
X953899Y901477D01*
X955018Y900018D01*
X956477Y898899D01*
X958177Y898195D01*
X958730Y898122D01*
Y903730D01*
D02*
G37*
G36*
X1134230Y852590D02*
X1133000D01*
X1132009Y852393D01*
X1131271Y851900D01*
X1130892Y852153D01*
X1130000Y852331D01*
X1125000D01*
X1124108Y852153D01*
X1123500Y851747D01*
X1122892Y852153D01*
X1122000Y852331D01*
X1117000D01*
X1116108Y852153D01*
X1115729Y851900D01*
X1114991Y852393D01*
X1114000Y852590D01*
X1112770D01*
Y840000D01*
Y827410D01*
X1114000D01*
X1114991Y827607D01*
X1115729Y828100D01*
X1116108Y827847D01*
X1117000Y827669D01*
X1122000D01*
X1122892Y827847D01*
X1123500Y828253D01*
X1124108Y827847D01*
X1125000Y827669D01*
X1130000D01*
X1130892Y827847D01*
X1131271Y828100D01*
X1132009Y827607D01*
X1133000Y827410D01*
X1134230D01*
Y840000D01*
Y852590D01*
D02*
G37*
G36*
X1009000Y947894D02*
X1004631Y947464D01*
X1000430Y946189D01*
X996559Y944120D01*
X993165Y941335D01*
X990380Y937941D01*
X988311Y934070D01*
X987037Y929869D01*
X986606Y925500D01*
X987037Y921131D01*
X988311Y916930D01*
X990380Y913059D01*
X993165Y909665D01*
X996559Y906880D01*
X1000430Y904811D01*
X1004631Y903537D01*
X1009000Y903106D01*
X1013369Y903537D01*
X1017570Y904811D01*
X1021441Y906880D01*
X1024835Y909665D01*
X1027620Y913059D01*
X1029689Y916930D01*
X1030964Y921131D01*
X1031394Y925500D01*
X1030964Y929869D01*
X1029689Y934070D01*
X1027620Y937941D01*
X1024835Y941335D01*
X1021441Y944120D01*
X1017570Y946189D01*
X1013369Y947464D01*
X1009000Y947894D01*
D02*
G37*
G36*
X966878Y903730D02*
X961270D01*
Y898122D01*
X961824Y898195D01*
X963523Y898899D01*
X964982Y900018D01*
X966101Y901477D01*
X966805Y903177D01*
X966878Y903730D01*
D02*
G37*
G36*
X1400820Y472905D02*
Y463207D01*
X1410518D01*
X1410306Y464819D01*
X1409194Y467504D01*
X1407424Y469810D01*
X1405118Y471580D01*
X1402432Y472692D01*
X1400820Y472905D01*
D02*
G37*
G36*
X1421230Y499730D02*
X1416910D01*
Y495500D01*
X1417107Y494509D01*
X1417669Y493669D01*
X1418509Y493107D01*
X1419500Y492910D01*
X1421230D01*
Y499730D01*
D02*
G37*
G36*
X1538730Y1065090D02*
X1532500D01*
X1531509Y1064893D01*
X1530669Y1064331D01*
X1530107Y1063491D01*
X1529910Y1062500D01*
Y1057270D01*
X1538730D01*
Y1065090D01*
D02*
G37*
G36*
X1398280Y472905D02*
X1396668Y472692D01*
X1393983Y471580D01*
X1391676Y469810D01*
X1389907Y467504D01*
X1388794Y464819D01*
X1388582Y463207D01*
X1398280D01*
Y472905D01*
D02*
G37*
G36*
X1550090Y1054730D02*
X1540000D01*
X1529910D01*
Y1049500D01*
X1530107Y1048509D01*
X1530669Y1047669D01*
X1531509Y1047107D01*
X1531959Y1047018D01*
Y1045723D01*
X1531608Y1045653D01*
X1530852Y1045148D01*
X1530347Y1044392D01*
X1530169Y1043500D01*
Y1041273D01*
X1522205D01*
X1521801Y1041801D01*
X1520395Y1042879D01*
X1518757Y1043558D01*
X1517000Y1043789D01*
X1515243Y1043558D01*
X1513605Y1042879D01*
X1512199Y1041801D01*
X1511120Y1040395D01*
X1510442Y1038757D01*
X1510211Y1037000D01*
X1510442Y1035243D01*
X1511120Y1033605D01*
X1512199Y1032199D01*
X1513605Y1031121D01*
X1515243Y1030442D01*
X1517000Y1030211D01*
X1518757Y1030442D01*
X1520395Y1031121D01*
X1521801Y1032199D01*
X1522205Y1032727D01*
X1530169D01*
Y1030500D01*
X1530347Y1029608D01*
X1530852Y1028852D01*
X1531608Y1028347D01*
X1532500Y1028169D01*
X1547500D01*
X1548392Y1028347D01*
X1549148Y1028852D01*
X1549653Y1029608D01*
X1549831Y1030500D01*
Y1043500D01*
X1549653Y1044392D01*
X1549148Y1045148D01*
X1548392Y1045653D01*
X1548041Y1045723D01*
Y1047018D01*
X1548491Y1047107D01*
X1549331Y1047669D01*
X1549893Y1048509D01*
X1550090Y1049500D01*
Y1054730D01*
D02*
G37*
G36*
X1421230Y509090D02*
X1419500D01*
X1418509Y508893D01*
X1417669Y508331D01*
X1417107Y507491D01*
X1416910Y506500D01*
Y502270D01*
X1421230D01*
Y509090D01*
D02*
G37*
G36*
X1223270Y1040968D02*
Y1031270D01*
X1232968D01*
X1232756Y1032882D01*
X1231643Y1035568D01*
X1229874Y1037874D01*
X1227568Y1039643D01*
X1224882Y1040756D01*
X1223270Y1040968D01*
D02*
G37*
G36*
X1464640Y506000D02*
X1455820D01*
Y500770D01*
X1456018Y499779D01*
X1456579Y498939D01*
X1457419Y498377D01*
X1458410Y498180D01*
X1464640D01*
Y506000D01*
D02*
G37*
G36*
X1476000D02*
X1467180D01*
Y498180D01*
X1473410D01*
X1474401Y498377D01*
X1475242Y498939D01*
X1475803Y499779D01*
X1476000Y500770D01*
Y506000D01*
D02*
G37*
G36*
X1398280Y460667D02*
X1388582D01*
X1388794Y459055D01*
X1389907Y456369D01*
X1391676Y454063D01*
X1393983Y452293D01*
X1396668Y451181D01*
X1398280Y450969D01*
Y460667D01*
D02*
G37*
G36*
X1410518D02*
X1400820D01*
Y450969D01*
X1402432Y451181D01*
X1405118Y452293D01*
X1407424Y454063D01*
X1409194Y456369D01*
X1410306Y459055D01*
X1410518Y460667D01*
D02*
G37*
G36*
X1518770Y1072378D02*
Y1066770D01*
X1524378D01*
X1524305Y1067323D01*
X1523601Y1069023D01*
X1522482Y1070482D01*
X1521023Y1071601D01*
X1519323Y1072305D01*
X1518770Y1072378D01*
D02*
G37*
G36*
X1516230D02*
X1515677Y1072305D01*
X1513977Y1071601D01*
X1512518Y1070482D01*
X1511399Y1069023D01*
X1510695Y1067323D01*
X1510622Y1066770D01*
X1516230D01*
Y1072378D01*
D02*
G37*
G36*
X1587730Y469968D02*
X1586118Y469756D01*
X1583432Y468643D01*
X1581126Y466874D01*
X1579357Y464568D01*
X1578244Y461882D01*
X1578032Y460270D01*
X1587730D01*
Y469968D01*
D02*
G37*
G36*
X1516230Y1064230D02*
X1510622D01*
X1510695Y1063677D01*
X1511399Y1061977D01*
X1512518Y1060518D01*
X1513977Y1059399D01*
X1515677Y1058695D01*
X1516230Y1058622D01*
Y1064230D01*
D02*
G37*
G36*
X1547500Y1065090D02*
X1541270D01*
Y1057270D01*
X1550090D01*
Y1062500D01*
X1549893Y1063491D01*
X1549331Y1064331D01*
X1548491Y1064893D01*
X1547500Y1065090D01*
D02*
G37*
G36*
X1590270Y469968D02*
Y460270D01*
X1599968D01*
X1599756Y461882D01*
X1598643Y464568D01*
X1596874Y466874D01*
X1594568Y468643D01*
X1591882Y469756D01*
X1590270Y469968D01*
D02*
G37*
G36*
X1524378Y1064230D02*
X1518770D01*
Y1058622D01*
X1519323Y1058695D01*
X1521023Y1059399D01*
X1522482Y1060518D01*
X1523601Y1061977D01*
X1524305Y1063677D01*
X1524378Y1064230D01*
D02*
G37*
G36*
X1220730Y1028730D02*
X1211032D01*
X1211244Y1027118D01*
X1212357Y1024432D01*
X1214126Y1022126D01*
X1216432Y1020357D01*
X1219118Y1019244D01*
X1220730Y1019032D01*
Y1028730D01*
D02*
G37*
G36*
X836750Y1062290D02*
X811270D01*
Y1018270D01*
X839340D01*
Y1059700D01*
X839143Y1060691D01*
X838581Y1061531D01*
X837741Y1062093D01*
X836750Y1062290D01*
D02*
G37*
G36*
X1247000Y1040879D02*
X1244184Y1040508D01*
X1241561Y1039421D01*
X1239307Y1037693D01*
X1237579Y1035440D01*
X1236492Y1032816D01*
X1236121Y1030000D01*
X1236492Y1027184D01*
X1237579Y1024560D01*
X1239307Y1022307D01*
X1241561Y1020579D01*
X1244184Y1019492D01*
X1247000Y1019121D01*
X1249816Y1019492D01*
X1252439Y1020579D01*
X1254693Y1022307D01*
X1256422Y1024560D01*
X1257508Y1027184D01*
X1257879Y1030000D01*
X1257508Y1032816D01*
X1256422Y1035440D01*
X1254693Y1037693D01*
X1252439Y1039421D01*
X1249816Y1040508D01*
X1247000Y1040879D01*
D02*
G37*
G36*
X1232968Y1028730D02*
X1223270D01*
Y1019032D01*
X1224882Y1019244D01*
X1227568Y1020357D01*
X1229874Y1022126D01*
X1231643Y1024432D01*
X1232756Y1027118D01*
X1232968Y1028730D01*
D02*
G37*
G36*
X808730Y1062290D02*
X783250D01*
X782259Y1062093D01*
X781419Y1061531D01*
X780857Y1060691D01*
X780660Y1059700D01*
Y1018270D01*
X808730D01*
Y1062290D01*
D02*
G37*
G36*
X1570730Y567090D02*
X1564500D01*
X1563509Y566893D01*
X1562669Y566331D01*
X1562107Y565491D01*
X1561910Y564500D01*
Y559270D01*
X1570730D01*
Y567090D01*
D02*
G37*
G36*
X1579500D02*
X1573270D01*
Y559270D01*
X1582090D01*
Y564500D01*
X1581893Y565491D01*
X1581331Y566331D01*
X1580491Y566893D01*
X1579500Y567090D01*
D02*
G37*
G36*
X1620000Y1042956D02*
X1617721Y1042503D01*
X1615788Y1041212D01*
X1614497Y1039279D01*
X1614044Y1037000D01*
X1614497Y1034721D01*
X1615079Y1033849D01*
Y614038D01*
X1590521Y589479D01*
X1589454Y587883D01*
X1589079Y586000D01*
Y552038D01*
X1583029Y545987D01*
X1581653Y546392D01*
X1581148Y547148D01*
X1580392Y547653D01*
X1580041Y547723D01*
Y549018D01*
X1580491Y549107D01*
X1581331Y549669D01*
X1581893Y550509D01*
X1582090Y551500D01*
Y556730D01*
X1572000D01*
X1561910D01*
Y551500D01*
X1562107Y550509D01*
X1562669Y549669D01*
X1563509Y549107D01*
X1563959Y549018D01*
Y547723D01*
X1563608Y547653D01*
X1562852Y547148D01*
X1562347Y546392D01*
X1562169Y545500D01*
Y532500D01*
X1562347Y531608D01*
X1562852Y530852D01*
X1563608Y530347D01*
X1564500Y530169D01*
X1567079D01*
Y523831D01*
X1564500D01*
X1563608Y523653D01*
X1562852Y523148D01*
X1562347Y522392D01*
X1562169Y521500D01*
Y509500D01*
X1562347Y508608D01*
X1562852Y507852D01*
X1563028Y507734D01*
Y506266D01*
X1562852Y506148D01*
X1562347Y505392D01*
X1562169Y504500D01*
Y492500D01*
X1562347Y491608D01*
X1562852Y490852D01*
X1563608Y490347D01*
X1564500Y490169D01*
X1567079D01*
Y473038D01*
X1563908Y469867D01*
X1561184Y469508D01*
X1560665Y469293D01*
X1548920Y481038D01*
Y491169D01*
X1551500D01*
X1552392Y491347D01*
X1553148Y491852D01*
X1553653Y492608D01*
X1553831Y493500D01*
Y505500D01*
X1553653Y506392D01*
X1553148Y507148D01*
X1552972Y507266D01*
Y508734D01*
X1553148Y508852D01*
X1553653Y509608D01*
X1553831Y510500D01*
Y522500D01*
X1553653Y523392D01*
X1553148Y524148D01*
X1552392Y524653D01*
X1551500Y524831D01*
X1541128D01*
X1534763Y531195D01*
X1534558Y532757D01*
X1533880Y534395D01*
X1532801Y535801D01*
X1531395Y536880D01*
X1529757Y537558D01*
X1528000Y537789D01*
X1526243Y537558D01*
X1524605Y536880D01*
X1523199Y535801D01*
X1522121Y534395D01*
X1521442Y532757D01*
X1521211Y531000D01*
X1521442Y529243D01*
X1522121Y527605D01*
X1523199Y526199D01*
X1524605Y525121D01*
X1526243Y524442D01*
X1527805Y524237D01*
X1534169Y517872D01*
Y510500D01*
X1534347Y509608D01*
X1534852Y508852D01*
X1535028Y508734D01*
Y507266D01*
X1534852Y507148D01*
X1534347Y506392D01*
X1534169Y505500D01*
Y493500D01*
X1534347Y492608D01*
X1534852Y491852D01*
X1535608Y491347D01*
X1536500Y491169D01*
X1539079D01*
Y479000D01*
X1539454Y477117D01*
X1540521Y475521D01*
X1553707Y462335D01*
X1553492Y461816D01*
X1553121Y459000D01*
X1553492Y456184D01*
X1554579Y453560D01*
X1556307Y451307D01*
X1558560Y449579D01*
X1561184Y448492D01*
X1564000Y448121D01*
X1566816Y448492D01*
X1569440Y449579D01*
X1571693Y451307D01*
X1573421Y453560D01*
X1574508Y456184D01*
X1574879Y459000D01*
X1574508Y461816D01*
X1573421Y464440D01*
X1572977Y465019D01*
X1575479Y467521D01*
X1576546Y469117D01*
X1576920Y471000D01*
Y490169D01*
X1579500D01*
X1580392Y490347D01*
X1581148Y490852D01*
X1581653Y491608D01*
X1581831Y492500D01*
Y504500D01*
X1581653Y505392D01*
X1581148Y506148D01*
X1580972Y506266D01*
Y507734D01*
X1581148Y507852D01*
X1581653Y508608D01*
X1581831Y509500D01*
Y521500D01*
X1581653Y522392D01*
X1581148Y523148D01*
X1580392Y523653D01*
X1579500Y523831D01*
X1576920D01*
Y530169D01*
X1579500D01*
X1580392Y530347D01*
X1581148Y530852D01*
X1581653Y531608D01*
X1581831Y532500D01*
Y534079D01*
X1583000D01*
X1584883Y534454D01*
X1586479Y535521D01*
X1597479Y546521D01*
X1598546Y548117D01*
X1598921Y550000D01*
Y583962D01*
X1623479Y608521D01*
X1624546Y610117D01*
X1624921Y612000D01*
Y1033849D01*
X1625503Y1034721D01*
X1625957Y1037000D01*
X1625503Y1039279D01*
X1624212Y1041212D01*
X1622280Y1042503D01*
X1620000Y1042956D01*
D02*
G37*
G36*
X1637000Y982956D02*
X1634721Y982503D01*
X1632788Y981212D01*
X1631497Y979279D01*
X1631044Y977000D01*
X1631497Y974721D01*
X1632079Y973849D01*
Y556038D01*
X1624096Y548055D01*
X1623148Y548148D01*
X1622392Y548653D01*
X1622041Y548723D01*
Y550018D01*
X1622491Y550107D01*
X1623331Y550669D01*
X1623893Y551509D01*
X1624090Y552500D01*
Y557730D01*
X1614000D01*
X1603910D01*
Y552500D01*
X1604107Y551509D01*
X1604669Y550669D01*
X1605509Y550107D01*
X1605959Y550018D01*
Y548723D01*
X1605608Y548653D01*
X1604852Y548148D01*
X1604347Y547392D01*
X1604169Y546500D01*
Y533500D01*
X1604347Y532608D01*
X1604852Y531852D01*
X1605608Y531347D01*
X1606500Y531169D01*
X1609079D01*
Y524331D01*
X1606500D01*
X1605608Y524153D01*
X1604852Y523648D01*
X1604347Y522892D01*
X1604169Y522000D01*
Y510000D01*
X1604347Y509108D01*
X1604852Y508352D01*
X1605028Y508234D01*
Y506766D01*
X1604852Y506648D01*
X1604347Y505892D01*
X1604169Y505000D01*
Y493000D01*
X1604347Y492108D01*
X1604852Y491352D01*
X1605608Y490847D01*
X1606500Y490669D01*
X1609079D01*
Y468637D01*
X1608560Y468422D01*
X1606307Y466693D01*
X1604579Y464440D01*
X1603492Y461816D01*
X1603121Y459000D01*
X1603492Y456184D01*
X1604579Y453560D01*
X1606307Y451307D01*
X1608560Y449579D01*
X1611184Y448492D01*
X1614000Y448121D01*
X1616816Y448492D01*
X1619440Y449579D01*
X1621693Y451307D01*
X1623421Y453560D01*
X1624139Y455294D01*
X1624479Y455521D01*
X1645479Y476521D01*
X1646546Y478117D01*
X1646920Y480000D01*
Y490669D01*
X1649500D01*
X1650392Y490847D01*
X1651148Y491352D01*
X1651653Y492108D01*
X1651831Y493000D01*
Y505000D01*
X1651653Y505892D01*
X1651148Y506648D01*
X1650972Y506766D01*
Y508234D01*
X1651148Y508352D01*
X1651653Y509108D01*
X1651831Y510000D01*
Y522000D01*
X1651653Y522892D01*
X1651148Y523648D01*
X1650392Y524153D01*
X1649500Y524331D01*
X1646920D01*
Y529356D01*
X1647879Y530605D01*
X1648558Y532243D01*
X1648789Y534000D01*
X1648558Y535757D01*
X1647879Y537395D01*
X1646801Y538801D01*
X1645394Y539879D01*
X1643757Y540558D01*
X1642000Y540789D01*
X1640243Y540558D01*
X1638605Y539879D01*
X1637199Y538801D01*
X1636120Y537395D01*
X1635442Y535757D01*
X1635211Y534000D01*
X1635442Y532243D01*
X1636120Y530605D01*
X1637079Y529356D01*
Y524331D01*
X1634500D01*
X1633608Y524153D01*
X1632852Y523648D01*
X1632347Y522892D01*
X1632169Y522000D01*
Y510000D01*
X1632347Y509108D01*
X1632852Y508352D01*
X1633028Y508234D01*
Y506766D01*
X1632852Y506648D01*
X1632347Y505892D01*
X1632169Y505000D01*
Y493000D01*
X1632347Y492108D01*
X1632852Y491352D01*
X1633608Y490847D01*
X1634500Y490669D01*
X1637079D01*
Y482038D01*
X1621731Y466690D01*
X1621693Y466693D01*
X1619440Y468422D01*
X1618920Y468637D01*
Y490669D01*
X1621500D01*
X1622392Y490847D01*
X1623148Y491352D01*
X1623653Y492108D01*
X1623831Y493000D01*
Y505000D01*
X1623653Y505892D01*
X1623148Y506648D01*
X1622972Y506766D01*
Y508234D01*
X1623148Y508352D01*
X1623653Y509108D01*
X1623831Y510000D01*
Y522000D01*
X1623653Y522892D01*
X1623148Y523648D01*
X1622392Y524153D01*
X1621500Y524331D01*
X1618920D01*
Y531169D01*
X1621500D01*
X1622392Y531347D01*
X1623148Y531852D01*
X1623653Y532608D01*
X1623831Y533500D01*
Y535245D01*
X1624883Y535454D01*
X1626479Y536521D01*
X1640479Y550521D01*
X1641546Y552117D01*
X1641920Y554000D01*
Y973849D01*
X1642503Y974721D01*
X1642957Y977000D01*
X1642503Y979279D01*
X1641212Y981212D01*
X1639279Y982503D01*
X1637000Y982956D01*
D02*
G37*
G36*
X987730Y1032878D02*
X987177Y1032805D01*
X985477Y1032101D01*
X984018Y1030982D01*
X982899Y1029523D01*
X982195Y1027823D01*
X982122Y1027270D01*
X987730D01*
Y1032878D01*
D02*
G37*
G36*
X972090Y1033730D02*
X963270D01*
Y1025910D01*
X969500D01*
X970491Y1026107D01*
X971331Y1026669D01*
X971893Y1027509D01*
X972090Y1028500D01*
Y1033730D01*
D02*
G37*
G36*
X1220730Y1040968D02*
X1219118Y1040756D01*
X1216432Y1039643D01*
X1214126Y1037874D01*
X1212357Y1035568D01*
X1211244Y1032882D01*
X1211032Y1031270D01*
X1220730D01*
Y1040968D01*
D02*
G37*
G36*
X990270Y1032878D02*
Y1027270D01*
X995878D01*
X995805Y1027823D01*
X995101Y1029523D01*
X993982Y1030982D01*
X992523Y1032101D01*
X990823Y1032805D01*
X990270Y1032878D01*
D02*
G37*
G36*
X960730Y1033730D02*
X951910D01*
Y1028500D01*
X952107Y1027509D01*
X952669Y1026669D01*
X953509Y1026107D01*
X954500Y1025910D01*
X960730D01*
Y1033730D01*
D02*
G37*
G36*
X995878Y1024730D02*
X990270D01*
Y1019122D01*
X990823Y1019195D01*
X992523Y1019899D01*
X993982Y1021018D01*
X995101Y1022477D01*
X995805Y1024177D01*
X995878Y1024730D01*
D02*
G37*
G36*
X987730D02*
X982122D01*
X982195Y1024177D01*
X982899Y1022477D01*
X984018Y1021018D01*
X985477Y1019899D01*
X987177Y1019195D01*
X987730Y1019122D01*
Y1024730D01*
D02*
G37*
G36*
X1599000Y1051956D02*
X1596721Y1051503D01*
X1594788Y1050212D01*
X1593497Y1048279D01*
X1593044Y1046000D01*
X1593497Y1043720D01*
X1594079Y1042849D01*
Y631038D01*
X1524962Y561921D01*
X1435000D01*
X1433117Y561546D01*
X1431521Y560479D01*
X1418521Y547479D01*
X1417454Y545883D01*
X1417079Y544000D01*
X1417454Y542117D01*
X1417579Y541929D01*
Y533740D01*
X1417347Y533392D01*
X1417169Y532500D01*
Y521500D01*
X1417347Y520608D01*
X1417852Y519852D01*
X1418608Y519347D01*
X1419500Y519169D01*
X1425500D01*
X1426392Y519347D01*
X1427148Y519852D01*
X1427653Y520608D01*
X1427831Y521500D01*
Y532500D01*
X1427653Y533392D01*
X1427421Y533740D01*
Y542462D01*
X1437038Y552080D01*
X1527000D01*
X1528883Y552454D01*
X1530479Y553521D01*
X1602479Y625521D01*
X1603546Y627117D01*
X1603920Y629000D01*
Y1042849D01*
X1604503Y1043720D01*
X1604957Y1046000D01*
X1604503Y1048279D01*
X1603212Y1050212D01*
X1601279Y1051503D01*
X1599000Y1051956D01*
D02*
G37*
G36*
X1491000Y536711D02*
X1488746Y536414D01*
X1486645Y535544D01*
X1484841Y534159D01*
X1483890Y532920D01*
X1475711D01*
X1475564Y533662D01*
X1475058Y534418D01*
X1474302Y534923D01*
X1473410Y535101D01*
X1458410D01*
X1457518Y534923D01*
X1456762Y534418D01*
X1456257Y533662D01*
X1456109Y532920D01*
X1446747D01*
X1446653Y533392D01*
X1446148Y534148D01*
X1445392Y534653D01*
X1444500Y534831D01*
X1438500D01*
X1437608Y534653D01*
X1436852Y534148D01*
X1436347Y533392D01*
X1436169Y532500D01*
Y521500D01*
X1436347Y520608D01*
X1436852Y519852D01*
X1437608Y519347D01*
X1438500Y519169D01*
X1444500D01*
X1445392Y519347D01*
X1446148Y519852D01*
X1446653Y520608D01*
X1446831Y521500D01*
Y523079D01*
X1456080D01*
Y519770D01*
X1456257Y518878D01*
X1456762Y518122D01*
X1457518Y517617D01*
X1457869Y517547D01*
Y516252D01*
X1457419Y516163D01*
X1456579Y515601D01*
X1456018Y514761D01*
X1455820Y513770D01*
Y508540D01*
X1465910D01*
X1476000D01*
Y513770D01*
X1475803Y514761D01*
X1475242Y515601D01*
X1474401Y516163D01*
X1473952Y516252D01*
Y517547D01*
X1474302Y517617D01*
X1475058Y518122D01*
X1475564Y518878D01*
X1475741Y519770D01*
Y523079D01*
X1483890D01*
X1484841Y521841D01*
X1486080Y520890D01*
Y477538D01*
X1480372Y471831D01*
X1471500D01*
X1470608Y471653D01*
X1469852Y471148D01*
X1469734Y470972D01*
X1468266D01*
X1468148Y471148D01*
X1467392Y471653D01*
X1466500Y471831D01*
X1454500D01*
X1453608Y471653D01*
X1452852Y471148D01*
X1452347Y470392D01*
X1452169Y469500D01*
Y466921D01*
X1434160D01*
X1433972Y467376D01*
X1432243Y469629D01*
X1430673Y470834D01*
X1430484Y472441D01*
X1435022Y476978D01*
X1435022Y476978D01*
X1435948Y478365D01*
X1436273Y480000D01*
X1436273Y480000D01*
Y492711D01*
X1437543Y493390D01*
X1437608Y493347D01*
X1438500Y493169D01*
X1444500D01*
X1445392Y493347D01*
X1446148Y493852D01*
X1446653Y494608D01*
X1446831Y495500D01*
Y506500D01*
X1446653Y507392D01*
X1446148Y508148D01*
X1445392Y508653D01*
X1444500Y508831D01*
X1438500D01*
X1437608Y508653D01*
X1436852Y508148D01*
X1436648D01*
X1435892Y508653D01*
X1435000Y508831D01*
X1429000D01*
X1428108Y508653D01*
X1427558Y508286D01*
X1427331Y508331D01*
X1426491Y508893D01*
X1425500Y509090D01*
X1423770D01*
Y501000D01*
Y492910D01*
X1425500D01*
X1426457Y493101D01*
X1426493Y493106D01*
X1427727Y492406D01*
Y481770D01*
X1421529Y475572D01*
X1420602Y474185D01*
X1420277Y472550D01*
Y471841D01*
X1419111Y471358D01*
X1416858Y469629D01*
X1415129Y467376D01*
X1414042Y464752D01*
X1413671Y461937D01*
X1414042Y459121D01*
X1415129Y456497D01*
X1416858Y454244D01*
X1419111Y452515D01*
X1421734Y451428D01*
X1424550Y451058D01*
X1427366Y451428D01*
X1429990Y452515D01*
X1432243Y454244D01*
X1433972Y456497D01*
X1434213Y457080D01*
X1452169D01*
Y454500D01*
X1452347Y453608D01*
X1452852Y452852D01*
X1453608Y452347D01*
X1454500Y452169D01*
X1466500D01*
X1467392Y452347D01*
X1468148Y452852D01*
X1468266Y453028D01*
X1469734D01*
X1469852Y452852D01*
X1470608Y452347D01*
X1471500Y452169D01*
X1483500D01*
X1484392Y452347D01*
X1485148Y452852D01*
X1485653Y453608D01*
X1485831Y454500D01*
Y463372D01*
X1494479Y472021D01*
X1495546Y473617D01*
X1495921Y475500D01*
Y520890D01*
X1497159Y521841D01*
X1498544Y523645D01*
X1499414Y525746D01*
X1499711Y528000D01*
X1499414Y530255D01*
X1498544Y532355D01*
X1497159Y534159D01*
X1495355Y535544D01*
X1493254Y536414D01*
X1491000Y536711D01*
D02*
G37*
G36*
X1352500Y826887D02*
X1352349Y826857D01*
X1352196Y826867D01*
X1350499Y826644D01*
X1350282Y826570D01*
X1350206Y826560D01*
X1350136Y826531D01*
X1349911Y826486D01*
X1348330Y825831D01*
X1348139Y825704D01*
X1348069Y825675D01*
X1348009Y825628D01*
X1347803Y825527D01*
X1346445Y824485D01*
X1346294Y824312D01*
X1346234Y824266D01*
X1346188Y824206D01*
X1346015Y824055D01*
X1344973Y822697D01*
X1344872Y822491D01*
X1344825Y822431D01*
X1344796Y822361D01*
X1344669Y822170D01*
X1344014Y820589D01*
X1343969Y820364D01*
X1343940Y820294D01*
X1343930Y820218D01*
X1343857Y820001D01*
X1343633Y818304D01*
X1343648Y818075D01*
X1343638Y818000D01*
X1343648Y817925D01*
X1343633Y817696D01*
X1343857Y815999D01*
X1343930Y815782D01*
X1343940Y815706D01*
X1343969Y815636D01*
X1344014Y815411D01*
X1344669Y813830D01*
X1344796Y813639D01*
X1344825Y813569D01*
X1344872Y813509D01*
X1344973Y813303D01*
X1346015Y811945D01*
X1346188Y811794D01*
X1346234Y811734D01*
X1346294Y811688D01*
X1346445Y811515D01*
X1347803Y810473D01*
X1348009Y810372D01*
X1348069Y810325D01*
X1348139Y810296D01*
X1348330Y810169D01*
X1349911Y809514D01*
X1350136Y809469D01*
X1350206Y809440D01*
X1350282Y809430D01*
X1350499Y809357D01*
X1352196Y809133D01*
X1352349Y809143D01*
X1352500Y809113D01*
X1352651Y809143D01*
X1352804Y809133D01*
X1354501Y809357D01*
X1354718Y809430D01*
X1354794Y809440D01*
X1354864Y809469D01*
X1355089Y809514D01*
X1356670Y810169D01*
X1356861Y810296D01*
X1356931Y810325D01*
X1356991Y810372D01*
X1357197Y810473D01*
X1358555Y811515D01*
X1358706Y811688D01*
X1358766Y811734D01*
X1358812Y811794D01*
X1358985Y811945D01*
X1360027Y813303D01*
X1360128Y813509D01*
X1360175Y813569D01*
X1360204Y813639D01*
X1360331Y813830D01*
X1360986Y815411D01*
X1361031Y815636D01*
X1361060Y815706D01*
X1361070Y815782D01*
X1361143Y815999D01*
X1361367Y817696D01*
X1361352Y817925D01*
X1361362Y818000D01*
X1361352Y818075D01*
X1361367Y818304D01*
X1361143Y820001D01*
X1361070Y820218D01*
X1361060Y820294D01*
X1361031Y820364D01*
X1360986Y820589D01*
X1360331Y822170D01*
X1360204Y822361D01*
X1360175Y822431D01*
X1360128Y822491D01*
X1360027Y822697D01*
X1358985Y824055D01*
X1358812Y824206D01*
X1358766Y824266D01*
X1358706Y824312D01*
X1358555Y824485D01*
X1357197Y825527D01*
X1356991Y825628D01*
X1356931Y825675D01*
X1356861Y825704D01*
X1356670Y825831D01*
X1355089Y826486D01*
X1354864Y826531D01*
X1354794Y826560D01*
X1354718Y826570D01*
X1354501Y826644D01*
X1352804Y826867D01*
X1352651Y826857D01*
X1352500Y826887D01*
D02*
G37*
G36*
X1265878Y654730D02*
X1260270D01*
Y649122D01*
X1260823Y649195D01*
X1262523Y649899D01*
X1263982Y651018D01*
X1265101Y652477D01*
X1265805Y654177D01*
X1265878Y654730D01*
D02*
G37*
G36*
X1257730D02*
X1252122D01*
X1252195Y654177D01*
X1252899Y652477D01*
X1254018Y651018D01*
X1255477Y649899D01*
X1257177Y649195D01*
X1257730Y649122D01*
Y654730D01*
D02*
G37*
G36*
X1500270Y655878D02*
Y650270D01*
X1505878D01*
X1505805Y650823D01*
X1505101Y652523D01*
X1503982Y653982D01*
X1502523Y655101D01*
X1500823Y655805D01*
X1500270Y655878D01*
D02*
G37*
G36*
X1497730D02*
X1497177Y655805D01*
X1495477Y655101D01*
X1494018Y653982D01*
X1492899Y652523D01*
X1492195Y650823D01*
X1492122Y650270D01*
X1497730D01*
Y655878D01*
D02*
G37*
G36*
X1020270Y654799D02*
Y647270D01*
X1027800D01*
X1027661Y648321D01*
X1026765Y650483D01*
X1025340Y652340D01*
X1023483Y653765D01*
X1021321Y654661D01*
X1020270Y654799D01*
D02*
G37*
G36*
X1137730Y652730D02*
X1132122D01*
X1132195Y652177D01*
X1132899Y650477D01*
X1134018Y649018D01*
X1135477Y647899D01*
X1137177Y647195D01*
X1137730Y647122D01*
Y652730D01*
D02*
G37*
G36*
X1505878Y647730D02*
X1500270D01*
Y642122D01*
X1500823Y642195D01*
X1502523Y642899D01*
X1503982Y644018D01*
X1505101Y645477D01*
X1505805Y647177D01*
X1505878Y647730D01*
D02*
G37*
G36*
X1017730Y654799D02*
X1016679Y654661D01*
X1014517Y653765D01*
X1012660Y652340D01*
X1011235Y650483D01*
X1010339Y648321D01*
X1010201Y647270D01*
X1017730D01*
Y654799D01*
D02*
G37*
G36*
X1145878Y652730D02*
X1140270D01*
Y647122D01*
X1140823Y647195D01*
X1142523Y647899D01*
X1143982Y649018D01*
X1145101Y650477D01*
X1145805Y652177D01*
X1145878Y652730D01*
D02*
G37*
G36*
X1257730Y662878D02*
X1257177Y662805D01*
X1255477Y662101D01*
X1254018Y660982D01*
X1252899Y659523D01*
X1252195Y657823D01*
X1252122Y657270D01*
X1257730D01*
Y662878D01*
D02*
G37*
G36*
X966799Y664730D02*
X959270D01*
Y657200D01*
X960321Y657339D01*
X962483Y658235D01*
X964340Y659660D01*
X965765Y661517D01*
X966661Y663679D01*
X966799Y664730D01*
D02*
G37*
G36*
X1377730Y665878D02*
X1377177Y665805D01*
X1375477Y665101D01*
X1374018Y663982D01*
X1372899Y662523D01*
X1372195Y660823D01*
X1372122Y660270D01*
X1377730D01*
Y665878D01*
D02*
G37*
G36*
X1260270Y662878D02*
Y657270D01*
X1265878D01*
X1265805Y657823D01*
X1265101Y659523D01*
X1263982Y660982D01*
X1262523Y662101D01*
X1260823Y662805D01*
X1260270Y662878D01*
D02*
G37*
G36*
X956730Y664730D02*
X949201D01*
X949339Y663679D01*
X950235Y661517D01*
X951660Y659660D01*
X953517Y658235D01*
X955679Y657339D01*
X956730Y657200D01*
Y664730D01*
D02*
G37*
G36*
X1385878Y657730D02*
X1380270D01*
Y652122D01*
X1380824Y652195D01*
X1382523Y652899D01*
X1383982Y654018D01*
X1385101Y655477D01*
X1385805Y657177D01*
X1385878Y657730D01*
D02*
G37*
G36*
X1377730D02*
X1372122D01*
X1372195Y657177D01*
X1372899Y655477D01*
X1374018Y654018D01*
X1375477Y652899D01*
X1377177Y652195D01*
X1377730Y652122D01*
Y657730D01*
D02*
G37*
G36*
X1140270Y660878D02*
Y655270D01*
X1145878D01*
X1145805Y655823D01*
X1145101Y657523D01*
X1143982Y658982D01*
X1142523Y660101D01*
X1140823Y660805D01*
X1140270Y660878D01*
D02*
G37*
G36*
X1137730D02*
X1137177Y660805D01*
X1135477Y660101D01*
X1134018Y658982D01*
X1132899Y657523D01*
X1132195Y655823D01*
X1132122Y655270D01*
X1137730D01*
Y660878D01*
D02*
G37*
G36*
X1349000Y665789D02*
X1347243Y665558D01*
X1345605Y664880D01*
X1344199Y663801D01*
X1343121Y662395D01*
X1342442Y660757D01*
X1342211Y659000D01*
X1342442Y657243D01*
X1343121Y655605D01*
X1344199Y654199D01*
X1344579Y653908D01*
Y634831D01*
X1343000D01*
X1342108Y634653D01*
X1341352Y634148D01*
X1340847Y633392D01*
X1340669Y632500D01*
Y617500D01*
X1340847Y616608D01*
X1341352Y615852D01*
X1342108Y615347D01*
X1343000Y615169D01*
X1356000D01*
X1356892Y615347D01*
X1357648Y615852D01*
X1358153Y616608D01*
X1358223Y616959D01*
X1359518D01*
X1359607Y616509D01*
X1360169Y615669D01*
X1361009Y615107D01*
X1362000Y614910D01*
X1367230D01*
Y625000D01*
Y635090D01*
X1362000D01*
X1361009Y634893D01*
X1360169Y634331D01*
X1359607Y633491D01*
X1359518Y633041D01*
X1358223D01*
X1358153Y633392D01*
X1357648Y634148D01*
X1356892Y634653D01*
X1356000Y634831D01*
X1354420D01*
Y655007D01*
X1354879Y655605D01*
X1355558Y657243D01*
X1355789Y659000D01*
X1355558Y660757D01*
X1354879Y662395D01*
X1353801Y663801D01*
X1352395Y664880D01*
X1350757Y665558D01*
X1349000Y665789D01*
D02*
G37*
G36*
X1256590Y623730D02*
X1248770D01*
Y614910D01*
X1254000D01*
X1254991Y615107D01*
X1255831Y615669D01*
X1256393Y616509D01*
X1256590Y617500D01*
Y623730D01*
D02*
G37*
G36*
X1469000Y655789D02*
X1467243Y655558D01*
X1465605Y654880D01*
X1464199Y653801D01*
X1463121Y652394D01*
X1462442Y650757D01*
X1462211Y649000D01*
X1462442Y647243D01*
X1463121Y645605D01*
X1463579Y645007D01*
Y634831D01*
X1462000D01*
X1461108Y634653D01*
X1460352Y634148D01*
X1459847Y633392D01*
X1459669Y632500D01*
Y617500D01*
X1459847Y616608D01*
X1460352Y615852D01*
X1461108Y615347D01*
X1462000Y615169D01*
X1475000D01*
X1475892Y615347D01*
X1476648Y615852D01*
X1477153Y616608D01*
X1477223Y616959D01*
X1478518D01*
X1478607Y616509D01*
X1479169Y615669D01*
X1480009Y615107D01*
X1481000Y614910D01*
X1486230D01*
Y625000D01*
Y635090D01*
X1481000D01*
X1480009Y634893D01*
X1479169Y634331D01*
X1478607Y633491D01*
X1478518Y633041D01*
X1477223D01*
X1477153Y633392D01*
X1476648Y634148D01*
X1475892Y634653D01*
X1475000Y634831D01*
X1473421D01*
Y643908D01*
X1473801Y644199D01*
X1474879Y645605D01*
X1475558Y647243D01*
X1475789Y649000D01*
X1475558Y650757D01*
X1474879Y652394D01*
X1473801Y653801D01*
X1472395Y654880D01*
X1470757Y655558D01*
X1469000Y655789D01*
D02*
G37*
G36*
X1377590Y623730D02*
X1369770D01*
Y614910D01*
X1375000D01*
X1375991Y615107D01*
X1376831Y615669D01*
X1377393Y616509D01*
X1377590Y617500D01*
Y623730D01*
D02*
G37*
G36*
X1228000Y661789D02*
X1226243Y661558D01*
X1224605Y660880D01*
X1223199Y659801D01*
X1222121Y658395D01*
X1221442Y656757D01*
X1221211Y655000D01*
X1221442Y653243D01*
X1222121Y651606D01*
X1223199Y650199D01*
X1223579Y649908D01*
Y634831D01*
X1222000D01*
X1221108Y634653D01*
X1220352Y634148D01*
X1219847Y633392D01*
X1219669Y632500D01*
Y617500D01*
X1219847Y616608D01*
X1220352Y615852D01*
X1221108Y615347D01*
X1222000Y615169D01*
X1235000D01*
X1235892Y615347D01*
X1236648Y615852D01*
X1237153Y616608D01*
X1237223Y616959D01*
X1238518D01*
X1238607Y616509D01*
X1239169Y615669D01*
X1240009Y615107D01*
X1241000Y614910D01*
X1246230D01*
Y625000D01*
Y635090D01*
X1241000D01*
X1240009Y634893D01*
X1239169Y634331D01*
X1238607Y633491D01*
X1238518Y633041D01*
X1237223D01*
X1237153Y633392D01*
X1236648Y634148D01*
X1235892Y634653D01*
X1235000Y634831D01*
X1233420D01*
Y651007D01*
X1233879Y651606D01*
X1234558Y653243D01*
X1234789Y655000D01*
X1234558Y656757D01*
X1233879Y658395D01*
X1232801Y659801D01*
X1231395Y660880D01*
X1229757Y661558D01*
X1228000Y661789D01*
D02*
G37*
G36*
X1016090Y622730D02*
X1008270D01*
Y613910D01*
X1013500D01*
X1014491Y614107D01*
X1015331Y614669D01*
X1015893Y615509D01*
X1016090Y616500D01*
Y622730D01*
D02*
G37*
G36*
X979000Y653710D02*
X976746Y653414D01*
X974645Y652544D01*
X972841Y651159D01*
X971457Y649355D01*
X970586Y647254D01*
X970290Y645000D01*
X970586Y642746D01*
X971457Y640645D01*
X972841Y638841D01*
X974645Y637457D01*
X976746Y636586D01*
X979000Y636289D01*
X980548Y636493D01*
X981941Y635101D01*
X981569Y634030D01*
X981429Y633817D01*
X980608Y633653D01*
X979852Y633148D01*
X979347Y632392D01*
X979169Y631500D01*
Y616500D01*
X979347Y615608D01*
X979852Y614852D01*
X980608Y614347D01*
X981500Y614169D01*
X994500D01*
X995392Y614347D01*
X996148Y614852D01*
X996653Y615608D01*
X996723Y615959D01*
X998018D01*
X998107Y615509D01*
X998669Y614669D01*
X999509Y614107D01*
X1000500Y613910D01*
X1005730D01*
Y624000D01*
Y634090D01*
X1000500D01*
X999509Y633893D01*
X998669Y633331D01*
X998107Y632491D01*
X998018Y632041D01*
X996723D01*
X996653Y632392D01*
X996148Y633148D01*
X995392Y633653D01*
X994500Y633831D01*
X992921D01*
Y636000D01*
X992546Y637883D01*
X991479Y639479D01*
X987507Y643452D01*
X987710Y645000D01*
X987414Y647254D01*
X986544Y649355D01*
X985159Y651159D01*
X983355Y652544D01*
X981255Y653414D01*
X979000Y653710D01*
D02*
G37*
G36*
X1136590Y622730D02*
X1128770D01*
Y613910D01*
X1134000D01*
X1134991Y614107D01*
X1135831Y614669D01*
X1136393Y615509D01*
X1136590Y616500D01*
Y622730D01*
D02*
G37*
G36*
X1109000Y660789D02*
X1107243Y660558D01*
X1105605Y659880D01*
X1104199Y658801D01*
X1103120Y657394D01*
X1102442Y655757D01*
X1102211Y654000D01*
X1102442Y652243D01*
X1103120Y650605D01*
X1103579Y650007D01*
Y633831D01*
X1102000D01*
X1101108Y633653D01*
X1100352Y633148D01*
X1099847Y632392D01*
X1099669Y631500D01*
Y616500D01*
X1099847Y615608D01*
X1100352Y614852D01*
X1101108Y614347D01*
X1102000Y614169D01*
X1115000D01*
X1115892Y614347D01*
X1116648Y614852D01*
X1117153Y615608D01*
X1117223Y615959D01*
X1118518D01*
X1118607Y615509D01*
X1119169Y614669D01*
X1120009Y614107D01*
X1121000Y613910D01*
X1126230D01*
Y624000D01*
Y634090D01*
X1121000D01*
X1120009Y633893D01*
X1119169Y633331D01*
X1118607Y632491D01*
X1118518Y632041D01*
X1117223D01*
X1117153Y632392D01*
X1116648Y633148D01*
X1115892Y633653D01*
X1115000Y633831D01*
X1113420D01*
Y648908D01*
X1113801Y649199D01*
X1114880Y650605D01*
X1115558Y652243D01*
X1115789Y654000D01*
X1115558Y655757D01*
X1114880Y657394D01*
X1113801Y658801D01*
X1112394Y659880D01*
X1110757Y660558D01*
X1109000Y660789D01*
D02*
G37*
G36*
X1017730Y644730D02*
X1010201D01*
X1010339Y643679D01*
X1011235Y641517D01*
X1012660Y639660D01*
X1014517Y638235D01*
X1016679Y637339D01*
X1017730Y637201D01*
Y644730D01*
D02*
G37*
G36*
X1494000Y635090D02*
X1488770D01*
Y626270D01*
X1496590D01*
Y632500D01*
X1496393Y633491D01*
X1495831Y634331D01*
X1494991Y634893D01*
X1494000Y635090D01*
D02*
G37*
G36*
X1497730Y647730D02*
X1492122D01*
X1492195Y647177D01*
X1492899Y645477D01*
X1494018Y644018D01*
X1495477Y642899D01*
X1497177Y642195D01*
X1497730Y642122D01*
Y647730D01*
D02*
G37*
G36*
X1027800Y644730D02*
X1020270D01*
Y637201D01*
X1021321Y637339D01*
X1023483Y638235D01*
X1025340Y639660D01*
X1026765Y641517D01*
X1027661Y643679D01*
X1027800Y644730D01*
D02*
G37*
G36*
X1375000Y635090D02*
X1369770D01*
Y626270D01*
X1377590D01*
Y632500D01*
X1377393Y633491D01*
X1376831Y634331D01*
X1375991Y634893D01*
X1375000Y635090D01*
D02*
G37*
G36*
X1134000Y634090D02*
X1128770D01*
Y625270D01*
X1136590D01*
Y631500D01*
X1136393Y632491D01*
X1135831Y633331D01*
X1134991Y633893D01*
X1134000Y634090D01*
D02*
G37*
G36*
X1496590Y623730D02*
X1488770D01*
Y614910D01*
X1494000D01*
X1494991Y615107D01*
X1495831Y615669D01*
X1496393Y616509D01*
X1496590Y617500D01*
Y623730D01*
D02*
G37*
G36*
X1254000Y635090D02*
X1248770D01*
Y626270D01*
X1256590D01*
Y632500D01*
X1256393Y633491D01*
X1255831Y634331D01*
X1254991Y634893D01*
X1254000Y635090D01*
D02*
G37*
G36*
X1013500Y634090D02*
X1008270D01*
Y625270D01*
X1016090D01*
Y631500D01*
X1015893Y632491D01*
X1015331Y633331D01*
X1014491Y633893D01*
X1013500Y634090D01*
D02*
G37*
G36*
X1380270Y665878D02*
Y660270D01*
X1385878D01*
X1385805Y660823D01*
X1385101Y662523D01*
X1383982Y663982D01*
X1382523Y665101D01*
X1380824Y665805D01*
X1380270Y665878D01*
D02*
G37*
G36*
X1310230Y808590D02*
X1309000D01*
X1308009Y808393D01*
X1307271Y807900D01*
X1306892Y808153D01*
X1306000Y808331D01*
X1301000D01*
X1300108Y808153D01*
X1299500Y807747D01*
X1298892Y808153D01*
X1298000Y808331D01*
X1293000D01*
X1292108Y808153D01*
X1291729Y807900D01*
X1290991Y808393D01*
X1290000Y808590D01*
X1288770D01*
Y796000D01*
Y783410D01*
X1290000D01*
X1290991Y783607D01*
X1291729Y784100D01*
X1292108Y783847D01*
X1293000Y783669D01*
X1298000D01*
X1298892Y783847D01*
X1299500Y784253D01*
X1300108Y783847D01*
X1301000Y783669D01*
X1306000D01*
X1306892Y783847D01*
X1307271Y784100D01*
X1308009Y783607D01*
X1309000Y783410D01*
X1310230D01*
Y796000D01*
Y808590D01*
D02*
G37*
G36*
X1286230D02*
X1285000D01*
X1284009Y808393D01*
X1283271Y807900D01*
X1282892Y808153D01*
X1282000Y808331D01*
X1277000D01*
X1276108Y808153D01*
X1275500Y807747D01*
X1274892Y808153D01*
X1274000Y808331D01*
X1269000D01*
X1268108Y808153D01*
X1267729Y807900D01*
X1266991Y808393D01*
X1266000Y808590D01*
X1264770D01*
Y796000D01*
Y783410D01*
X1266000D01*
X1266991Y783607D01*
X1267729Y784100D01*
X1268108Y783847D01*
X1269000Y783669D01*
X1274000D01*
X1274892Y783847D01*
X1275500Y784253D01*
X1276108Y783847D01*
X1277000Y783669D01*
X1282000D01*
X1282892Y783847D01*
X1283271Y784100D01*
X1284009Y783607D01*
X1285000Y783410D01*
X1286230D01*
Y796000D01*
Y808590D01*
D02*
G37*
G36*
X1238230D02*
X1237000D01*
X1236009Y808393D01*
X1235271Y807900D01*
X1234892Y808153D01*
X1234000Y808331D01*
X1229000D01*
X1228108Y808153D01*
X1227500Y807747D01*
X1226892Y808153D01*
X1226000Y808331D01*
X1221000D01*
X1220108Y808153D01*
X1219729Y807900D01*
X1218991Y808393D01*
X1218000Y808590D01*
X1216770D01*
Y796000D01*
Y783410D01*
X1218000D01*
X1218991Y783607D01*
X1219729Y784100D01*
X1220108Y783847D01*
X1221000Y783669D01*
X1226000D01*
X1226892Y783847D01*
X1227500Y784253D01*
X1228108Y783847D01*
X1229000Y783669D01*
X1234000D01*
X1234892Y783847D01*
X1235271Y784100D01*
X1236009Y783607D01*
X1237000Y783410D01*
X1238230D01*
Y796000D01*
Y808590D01*
D02*
G37*
G36*
X1214230D02*
X1213000D01*
X1212009Y808393D01*
X1211271Y807900D01*
X1210892Y808153D01*
X1210000Y808331D01*
X1205000D01*
X1204108Y808153D01*
X1203500Y807747D01*
X1202892Y808153D01*
X1202000Y808331D01*
X1197000D01*
X1196108Y808153D01*
X1195729Y807900D01*
X1194991Y808393D01*
X1194000Y808590D01*
X1192770D01*
Y796000D01*
Y783410D01*
X1194000D01*
X1194991Y783607D01*
X1195729Y784100D01*
X1196108Y783847D01*
X1197000Y783669D01*
X1202000D01*
X1202892Y783847D01*
X1203500Y784253D01*
X1204108Y783847D01*
X1205000Y783669D01*
X1210000D01*
X1210892Y783847D01*
X1211271Y784100D01*
X1212009Y783607D01*
X1213000Y783410D01*
X1214230D01*
Y796000D01*
Y808590D01*
D02*
G37*
G36*
X1190230D02*
X1189000D01*
X1188009Y808393D01*
X1187271Y807900D01*
X1186892Y808153D01*
X1186000Y808331D01*
X1181000D01*
X1180108Y808153D01*
X1179500Y807747D01*
X1178892Y808153D01*
X1178000Y808331D01*
X1173000D01*
X1172108Y808153D01*
X1171729Y807900D01*
X1170991Y808393D01*
X1170000Y808590D01*
X1168770D01*
Y796000D01*
Y783410D01*
X1170000D01*
X1170991Y783607D01*
X1171729Y784100D01*
X1172108Y783847D01*
X1173000Y783669D01*
X1178000D01*
X1178892Y783847D01*
X1179500Y784253D01*
X1180108Y783847D01*
X1181000Y783669D01*
X1186000D01*
X1186892Y783847D01*
X1187271Y784100D01*
X1188009Y783607D01*
X1189000Y783410D01*
X1190230D01*
Y796000D01*
Y808590D01*
D02*
G37*
G36*
X1550090Y815230D02*
X1540000D01*
X1529910D01*
Y810000D01*
X1530107Y809009D01*
X1530669Y808169D01*
X1531509Y807607D01*
X1531959Y807518D01*
Y806223D01*
X1531608Y806153D01*
X1530852Y805648D01*
X1530347Y804892D01*
X1530169Y804000D01*
Y802421D01*
X1519092D01*
X1518801Y802801D01*
X1517395Y803879D01*
X1515757Y804558D01*
X1514000Y804789D01*
X1512243Y804558D01*
X1510605Y803879D01*
X1509199Y802801D01*
X1508121Y801395D01*
X1507442Y799757D01*
X1507211Y798000D01*
X1507442Y796243D01*
X1508121Y794605D01*
X1509199Y793199D01*
X1510605Y792121D01*
X1512243Y791442D01*
X1514000Y791211D01*
X1515757Y791442D01*
X1517395Y792121D01*
X1517993Y792579D01*
X1530169D01*
Y791000D01*
X1530347Y790108D01*
X1530852Y789352D01*
X1531608Y788847D01*
X1532500Y788669D01*
X1547500D01*
X1548392Y788847D01*
X1549148Y789352D01*
X1549653Y790108D01*
X1549831Y791000D01*
Y804000D01*
X1549653Y804892D01*
X1549148Y805648D01*
X1548392Y806153D01*
X1548041Y806223D01*
Y807518D01*
X1548491Y807607D01*
X1549331Y808169D01*
X1549893Y809009D01*
X1550090Y810000D01*
Y815230D01*
D02*
G37*
G36*
X948090Y797730D02*
X939270D01*
Y789910D01*
X945500D01*
X946491Y790107D01*
X947331Y790669D01*
X947893Y791509D01*
X948090Y792500D01*
Y797730D01*
D02*
G37*
G36*
X1142230Y808590D02*
X1141000D01*
X1140009Y808393D01*
X1139271Y807900D01*
X1138892Y808153D01*
X1138000Y808331D01*
X1133000D01*
X1132108Y808153D01*
X1131500Y807747D01*
X1130892Y808153D01*
X1130000Y808331D01*
X1125000D01*
X1124108Y808153D01*
X1123500Y807747D01*
X1122892Y808153D01*
X1122000Y808331D01*
X1117000D01*
X1116108Y808153D01*
X1115500Y807747D01*
X1114892Y808153D01*
X1114000Y808331D01*
X1109000D01*
X1108108Y808153D01*
X1107500Y807747D01*
X1106892Y808153D01*
X1106000Y808331D01*
X1101000D01*
X1100108Y808153D01*
X1099500Y807747D01*
X1098892Y808153D01*
X1098000Y808331D01*
X1093000D01*
X1092108Y808153D01*
X1091352Y807648D01*
X1090847Y806892D01*
X1090669Y806000D01*
Y786000D01*
X1090847Y785108D01*
X1091352Y784352D01*
X1092108Y783847D01*
X1093000Y783669D01*
X1098000D01*
X1098892Y783847D01*
X1099500Y784253D01*
X1100108Y783847D01*
X1101000Y783669D01*
X1106000D01*
X1106892Y783847D01*
X1107500Y784253D01*
X1108108Y783847D01*
X1109000Y783669D01*
X1114000D01*
X1114892Y783847D01*
X1115500Y784253D01*
X1116108Y783847D01*
X1117000Y783669D01*
X1122000D01*
X1122892Y783847D01*
X1123500Y784253D01*
X1124108Y783847D01*
X1125000Y783669D01*
X1130000D01*
X1130892Y783847D01*
X1131500Y784253D01*
X1132108Y783847D01*
X1133000Y783669D01*
X1138000D01*
X1138892Y783847D01*
X1139271Y784100D01*
X1140009Y783607D01*
X1141000Y783410D01*
X1142230D01*
Y796000D01*
Y808590D01*
D02*
G37*
G36*
X1166230D02*
X1165000D01*
X1164009Y808393D01*
X1163271Y807900D01*
X1162892Y808153D01*
X1162000Y808331D01*
X1157000D01*
X1156108Y808153D01*
X1155500Y807747D01*
X1154892Y808153D01*
X1154000Y808331D01*
X1149000D01*
X1148108Y808153D01*
X1147729Y807900D01*
X1146991Y808393D01*
X1146000Y808590D01*
X1144770D01*
Y796000D01*
Y783410D01*
X1146000D01*
X1146991Y783607D01*
X1147729Y784100D01*
X1148108Y783847D01*
X1149000Y783669D01*
X1154000D01*
X1154892Y783847D01*
X1155500Y784253D01*
X1156108Y783847D01*
X1157000Y783669D01*
X1162000D01*
X1162892Y783847D01*
X1163271Y784100D01*
X1164009Y783607D01*
X1165000Y783410D01*
X1166230D01*
Y796000D01*
Y808590D01*
D02*
G37*
G36*
X1519878Y823730D02*
X1514270D01*
Y818122D01*
X1514823Y818195D01*
X1516523Y818899D01*
X1517982Y820018D01*
X1519101Y821477D01*
X1519805Y823177D01*
X1519878Y823730D01*
D02*
G37*
G36*
X1511730D02*
X1506122D01*
X1506195Y823177D01*
X1506899Y821477D01*
X1508018Y820018D01*
X1509477Y818899D01*
X1511177Y818195D01*
X1511730Y818122D01*
Y823730D01*
D02*
G37*
G36*
X1514270Y831878D02*
Y826270D01*
X1519878D01*
X1519805Y826823D01*
X1519101Y828523D01*
X1517982Y829982D01*
X1516523Y831101D01*
X1514823Y831805D01*
X1514270Y831878D01*
D02*
G37*
G36*
X1511730D02*
X1511177Y831805D01*
X1509477Y831101D01*
X1508018Y829982D01*
X1506899Y828523D01*
X1506195Y826823D01*
X1506122Y826270D01*
X1511730D01*
Y831878D01*
D02*
G37*
G36*
X1547500Y825590D02*
X1541270D01*
Y817770D01*
X1550090D01*
Y823000D01*
X1549893Y823991D01*
X1549331Y824831D01*
X1548491Y825393D01*
X1547500Y825590D01*
D02*
G37*
G36*
X1070500Y824919D02*
X1070275Y824874D01*
X1070045D01*
X1068289Y824525D01*
X1067449Y824177D01*
X1065961Y823182D01*
X1065961Y823182D01*
X1065318Y822539D01*
X1064323Y821051D01*
X1063975Y820210D01*
X1063626Y818455D01*
Y817545D01*
X1063975Y815789D01*
X1064323Y814949D01*
X1065318Y813461D01*
X1065318Y813461D01*
X1065961Y812818D01*
X1067449Y811823D01*
X1068289Y811475D01*
X1070045Y811126D01*
X1070275D01*
X1070500Y811081D01*
X1070725Y811126D01*
X1070955D01*
X1072710Y811475D01*
X1073551Y811823D01*
X1075039Y812818D01*
X1075039Y812818D01*
X1075682Y813461D01*
X1076677Y814949D01*
X1077025Y815789D01*
X1077374Y817545D01*
Y818455D01*
X1077025Y820210D01*
X1076677Y821051D01*
X1075682Y822539D01*
X1075682Y822539D01*
X1075039Y823182D01*
X1073551Y824177D01*
X1072710Y824525D01*
X1070955Y824874D01*
X1070725D01*
X1070500Y824919D01*
D02*
G37*
G36*
X1262230Y808590D02*
X1261000D01*
X1260009Y808393D01*
X1259271Y807900D01*
X1258892Y808153D01*
X1258000Y808331D01*
X1253000D01*
X1252108Y808153D01*
X1251500Y807747D01*
X1250892Y808153D01*
X1250000Y808331D01*
X1245000D01*
X1244108Y808153D01*
X1243729Y807900D01*
X1242991Y808393D01*
X1242000Y808590D01*
X1240770D01*
Y796000D01*
Y783410D01*
X1242000D01*
X1242991Y783607D01*
X1243729Y784100D01*
X1244108Y783847D01*
X1245000Y783669D01*
X1250000D01*
X1250892Y783847D01*
X1251500Y784253D01*
X1252108Y783847D01*
X1253000Y783669D01*
X1258000D01*
X1258892Y783847D01*
X1259271Y784100D01*
X1260009Y783607D01*
X1261000Y783410D01*
X1262230D01*
Y796000D01*
Y808590D01*
D02*
G37*
G36*
X1538730Y825590D02*
X1532500D01*
X1531509Y825393D01*
X1530669Y824831D01*
X1530107Y823991D01*
X1529910Y823000D01*
Y817770D01*
X1538730D01*
Y825590D01*
D02*
G37*
G36*
X945500Y826831D02*
X930500D01*
X929608Y826653D01*
X928852Y826148D01*
X928347Y825392D01*
X928169Y824500D01*
Y811500D01*
X928347Y810608D01*
X928852Y809852D01*
X929608Y809347D01*
X929959Y809277D01*
Y807982D01*
X929509Y807893D01*
X928669Y807331D01*
X928107Y806491D01*
X927910Y805500D01*
Y800270D01*
X938000D01*
X948090D01*
Y805500D01*
X947893Y806491D01*
X947331Y807331D01*
X946491Y807893D01*
X946041Y807982D01*
Y809277D01*
X946392Y809347D01*
X947148Y809852D01*
X947653Y810608D01*
X947831Y811500D01*
Y813080D01*
X961356D01*
X962605Y812121D01*
X964243Y811442D01*
X966000Y811211D01*
X967757Y811442D01*
X969395Y812121D01*
X970801Y813199D01*
X971880Y814605D01*
X972558Y816243D01*
X972789Y818000D01*
X972558Y819757D01*
X971880Y821395D01*
X970801Y822801D01*
X969395Y823879D01*
X967757Y824558D01*
X966000Y824789D01*
X964243Y824558D01*
X962605Y823879D01*
X961356Y822921D01*
X947831D01*
Y824500D01*
X947653Y825392D01*
X947148Y826148D01*
X946392Y826653D01*
X945500Y826831D01*
D02*
G37*
G36*
X1547500Y704590D02*
X1541270D01*
Y696770D01*
X1550090D01*
Y702000D01*
X1549893Y702991D01*
X1549331Y703831D01*
X1548491Y704393D01*
X1547500Y704590D01*
D02*
G37*
G36*
X1538730D02*
X1532500D01*
X1531509Y704393D01*
X1530669Y703831D01*
X1530107Y702991D01*
X1529910Y702000D01*
Y696770D01*
X1538730D01*
Y704590D01*
D02*
G37*
G36*
X1515878Y703730D02*
X1510270D01*
Y698122D01*
X1510823Y698195D01*
X1512523Y698899D01*
X1513982Y700018D01*
X1515101Y701477D01*
X1515805Y703177D01*
X1515878Y703730D01*
D02*
G37*
G36*
X1507730D02*
X1502122D01*
X1502195Y703177D01*
X1502899Y701477D01*
X1504018Y700018D01*
X1505477Y698899D01*
X1507177Y698195D01*
X1507730Y698122D01*
Y703730D01*
D02*
G37*
G36*
X1550090Y694230D02*
X1540000D01*
X1529910D01*
Y689000D01*
X1530107Y688009D01*
X1530669Y687169D01*
X1531509Y686607D01*
X1531959Y686518D01*
Y685223D01*
X1531608Y685153D01*
X1530852Y684648D01*
X1530347Y683892D01*
X1530169Y683000D01*
Y681421D01*
X1513993D01*
X1513394Y681880D01*
X1511757Y682558D01*
X1510000Y682789D01*
X1508243Y682558D01*
X1506606Y681880D01*
X1505199Y680801D01*
X1504120Y679395D01*
X1503442Y677757D01*
X1503211Y676000D01*
X1503442Y674243D01*
X1504120Y672606D01*
X1505199Y671199D01*
X1506606Y670120D01*
X1508243Y669442D01*
X1510000Y669211D01*
X1511757Y669442D01*
X1513394Y670120D01*
X1514801Y671199D01*
X1515092Y671580D01*
X1530169D01*
Y670000D01*
X1530347Y669108D01*
X1530852Y668352D01*
X1531608Y667847D01*
X1532500Y667669D01*
X1547500D01*
X1548392Y667847D01*
X1549148Y668352D01*
X1549653Y669108D01*
X1549831Y670000D01*
Y683000D01*
X1549653Y683892D01*
X1549148Y684648D01*
X1548392Y685153D01*
X1548041Y685223D01*
Y686518D01*
X1548491Y686607D01*
X1549331Y687169D01*
X1549893Y688009D01*
X1550090Y689000D01*
Y694230D01*
D02*
G37*
G36*
X959270Y674799D02*
Y667270D01*
X966799D01*
X966661Y668321D01*
X965765Y670483D01*
X964340Y672340D01*
X962483Y673765D01*
X960321Y674661D01*
X959270Y674799D01*
D02*
G37*
G36*
X956730D02*
X955679Y674661D01*
X953517Y673765D01*
X951660Y672340D01*
X950235Y670483D01*
X949339Y668321D01*
X949201Y667270D01*
X956730D01*
Y674799D01*
D02*
G37*
G36*
X948090Y675730D02*
X939270D01*
Y667910D01*
X945500D01*
X946491Y668107D01*
X947331Y668669D01*
X947893Y669509D01*
X948090Y670500D01*
Y675730D01*
D02*
G37*
G36*
X936730D02*
X927910D01*
Y670500D01*
X928107Y669509D01*
X928669Y668669D01*
X929509Y668107D01*
X930500Y667910D01*
X936730D01*
Y675730D01*
D02*
G37*
G36*
X964230Y792378D02*
X963677Y792305D01*
X961977Y791601D01*
X960518Y790482D01*
X959399Y789023D01*
X958695Y787323D01*
X958622Y786770D01*
X964230D01*
Y792378D01*
D02*
G37*
G36*
X1314000Y808590D02*
X1312770D01*
Y796000D01*
Y783410D01*
X1314000D01*
X1314991Y783607D01*
X1315729Y784100D01*
X1316108Y783847D01*
X1317000Y783669D01*
X1322000D01*
X1322892Y783847D01*
X1323500Y784253D01*
X1324108Y783847D01*
X1325000Y783669D01*
X1330000D01*
X1330892Y783847D01*
X1331648Y784352D01*
X1332153Y785108D01*
X1332331Y786000D01*
Y806000D01*
X1332153Y806892D01*
X1331648Y807648D01*
X1330892Y808153D01*
X1330000Y808331D01*
X1325000D01*
X1324108Y808153D01*
X1323500Y807747D01*
X1322892Y808153D01*
X1322000Y808331D01*
X1317000D01*
X1316108Y808153D01*
X1315729Y807900D01*
X1314991Y808393D01*
X1314000Y808590D01*
D02*
G37*
G36*
X936730Y797730D02*
X927910D01*
Y792500D01*
X928107Y791509D01*
X928669Y790669D01*
X929509Y790107D01*
X930500Y789910D01*
X936730D01*
Y797730D01*
D02*
G37*
G36*
X966770Y792378D02*
Y786770D01*
X972378D01*
X972305Y787323D01*
X971601Y789023D01*
X970482Y790482D01*
X969023Y791601D01*
X967323Y792305D01*
X966770Y792378D01*
D02*
G37*
G36*
X972378Y784230D02*
X966770D01*
Y778622D01*
X967323Y778695D01*
X969023Y779399D01*
X970482Y780518D01*
X971601Y781977D01*
X972305Y783677D01*
X972378Y784230D01*
D02*
G37*
G36*
X1507730Y711878D02*
X1507177Y711805D01*
X1505477Y711101D01*
X1504018Y709982D01*
X1502899Y708523D01*
X1502195Y706824D01*
X1502122Y706270D01*
X1507730D01*
Y711878D01*
D02*
G37*
G36*
X958000Y713710D02*
X955745Y713414D01*
X953645Y712544D01*
X951841Y711159D01*
X950456Y709355D01*
X949586Y707254D01*
X949289Y705000D01*
X949395Y704200D01*
X948795Y703666D01*
X947312Y703903D01*
X947148Y704148D01*
X946392Y704653D01*
X945500Y704831D01*
X930500D01*
X929608Y704653D01*
X928852Y704148D01*
X928347Y703392D01*
X928169Y702500D01*
Y689500D01*
X928347Y688608D01*
X928852Y687852D01*
X929608Y687347D01*
X929959Y687277D01*
Y685982D01*
X929509Y685893D01*
X928669Y685331D01*
X928107Y684491D01*
X927910Y683500D01*
Y678270D01*
X938000D01*
X948090D01*
Y683500D01*
X947893Y684491D01*
X947331Y685331D01*
X946491Y685893D01*
X946041Y685982D01*
Y687277D01*
X946392Y687347D01*
X947148Y687852D01*
X947653Y688608D01*
X947831Y689500D01*
Y691079D01*
X949000D01*
X950883Y691454D01*
X952479Y692521D01*
X956452Y696493D01*
X958000Y696290D01*
X960254Y696586D01*
X962355Y697457D01*
X964159Y698841D01*
X965544Y700645D01*
X966414Y702746D01*
X966711Y705000D01*
X966414Y707254D01*
X965544Y709355D01*
X964159Y711159D01*
X962355Y712544D01*
X960254Y713414D01*
X958000Y713710D01*
D02*
G37*
G36*
X964230Y784230D02*
X958622D01*
X958695Y783677D01*
X959399Y781977D01*
X960518Y780518D01*
X961977Y779399D01*
X963677Y778695D01*
X964230Y778622D01*
Y784230D01*
D02*
G37*
G36*
X1510270Y711878D02*
Y706270D01*
X1515878D01*
X1515805Y706824D01*
X1515101Y708523D01*
X1513982Y709982D01*
X1512523Y711101D01*
X1510823Y711805D01*
X1510270Y711878D01*
D02*
G37*
G36*
X798090Y1225730D02*
X790270D01*
Y1216910D01*
X795500D01*
X796491Y1217107D01*
X797331Y1217669D01*
X797893Y1218509D01*
X798090Y1219500D01*
Y1225730D01*
D02*
G37*
G36*
X879090Y1224730D02*
X871770D01*
Y1215910D01*
X876500D01*
X877491Y1216107D01*
X878331Y1216669D01*
X878893Y1217509D01*
X879090Y1218500D01*
Y1224730D01*
D02*
G37*
G36*
X1435730D02*
X1430122D01*
X1430195Y1224177D01*
X1430899Y1222477D01*
X1432018Y1221018D01*
X1433477Y1219899D01*
X1435177Y1219195D01*
X1435730Y1219122D01*
Y1224730D01*
D02*
G37*
G36*
X1469230Y1225730D02*
X1461410D01*
Y1219500D01*
X1461607Y1218509D01*
X1462169Y1217669D01*
X1463009Y1217107D01*
X1464000Y1216910D01*
X1469230D01*
Y1225730D01*
D02*
G37*
G36*
X1238270Y1219878D02*
Y1214270D01*
X1243878D01*
X1243805Y1214824D01*
X1243101Y1216523D01*
X1241982Y1217982D01*
X1240523Y1219101D01*
X1238823Y1219805D01*
X1238270Y1219878D01*
D02*
G37*
G36*
X1531831Y1219355D02*
X1531278Y1219283D01*
X1529579Y1218579D01*
X1528120Y1217459D01*
X1527000Y1216000D01*
X1526296Y1214301D01*
X1526223Y1213747D01*
X1531831D01*
Y1219355D01*
D02*
G37*
G36*
X1344270Y1216878D02*
Y1211270D01*
X1349878D01*
X1349805Y1211823D01*
X1349101Y1213523D01*
X1347982Y1214982D01*
X1346523Y1216101D01*
X1344823Y1216805D01*
X1344270Y1216878D01*
D02*
G37*
G36*
X1235730Y1219878D02*
X1235176Y1219805D01*
X1233477Y1219101D01*
X1232018Y1217982D01*
X1230899Y1216523D01*
X1230195Y1214824D01*
X1230122Y1214270D01*
X1235730D01*
Y1219878D01*
D02*
G37*
G36*
X1534371Y1219355D02*
Y1213747D01*
X1539980D01*
X1539907Y1214301D01*
X1539203Y1216000D01*
X1538083Y1217459D01*
X1536624Y1218579D01*
X1534925Y1219283D01*
X1534371Y1219355D01*
D02*
G37*
G36*
X1031500Y1376090D02*
X1026270D01*
Y1366000D01*
X1025000D01*
Y1364730D01*
X1015910D01*
Y1358500D01*
X1016107Y1357509D01*
X1016669Y1356669D01*
X1017146Y1356350D01*
X1016965Y1355019D01*
X1016113Y1354850D01*
X1014936Y1354064D01*
X1014936Y1354064D01*
X998436Y1337564D01*
X997650Y1336387D01*
X997374Y1335000D01*
X997374Y1335000D01*
Y1251000D01*
X997374Y1251000D01*
X997650Y1249613D01*
X998436Y1248436D01*
X1040374Y1206498D01*
Y1199331D01*
X1039000D01*
X1038108Y1199153D01*
X1037352Y1198648D01*
X1036847Y1197892D01*
X1036669Y1197000D01*
Y1171000D01*
X1036847Y1170108D01*
X1037352Y1169352D01*
X1038108Y1168847D01*
X1039000Y1168669D01*
X1049000D01*
X1049892Y1168847D01*
X1050648Y1169352D01*
X1051153Y1170108D01*
X1051331Y1171000D01*
Y1197000D01*
X1051153Y1197892D01*
X1050648Y1198648D01*
X1049892Y1199153D01*
X1049000Y1199331D01*
X1047626D01*
Y1206451D01*
X1048896Y1206977D01*
X1054436Y1201436D01*
X1055612Y1200650D01*
X1057000Y1200374D01*
X1057000Y1200374D01*
X1057428D01*
X1058049Y1199198D01*
X1058035Y1199104D01*
X1057352Y1198648D01*
X1056847Y1197892D01*
X1056669Y1197000D01*
Y1171000D01*
X1056847Y1170108D01*
X1057352Y1169352D01*
X1058108Y1168847D01*
X1059000Y1168669D01*
X1069000D01*
X1069892Y1168847D01*
X1070648Y1169352D01*
X1071153Y1170108D01*
X1071331Y1171000D01*
Y1197000D01*
X1071153Y1197892D01*
X1070648Y1198648D01*
X1069965Y1199104D01*
X1069951Y1199198D01*
X1070572Y1200374D01*
X1077428D01*
X1078049Y1199198D01*
X1078035Y1199104D01*
X1077352Y1198648D01*
X1076847Y1197892D01*
X1076669Y1197000D01*
Y1171000D01*
X1076847Y1170108D01*
X1077352Y1169352D01*
X1078108Y1168847D01*
X1079000Y1168669D01*
X1089000D01*
X1089892Y1168847D01*
X1090648Y1169352D01*
X1091153Y1170108D01*
X1091331Y1171000D01*
Y1197000D01*
X1091153Y1197892D01*
X1090648Y1198648D01*
X1089965Y1199104D01*
X1089951Y1199198D01*
X1090572Y1200374D01*
X1096355D01*
X1096878Y1199772D01*
X1097352Y1198648D01*
X1096847Y1197892D01*
X1096669Y1197000D01*
Y1171000D01*
X1096847Y1170108D01*
X1097352Y1169352D01*
X1098108Y1168847D01*
X1099000Y1168669D01*
X1102584D01*
X1102613Y1168650D01*
X1104000Y1168374D01*
X1105387Y1168650D01*
X1105416Y1168669D01*
X1109000D01*
X1109892Y1168847D01*
X1110648Y1169352D01*
X1111153Y1170108D01*
X1111331Y1171000D01*
Y1197000D01*
X1111153Y1197892D01*
X1110648Y1198648D01*
X1109892Y1199153D01*
X1109000Y1199331D01*
X1107560D01*
X1107350Y1200387D01*
X1106564Y1201564D01*
X1102926Y1205201D01*
X1103412Y1206374D01*
X1193498D01*
X1199272Y1200601D01*
X1199117Y1199879D01*
X1198788Y1199289D01*
X1198108Y1199153D01*
X1197352Y1198648D01*
X1196847Y1197892D01*
X1196669Y1197000D01*
Y1171000D01*
X1196847Y1170108D01*
X1197352Y1169352D01*
X1198108Y1168847D01*
X1199000Y1168669D01*
X1209000D01*
X1209892Y1168847D01*
X1210648Y1169352D01*
X1211153Y1170108D01*
X1211331Y1171000D01*
Y1197000D01*
X1211153Y1197892D01*
X1210648Y1198648D01*
X1209892Y1199153D01*
X1209000Y1199331D01*
X1207626D01*
Y1201000D01*
X1207350Y1202387D01*
X1206564Y1203564D01*
X1206564Y1203564D01*
X1197564Y1212564D01*
X1196387Y1213350D01*
X1195000Y1213626D01*
X1195000Y1213626D01*
X1061502D01*
X1019626Y1255502D01*
Y1324498D01*
X1029777Y1334650D01*
X1030671Y1334541D01*
X1031153Y1333281D01*
X1022436Y1324564D01*
X1021650Y1323387D01*
X1021374Y1322000D01*
X1021374Y1322000D01*
Y1275000D01*
X1021374Y1275000D01*
X1021650Y1273613D01*
X1022436Y1272436D01*
X1044436Y1250436D01*
X1044436Y1250436D01*
X1045612Y1249650D01*
X1047000Y1249374D01*
X1121498D01*
X1139436Y1231436D01*
X1140612Y1230650D01*
X1142000Y1230374D01*
X1142000Y1230374D01*
X1187498D01*
X1217620Y1200253D01*
X1217398Y1198679D01*
X1217352Y1198648D01*
X1216847Y1197892D01*
X1216669Y1197000D01*
Y1171000D01*
X1216847Y1170108D01*
X1217352Y1169352D01*
X1218108Y1168847D01*
X1219000Y1168669D01*
X1229000D01*
X1229892Y1168847D01*
X1230648Y1169352D01*
X1231153Y1170108D01*
X1231331Y1171000D01*
Y1197000D01*
X1231153Y1197892D01*
X1230648Y1198648D01*
X1229892Y1199153D01*
X1229000Y1199331D01*
X1227560D01*
X1227350Y1200387D01*
X1226564Y1201564D01*
X1226564Y1201564D01*
X1193926Y1234201D01*
X1194413Y1235374D01*
X1232498D01*
X1250374Y1217498D01*
Y1200242D01*
X1249104Y1199310D01*
X1249000Y1199331D01*
X1239000D01*
X1238108Y1199153D01*
X1237352Y1198648D01*
X1236847Y1197892D01*
X1236669Y1197000D01*
Y1171000D01*
X1236847Y1170108D01*
X1237352Y1169352D01*
X1238108Y1168847D01*
X1239000Y1168669D01*
X1249000D01*
X1249104Y1168690D01*
X1250279Y1168052D01*
X1250423Y1167756D01*
X1250650Y1166612D01*
X1251436Y1165436D01*
X1257436Y1159436D01*
X1257676Y1159276D01*
X1257689Y1159244D01*
X1257589Y1157807D01*
X1257352Y1157648D01*
X1256847Y1156892D01*
X1256669Y1156000D01*
Y1130000D01*
X1256847Y1129108D01*
X1257352Y1128352D01*
X1258108Y1127847D01*
X1259000Y1127669D01*
X1269000D01*
X1269892Y1127847D01*
X1270648Y1128352D01*
X1271153Y1129108D01*
X1271331Y1130000D01*
Y1156000D01*
X1271153Y1156892D01*
X1271012Y1157104D01*
X1271673Y1158374D01*
X1275498D01*
X1276900Y1156972D01*
X1276847Y1156892D01*
X1276669Y1156000D01*
Y1130000D01*
X1276847Y1129108D01*
X1277352Y1128352D01*
X1278108Y1127847D01*
X1279000Y1127669D01*
X1289000D01*
X1289892Y1127847D01*
X1290648Y1128352D01*
X1291153Y1129108D01*
X1291331Y1130000D01*
Y1156000D01*
X1291153Y1156892D01*
X1290648Y1157648D01*
X1289892Y1158153D01*
X1289000Y1158331D01*
X1285797D01*
X1279564Y1164564D01*
X1278388Y1165350D01*
X1277000Y1165626D01*
X1277000Y1165626D01*
X1261502D01*
X1259728Y1167399D01*
X1260254Y1168669D01*
X1269000D01*
X1269892Y1168847D01*
X1270648Y1169352D01*
X1271153Y1170108D01*
X1271331Y1171000D01*
Y1197000D01*
X1271153Y1197892D01*
X1270648Y1198648D01*
X1269892Y1199153D01*
X1269000Y1199331D01*
X1259000D01*
X1258896Y1199310D01*
X1257626Y1200242D01*
Y1219000D01*
X1257626Y1219000D01*
X1257350Y1220387D01*
X1256564Y1221564D01*
X1239148Y1238979D01*
X1239620Y1240184D01*
X1240586Y1240287D01*
X1280272Y1200601D01*
X1280127Y1199331D01*
X1279000D01*
X1278108Y1199153D01*
X1277352Y1198648D01*
X1276847Y1197892D01*
X1276669Y1197000D01*
Y1171000D01*
X1276847Y1170108D01*
X1277352Y1169352D01*
X1278108Y1168847D01*
X1279000Y1168669D01*
X1289000D01*
X1289104Y1168690D01*
X1290374Y1167758D01*
Y1167000D01*
X1290374Y1167000D01*
X1290650Y1165612D01*
X1291436Y1164436D01*
X1297430Y1158442D01*
X1297352Y1157648D01*
X1296847Y1156892D01*
X1296669Y1156000D01*
Y1130000D01*
X1296847Y1129108D01*
X1297352Y1128352D01*
X1298108Y1127847D01*
X1299000Y1127669D01*
X1309000D01*
X1309892Y1127847D01*
X1310648Y1128352D01*
X1311153Y1129108D01*
X1311331Y1130000D01*
Y1156000D01*
X1311153Y1156892D01*
X1310648Y1157648D01*
X1309892Y1158153D01*
X1309000Y1158331D01*
X1307361D01*
X1307350Y1158388D01*
X1306564Y1159564D01*
X1306564Y1159564D01*
X1298692Y1167436D01*
X1298848Y1168059D01*
X1299254Y1168669D01*
X1309000D01*
X1309892Y1168847D01*
X1310648Y1169352D01*
X1311153Y1170108D01*
X1311331Y1171000D01*
Y1197000D01*
X1311153Y1197892D01*
X1310648Y1198648D01*
X1309892Y1199153D01*
X1309000Y1199331D01*
X1307626D01*
Y1204000D01*
X1307350Y1205387D01*
X1306564Y1206564D01*
X1306564Y1206564D01*
X1252564Y1260564D01*
X1251387Y1261350D01*
X1250000Y1261626D01*
X1250000Y1261626D01*
X1157502D01*
X1139564Y1279564D01*
X1138388Y1280350D01*
X1137000Y1280626D01*
X1137000Y1280626D01*
X1121262D01*
X1120876Y1281896D01*
X1122212Y1282788D01*
X1123503Y1284720D01*
X1123957Y1287000D01*
X1123503Y1289279D01*
X1122212Y1291212D01*
X1120279Y1292503D01*
X1118000Y1292956D01*
X1117309Y1292819D01*
X1111626Y1298502D01*
Y1317498D01*
X1116002Y1321874D01*
X1117758D01*
X1118690Y1320604D01*
X1118669Y1320500D01*
Y1317500D01*
X1118847Y1316608D01*
X1119352Y1315852D01*
Y1315648D01*
X1118847Y1314892D01*
X1118669Y1314000D01*
Y1311000D01*
X1118847Y1310108D01*
X1119298Y1309250D01*
X1118847Y1308392D01*
X1118669Y1307500D01*
Y1304500D01*
X1118847Y1303608D01*
X1119352Y1302852D01*
Y1302648D01*
X1118847Y1301892D01*
X1118669Y1301000D01*
Y1298000D01*
X1118847Y1297108D01*
X1119352Y1296352D01*
X1120108Y1295847D01*
X1121000Y1295669D01*
X1137000D01*
X1137892Y1295847D01*
X1137933Y1295874D01*
X1150998D01*
X1162436Y1284436D01*
X1162436Y1284436D01*
X1163613Y1283650D01*
X1165000Y1283374D01*
X1208000D01*
X1208000Y1283374D01*
X1209388Y1283650D01*
X1210564Y1284436D01*
X1222502Y1296374D01*
X1239397D01*
X1239788Y1295788D01*
X1241721Y1294497D01*
X1244000Y1294043D01*
X1246279Y1294497D01*
X1248212Y1295788D01*
X1249503Y1297720D01*
X1249957Y1300000D01*
X1249503Y1302279D01*
X1248212Y1304212D01*
X1246279Y1305503D01*
X1244000Y1305956D01*
X1241721Y1305503D01*
X1239788Y1304212D01*
X1239397Y1303626D01*
X1221000D01*
X1221000Y1303626D01*
X1219613Y1303350D01*
X1218436Y1302564D01*
X1206498Y1290626D01*
X1166502D01*
X1156023Y1301104D01*
X1156549Y1302374D01*
X1159458D01*
X1160290Y1301290D01*
X1161669Y1300231D01*
X1163276Y1299566D01*
X1165000Y1299339D01*
X1166724Y1299566D01*
X1168331Y1300231D01*
X1169436Y1301080D01*
X1171169D01*
Y1297500D01*
X1171347Y1296608D01*
X1171852Y1295852D01*
X1172608Y1295347D01*
X1173500Y1295169D01*
X1186500D01*
X1187392Y1295347D01*
X1188148Y1295852D01*
X1188653Y1296608D01*
X1188723Y1296959D01*
X1190018D01*
X1190107Y1296509D01*
X1190669Y1295669D01*
X1191509Y1295107D01*
X1192500Y1294910D01*
X1197730D01*
Y1305000D01*
Y1315090D01*
X1192500D01*
X1191509Y1314893D01*
X1190669Y1314331D01*
X1190107Y1313491D01*
X1190018Y1313041D01*
X1188723D01*
X1188653Y1313392D01*
X1188148Y1314148D01*
X1187392Y1314653D01*
X1186500Y1314831D01*
X1173500D01*
X1172608Y1314653D01*
X1171852Y1314148D01*
X1171347Y1313392D01*
X1171169Y1312500D01*
Y1310921D01*
X1169436D01*
X1168331Y1311769D01*
X1166724Y1312434D01*
X1165000Y1312661D01*
X1164815Y1312637D01*
X1164222Y1313840D01*
X1170036Y1319654D01*
X1173525D01*
X1173917Y1319068D01*
X1175849Y1317776D01*
X1178129Y1317323D01*
X1180408Y1317776D01*
X1182341Y1319068D01*
X1183632Y1321000D01*
X1184085Y1323279D01*
X1183632Y1325559D01*
X1182341Y1327491D01*
X1180408Y1328783D01*
X1178129Y1329236D01*
X1175849Y1328783D01*
X1173917Y1327491D01*
X1173525Y1326905D01*
X1168534D01*
X1167147Y1326629D01*
X1165971Y1325843D01*
X1165971Y1325843D01*
X1156253Y1316126D01*
X1153049D01*
X1152523Y1317396D01*
X1158214Y1323086D01*
X1160279Y1323497D01*
X1162212Y1324788D01*
X1163503Y1326721D01*
X1163956Y1329000D01*
X1163503Y1331279D01*
X1162212Y1333212D01*
X1160279Y1334503D01*
X1158000Y1334957D01*
X1155721Y1334503D01*
X1153788Y1333212D01*
X1152497Y1331279D01*
X1152044Y1329000D01*
X1152347Y1327475D01*
X1147498Y1322626D01*
X1140242D01*
X1139310Y1323896D01*
X1139331Y1324000D01*
Y1327000D01*
X1139153Y1327892D01*
X1138648Y1328648D01*
Y1328852D01*
X1139153Y1329608D01*
X1139331Y1330500D01*
Y1333500D01*
X1139310Y1333604D01*
X1140242Y1334874D01*
X1151500D01*
X1151500Y1334874D01*
X1152887Y1335150D01*
X1154064Y1335936D01*
X1156502Y1338374D01*
X1174440D01*
X1174832Y1337788D01*
X1176764Y1336497D01*
X1179044Y1336044D01*
X1181323Y1336497D01*
X1183255Y1337788D01*
X1183647Y1338374D01*
X1204739D01*
X1205124Y1337104D01*
X1203788Y1336212D01*
X1202497Y1334279D01*
X1202044Y1332000D01*
X1202497Y1329721D01*
X1203788Y1327788D01*
X1205721Y1326497D01*
X1208000Y1326044D01*
X1210279Y1326497D01*
X1212212Y1327788D01*
X1212604Y1328374D01*
X1217434D01*
X1218069Y1327600D01*
Y1323400D01*
X1218247Y1322508D01*
X1218727Y1321789D01*
Y1319120D01*
X1217497Y1317280D01*
X1217044Y1315000D01*
X1217497Y1312721D01*
X1218788Y1310788D01*
X1220721Y1309497D01*
X1223000Y1309044D01*
X1225279Y1309497D01*
X1227212Y1310788D01*
X1228503Y1312721D01*
X1228956Y1315000D01*
X1228503Y1317280D01*
X1227273Y1319120D01*
Y1321789D01*
X1227753Y1322508D01*
X1227931Y1323400D01*
Y1327600D01*
X1227753Y1328492D01*
X1227581Y1328750D01*
X1227753Y1329008D01*
X1227931Y1329900D01*
Y1334100D01*
X1227753Y1334992D01*
X1227581Y1335250D01*
X1227753Y1335508D01*
X1227931Y1336400D01*
Y1340600D01*
X1227753Y1341492D01*
X1227248Y1342248D01*
X1226492Y1342753D01*
X1225600Y1342931D01*
X1220400D01*
X1219508Y1342753D01*
X1219428Y1342700D01*
X1217564Y1344564D01*
X1216387Y1345350D01*
X1215000Y1345626D01*
X1215000Y1345626D01*
X1183647D01*
X1183255Y1346212D01*
X1181323Y1347503D01*
X1179044Y1347957D01*
X1176764Y1347503D01*
X1174832Y1346212D01*
X1174440Y1345626D01*
X1158412D01*
X1157926Y1346799D01*
X1160606Y1349479D01*
X1196327D01*
X1196788Y1348788D01*
X1198721Y1347497D01*
X1201000Y1347044D01*
X1203279Y1347497D01*
X1205212Y1348788D01*
X1206503Y1350721D01*
X1206956Y1353000D01*
X1206503Y1355280D01*
X1205212Y1357212D01*
X1203279Y1358503D01*
X1201000Y1358956D01*
X1198721Y1358503D01*
X1196788Y1357212D01*
X1196466Y1356730D01*
X1161517D01*
X1161031Y1357903D01*
X1163502Y1360374D01*
X1223498D01*
X1238374Y1345498D01*
Y1342664D01*
X1237752Y1342248D01*
X1237247Y1341492D01*
X1237069Y1340600D01*
Y1336400D01*
X1237247Y1335508D01*
X1237266Y1335479D01*
X1237007Y1335091D01*
X1236810Y1334100D01*
Y1333270D01*
X1242000D01*
X1247190D01*
Y1334100D01*
X1246993Y1335091D01*
X1246734Y1335479D01*
X1246753Y1335508D01*
X1246931Y1336400D01*
Y1340600D01*
X1246753Y1341492D01*
X1246248Y1342248D01*
X1245626Y1342664D01*
Y1347000D01*
X1245626Y1347000D01*
X1245350Y1348387D01*
X1244564Y1349564D01*
X1234927Y1359201D01*
X1235413Y1360374D01*
X1246498D01*
X1285374Y1321498D01*
Y1280117D01*
X1285052Y1279635D01*
X1284727Y1278000D01*
Y1244000D01*
X1285052Y1242365D01*
X1285978Y1240978D01*
X1297195Y1229762D01*
X1297044Y1229000D01*
X1297497Y1226721D01*
X1298788Y1224788D01*
X1300721Y1223497D01*
X1303000Y1223044D01*
X1305280Y1223497D01*
X1307212Y1224788D01*
X1308503Y1226721D01*
X1308956Y1229000D01*
X1308503Y1231280D01*
X1307212Y1233212D01*
X1305280Y1234503D01*
X1304357Y1234687D01*
X1293273Y1245770D01*
Y1278000D01*
X1292948Y1279635D01*
X1292626Y1280117D01*
Y1323000D01*
X1292350Y1324388D01*
X1291564Y1325564D01*
X1291564Y1325564D01*
X1250564Y1366564D01*
X1249388Y1367350D01*
X1248000Y1367626D01*
X1248000Y1367626D01*
X1225000D01*
X1225000Y1367626D01*
X1225000Y1367626D01*
X1162000D01*
X1160612Y1367350D01*
X1159436Y1366564D01*
X1159436Y1366564D01*
X1147998Y1355126D01*
X1140548D01*
X1139569Y1356396D01*
X1139590Y1356500D01*
Y1356730D01*
X1118410D01*
Y1356500D01*
X1118607Y1355509D01*
X1119169Y1354669D01*
X1119214Y1354442D01*
X1118847Y1353892D01*
X1118669Y1353000D01*
Y1350000D01*
X1118847Y1349108D01*
X1119298Y1348250D01*
X1118847Y1347392D01*
X1118669Y1346500D01*
Y1343500D01*
X1118847Y1342608D01*
X1119352Y1341852D01*
Y1341648D01*
X1118847Y1340892D01*
X1118669Y1340000D01*
Y1337000D01*
X1118690Y1336896D01*
X1117758Y1335626D01*
X1109000D01*
X1109000Y1335626D01*
X1107613Y1335350D01*
X1106436Y1334564D01*
X1106436Y1334564D01*
X1097436Y1325564D01*
X1096650Y1324388D01*
X1096374Y1323000D01*
X1096374Y1323000D01*
Y1294000D01*
X1096374Y1294000D01*
X1096650Y1292612D01*
X1097200Y1291789D01*
X1097044Y1291000D01*
X1097497Y1288721D01*
X1098788Y1286788D01*
X1100721Y1285497D01*
X1103000Y1285043D01*
X1105279Y1285497D01*
X1107212Y1286788D01*
X1108503Y1288721D01*
X1108680Y1289609D01*
X1109895Y1289978D01*
X1112181Y1287691D01*
X1112044Y1287000D01*
X1112497Y1284720D01*
X1113788Y1282788D01*
X1115124Y1281896D01*
X1114738Y1280626D01*
X1097002D01*
X1082741Y1294886D01*
X1082648Y1296352D01*
X1083153Y1297108D01*
X1083331Y1298000D01*
Y1301000D01*
X1083153Y1301892D01*
X1082648Y1302648D01*
Y1302852D01*
X1083153Y1303608D01*
X1083331Y1304500D01*
Y1307500D01*
X1083153Y1308392D01*
X1082702Y1309250D01*
X1083153Y1310108D01*
X1083331Y1311000D01*
Y1314000D01*
X1083153Y1314892D01*
X1082648Y1315648D01*
Y1315852D01*
X1083153Y1316608D01*
X1083331Y1317500D01*
Y1320500D01*
X1083153Y1321392D01*
X1082702Y1322250D01*
X1083153Y1323108D01*
X1083331Y1324000D01*
Y1327000D01*
X1083153Y1327892D01*
X1082648Y1328648D01*
Y1328852D01*
X1083153Y1329608D01*
X1083331Y1330500D01*
Y1333500D01*
X1083153Y1334392D01*
X1082702Y1335250D01*
X1083153Y1336108D01*
X1083331Y1337000D01*
Y1340000D01*
X1083153Y1340892D01*
X1082648Y1341648D01*
Y1341852D01*
X1083153Y1342608D01*
X1083331Y1343500D01*
Y1346500D01*
X1083153Y1347392D01*
X1082702Y1348250D01*
X1083153Y1349108D01*
X1083331Y1350000D01*
Y1353000D01*
X1083153Y1353892D01*
X1082648Y1354648D01*
Y1354852D01*
X1083153Y1355608D01*
X1083331Y1356500D01*
Y1359500D01*
X1083153Y1360392D01*
X1082648Y1361148D01*
X1081892Y1361653D01*
X1081000Y1361831D01*
X1068095D01*
X1067956Y1362000D01*
X1067503Y1364279D01*
X1066212Y1366212D01*
X1064279Y1367503D01*
X1062000Y1367956D01*
X1059721Y1367503D01*
X1057788Y1366212D01*
X1057396Y1365626D01*
X1052831D01*
Y1373500D01*
X1052653Y1374392D01*
X1052148Y1375148D01*
X1051392Y1375653D01*
X1050500Y1375831D01*
X1037500D01*
X1036608Y1375653D01*
X1035852Y1375148D01*
X1035347Y1374392D01*
X1035277Y1374041D01*
X1033982D01*
X1033893Y1374491D01*
X1033331Y1375331D01*
X1032491Y1375893D01*
X1031500Y1376090D01*
D02*
G37*
G36*
X1069878Y1226730D02*
X1064270D01*
Y1221122D01*
X1064823Y1221195D01*
X1066523Y1221899D01*
X1067982Y1223018D01*
X1069101Y1224477D01*
X1069805Y1226177D01*
X1069878Y1226730D01*
D02*
G37*
G36*
X1435730Y1232878D02*
X1435177Y1232805D01*
X1433477Y1232101D01*
X1432018Y1230982D01*
X1430899Y1229523D01*
X1430195Y1227823D01*
X1430122Y1227270D01*
X1435730D01*
Y1232878D01*
D02*
G37*
G36*
X876500Y1236090D02*
X871770D01*
Y1227270D01*
X879090D01*
Y1233500D01*
X878893Y1234491D01*
X878331Y1235331D01*
X877491Y1235893D01*
X876500Y1236090D01*
D02*
G37*
G36*
X1061730Y1226730D02*
X1056122D01*
X1056195Y1226177D01*
X1056899Y1224477D01*
X1058018Y1223018D01*
X1059477Y1221899D01*
X1061177Y1221195D01*
X1061730Y1221122D01*
Y1226730D01*
D02*
G37*
G36*
X1079730Y1228730D02*
X1071910D01*
Y1222500D01*
X1072107Y1221509D01*
X1072669Y1220669D01*
X1073509Y1220107D01*
X1074500Y1219910D01*
X1079730D01*
Y1228730D01*
D02*
G37*
G36*
X1443878Y1224730D02*
X1438270D01*
Y1219122D01*
X1438823Y1219195D01*
X1440523Y1219899D01*
X1441982Y1221018D01*
X1443101Y1222477D01*
X1443805Y1224177D01*
X1443878Y1224730D01*
D02*
G37*
G36*
X1477000Y1237090D02*
X1471770D01*
Y1227000D01*
Y1216910D01*
X1477000D01*
X1477991Y1217107D01*
X1478831Y1217669D01*
X1479393Y1218509D01*
X1479482Y1218959D01*
X1480777D01*
X1480847Y1218608D01*
X1481352Y1217852D01*
X1482108Y1217347D01*
X1483000Y1217169D01*
X1496000D01*
X1496892Y1217347D01*
X1497648Y1217852D01*
X1498153Y1218608D01*
X1498331Y1219500D01*
Y1222727D01*
X1515795D01*
X1516199Y1222199D01*
X1517605Y1221121D01*
X1519243Y1220442D01*
X1521000Y1220211D01*
X1522757Y1220442D01*
X1524395Y1221121D01*
X1525801Y1222199D01*
X1526879Y1223605D01*
X1527558Y1225243D01*
X1527789Y1227000D01*
X1527558Y1228757D01*
X1526879Y1230395D01*
X1525801Y1231801D01*
X1524395Y1232879D01*
X1522757Y1233558D01*
X1521000Y1233789D01*
X1519243Y1233558D01*
X1517605Y1232879D01*
X1516199Y1231801D01*
X1515795Y1231273D01*
X1498331D01*
Y1234500D01*
X1498153Y1235392D01*
X1497648Y1236148D01*
X1496892Y1236653D01*
X1496000Y1236831D01*
X1483000D01*
X1482108Y1236653D01*
X1481352Y1236148D01*
X1480847Y1235392D01*
X1480777Y1235041D01*
X1479482D01*
X1479393Y1235491D01*
X1478831Y1236331D01*
X1477991Y1236893D01*
X1477000Y1237090D01*
D02*
G37*
G36*
X1087500Y1240090D02*
X1082270D01*
Y1230000D01*
Y1219910D01*
X1087500D01*
X1088491Y1220107D01*
X1089331Y1220669D01*
X1089893Y1221509D01*
X1089982Y1221959D01*
X1091277D01*
X1091347Y1221608D01*
X1091852Y1220852D01*
X1092608Y1220347D01*
X1093500Y1220169D01*
X1106500D01*
X1107392Y1220347D01*
X1108148Y1220852D01*
X1108653Y1221608D01*
X1108831Y1222500D01*
Y1225727D01*
X1113649D01*
X1113712Y1225243D01*
X1114390Y1223605D01*
X1115469Y1222199D01*
X1116875Y1221121D01*
X1118513Y1220442D01*
X1120270Y1220211D01*
X1122027Y1220442D01*
X1123665Y1221121D01*
X1125071Y1222199D01*
X1126150Y1223605D01*
X1126828Y1225243D01*
X1127059Y1227000D01*
X1126828Y1228757D01*
X1126150Y1230395D01*
X1125071Y1231801D01*
X1123665Y1232879D01*
X1122027Y1233558D01*
X1120270Y1233789D01*
X1118513Y1233558D01*
X1118332Y1233483D01*
X1117635Y1233948D01*
X1116000Y1234273D01*
X1108831D01*
Y1237500D01*
X1108653Y1238392D01*
X1108148Y1239148D01*
X1107392Y1239653D01*
X1106500Y1239831D01*
X1093500D01*
X1092608Y1239653D01*
X1091852Y1239148D01*
X1091347Y1238392D01*
X1091277Y1238041D01*
X1089982D01*
X1089893Y1238491D01*
X1089331Y1239331D01*
X1088491Y1239893D01*
X1087500Y1240090D01*
D02*
G37*
G36*
X798590Y1198730D02*
X790770D01*
Y1189910D01*
X796000D01*
X796991Y1190107D01*
X797831Y1190669D01*
X798393Y1191509D01*
X798590Y1192500D01*
Y1198730D01*
D02*
G37*
G36*
X1429600Y1198490D02*
X1425270D01*
Y1188020D01*
X1432190D01*
Y1195900D01*
X1431993Y1196891D01*
X1431431Y1197731D01*
X1430591Y1198293D01*
X1429600Y1198490D01*
D02*
G37*
G36*
X1341730Y1208730D02*
X1336122D01*
X1336195Y1208177D01*
X1336899Y1206477D01*
X1338018Y1205018D01*
X1339477Y1203899D01*
X1341177Y1203195D01*
X1341730Y1203122D01*
Y1208730D01*
D02*
G37*
G36*
X796000Y1210090D02*
X790770D01*
Y1201270D01*
X798590D01*
Y1207500D01*
X798393Y1208491D01*
X797831Y1209331D01*
X796991Y1209893D01*
X796000Y1210090D01*
D02*
G37*
G36*
X1422730Y1198490D02*
X1418400D01*
X1417409Y1198293D01*
X1416569Y1197731D01*
X1416007Y1196891D01*
X1415810Y1195900D01*
Y1188020D01*
X1422730D01*
Y1198490D01*
D02*
G37*
G36*
X982730Y1199590D02*
X979000D01*
X978009Y1199393D01*
X977169Y1198831D01*
X976607Y1197991D01*
X976410Y1197000D01*
Y1185270D01*
X982730D01*
Y1199590D01*
D02*
G37*
G36*
X1362730D02*
X1359000D01*
X1358009Y1199393D01*
X1357169Y1198831D01*
X1356607Y1197991D01*
X1356410Y1197000D01*
Y1185270D01*
X1362730D01*
Y1199590D01*
D02*
G37*
G36*
X1369000D02*
X1365270D01*
Y1185270D01*
X1371590D01*
Y1197000D01*
X1371393Y1197991D01*
X1370831Y1198831D01*
X1369991Y1199393D01*
X1369000Y1199590D01*
D02*
G37*
G36*
X989000D02*
X985270D01*
Y1185270D01*
X991590D01*
Y1197000D01*
X991393Y1197991D01*
X990831Y1198831D01*
X989991Y1199393D01*
X989000Y1199590D01*
D02*
G37*
G36*
X1235730Y1211730D02*
X1230122D01*
X1230195Y1211177D01*
X1230899Y1209477D01*
X1232018Y1208018D01*
X1233477Y1206899D01*
X1235176Y1206195D01*
X1235730Y1206122D01*
Y1211730D01*
D02*
G37*
G36*
X1539980Y1211207D02*
X1534371D01*
Y1205599D01*
X1534925Y1205672D01*
X1536624Y1206376D01*
X1538083Y1207496D01*
X1539203Y1208955D01*
X1539907Y1210654D01*
X1539980Y1211207D01*
D02*
G37*
G36*
X1341730Y1216878D02*
X1341177Y1216805D01*
X1339477Y1216101D01*
X1338018Y1214982D01*
X1336899Y1213523D01*
X1336195Y1211823D01*
X1336122Y1211270D01*
X1341730D01*
Y1216878D01*
D02*
G37*
G36*
X1243878Y1211730D02*
X1238270D01*
Y1206122D01*
X1238823Y1206195D01*
X1240523Y1206899D01*
X1241982Y1208018D01*
X1243101Y1209477D01*
X1243805Y1211177D01*
X1243878Y1211730D01*
D02*
G37*
G36*
X1531831Y1211207D02*
X1526223D01*
X1526296Y1210654D01*
X1527000Y1208955D01*
X1528120Y1207496D01*
X1529579Y1206376D01*
X1531278Y1205672D01*
X1531831Y1205599D01*
Y1211207D01*
D02*
G37*
G36*
X977730Y1210730D02*
X972122D01*
X972195Y1210176D01*
X972899Y1208477D01*
X974018Y1207018D01*
X975477Y1205899D01*
X977177Y1205195D01*
X977730Y1205122D01*
Y1210730D01*
D02*
G37*
G36*
X1349878Y1208730D02*
X1344270D01*
Y1203122D01*
X1344823Y1203195D01*
X1346523Y1203899D01*
X1347982Y1205018D01*
X1349101Y1206477D01*
X1349805Y1208177D01*
X1349878Y1208730D01*
D02*
G37*
G36*
X1370090Y1245730D02*
X1360000D01*
X1349910D01*
Y1240500D01*
X1350107Y1239509D01*
X1350669Y1238669D01*
X1351509Y1238107D01*
X1351959Y1238018D01*
Y1236723D01*
X1351608Y1236653D01*
X1350852Y1236148D01*
X1350347Y1235392D01*
X1350169Y1234500D01*
Y1221500D01*
X1350347Y1220608D01*
X1350852Y1219852D01*
X1351608Y1219347D01*
X1352500Y1219169D01*
X1362516D01*
Y1217205D01*
X1361989Y1216801D01*
X1360910Y1215395D01*
X1360231Y1213757D01*
X1360000Y1212000D01*
X1360231Y1210243D01*
X1360910Y1208605D01*
X1361989Y1207199D01*
X1363394Y1206121D01*
X1365032Y1205442D01*
X1366789Y1205211D01*
X1368546Y1205442D01*
X1370184Y1206121D01*
X1371590Y1207199D01*
X1372669Y1208605D01*
X1373347Y1210243D01*
X1373578Y1212000D01*
X1373347Y1213757D01*
X1372669Y1215395D01*
X1371590Y1216801D01*
X1371062Y1217205D01*
Y1221211D01*
X1371062Y1221211D01*
X1370737Y1222846D01*
X1369831Y1224202D01*
Y1234500D01*
X1369653Y1235392D01*
X1369148Y1236148D01*
X1368392Y1236653D01*
X1368041Y1236723D01*
Y1238018D01*
X1368491Y1238107D01*
X1369331Y1238669D01*
X1369893Y1239509D01*
X1370090Y1240500D01*
Y1245730D01*
D02*
G37*
G36*
X985878Y1210730D02*
X980270D01*
Y1205122D01*
X980823Y1205195D01*
X982523Y1205899D01*
X983982Y1207018D01*
X985101Y1208477D01*
X985805Y1210176D01*
X985878Y1210730D01*
D02*
G37*
G36*
X1247190Y1330730D02*
X1242000D01*
X1236810D01*
Y1329900D01*
X1237007Y1328909D01*
X1237114Y1328750D01*
X1237007Y1328591D01*
X1236810Y1327600D01*
Y1326770D01*
X1242000D01*
X1247190D01*
Y1327600D01*
X1246993Y1328591D01*
X1246886Y1328750D01*
X1246993Y1328909D01*
X1247190Y1329900D01*
Y1330730D01*
D02*
G37*
G36*
X834590Y1334730D02*
X822270D01*
Y1323410D01*
X832000D01*
X832991Y1323607D01*
X833831Y1324169D01*
X834393Y1325009D01*
X834590Y1326000D01*
Y1334730D01*
D02*
G37*
G36*
X819730Y1348590D02*
X810000D01*
X809009Y1348393D01*
X808169Y1347831D01*
X807607Y1346991D01*
X807410Y1346000D01*
Y1337270D01*
X819730D01*
Y1348590D01*
D02*
G37*
G36*
X1395000Y1376661D02*
X1393276Y1376434D01*
X1391669Y1375769D01*
X1390290Y1374710D01*
X1389231Y1373331D01*
X1388566Y1371724D01*
X1388339Y1370000D01*
X1388566Y1368276D01*
X1389231Y1366669D01*
X1390290Y1365290D01*
X1391669Y1364231D01*
X1393276Y1363566D01*
X1394657Y1363384D01*
X1422521Y1335521D01*
X1424117Y1334454D01*
X1426000Y1334079D01*
X1436849D01*
X1437720Y1333497D01*
X1440000Y1333044D01*
X1442279Y1333497D01*
X1444212Y1334788D01*
X1445503Y1336720D01*
X1445956Y1339000D01*
X1445503Y1341279D01*
X1444212Y1343212D01*
X1442279Y1344503D01*
X1440000Y1344956D01*
X1437720Y1344503D01*
X1436849Y1343920D01*
X1428038D01*
X1401616Y1370343D01*
X1401434Y1371724D01*
X1400769Y1373331D01*
X1399710Y1374710D01*
X1398331Y1375769D01*
X1396724Y1376434D01*
X1395000Y1376661D01*
D02*
G37*
G36*
X819730Y1334730D02*
X807410D01*
Y1326000D01*
X807607Y1325009D01*
X808169Y1324169D01*
X809009Y1323607D01*
X810000Y1323410D01*
X819730D01*
Y1334730D01*
D02*
G37*
G36*
X1386000Y1350661D02*
X1384276Y1350434D01*
X1382670Y1349769D01*
X1381290Y1348710D01*
X1380231Y1347330D01*
X1379566Y1345724D01*
X1379339Y1344000D01*
X1379566Y1342276D01*
X1380231Y1340670D01*
X1381290Y1339290D01*
X1382670Y1338231D01*
X1384276Y1337566D01*
X1384506Y1337536D01*
X1407521Y1314521D01*
X1409117Y1313454D01*
X1410785Y1313122D01*
X1411720Y1312497D01*
X1414000Y1312044D01*
X1416279Y1312497D01*
X1418212Y1313788D01*
X1419503Y1315721D01*
X1419956Y1318000D01*
X1419503Y1320280D01*
X1418212Y1322212D01*
X1416279Y1323503D01*
X1414000Y1323956D01*
X1412334Y1323625D01*
X1392579Y1343379D01*
X1392661Y1344000D01*
X1392434Y1345724D01*
X1391769Y1347330D01*
X1390710Y1348710D01*
X1389330Y1349769D01*
X1387724Y1350434D01*
X1386000Y1350661D01*
D02*
G37*
G36*
X832000Y1319590D02*
X822270D01*
Y1308270D01*
X834590D01*
Y1317000D01*
X834393Y1317991D01*
X833831Y1318831D01*
X832991Y1319393D01*
X832000Y1319590D01*
D02*
G37*
G36*
X1247190Y1324230D02*
X1243270D01*
Y1320810D01*
X1244600D01*
X1245591Y1321007D01*
X1246431Y1321569D01*
X1246993Y1322409D01*
X1247190Y1323400D01*
Y1324230D01*
D02*
G37*
G36*
X1240730D02*
X1236810D01*
Y1323400D01*
X1237007Y1322409D01*
X1237569Y1321569D01*
X1238409Y1321007D01*
X1239400Y1320810D01*
X1240730D01*
Y1324230D01*
D02*
G37*
G36*
X1023730Y1376090D02*
X1018500D01*
X1017509Y1375893D01*
X1016669Y1375331D01*
X1016107Y1374491D01*
X1015910Y1373500D01*
Y1367270D01*
X1023730D01*
Y1376090D01*
D02*
G37*
G36*
X1574000Y1386879D02*
X1571184Y1386508D01*
X1568560Y1385421D01*
X1566307Y1383693D01*
X1564579Y1381440D01*
X1563492Y1378816D01*
X1563121Y1376000D01*
X1563492Y1373184D01*
X1564579Y1370560D01*
X1566307Y1368307D01*
X1568560Y1366579D01*
X1571184Y1365492D01*
X1573432Y1365196D01*
Y1186306D01*
X1555694Y1168568D01*
X1409000D01*
X1406869Y1168144D01*
X1405063Y1166937D01*
X1400063Y1161937D01*
X1398856Y1160131D01*
X1398432Y1158000D01*
Y1151731D01*
X1398400D01*
X1397508Y1151553D01*
X1397191Y1151341D01*
X1395921Y1151916D01*
Y1175084D01*
X1397191Y1175659D01*
X1397508Y1175447D01*
X1398400Y1175269D01*
X1409600D01*
X1410492Y1175447D01*
X1411248Y1175952D01*
X1411753Y1176708D01*
X1411931Y1177600D01*
Y1195900D01*
X1411753Y1196792D01*
X1411248Y1197548D01*
X1410492Y1198053D01*
X1409600Y1198231D01*
X1409568D01*
Y1218694D01*
X1434937Y1244063D01*
X1436144Y1245869D01*
X1436568Y1248000D01*
Y1283694D01*
X1523306Y1370432D01*
X1539677D01*
X1541307Y1368307D01*
X1543560Y1366579D01*
X1546184Y1365492D01*
X1549000Y1365121D01*
X1551816Y1365492D01*
X1554440Y1366579D01*
X1556693Y1368307D01*
X1558421Y1370560D01*
X1559508Y1373184D01*
X1559879Y1376000D01*
X1559508Y1378816D01*
X1558421Y1381440D01*
X1556693Y1383693D01*
X1554440Y1385421D01*
X1551816Y1386508D01*
X1549000Y1386879D01*
X1546184Y1386508D01*
X1543560Y1385421D01*
X1541307Y1383693D01*
X1539677Y1381568D01*
X1521000D01*
X1518869Y1381144D01*
X1517063Y1379937D01*
X1427063Y1289937D01*
X1425856Y1288131D01*
X1425432Y1286000D01*
Y1250306D01*
X1400063Y1224937D01*
X1398856Y1223131D01*
X1398432Y1221000D01*
Y1198231D01*
X1398400D01*
X1397508Y1198053D01*
X1397191Y1197841D01*
X1395921Y1198416D01*
Y1296000D01*
X1395546Y1297883D01*
X1394479Y1299479D01*
X1378708Y1315251D01*
X1378503Y1316279D01*
X1377212Y1318212D01*
X1375279Y1319503D01*
X1373000Y1319957D01*
X1370721Y1319503D01*
X1368788Y1318212D01*
X1367497Y1316279D01*
X1367043Y1314000D01*
X1367497Y1311721D01*
X1368788Y1309788D01*
X1370721Y1308497D01*
X1371749Y1308292D01*
X1386080Y1293962D01*
Y1283371D01*
X1384810Y1282985D01*
X1384479Y1283479D01*
X1365708Y1302251D01*
X1365503Y1303279D01*
X1364212Y1305212D01*
X1362279Y1306503D01*
X1360000Y1306956D01*
X1357721Y1306503D01*
X1355788Y1305212D01*
X1354497Y1303279D01*
X1354043Y1301000D01*
X1354497Y1298721D01*
X1355788Y1296788D01*
X1357721Y1295497D01*
X1358749Y1295292D01*
X1376080Y1277962D01*
Y1019038D01*
X1316962Y959921D01*
X1256637D01*
X1256422Y960440D01*
X1254693Y962693D01*
X1252439Y964421D01*
X1249816Y965508D01*
X1247000Y965879D01*
X1244184Y965508D01*
X1241561Y964421D01*
X1239307Y962693D01*
X1237579Y960440D01*
X1236492Y957816D01*
X1236121Y955000D01*
X1236492Y952184D01*
X1237579Y949560D01*
X1239307Y947307D01*
X1241561Y945579D01*
X1244184Y944492D01*
X1247000Y944121D01*
X1249816Y944492D01*
X1252439Y945579D01*
X1254693Y947307D01*
X1256422Y949560D01*
X1256637Y950079D01*
X1319000D01*
X1320883Y950454D01*
X1322479Y951521D01*
X1384479Y1013521D01*
X1384810Y1014015D01*
X1386080Y1013629D01*
Y1003038D01*
X1317962Y934921D01*
X1256637D01*
X1256422Y935440D01*
X1254693Y937693D01*
X1252439Y939421D01*
X1249816Y940508D01*
X1247000Y940879D01*
X1244184Y940508D01*
X1241561Y939421D01*
X1239307Y937693D01*
X1237579Y935440D01*
X1236492Y932816D01*
X1236121Y930000D01*
X1236492Y927184D01*
X1237579Y924560D01*
X1239307Y922307D01*
X1241561Y920579D01*
X1244184Y919492D01*
X1247000Y919121D01*
X1249816Y919492D01*
X1252439Y920579D01*
X1254693Y922307D01*
X1256422Y924560D01*
X1256637Y925079D01*
X1320000D01*
X1321883Y925454D01*
X1323479Y926521D01*
X1394479Y997521D01*
X1395546Y999117D01*
X1395921Y1001000D01*
Y1128584D01*
X1397191Y1129159D01*
X1397508Y1128947D01*
X1398400Y1128769D01*
X1409600D01*
X1410492Y1128947D01*
X1411248Y1129452D01*
X1411753Y1130208D01*
X1411931Y1131100D01*
Y1149400D01*
X1411753Y1150292D01*
X1411248Y1151048D01*
X1410492Y1151553D01*
X1409600Y1151731D01*
X1409568D01*
Y1155694D01*
X1411306Y1157432D01*
X1558000D01*
X1560131Y1157856D01*
X1561937Y1159063D01*
X1582937Y1180063D01*
X1584144Y1181869D01*
X1584568Y1184000D01*
Y1371000D01*
X1584255Y1372573D01*
X1584508Y1373184D01*
X1584879Y1376000D01*
X1584508Y1378816D01*
X1583421Y1381440D01*
X1581693Y1383693D01*
X1579440Y1385421D01*
X1576816Y1386508D01*
X1574000Y1386879D01*
D02*
G37*
G36*
X888000Y1398392D02*
X884793Y1397970D01*
X881804Y1396732D01*
X879238Y1394763D01*
X877268Y1392196D01*
X876030Y1389207D01*
X875608Y1386000D01*
X876030Y1382793D01*
X877268Y1379804D01*
X879238Y1377238D01*
X881804Y1375268D01*
X884793Y1374030D01*
X888000Y1373608D01*
X891207Y1374030D01*
X894196Y1375268D01*
X896762Y1377238D01*
X898732Y1379804D01*
X899970Y1382793D01*
X900392Y1386000D01*
X899970Y1389207D01*
X898732Y1392196D01*
X896762Y1394763D01*
X894196Y1396732D01*
X891207Y1397970D01*
X888000Y1398392D01*
D02*
G37*
G36*
X848000D02*
X844793Y1397970D01*
X841804Y1396732D01*
X839238Y1394763D01*
X837268Y1392196D01*
X836030Y1389207D01*
X835608Y1386000D01*
X836030Y1382793D01*
X837268Y1379804D01*
X839238Y1377238D01*
X841804Y1375268D01*
X844793Y1374030D01*
X848000Y1373608D01*
X851207Y1374030D01*
X854196Y1375268D01*
X856762Y1377238D01*
X858732Y1379804D01*
X859970Y1382793D01*
X860392Y1386000D01*
X859970Y1389207D01*
X858732Y1392196D01*
X856762Y1394763D01*
X854196Y1396732D01*
X851207Y1397970D01*
X848000Y1398392D01*
D02*
G37*
G36*
X1699000Y1407894D02*
X1694631Y1407464D01*
X1690430Y1406189D01*
X1686559Y1404120D01*
X1683165Y1401335D01*
X1680380Y1397941D01*
X1678311Y1394070D01*
X1677036Y1389869D01*
X1676606Y1385500D01*
X1677036Y1381131D01*
X1678311Y1376930D01*
X1680380Y1373059D01*
X1683165Y1369665D01*
X1686559Y1366880D01*
X1690430Y1364811D01*
X1694631Y1363537D01*
X1699000Y1363106D01*
X1703369Y1363537D01*
X1707570Y1364811D01*
X1711441Y1366880D01*
X1714835Y1369665D01*
X1717620Y1373059D01*
X1719689Y1376930D01*
X1720963Y1381131D01*
X1721394Y1385500D01*
X1720963Y1389869D01*
X1719689Y1394070D01*
X1717620Y1397941D01*
X1714835Y1401335D01*
X1711441Y1404120D01*
X1707570Y1406189D01*
X1703369Y1407464D01*
X1699000Y1407894D01*
D02*
G37*
G36*
X1127730Y1362090D02*
X1121000D01*
X1120009Y1361893D01*
X1119169Y1361331D01*
X1118607Y1360491D01*
X1118410Y1359500D01*
Y1359270D01*
X1127730D01*
Y1362090D01*
D02*
G37*
G36*
X832000Y1348590D02*
X822270D01*
Y1337270D01*
X834590D01*
Y1346000D01*
X834393Y1346991D01*
X833831Y1347831D01*
X832991Y1348393D01*
X832000Y1348590D01*
D02*
G37*
G36*
X779000Y1407894D02*
X774631Y1407464D01*
X770430Y1406189D01*
X766559Y1404120D01*
X763165Y1401335D01*
X760380Y1397941D01*
X758311Y1394070D01*
X757037Y1389869D01*
X756606Y1385500D01*
X757037Y1381131D01*
X758311Y1376930D01*
X760380Y1373059D01*
X763165Y1369665D01*
X766559Y1366880D01*
X770430Y1364811D01*
X774631Y1363537D01*
X779000Y1363106D01*
X783369Y1363537D01*
X787570Y1364811D01*
X791441Y1366880D01*
X794835Y1369665D01*
X797620Y1373059D01*
X799689Y1376930D01*
X800964Y1381131D01*
X801394Y1385500D01*
X800964Y1389869D01*
X799689Y1394070D01*
X797620Y1397941D01*
X794835Y1401335D01*
X791441Y1404120D01*
X787570Y1406189D01*
X783369Y1407464D01*
X779000Y1407894D01*
D02*
G37*
G36*
X1137000Y1362090D02*
X1130270D01*
Y1359270D01*
X1139590D01*
Y1359500D01*
X1139393Y1360491D01*
X1138831Y1361331D01*
X1137991Y1361893D01*
X1137000Y1362090D01*
D02*
G37*
G36*
X1079730Y1240090D02*
X1074500D01*
X1073509Y1239893D01*
X1072669Y1239331D01*
X1072107Y1238491D01*
X1071910Y1237500D01*
Y1231270D01*
X1079730D01*
Y1240090D01*
D02*
G37*
G36*
X985500D02*
X980270D01*
Y1231270D01*
X988090D01*
Y1237500D01*
X987893Y1238491D01*
X987331Y1239331D01*
X986491Y1239893D01*
X985500Y1240090D01*
D02*
G37*
G36*
X1358730Y1256090D02*
X1352500D01*
X1351509Y1255893D01*
X1350669Y1255331D01*
X1350107Y1254491D01*
X1349910Y1253500D01*
Y1248270D01*
X1358730D01*
Y1256090D01*
D02*
G37*
G36*
X977730Y1240090D02*
X972500D01*
X971509Y1239893D01*
X970669Y1239331D01*
X970107Y1238491D01*
X970018Y1238041D01*
X968723D01*
X968653Y1238392D01*
X968148Y1239148D01*
X967392Y1239653D01*
X966500Y1239831D01*
X953500D01*
X952608Y1239653D01*
X951852Y1239148D01*
X951347Y1238392D01*
X951169Y1237500D01*
Y1222500D01*
X951347Y1221608D01*
X951852Y1220852D01*
X952608Y1220347D01*
X952612Y1220340D01*
X952966Y1218981D01*
X952903Y1218891D01*
X952713Y1218751D01*
X951243Y1218558D01*
X949605Y1217879D01*
X948199Y1216801D01*
X947121Y1215395D01*
X946442Y1213757D01*
X946211Y1212000D01*
X946298Y1211341D01*
X934978Y1200022D01*
X934052Y1198635D01*
X933727Y1197000D01*
Y1185331D01*
X930500D01*
X929608Y1185153D01*
X928852Y1184648D01*
X928347Y1183892D01*
X928169Y1183000D01*
Y1170000D01*
X928347Y1169108D01*
X928852Y1168352D01*
X929608Y1167847D01*
X929959Y1167777D01*
Y1166482D01*
X929509Y1166393D01*
X928669Y1165831D01*
X928107Y1164991D01*
X927910Y1164000D01*
Y1158770D01*
X938000D01*
X948090D01*
Y1164000D01*
X947893Y1164991D01*
X947331Y1165831D01*
X946491Y1166393D01*
X946041Y1166482D01*
Y1167777D01*
X946392Y1167847D01*
X947148Y1168352D01*
X947653Y1169108D01*
X947831Y1170000D01*
Y1183000D01*
X947653Y1183892D01*
X947148Y1184648D01*
X946392Y1185153D01*
X945500Y1185331D01*
X942273D01*
Y1195230D01*
X952341Y1205298D01*
X953000Y1205211D01*
X954757Y1205442D01*
X956395Y1206121D01*
X957801Y1207199D01*
X958879Y1208605D01*
X959558Y1210243D01*
X959789Y1212000D01*
X959702Y1212659D01*
X963021Y1215978D01*
X963948Y1217365D01*
X964273Y1219000D01*
Y1220169D01*
X966500D01*
X967392Y1220347D01*
X968148Y1220852D01*
X968653Y1221608D01*
X968723Y1221959D01*
X970018D01*
X970107Y1221509D01*
X970669Y1220669D01*
X971509Y1220107D01*
X972500Y1219910D01*
X974080D01*
Y1217029D01*
X974018Y1216982D01*
X972899Y1215523D01*
X972195Y1213823D01*
X972122Y1213270D01*
X985878D01*
X985805Y1213823D01*
X985101Y1215523D01*
X983982Y1216982D01*
X983921Y1217029D01*
Y1219910D01*
X985500D01*
X986491Y1220107D01*
X987331Y1220669D01*
X987893Y1221509D01*
X988090Y1222500D01*
Y1228730D01*
X979000D01*
Y1230000D01*
X977730D01*
Y1240090D01*
D02*
G37*
G36*
X1064270Y1234878D02*
Y1229270D01*
X1069878D01*
X1069805Y1229823D01*
X1069101Y1231523D01*
X1067982Y1232982D01*
X1066523Y1234101D01*
X1064823Y1234805D01*
X1064270Y1234878D01*
D02*
G37*
G36*
X1469230Y1237090D02*
X1464000D01*
X1463009Y1236893D01*
X1462169Y1236331D01*
X1461607Y1235491D01*
X1461410Y1234500D01*
Y1228270D01*
X1469230D01*
Y1237090D01*
D02*
G37*
G36*
X1438270Y1232878D02*
Y1227270D01*
X1443878D01*
X1443805Y1227823D01*
X1443101Y1229523D01*
X1441982Y1230982D01*
X1440523Y1232101D01*
X1438823Y1232805D01*
X1438270Y1232878D01*
D02*
G37*
G36*
X1061730Y1234878D02*
X1061177Y1234805D01*
X1059477Y1234101D01*
X1058018Y1232982D01*
X1056899Y1231523D01*
X1056195Y1229823D01*
X1056122Y1229270D01*
X1061730D01*
Y1234878D01*
D02*
G37*
G36*
X795500Y1237090D02*
X790270D01*
Y1228270D01*
X798090D01*
Y1234500D01*
X797893Y1235491D01*
X797331Y1236331D01*
X796491Y1236893D01*
X795500Y1237090D01*
D02*
G37*
G36*
X1208090Y1303730D02*
X1200270D01*
Y1294910D01*
X1205500D01*
X1206491Y1295107D01*
X1207331Y1295669D01*
X1207893Y1296509D01*
X1208090Y1297500D01*
Y1303730D01*
D02*
G37*
G36*
X834590Y1305730D02*
X822270D01*
Y1294410D01*
X832000D01*
X832991Y1294607D01*
X833831Y1295169D01*
X834393Y1296009D01*
X834590Y1297000D01*
Y1305730D01*
D02*
G37*
G36*
X819730Y1319590D02*
X810000D01*
X809009Y1319393D01*
X808169Y1318831D01*
X807607Y1317991D01*
X807410Y1317000D01*
Y1308270D01*
X819730D01*
Y1319590D01*
D02*
G37*
G36*
X1205500Y1315090D02*
X1200270D01*
Y1306270D01*
X1208090D01*
Y1312500D01*
X1207893Y1313491D01*
X1207331Y1314331D01*
X1206491Y1314893D01*
X1205500Y1315090D01*
D02*
G37*
G36*
X819730Y1305730D02*
X807410D01*
Y1297000D01*
X807607Y1296009D01*
X808169Y1295169D01*
X809009Y1294607D01*
X810000Y1294410D01*
X819730D01*
Y1305730D01*
D02*
G37*
G36*
X1224230Y1275730D02*
X1216410D01*
Y1269500D01*
X1216607Y1268509D01*
X1217169Y1267669D01*
X1218009Y1267107D01*
X1219000Y1266910D01*
X1224230D01*
Y1275730D01*
D02*
G37*
G36*
X1367500Y1256090D02*
X1361270D01*
Y1248270D01*
X1370090D01*
Y1253500D01*
X1369893Y1254491D01*
X1369331Y1255331D01*
X1368491Y1255893D01*
X1367500Y1256090D01*
D02*
G37*
G36*
X1224230Y1287090D02*
X1219000D01*
X1218009Y1286893D01*
X1217169Y1286331D01*
X1216607Y1285491D01*
X1216410Y1284500D01*
Y1278270D01*
X1224230D01*
Y1287090D01*
D02*
G37*
G36*
X1232000D02*
X1226770D01*
Y1277000D01*
Y1266910D01*
X1232000D01*
X1232991Y1267107D01*
X1233831Y1267669D01*
X1234393Y1268509D01*
X1234482Y1268959D01*
X1235777D01*
X1235847Y1268608D01*
X1236352Y1267852D01*
X1237108Y1267347D01*
X1238000Y1267169D01*
X1251000D01*
X1251892Y1267347D01*
X1252648Y1267852D01*
X1253153Y1268608D01*
X1253331Y1269500D01*
Y1272079D01*
X1258356D01*
X1259605Y1271121D01*
X1261243Y1270442D01*
X1263000Y1270211D01*
X1264757Y1270442D01*
X1266395Y1271121D01*
X1267801Y1272199D01*
X1268879Y1273605D01*
X1269558Y1275243D01*
X1269789Y1277000D01*
X1269558Y1278757D01*
X1268879Y1280394D01*
X1267801Y1281801D01*
X1266395Y1282879D01*
X1264757Y1283558D01*
X1263000Y1283789D01*
X1261243Y1283558D01*
X1259605Y1282879D01*
X1258356Y1281921D01*
X1253331D01*
Y1284500D01*
X1253153Y1285392D01*
X1252648Y1286148D01*
X1251892Y1286653D01*
X1251000Y1286831D01*
X1238000D01*
X1237108Y1286653D01*
X1236352Y1286148D01*
X1235847Y1285392D01*
X1235777Y1285041D01*
X1234482D01*
X1234393Y1285491D01*
X1233831Y1286331D01*
X1232991Y1286893D01*
X1232000Y1287090D01*
D02*
G37*
G36*
X830000Y1184090D02*
X825270D01*
Y1175270D01*
X832590D01*
Y1181500D01*
X832393Y1182491D01*
X831831Y1183331D01*
X830991Y1183893D01*
X830000Y1184090D01*
D02*
G37*
G36*
X1089000Y1158331D02*
X1079000D01*
X1078108Y1158153D01*
X1077352Y1157648D01*
X1076847Y1156892D01*
X1076669Y1156000D01*
Y1130000D01*
X1076847Y1129108D01*
X1077352Y1128352D01*
X1078108Y1127847D01*
X1079000Y1127669D01*
X1089000D01*
X1089892Y1127847D01*
X1090648Y1128352D01*
X1091153Y1129108D01*
X1091331Y1130000D01*
Y1156000D01*
X1091153Y1156892D01*
X1090648Y1157648D01*
X1089892Y1158153D01*
X1089000Y1158331D01*
D02*
G37*
G36*
X1069000D02*
X1059000D01*
X1058108Y1158153D01*
X1057352Y1157648D01*
X1056847Y1156892D01*
X1056669Y1156000D01*
Y1130000D01*
X1056847Y1129108D01*
X1057352Y1128352D01*
X1058108Y1127847D01*
X1059000Y1127669D01*
X1069000D01*
X1069892Y1127847D01*
X1070648Y1128352D01*
X1071153Y1129108D01*
X1071331Y1130000D01*
Y1156000D01*
X1071153Y1156892D01*
X1070648Y1157648D01*
X1069892Y1158153D01*
X1069000Y1158331D01*
D02*
G37*
G36*
X1129000D02*
X1119000D01*
X1118108Y1158153D01*
X1117352Y1157648D01*
X1116847Y1156892D01*
X1116669Y1156000D01*
Y1130000D01*
X1116847Y1129108D01*
X1117352Y1128352D01*
X1118108Y1127847D01*
X1119000Y1127669D01*
X1129000D01*
X1129892Y1127847D01*
X1130648Y1128352D01*
X1131153Y1129108D01*
X1131331Y1130000D01*
Y1156000D01*
X1131153Y1156892D01*
X1130648Y1157648D01*
X1129892Y1158153D01*
X1129000Y1158331D01*
D02*
G37*
G36*
X1109000D02*
X1099000D01*
X1098108Y1158153D01*
X1097352Y1157648D01*
X1096847Y1156892D01*
X1096669Y1156000D01*
Y1130000D01*
X1096847Y1129108D01*
X1097352Y1128352D01*
X1098108Y1127847D01*
X1099000Y1127669D01*
X1109000D01*
X1109892Y1127847D01*
X1110648Y1128352D01*
X1111153Y1129108D01*
X1111331Y1130000D01*
Y1156000D01*
X1111153Y1156892D01*
X1110648Y1157648D01*
X1109892Y1158153D01*
X1109000Y1158331D01*
D02*
G37*
G36*
X1009000D02*
X999000D01*
X998108Y1158153D01*
X997352Y1157648D01*
X996847Y1156892D01*
X996669Y1156000D01*
Y1130000D01*
X996847Y1129108D01*
X997352Y1128352D01*
X998108Y1127847D01*
X999000Y1127669D01*
X1009000D01*
X1009892Y1127847D01*
X1010648Y1128352D01*
X1011153Y1129108D01*
X1011331Y1130000D01*
Y1156000D01*
X1011153Y1156892D01*
X1010648Y1157648D01*
X1009892Y1158153D01*
X1009000Y1158331D01*
D02*
G37*
G36*
X1371590Y1141730D02*
X1365270D01*
Y1127410D01*
X1369000D01*
X1369991Y1127607D01*
X1370831Y1128169D01*
X1371393Y1129009D01*
X1371590Y1130000D01*
Y1141730D01*
D02*
G37*
G36*
X1049000Y1158331D02*
X1039000D01*
X1038108Y1158153D01*
X1037352Y1157648D01*
X1036847Y1156892D01*
X1036669Y1156000D01*
Y1130000D01*
X1036847Y1129108D01*
X1037352Y1128352D01*
X1038108Y1127847D01*
X1039000Y1127669D01*
X1049000D01*
X1049892Y1127847D01*
X1050648Y1128352D01*
X1051153Y1129108D01*
X1051331Y1130000D01*
Y1156000D01*
X1051153Y1156892D01*
X1050648Y1157648D01*
X1049892Y1158153D01*
X1049000Y1158331D01*
D02*
G37*
G36*
X1029000D02*
X1019000D01*
X1018108Y1158153D01*
X1017352Y1157648D01*
X1016847Y1156892D01*
X1016669Y1156000D01*
Y1130000D01*
X1016847Y1129108D01*
X1017352Y1128352D01*
X1018108Y1127847D01*
X1019000Y1127669D01*
X1029000D01*
X1029892Y1127847D01*
X1030648Y1128352D01*
X1031153Y1129108D01*
X1031331Y1130000D01*
Y1156000D01*
X1031153Y1156892D01*
X1030648Y1157648D01*
X1029892Y1158153D01*
X1029000Y1158331D01*
D02*
G37*
G36*
X1149000D02*
X1139000D01*
X1138108Y1158153D01*
X1137352Y1157648D01*
X1136847Y1156892D01*
X1136669Y1156000D01*
Y1130000D01*
X1136847Y1129108D01*
X1137352Y1128352D01*
X1138108Y1127847D01*
X1139000Y1127669D01*
X1149000D01*
X1149892Y1127847D01*
X1150648Y1128352D01*
X1151153Y1129108D01*
X1151331Y1130000D01*
Y1156000D01*
X1151153Y1156892D01*
X1150648Y1157648D01*
X1149892Y1158153D01*
X1149000Y1158331D01*
D02*
G37*
G36*
X1349000D02*
X1339000D01*
X1338108Y1158153D01*
X1337352Y1157648D01*
X1336847Y1156892D01*
X1336669Y1156000D01*
Y1130000D01*
X1336847Y1129108D01*
X1337352Y1128352D01*
X1338108Y1127847D01*
X1339000Y1127669D01*
X1349000D01*
X1349892Y1127847D01*
X1350648Y1128352D01*
X1351153Y1129108D01*
X1351331Y1130000D01*
Y1156000D01*
X1351153Y1156892D01*
X1350648Y1157648D01*
X1349892Y1158153D01*
X1349000Y1158331D01*
D02*
G37*
G36*
X1249000D02*
X1239000D01*
X1238108Y1158153D01*
X1237352Y1157648D01*
X1236847Y1156892D01*
X1236669Y1156000D01*
Y1130000D01*
X1236847Y1129108D01*
X1237352Y1128352D01*
X1238108Y1127847D01*
X1239000Y1127669D01*
X1249000D01*
X1249892Y1127847D01*
X1250648Y1128352D01*
X1251153Y1129108D01*
X1251331Y1130000D01*
Y1156000D01*
X1251153Y1156892D01*
X1250648Y1157648D01*
X1249892Y1158153D01*
X1249000Y1158331D01*
D02*
G37*
G36*
X1449600Y1151731D02*
X1438400D01*
X1437508Y1151553D01*
X1436752Y1151048D01*
X1436247Y1150292D01*
X1436069Y1149400D01*
Y1131100D01*
X1436247Y1130208D01*
X1436752Y1129452D01*
X1437508Y1128947D01*
X1438400Y1128769D01*
X1449600D01*
X1450492Y1128947D01*
X1451248Y1129452D01*
X1451753Y1130208D01*
X1451931Y1131100D01*
Y1149400D01*
X1451753Y1150292D01*
X1451248Y1151048D01*
X1450492Y1151553D01*
X1449600Y1151731D01*
D02*
G37*
G36*
X1429600D02*
X1418400D01*
X1417508Y1151553D01*
X1416752Y1151048D01*
X1416247Y1150292D01*
X1416069Y1149400D01*
Y1131100D01*
X1416247Y1130208D01*
X1416752Y1129452D01*
X1417508Y1128947D01*
X1418400Y1128769D01*
X1429600D01*
X1430492Y1128947D01*
X1431248Y1129452D01*
X1431753Y1130208D01*
X1431931Y1131100D01*
Y1149400D01*
X1431753Y1150292D01*
X1431248Y1151048D01*
X1430492Y1151553D01*
X1429600Y1151731D01*
D02*
G37*
G36*
X1189000Y1158331D02*
X1179000D01*
X1178108Y1158153D01*
X1177352Y1157648D01*
X1176847Y1156892D01*
X1176669Y1156000D01*
Y1130000D01*
X1176847Y1129108D01*
X1177352Y1128352D01*
X1178108Y1127847D01*
X1179000Y1127669D01*
X1189000D01*
X1189892Y1127847D01*
X1190648Y1128352D01*
X1191153Y1129108D01*
X1191331Y1130000D01*
Y1156000D01*
X1191153Y1156892D01*
X1190648Y1157648D01*
X1189892Y1158153D01*
X1189000Y1158331D01*
D02*
G37*
G36*
X1169000D02*
X1159000D01*
X1158108Y1158153D01*
X1157352Y1157648D01*
X1156847Y1156892D01*
X1156669Y1156000D01*
Y1130000D01*
X1156847Y1129108D01*
X1157352Y1128352D01*
X1158108Y1127847D01*
X1159000Y1127669D01*
X1169000D01*
X1169892Y1127847D01*
X1170648Y1128352D01*
X1171153Y1129108D01*
X1171331Y1130000D01*
Y1156000D01*
X1171153Y1156892D01*
X1170648Y1157648D01*
X1169892Y1158153D01*
X1169000Y1158331D01*
D02*
G37*
G36*
X1229000D02*
X1219000D01*
X1218108Y1158153D01*
X1217352Y1157648D01*
X1216847Y1156892D01*
X1216669Y1156000D01*
Y1130000D01*
X1216847Y1129108D01*
X1217352Y1128352D01*
X1218108Y1127847D01*
X1219000Y1127669D01*
X1229000D01*
X1229892Y1127847D01*
X1230648Y1128352D01*
X1231153Y1129108D01*
X1231331Y1130000D01*
Y1156000D01*
X1231153Y1156892D01*
X1230648Y1157648D01*
X1229892Y1158153D01*
X1229000Y1158331D01*
D02*
G37*
G36*
X1209000D02*
X1199000D01*
X1198108Y1158153D01*
X1197352Y1157648D01*
X1196847Y1156892D01*
X1196669Y1156000D01*
Y1130000D01*
X1196847Y1129108D01*
X1197352Y1128352D01*
X1198108Y1127847D01*
X1199000Y1127669D01*
X1209000D01*
X1209892Y1127847D01*
X1210648Y1128352D01*
X1211153Y1129108D01*
X1211331Y1130000D01*
Y1156000D01*
X1211153Y1156892D01*
X1210648Y1157648D01*
X1209892Y1158153D01*
X1209000Y1158331D01*
D02*
G37*
G36*
X1362730Y1141730D02*
X1356410D01*
Y1130000D01*
X1356607Y1129009D01*
X1357169Y1128169D01*
X1358009Y1127607D01*
X1359000Y1127410D01*
X1362730D01*
Y1141730D01*
D02*
G37*
G36*
X893090Y1080730D02*
X884270D01*
Y1072910D01*
X890500D01*
X891491Y1073107D01*
X892331Y1073669D01*
X892893Y1074509D01*
X893090Y1075500D01*
Y1080730D01*
D02*
G37*
G36*
X881730D02*
X872910D01*
Y1075500D01*
X873107Y1074509D01*
X873669Y1073669D01*
X874509Y1073107D01*
X875500Y1072910D01*
X881730D01*
Y1080730D01*
D02*
G37*
G36*
X930000Y1086920D02*
X916270D01*
Y1079600D01*
X932590D01*
Y1084330D01*
X932393Y1085321D01*
X931831Y1086161D01*
X930991Y1086723D01*
X930000Y1086920D01*
D02*
G37*
G36*
X913730D02*
X900000D01*
X899009Y1086723D01*
X898169Y1086161D01*
X897607Y1085321D01*
X897410Y1084330D01*
Y1079600D01*
X913730D01*
Y1086920D01*
D02*
G37*
G36*
X932590Y1077060D02*
X916270D01*
Y1069740D01*
X930000D01*
X930991Y1069937D01*
X931831Y1070499D01*
X932393Y1071339D01*
X932590Y1072330D01*
Y1077060D01*
D02*
G37*
G36*
X913730D02*
X897410D01*
Y1072330D01*
X897607Y1071339D01*
X898169Y1070499D01*
X899009Y1069937D01*
X900000Y1069740D01*
X913730D01*
Y1077060D01*
D02*
G37*
G36*
X1587730Y457730D02*
X1578032D01*
X1578244Y456118D01*
X1579357Y453432D01*
X1581126Y451126D01*
X1583432Y449357D01*
X1586118Y448244D01*
X1587730Y448032D01*
Y457730D01*
D02*
G37*
G36*
X1599968D02*
X1590270D01*
Y448032D01*
X1591882Y448244D01*
X1594568Y449357D01*
X1596874Y451126D01*
X1598643Y453432D01*
X1599756Y456118D01*
X1599968Y457730D01*
D02*
G37*
G36*
X1699000Y487894D02*
X1694631Y487463D01*
X1690430Y486189D01*
X1686559Y484120D01*
X1683165Y481335D01*
X1680380Y477941D01*
X1678311Y474070D01*
X1677036Y469869D01*
X1676606Y465500D01*
X1677036Y461131D01*
X1678311Y456930D01*
X1680380Y453059D01*
X1683165Y449665D01*
X1686559Y446880D01*
X1690430Y444811D01*
X1694631Y443536D01*
X1699000Y443106D01*
X1703369Y443536D01*
X1707570Y444811D01*
X1711441Y446880D01*
X1714835Y449665D01*
X1717620Y453059D01*
X1719689Y456930D01*
X1720963Y461131D01*
X1721394Y465500D01*
X1720963Y469869D01*
X1719689Y474070D01*
X1717620Y477941D01*
X1714835Y481335D01*
X1711441Y484120D01*
X1707570Y486189D01*
X1703369Y487463D01*
X1699000Y487894D01*
D02*
G37*
G36*
X952270Y1130878D02*
Y1125270D01*
X957878D01*
X957805Y1125824D01*
X957101Y1127523D01*
X955982Y1128982D01*
X954523Y1130101D01*
X952823Y1130805D01*
X952270Y1130878D01*
D02*
G37*
G36*
X949730D02*
X949177Y1130805D01*
X947477Y1130101D01*
X946018Y1128982D01*
X944899Y1127523D01*
X944195Y1125824D01*
X944122Y1125270D01*
X949730D01*
Y1130878D01*
D02*
G37*
G36*
X991590Y1141730D02*
X985270D01*
Y1127410D01*
X989000D01*
X989991Y1127607D01*
X990831Y1128169D01*
X991393Y1129009D01*
X991590Y1130000D01*
Y1141730D01*
D02*
G37*
G36*
X982730D02*
X976410D01*
Y1130000D01*
X976607Y1129009D01*
X977169Y1128169D01*
X978009Y1127607D01*
X979000Y1127410D01*
X982730D01*
Y1141730D01*
D02*
G37*
G36*
X1329000Y1158331D02*
X1319000D01*
X1318108Y1158153D01*
X1317352Y1157648D01*
X1316847Y1156892D01*
X1316669Y1156000D01*
Y1130000D01*
X1316847Y1129108D01*
X1317352Y1128352D01*
X1318108Y1127847D01*
X1318432Y1127782D01*
Y1119306D01*
X1314694Y1115568D01*
X1164613D01*
X1164159Y1116159D01*
X1162355Y1117543D01*
X1160254Y1118414D01*
X1158000Y1118710D01*
X1155745Y1118414D01*
X1153645Y1117543D01*
X1151841Y1116159D01*
X1150456Y1114355D01*
X1149586Y1112254D01*
X1149289Y1110000D01*
X1149586Y1107746D01*
X1150456Y1105645D01*
X1151841Y1103841D01*
X1153645Y1102456D01*
X1155745Y1101586D01*
X1158000Y1101290D01*
X1160254Y1101586D01*
X1162355Y1102456D01*
X1164159Y1103841D01*
X1164613Y1104432D01*
X1317000D01*
X1319131Y1104856D01*
X1320937Y1106063D01*
X1327937Y1113063D01*
X1329144Y1114869D01*
X1329568Y1117000D01*
Y1127782D01*
X1329892Y1127847D01*
X1330648Y1128352D01*
X1331153Y1129108D01*
X1331331Y1130000D01*
Y1156000D01*
X1331153Y1156892D01*
X1330648Y1157648D01*
X1329892Y1158153D01*
X1329000Y1158331D01*
D02*
G37*
G36*
X779000Y487894D02*
X774631Y487463D01*
X770430Y486189D01*
X766559Y484120D01*
X763165Y481335D01*
X760380Y477941D01*
X758311Y474070D01*
X757037Y469869D01*
X756606Y465500D01*
X757037Y461131D01*
X758311Y456930D01*
X760380Y453059D01*
X763165Y449665D01*
X766559Y446880D01*
X770430Y444811D01*
X774631Y443536D01*
X779000Y443106D01*
X783369Y443536D01*
X787570Y444811D01*
X791441Y446880D01*
X794835Y449665D01*
X797620Y453059D01*
X799689Y456930D01*
X800964Y461131D01*
X801394Y465500D01*
X800964Y469869D01*
X799689Y474070D01*
X797620Y477941D01*
X794835Y481335D01*
X791441Y484120D01*
X787570Y486189D01*
X783369Y487463D01*
X779000Y487894D01*
D02*
G37*
G36*
X957878Y1122730D02*
X952270D01*
Y1117122D01*
X952823Y1117195D01*
X954523Y1117899D01*
X955982Y1119018D01*
X957101Y1120477D01*
X957805Y1122177D01*
X957878Y1122730D01*
D02*
G37*
G36*
X949730D02*
X944122D01*
X944195Y1122177D01*
X944899Y1120477D01*
X946018Y1119018D01*
X947477Y1117899D01*
X949177Y1117195D01*
X949730Y1117122D01*
Y1122730D01*
D02*
G37*
G36*
X1189000Y1199331D02*
X1179000D01*
X1178108Y1199153D01*
X1177352Y1198648D01*
X1176847Y1197892D01*
X1176669Y1197000D01*
Y1171000D01*
X1176847Y1170108D01*
X1177352Y1169352D01*
X1178108Y1168847D01*
X1179000Y1168669D01*
X1189000D01*
X1189892Y1168847D01*
X1190648Y1169352D01*
X1191153Y1170108D01*
X1191331Y1171000D01*
Y1197000D01*
X1191153Y1197892D01*
X1190648Y1198648D01*
X1189892Y1199153D01*
X1189000Y1199331D01*
D02*
G37*
G36*
X1169000D02*
X1159000D01*
X1158108Y1199153D01*
X1157352Y1198648D01*
X1156847Y1197892D01*
X1156669Y1197000D01*
Y1171000D01*
X1156847Y1170108D01*
X1157352Y1169352D01*
X1158108Y1168847D01*
X1159000Y1168669D01*
X1169000D01*
X1169892Y1168847D01*
X1170648Y1169352D01*
X1171153Y1170108D01*
X1171331Y1171000D01*
Y1197000D01*
X1171153Y1197892D01*
X1170648Y1198648D01*
X1169892Y1199153D01*
X1169000Y1199331D01*
D02*
G37*
G36*
X1599730Y1181590D02*
X1593500D01*
X1592509Y1181393D01*
X1591669Y1180831D01*
X1591107Y1179991D01*
X1590910Y1179000D01*
Y1173770D01*
X1599730D01*
Y1181590D01*
D02*
G37*
G36*
X1287000Y1409711D02*
X992847D01*
X990593Y1409414D01*
X988492Y1408544D01*
X986688Y1407159D01*
X900533Y1321004D01*
X897917Y1320660D01*
X895043Y1319469D01*
X894863Y1319331D01*
X890000D01*
X889108Y1319153D01*
X888352Y1318648D01*
X887847Y1317892D01*
X887669Y1317000D01*
Y1305988D01*
X858392Y1276711D01*
X796000D01*
X793746Y1276414D01*
X791645Y1275544D01*
X789841Y1274159D01*
X763841Y1248159D01*
X762456Y1246355D01*
X761586Y1244254D01*
X761290Y1242000D01*
Y1235105D01*
X761169Y1234500D01*
Y1219500D01*
X761290Y1218895D01*
Y1200500D01*
X761586Y1198245D01*
X761669Y1198045D01*
Y1192500D01*
X761789Y1191896D01*
Y1183055D01*
X761347Y1182392D01*
X761169Y1181500D01*
Y1176455D01*
X761086Y1176254D01*
X760789Y1174000D01*
Y1149500D01*
X761086Y1147245D01*
X761669Y1145838D01*
Y1141500D01*
X761847Y1140608D01*
X762352Y1139852D01*
X763108Y1139347D01*
X764000Y1139169D01*
X764432D01*
Y1091950D01*
X764856Y1089819D01*
X765119Y1089425D01*
Y1074750D01*
X765297Y1073858D01*
X765802Y1073102D01*
X766558Y1072597D01*
X767450Y1072419D01*
X776350D01*
X777242Y1072597D01*
X777290Y1072629D01*
X778250Y1073004D01*
X779210Y1072629D01*
X779258Y1072597D01*
X780150Y1072419D01*
X789050D01*
X789942Y1072597D01*
X789990Y1072629D01*
X790950Y1073004D01*
X791910Y1072629D01*
X791958Y1072597D01*
X792850Y1072419D01*
X801750D01*
X802642Y1072597D01*
X803719Y1072919D01*
X804559Y1072357D01*
X805550Y1072160D01*
X808730D01*
Y1090050D01*
X811270D01*
Y1072160D01*
X814450D01*
X815441Y1072357D01*
X816281Y1072919D01*
X817358Y1072597D01*
X818250Y1072419D01*
X827150D01*
X828042Y1072597D01*
X828090Y1072629D01*
X829050Y1073004D01*
X830010Y1072629D01*
X830058Y1072597D01*
X830950Y1072419D01*
X839850D01*
X840742Y1072597D01*
X840790Y1072629D01*
X841750Y1073004D01*
X842710Y1072629D01*
X842758Y1072597D01*
X843650Y1072419D01*
X852550D01*
X853442Y1072597D01*
X854198Y1073102D01*
X854703Y1073858D01*
X854881Y1074750D01*
Y1104007D01*
X869278Y1118404D01*
X872213Y1115469D01*
X872174Y1114980D01*
X871883Y1114003D01*
X871352Y1113648D01*
X870847Y1112892D01*
X870669Y1112000D01*
Y1110412D01*
X870736Y1110076D01*
X870770Y1109735D01*
X870824Y1109633D01*
X870847Y1109520D01*
X871037Y1109235D01*
X871198Y1108933D01*
X871288Y1108860D01*
X871352Y1108764D01*
X871637Y1108574D01*
X871901Y1108356D01*
X873171Y1107677D01*
X873203Y1107668D01*
X873169Y1107500D01*
Y1094500D01*
X873347Y1093608D01*
X873852Y1092852D01*
X874608Y1092347D01*
X874959Y1092277D01*
Y1090982D01*
X874509Y1090893D01*
X873669Y1090331D01*
X873107Y1089491D01*
X872910Y1088500D01*
Y1083270D01*
X883000D01*
X893090D01*
Y1088500D01*
X892893Y1089491D01*
X892815Y1089607D01*
X893065Y1090172D01*
X893596Y1090698D01*
X893781Y1090705D01*
X893964Y1090669D01*
X964035D01*
X994610Y1060094D01*
X994124Y1058921D01*
X971831D01*
Y1060500D01*
X971653Y1061392D01*
X971148Y1062148D01*
X970392Y1062653D01*
X969500Y1062831D01*
X954500D01*
X953608Y1062653D01*
X952852Y1062148D01*
X952347Y1061392D01*
X952169Y1060500D01*
Y1047500D01*
X952347Y1046608D01*
X952852Y1045852D01*
X953608Y1045347D01*
X953959Y1045277D01*
Y1043982D01*
X953509Y1043893D01*
X952669Y1043331D01*
X952107Y1042491D01*
X951910Y1041500D01*
Y1036270D01*
X962000D01*
X972090D01*
Y1041500D01*
X971893Y1042491D01*
X971331Y1043331D01*
X970491Y1043893D01*
X970041Y1043982D01*
Y1045277D01*
X970392Y1045347D01*
X971148Y1045852D01*
X971653Y1046608D01*
X971831Y1047500D01*
Y1049080D01*
X1005624D01*
X1054352Y1000352D01*
X1055108Y999847D01*
X1056000Y999669D01*
X1121000Y999669D01*
X1121892Y999847D01*
X1122648Y1000352D01*
X1123153Y1001108D01*
X1123331Y1002000D01*
Y1012119D01*
X1123257Y1012491D01*
X1123207Y1012868D01*
X1123168Y1012935D01*
X1123153Y1013011D01*
X1122942Y1013327D01*
X1122752Y1013655D01*
Y1014344D01*
X1122942Y1014674D01*
X1123153Y1014989D01*
X1123168Y1015065D01*
X1123207Y1015132D01*
X1123257Y1015509D01*
X1123331Y1015881D01*
X1123331Y1041119D01*
X1123257Y1041491D01*
X1123207Y1041868D01*
X1123168Y1041935D01*
X1123153Y1042011D01*
X1123138Y1042033D01*
X1122752Y1042978D01*
Y1043344D01*
X1122942Y1043673D01*
X1123153Y1043989D01*
X1123168Y1044065D01*
X1123207Y1044132D01*
X1123257Y1044509D01*
X1123331Y1044881D01*
X1123331Y1112000D01*
X1123153Y1112892D01*
X1122648Y1113648D01*
X1121892Y1114153D01*
X1121000Y1114331D01*
X933686Y1114331D01*
X933291Y1114252D01*
X932893Y1114192D01*
X932847Y1114164D01*
X932794Y1114153D01*
X932459Y1113930D01*
X932115Y1113722D01*
X931279Y1112960D01*
X931247Y1112916D01*
X930892Y1113153D01*
X930000Y1113331D01*
X900000D01*
X899108Y1113153D01*
X898762Y1112922D01*
X897885Y1113722D01*
X897541Y1113930D01*
X897206Y1114153D01*
X897153Y1114164D01*
X897107Y1114192D01*
X896709Y1114252D01*
X896314Y1114331D01*
X891711D01*
Y1117000D01*
X891414Y1119255D01*
X890544Y1121355D01*
X889159Y1123159D01*
X877659Y1134659D01*
X877068Y1135113D01*
Y1165169D01*
X878000D01*
X878892Y1165347D01*
X879648Y1165852D01*
X880153Y1166608D01*
X880331Y1167500D01*
Y1182500D01*
X880153Y1183392D01*
X879648Y1184148D01*
X878892Y1184653D01*
X878000Y1184831D01*
X877068D01*
Y1189282D01*
X877392Y1189347D01*
X878148Y1189852D01*
X878653Y1190608D01*
X878831Y1191500D01*
Y1206500D01*
X878653Y1207392D01*
X878148Y1208148D01*
X877392Y1208653D01*
X876500Y1208831D01*
X864500D01*
X863608Y1208653D01*
X862852Y1208148D01*
X862734Y1207972D01*
X861266D01*
X861148Y1208148D01*
X860392Y1208653D01*
X859500Y1208831D01*
X859068D01*
Y1216169D01*
X859500D01*
X860392Y1216347D01*
X861059Y1216792D01*
X861197Y1216849D01*
X862611Y1216755D01*
X862669Y1216669D01*
X863509Y1216107D01*
X864500Y1215910D01*
X869230D01*
Y1226000D01*
Y1236090D01*
X864500D01*
X863509Y1235893D01*
X862669Y1235331D01*
X862611Y1235245D01*
X861197Y1235151D01*
X861059Y1235208D01*
X860392Y1235653D01*
X859500Y1235831D01*
X847500D01*
X846608Y1235653D01*
X845852Y1235148D01*
X845347Y1234392D01*
X845169Y1233500D01*
Y1218500D01*
X845347Y1217608D01*
X845852Y1216852D01*
X846608Y1216347D01*
X847500Y1216169D01*
X847932D01*
Y1208831D01*
X847500D01*
X846608Y1208653D01*
X845852Y1208148D01*
X845347Y1207392D01*
X845169Y1206500D01*
Y1191500D01*
X845347Y1190608D01*
X845852Y1189852D01*
X846608Y1189347D01*
X847500Y1189169D01*
X847932D01*
Y1184831D01*
X846000D01*
X845108Y1184653D01*
X844352Y1184148D01*
X843847Y1183392D01*
X843669Y1182500D01*
Y1167500D01*
X843847Y1166608D01*
X844352Y1165852D01*
X845108Y1165347D01*
X846000Y1165169D01*
X846932D01*
Y1150512D01*
X845662Y1150127D01*
X845648Y1150148D01*
X844892Y1150653D01*
X844000Y1150831D01*
X831000D01*
X830108Y1150653D01*
X829352Y1150148D01*
X828847Y1149392D01*
X828777Y1149041D01*
X827482D01*
X827393Y1149491D01*
X826831Y1150331D01*
X825991Y1150893D01*
X825000Y1151090D01*
X819770D01*
Y1141000D01*
X818500D01*
Y1139730D01*
X809410D01*
Y1133500D01*
X809607Y1132509D01*
X810169Y1131669D01*
X811009Y1131107D01*
X812000Y1130910D01*
X812932D01*
Y1124806D01*
X806063Y1117937D01*
X804856Y1116131D01*
X804432Y1114000D01*
Y1108719D01*
X804138Y1108528D01*
X802868Y1109215D01*
Y1127994D01*
X803937Y1129063D01*
X805144Y1130869D01*
X805568Y1133000D01*
Y1160694D01*
X809044Y1164169D01*
X813000D01*
X813892Y1164347D01*
X814559Y1164792D01*
X814697Y1164849D01*
X816111Y1164755D01*
X816169Y1164669D01*
X817009Y1164107D01*
X818000Y1163910D01*
X822730D01*
Y1174000D01*
Y1184090D01*
X818000D01*
X817009Y1183893D01*
X816169Y1183331D01*
X816111Y1183245D01*
X814697Y1183151D01*
X814559Y1183208D01*
X813892Y1183653D01*
X813000Y1183831D01*
X801000D01*
X800108Y1183653D01*
X799352Y1183148D01*
X798847Y1182392D01*
X798669Y1181500D01*
Y1179568D01*
X794831D01*
Y1181500D01*
X794653Y1182392D01*
X794148Y1183148D01*
X793392Y1183653D01*
X792500Y1183831D01*
X780500D01*
X780480Y1183827D01*
X779211Y1184799D01*
Y1190694D01*
X779512Y1191001D01*
X781087Y1190791D01*
X781169Y1190669D01*
X782009Y1190107D01*
X783000Y1189910D01*
X788230D01*
Y1200000D01*
Y1210090D01*
X783000D01*
X782009Y1209893D01*
X781169Y1209331D01*
X780607Y1208491D01*
X780518Y1208041D01*
X779330D01*
X779168Y1208319D01*
X779153Y1208392D01*
X778922Y1208737D01*
X778710Y1209099D01*
Y1217694D01*
X779012Y1218000D01*
X780587Y1217791D01*
X780669Y1217669D01*
X781509Y1217107D01*
X782500Y1216910D01*
X787730D01*
Y1227000D01*
Y1237090D01*
X782500D01*
X781509Y1236893D01*
X780669Y1236331D01*
X780587Y1236209D01*
X779012Y1236000D01*
X778710Y1236306D01*
Y1238392D01*
X799608Y1259289D01*
X862000D01*
X864255Y1259586D01*
X866355Y1260456D01*
X868159Y1261841D01*
X900988Y1294669D01*
X912000D01*
X912892Y1294847D01*
X913648Y1295352D01*
X914153Y1296108D01*
X914331Y1297000D01*
Y1310165D01*
X996455Y1392289D01*
X1283392D01*
X1315289Y1360392D01*
Y1184000D01*
X1315586Y1181746D01*
X1316456Y1179645D01*
X1316669Y1179367D01*
Y1171000D01*
X1316847Y1170108D01*
X1317352Y1169352D01*
X1318108Y1168847D01*
X1319000Y1168669D01*
X1329000D01*
X1329892Y1168847D01*
X1330648Y1169352D01*
X1331153Y1170108D01*
X1331331Y1171000D01*
Y1175290D01*
X1336669D01*
Y1171000D01*
X1336847Y1170108D01*
X1337352Y1169352D01*
X1338108Y1168847D01*
X1339000Y1168669D01*
X1349000D01*
X1349892Y1168847D01*
X1350648Y1169352D01*
X1351153Y1170108D01*
X1351331Y1171000D01*
Y1179367D01*
X1351543Y1179645D01*
X1352414Y1181746D01*
X1352711Y1184000D01*
X1352414Y1186254D01*
X1351543Y1188355D01*
X1351331Y1188633D01*
Y1197000D01*
X1351153Y1197892D01*
X1350648Y1198648D01*
X1349892Y1199153D01*
X1349000Y1199331D01*
X1339000D01*
X1338108Y1199153D01*
X1337352Y1198648D01*
X1336847Y1197892D01*
X1336669Y1197000D01*
Y1192710D01*
X1332711D01*
Y1364000D01*
X1332414Y1366254D01*
X1331543Y1368355D01*
X1330159Y1370159D01*
X1293159Y1407159D01*
X1291355Y1408544D01*
X1289254Y1409414D01*
X1287000Y1409711D01*
D02*
G37*
G36*
X1149000Y1199331D02*
X1139000D01*
X1138108Y1199153D01*
X1137352Y1198648D01*
X1136847Y1197892D01*
X1136669Y1197000D01*
Y1171000D01*
X1136847Y1170108D01*
X1137352Y1169352D01*
X1138108Y1168847D01*
X1139000Y1168669D01*
X1149000D01*
X1149892Y1168847D01*
X1150648Y1169352D01*
X1151153Y1170108D01*
X1151331Y1171000D01*
Y1197000D01*
X1151153Y1197892D01*
X1150648Y1198648D01*
X1149892Y1199153D01*
X1149000Y1199331D01*
D02*
G37*
G36*
X1009000D02*
X999000D01*
X998108Y1199153D01*
X997352Y1198648D01*
X996847Y1197892D01*
X996669Y1197000D01*
Y1171000D01*
X996847Y1170108D01*
X997352Y1169352D01*
X998108Y1168847D01*
X999000Y1168669D01*
X1009000D01*
X1009892Y1168847D01*
X1010648Y1169352D01*
X1011153Y1170108D01*
X1011331Y1171000D01*
Y1197000D01*
X1011153Y1197892D01*
X1010648Y1198648D01*
X1009892Y1199153D01*
X1009000Y1199331D01*
D02*
G37*
G36*
X1371590Y1182730D02*
X1365270D01*
Y1168410D01*
X1369000D01*
X1369991Y1168607D01*
X1370831Y1169169D01*
X1371393Y1170009D01*
X1371590Y1171000D01*
Y1182730D01*
D02*
G37*
G36*
X1129000Y1199331D02*
X1119000D01*
X1118108Y1199153D01*
X1117352Y1198648D01*
X1116847Y1197892D01*
X1116669Y1197000D01*
Y1171000D01*
X1116847Y1170108D01*
X1117352Y1169352D01*
X1118108Y1168847D01*
X1119000Y1168669D01*
X1129000D01*
X1129892Y1168847D01*
X1130648Y1169352D01*
X1131153Y1170108D01*
X1131331Y1171000D01*
Y1197000D01*
X1131153Y1197892D01*
X1130648Y1198648D01*
X1129892Y1199153D01*
X1129000Y1199331D01*
D02*
G37*
G36*
X1029000D02*
X1019000D01*
X1018108Y1199153D01*
X1017352Y1198648D01*
X1016847Y1197892D01*
X1016669Y1197000D01*
Y1171000D01*
X1016847Y1170108D01*
X1017352Y1169352D01*
X1018108Y1168847D01*
X1019000Y1168669D01*
X1029000D01*
X1029892Y1168847D01*
X1030648Y1169352D01*
X1031153Y1170108D01*
X1031331Y1171000D01*
Y1197000D01*
X1031153Y1197892D01*
X1030648Y1198648D01*
X1029892Y1199153D01*
X1029000Y1199331D01*
D02*
G37*
G36*
X1509600Y1198231D02*
X1498400D01*
X1497508Y1198053D01*
X1496752Y1197548D01*
X1496247Y1196792D01*
X1496069Y1195900D01*
Y1177600D01*
X1496247Y1176708D01*
X1496752Y1175952D01*
X1497508Y1175447D01*
X1498400Y1175269D01*
X1509600D01*
X1510492Y1175447D01*
X1511248Y1175952D01*
X1511753Y1176708D01*
X1511931Y1177600D01*
Y1195900D01*
X1511753Y1196792D01*
X1511248Y1197548D01*
X1510492Y1198053D01*
X1509600Y1198231D01*
D02*
G37*
G36*
X1489600D02*
X1478400D01*
X1477508Y1198053D01*
X1476752Y1197548D01*
X1476247Y1196792D01*
X1476069Y1195900D01*
Y1177600D01*
X1476247Y1176708D01*
X1476752Y1175952D01*
X1477508Y1175447D01*
X1478400Y1175269D01*
X1489600D01*
X1490492Y1175447D01*
X1491248Y1175952D01*
X1491753Y1176708D01*
X1491931Y1177600D01*
Y1195900D01*
X1491753Y1196792D01*
X1491248Y1197548D01*
X1490492Y1198053D01*
X1489600Y1198231D01*
D02*
G37*
G36*
X1549600D02*
X1538400D01*
X1537508Y1198053D01*
X1536752Y1197548D01*
X1536247Y1196792D01*
X1536069Y1195900D01*
Y1177600D01*
X1536247Y1176708D01*
X1536752Y1175952D01*
X1537508Y1175447D01*
X1538400Y1175269D01*
X1549600D01*
X1550492Y1175447D01*
X1551248Y1175952D01*
X1551753Y1176708D01*
X1551931Y1177600D01*
Y1195900D01*
X1551753Y1196792D01*
X1551248Y1197548D01*
X1550492Y1198053D01*
X1549600Y1198231D01*
D02*
G37*
G36*
X1529600D02*
X1518400D01*
X1517508Y1198053D01*
X1516752Y1197548D01*
X1516247Y1196792D01*
X1516069Y1195900D01*
Y1177600D01*
X1516247Y1176708D01*
X1516752Y1175952D01*
X1517508Y1175447D01*
X1518400Y1175269D01*
X1529600D01*
X1530492Y1175447D01*
X1531248Y1175952D01*
X1531753Y1176708D01*
X1531931Y1177600D01*
Y1195900D01*
X1531753Y1196792D01*
X1531248Y1197548D01*
X1530492Y1198053D01*
X1529600Y1198231D01*
D02*
G37*
G36*
X1469600D02*
X1458400D01*
X1457508Y1198053D01*
X1456752Y1197548D01*
X1456247Y1196792D01*
X1456069Y1195900D01*
Y1177600D01*
X1456247Y1176708D01*
X1456752Y1175952D01*
X1457508Y1175447D01*
X1458400Y1175269D01*
X1469600D01*
X1470492Y1175447D01*
X1471248Y1175952D01*
X1471753Y1176708D01*
X1471931Y1177600D01*
Y1195900D01*
X1471753Y1196792D01*
X1471248Y1197548D01*
X1470492Y1198053D01*
X1469600Y1198231D01*
D02*
G37*
G36*
X1422730Y1185480D02*
X1415810D01*
Y1177600D01*
X1416007Y1176609D01*
X1416569Y1175769D01*
X1417409Y1175207D01*
X1418400Y1175010D01*
X1422730D01*
Y1185480D01*
D02*
G37*
G36*
X1608500Y1181590D02*
X1602270D01*
Y1173770D01*
X1611090D01*
Y1179000D01*
X1610893Y1179991D01*
X1610331Y1180831D01*
X1609491Y1181393D01*
X1608500Y1181590D01*
D02*
G37*
G36*
X1449600Y1198231D02*
X1438400D01*
X1437508Y1198053D01*
X1436752Y1197548D01*
X1436247Y1196792D01*
X1436069Y1195900D01*
Y1177600D01*
X1436247Y1176708D01*
X1436752Y1175952D01*
X1437508Y1175447D01*
X1438400Y1175269D01*
X1449600D01*
X1450492Y1175447D01*
X1451248Y1175952D01*
X1451753Y1176708D01*
X1451931Y1177600D01*
Y1195900D01*
X1451753Y1196792D01*
X1451248Y1197548D01*
X1450492Y1198053D01*
X1449600Y1198231D01*
D02*
G37*
G36*
X1432190Y1185480D02*
X1425270D01*
Y1175010D01*
X1429600D01*
X1430591Y1175207D01*
X1431431Y1175769D01*
X1431993Y1176609D01*
X1432190Y1177600D01*
Y1185480D01*
D02*
G37*
G36*
X1362730Y1182730D02*
X1356410D01*
Y1171000D01*
X1356607Y1170009D01*
X1357169Y1169169D01*
X1358009Y1168607D01*
X1359000Y1168410D01*
X1362730D01*
Y1182730D01*
D02*
G37*
G36*
X1369000Y1158590D02*
X1365270D01*
Y1144270D01*
X1371590D01*
Y1156000D01*
X1371393Y1156991D01*
X1370831Y1157831D01*
X1369991Y1158393D01*
X1369000Y1158590D01*
D02*
G37*
G36*
X989000D02*
X985270D01*
Y1144270D01*
X991590D01*
Y1156000D01*
X991393Y1156991D01*
X990831Y1157831D01*
X989991Y1158393D01*
X989000Y1158590D01*
D02*
G37*
G36*
X1611090Y1171230D02*
X1601000D01*
X1590910D01*
Y1166000D01*
X1591107Y1165009D01*
X1591669Y1164169D01*
X1592509Y1163607D01*
X1592959Y1163518D01*
Y1162223D01*
X1592608Y1162153D01*
X1591852Y1161648D01*
X1591347Y1160892D01*
X1591169Y1160000D01*
Y1147000D01*
X1591347Y1146108D01*
X1591852Y1145352D01*
X1592608Y1144847D01*
X1593500Y1144669D01*
X1608500D01*
X1609392Y1144847D01*
X1610148Y1145352D01*
X1610653Y1146108D01*
X1610831Y1147000D01*
Y1149227D01*
X1626411D01*
X1627199Y1148199D01*
X1628605Y1147121D01*
X1630243Y1146442D01*
X1632000Y1146211D01*
X1633757Y1146442D01*
X1635394Y1147121D01*
X1636801Y1148199D01*
X1637879Y1149605D01*
X1638558Y1151243D01*
X1638789Y1153000D01*
X1638558Y1154757D01*
X1637879Y1156395D01*
X1636801Y1157801D01*
X1635394Y1158879D01*
X1633757Y1159558D01*
X1632000Y1159789D01*
X1630243Y1159558D01*
X1628605Y1158879D01*
X1627199Y1157801D01*
X1627178Y1157773D01*
X1610831D01*
Y1160000D01*
X1610653Y1160892D01*
X1610148Y1161648D01*
X1609392Y1162153D01*
X1609041Y1162223D01*
Y1163518D01*
X1609491Y1163607D01*
X1610331Y1164169D01*
X1610893Y1165009D01*
X1611090Y1166000D01*
Y1171230D01*
D02*
G37*
G36*
X1529600Y1151731D02*
X1518400D01*
X1517508Y1151553D01*
X1516752Y1151048D01*
X1516247Y1150292D01*
X1516069Y1149400D01*
Y1131100D01*
X1516247Y1130208D01*
X1516752Y1129452D01*
X1517508Y1128947D01*
X1518400Y1128769D01*
X1529600D01*
X1530492Y1128947D01*
X1531248Y1129452D01*
X1531753Y1130208D01*
X1531931Y1131100D01*
Y1149400D01*
X1531753Y1150292D01*
X1531248Y1151048D01*
X1530492Y1151553D01*
X1529600Y1151731D01*
D02*
G37*
G36*
X817230Y1151090D02*
X812000D01*
X811009Y1150893D01*
X810169Y1150331D01*
X809607Y1149491D01*
X809410Y1148500D01*
Y1142270D01*
X817230D01*
Y1151090D01*
D02*
G37*
G36*
X1549600Y1151731D02*
X1538400D01*
X1537508Y1151553D01*
X1536752Y1151048D01*
X1536247Y1150292D01*
X1536069Y1149400D01*
Y1131100D01*
X1536247Y1130208D01*
X1536752Y1129452D01*
X1537508Y1128947D01*
X1538400Y1128769D01*
X1549600D01*
X1550492Y1128947D01*
X1551248Y1129452D01*
X1551753Y1130208D01*
X1551931Y1131100D01*
Y1149400D01*
X1551753Y1150292D01*
X1551248Y1151048D01*
X1550492Y1151553D01*
X1549600Y1151731D01*
D02*
G37*
G36*
X982730Y1158590D02*
X979000D01*
X978009Y1158393D01*
X977169Y1157831D01*
X976607Y1156991D01*
X976410Y1156000D01*
Y1144270D01*
X982730D01*
Y1158590D01*
D02*
G37*
G36*
X1362730D02*
X1359000D01*
X1358009Y1158393D01*
X1357169Y1157831D01*
X1356607Y1156991D01*
X1356410Y1156000D01*
Y1144270D01*
X1362730D01*
Y1158590D01*
D02*
G37*
G36*
X1469600Y1151731D02*
X1458400D01*
X1457508Y1151553D01*
X1456752Y1151048D01*
X1456247Y1150292D01*
X1456069Y1149400D01*
Y1131100D01*
X1456247Y1130208D01*
X1456752Y1129452D01*
X1457508Y1128947D01*
X1458400Y1128769D01*
X1469600D01*
X1470492Y1128947D01*
X1471248Y1129452D01*
X1471753Y1130208D01*
X1471931Y1131100D01*
Y1149400D01*
X1471753Y1150292D01*
X1471248Y1151048D01*
X1470492Y1151553D01*
X1469600Y1151731D01*
D02*
G37*
G36*
X832590Y1172730D02*
X825270D01*
Y1163910D01*
X830000D01*
X830991Y1164107D01*
X831831Y1164669D01*
X832393Y1165509D01*
X832590Y1166500D01*
Y1172730D01*
D02*
G37*
G36*
X991590Y1182730D02*
X985270D01*
Y1168410D01*
X989000D01*
X989991Y1168607D01*
X990831Y1169169D01*
X991393Y1170009D01*
X991590Y1171000D01*
Y1182730D01*
D02*
G37*
G36*
X982730D02*
X976410D01*
Y1171000D01*
X976607Y1170009D01*
X977169Y1169169D01*
X978009Y1168607D01*
X979000Y1168410D01*
X982730D01*
Y1182730D01*
D02*
G37*
G36*
X1489600Y1151731D02*
X1478400D01*
X1477508Y1151553D01*
X1476752Y1151048D01*
X1476247Y1150292D01*
X1476069Y1149400D01*
Y1131100D01*
X1476247Y1130208D01*
X1476752Y1129452D01*
X1477508Y1128947D01*
X1478400Y1128769D01*
X1489600D01*
X1490492Y1128947D01*
X1491248Y1129452D01*
X1491753Y1130208D01*
X1491931Y1131100D01*
Y1149400D01*
X1491753Y1150292D01*
X1491248Y1151048D01*
X1490492Y1151553D01*
X1489600Y1151731D01*
D02*
G37*
G36*
X1509600D02*
X1498400D01*
X1497508Y1151553D01*
X1496752Y1151048D01*
X1496247Y1150292D01*
X1496069Y1149400D01*
Y1131100D01*
X1496247Y1130208D01*
X1496752Y1129452D01*
X1497508Y1128947D01*
X1498400Y1128769D01*
X1509600D01*
X1510492Y1128947D01*
X1511248Y1129452D01*
X1511753Y1130208D01*
X1511931Y1131100D01*
Y1149400D01*
X1511753Y1150292D01*
X1511248Y1151048D01*
X1510492Y1151553D01*
X1509600Y1151731D01*
D02*
G37*
G36*
X948090Y1156230D02*
X939270D01*
Y1148410D01*
X945500D01*
X946491Y1148607D01*
X947331Y1149169D01*
X947893Y1150009D01*
X948090Y1151000D01*
Y1156230D01*
D02*
G37*
G36*
X936730D02*
X927910D01*
Y1151000D01*
X928107Y1150009D01*
X928669Y1149169D01*
X929509Y1148607D01*
X930500Y1148410D01*
X936730D01*
Y1156230D01*
D02*
G37*
%LPD*%
G36*
X1024977Y1340104D02*
X1013436Y1328564D01*
X1012650Y1327388D01*
X1012374Y1326000D01*
X1012374Y1326000D01*
Y1256489D01*
X1011104Y1255847D01*
X1010626Y1256200D01*
Y1329498D01*
X1022502Y1341374D01*
X1024451D01*
X1024977Y1340104D01*
D02*
G37*
G36*
X1062669Y1300522D02*
Y1298000D01*
X1062847Y1297108D01*
X1063352Y1296352D01*
X1064108Y1295847D01*
X1065000Y1295669D01*
X1071703D01*
X1092936Y1274436D01*
X1092936Y1274436D01*
X1094112Y1273650D01*
X1095500Y1273374D01*
X1095500Y1273374D01*
X1135180D01*
X1135615Y1272798D01*
X1135117Y1271849D01*
X1134909Y1271626D01*
X1067502D01*
X1048626Y1290502D01*
Y1295817D01*
X1049896Y1296203D01*
X1050509Y1295285D01*
X1052441Y1293994D01*
X1054721Y1293540D01*
X1057000Y1293994D01*
X1058932Y1295285D01*
X1060224Y1297218D01*
X1060677Y1299497D01*
X1060539Y1300188D01*
X1061433Y1301082D01*
X1062669Y1300522D01*
D02*
G37*
G36*
X862852Y1189852D02*
X863608Y1189347D01*
X864500Y1189169D01*
X865932D01*
Y1184831D01*
X865000D01*
X864108Y1184653D01*
X863352Y1184148D01*
X862847Y1183392D01*
X862669Y1182500D01*
Y1167500D01*
X862847Y1166608D01*
X863352Y1165852D01*
X864108Y1165347D01*
X865000Y1165169D01*
X865932D01*
Y1135113D01*
X865341Y1134659D01*
X863957Y1132855D01*
X863086Y1130754D01*
X862790Y1128500D01*
X862887Y1127761D01*
X844163Y1109037D01*
X843196Y1107590D01*
X842758Y1107503D01*
X842710Y1107471D01*
X842025Y1107204D01*
X840968Y1107873D01*
Y1109094D01*
X856437Y1124563D01*
X857644Y1126369D01*
X858068Y1128500D01*
Y1165169D01*
X859000D01*
X859892Y1165347D01*
X860648Y1165852D01*
X861153Y1166608D01*
X861331Y1167500D01*
Y1182500D01*
X861153Y1183392D01*
X860648Y1184148D01*
X859892Y1184653D01*
X859068Y1184817D01*
Y1189169D01*
X859500D01*
X860392Y1189347D01*
X861148Y1189852D01*
X861266Y1190028D01*
X862734D01*
X862852Y1189852D01*
D02*
G37*
G36*
X896314Y1112000D02*
X897410Y1111000D01*
Y1106270D01*
X915000D01*
X932590D01*
Y1110730D01*
X932850Y1111238D01*
X933686Y1112000D01*
X1121000Y1112000D01*
X1121000Y1044881D01*
X1119730Y1044798D01*
X1119661Y1045321D01*
X1118765Y1047483D01*
X1117340Y1049340D01*
X1115483Y1050765D01*
X1113321Y1051661D01*
X1112270Y1051799D01*
Y1043000D01*
Y1034201D01*
X1113321Y1034339D01*
X1115483Y1035235D01*
X1117340Y1036660D01*
X1118765Y1038517D01*
X1119661Y1040679D01*
X1119730Y1041202D01*
X1121000Y1041119D01*
X1121000Y1015881D01*
X1119730Y1015798D01*
X1119661Y1016321D01*
X1118765Y1018483D01*
X1117340Y1020340D01*
X1115483Y1021765D01*
X1113321Y1022661D01*
X1112270Y1022800D01*
Y1014000D01*
Y1005201D01*
X1113321Y1005339D01*
X1115483Y1006235D01*
X1117340Y1007660D01*
X1118765Y1009517D01*
X1119661Y1011679D01*
X1119730Y1012202D01*
X1121000Y1012119D01*
Y1002000D01*
X1056000Y1002000D01*
X965000Y1093000D01*
X893964D01*
X893044Y1094270D01*
X893090Y1094500D01*
Y1099730D01*
X883000D01*
Y1101000D01*
X881730D01*
Y1110090D01*
X875500D01*
X874509Y1109893D01*
X874270Y1109733D01*
X873000Y1110412D01*
Y1112000D01*
X896314D01*
D02*
G37*
%LPC*%
G36*
X1020270Y1066799D02*
Y1059270D01*
X1027800D01*
X1027661Y1060321D01*
X1026765Y1062483D01*
X1025340Y1064340D01*
X1023483Y1065765D01*
X1021321Y1066661D01*
X1020270Y1066799D01*
D02*
G37*
G36*
X1108730Y1068730D02*
X1101200D01*
X1101339Y1067679D01*
X1102235Y1065517D01*
X1103660Y1063660D01*
X1105517Y1062235D01*
X1107679Y1061339D01*
X1108730Y1061200D01*
Y1068730D01*
D02*
G37*
G36*
X1017730Y1066799D02*
X1016679Y1066661D01*
X1014517Y1065765D01*
X1012660Y1064340D01*
X1011235Y1062483D01*
X1010339Y1060321D01*
X1010201Y1059270D01*
X1017730D01*
Y1066799D01*
D02*
G37*
G36*
Y1056730D02*
X1010201D01*
X1010339Y1055679D01*
X1011235Y1053517D01*
X1012660Y1051660D01*
X1014517Y1050235D01*
X1016679Y1049339D01*
X1017730Y1049201D01*
Y1056730D01*
D02*
G37*
G36*
X1027800D02*
X1020270D01*
Y1049201D01*
X1021321Y1049339D01*
X1023483Y1050235D01*
X1025340Y1051660D01*
X1026765Y1053517D01*
X1027661Y1055679D01*
X1027800Y1056730D01*
D02*
G37*
G36*
X1118800Y1068730D02*
X1111270D01*
Y1061200D01*
X1112321Y1061339D01*
X1114483Y1062235D01*
X1116340Y1063660D01*
X1117765Y1065517D01*
X1118661Y1067679D01*
X1118800Y1068730D01*
D02*
G37*
G36*
X932590Y1103730D02*
X916270D01*
Y1096410D01*
X930000D01*
X930991Y1096607D01*
X931831Y1097169D01*
X932393Y1098009D01*
X932590Y1099000D01*
Y1103730D01*
D02*
G37*
G36*
X890500Y1110090D02*
X884270D01*
Y1102270D01*
X893090D01*
Y1107500D01*
X892893Y1108491D01*
X892331Y1109331D01*
X891491Y1109893D01*
X890500Y1110090D01*
D02*
G37*
G36*
X913730Y1103730D02*
X897410D01*
Y1099000D01*
X897607Y1098009D01*
X898169Y1097169D01*
X899009Y1096607D01*
X900000Y1096410D01*
X913730D01*
Y1103730D01*
D02*
G37*
G36*
X1108730Y1078800D02*
X1107679Y1078661D01*
X1105517Y1077765D01*
X1103660Y1076340D01*
X1102235Y1074483D01*
X1101339Y1072321D01*
X1101200Y1071270D01*
X1108730D01*
Y1078800D01*
D02*
G37*
G36*
X1111270D02*
Y1071270D01*
X1118800D01*
X1118661Y1072321D01*
X1117765Y1074483D01*
X1116340Y1076340D01*
X1114483Y1077765D01*
X1112321Y1078661D01*
X1111270Y1078800D01*
D02*
G37*
G36*
X1109730Y1051799D02*
X1108679Y1051661D01*
X1106517Y1050765D01*
X1104660Y1049340D01*
X1103235Y1047483D01*
X1102339Y1045321D01*
X1102200Y1044270D01*
X1109730D01*
Y1051799D01*
D02*
G37*
G36*
Y1022800D02*
X1108679Y1022661D01*
X1106517Y1021765D01*
X1104660Y1020340D01*
X1103235Y1018483D01*
X1102339Y1016321D01*
X1102200Y1015270D01*
X1109730D01*
Y1022800D01*
D02*
G37*
G36*
X1074730Y1023800D02*
X1073679Y1023661D01*
X1071517Y1022765D01*
X1069660Y1021340D01*
X1068235Y1019483D01*
X1067339Y1017321D01*
X1067200Y1016270D01*
X1074730D01*
Y1023800D01*
D02*
G37*
G36*
X1084799Y1013730D02*
X1077270D01*
Y1006200D01*
X1078321Y1006339D01*
X1080483Y1007235D01*
X1082340Y1008660D01*
X1083765Y1010517D01*
X1084661Y1012679D01*
X1084799Y1013730D01*
D02*
G37*
G36*
X1109730Y1012730D02*
X1102200D01*
X1102339Y1011679D01*
X1103235Y1009517D01*
X1104660Y1007660D01*
X1106517Y1006235D01*
X1108679Y1005339D01*
X1109730Y1005201D01*
Y1012730D01*
D02*
G37*
G36*
X1074730Y1013730D02*
X1067200D01*
X1067339Y1012679D01*
X1068235Y1010517D01*
X1069660Y1008660D01*
X1071517Y1007235D01*
X1073679Y1006339D01*
X1074730Y1006200D01*
Y1013730D01*
D02*
G37*
G36*
X1077270Y1023800D02*
Y1016270D01*
X1084799D01*
X1084661Y1017321D01*
X1083765Y1019483D01*
X1082340Y1021340D01*
X1080483Y1022765D01*
X1078321Y1023661D01*
X1077270Y1023800D01*
D02*
G37*
G36*
X1044000Y1043070D02*
X1042949Y1042931D01*
X1040787Y1042035D01*
X1038930Y1040610D01*
X1037505Y1038753D01*
X1036609Y1036591D01*
X1036470Y1035540D01*
X1044000D01*
Y1043070D01*
D02*
G37*
G36*
X1046540D02*
Y1035540D01*
X1054070D01*
X1053931Y1036591D01*
X1053035Y1038753D01*
X1051610Y1040610D01*
X1049753Y1042035D01*
X1047591Y1042931D01*
X1046540Y1043070D01*
D02*
G37*
G36*
X1109730Y1041730D02*
X1102200D01*
X1102339Y1040679D01*
X1103235Y1038517D01*
X1104660Y1036660D01*
X1106517Y1035235D01*
X1108679Y1034339D01*
X1109730Y1034201D01*
Y1041730D01*
D02*
G37*
G36*
X1044000Y1033000D02*
X1036470D01*
X1036609Y1031949D01*
X1037505Y1029787D01*
X1038930Y1027930D01*
X1040787Y1026505D01*
X1042949Y1025609D01*
X1044000Y1025471D01*
Y1033000D01*
D02*
G37*
G36*
X1054070D02*
X1046540D01*
Y1025471D01*
X1047591Y1025609D01*
X1049753Y1026505D01*
X1051610Y1027930D01*
X1053035Y1029787D01*
X1053931Y1031949D01*
X1054070Y1033000D01*
D02*
G37*
%LPD*%
D12*
X988000Y624000D02*
Y636000D01*
X979000Y645000D02*
X988000Y636000D01*
X1424550Y461937D02*
X1424614Y462000D01*
X1441500Y527000D02*
X1442500Y528000D01*
X1477500Y462000D02*
X1491000Y475500D01*
Y528000D01*
X1544000Y479000D02*
Y499500D01*
Y479000D02*
X1564000Y459000D01*
X1572000Y515500D02*
Y539000D01*
X1614000Y516000D02*
Y540000D01*
Y459000D02*
Y499000D01*
Y459000D02*
X1621000D01*
X1642000Y480000D01*
Y499000D01*
X1564000Y459000D02*
Y463000D01*
X1572000Y471000D01*
Y498500D01*
X1642000Y516000D02*
Y534000D01*
X1244500Y1277000D02*
X1263000D01*
X962000Y1054000D02*
X1015000D01*
X1019000Y1058000D01*
X938000Y936500D02*
X960500D01*
X961000Y937000D01*
X1514500Y797500D02*
X1540000D01*
X1510000Y676000D02*
X1510500Y676500D01*
X1468500Y625000D02*
Y648500D01*
X1469000Y649000D01*
X938000Y818000D02*
X966000D01*
X938000Y696000D02*
X949000D01*
X958000Y705000D01*
X1108500Y624000D02*
Y653500D01*
X1109000Y654000D01*
X1228500Y625000D02*
Y654500D01*
X1228000Y655000D02*
X1228500Y654500D01*
X1349500Y625000D02*
Y658500D01*
X1349000Y659000D02*
X1349500Y658500D01*
X1542500Y516500D02*
X1544000D01*
X1528000Y531000D02*
X1542500Y516500D01*
X1247000Y930000D02*
X1320000D01*
X1247000Y955000D02*
X1319000D01*
X1510500Y676500D02*
X1540000D01*
X1514000Y798000D02*
X1514500Y797500D01*
X1614000Y540000D02*
X1623000D01*
X1594000Y550000D02*
Y586000D01*
X1572000Y539000D02*
X1583000D01*
X1594000Y550000D01*
X1527000Y557000D02*
X1599000Y629000D01*
X1435000Y557000D02*
X1527000D01*
X1422000Y544000D02*
X1435000Y557000D01*
X1422000Y544000D02*
X1422500Y543500D01*
Y527000D02*
Y543500D01*
X1381000Y1017000D02*
Y1280000D01*
X1623000Y540000D02*
X1637000Y554000D01*
Y977000D01*
X1594000Y586000D02*
X1620000Y612000D01*
Y1037000D01*
X1599000Y629000D02*
Y1046000D01*
X1360000Y1301000D02*
X1381000Y1280000D01*
X1373000Y1314000D02*
X1391000Y1296000D01*
Y1001000D02*
Y1296000D01*
X1411000Y1318000D02*
X1414000D01*
X1426000Y1339000D02*
X1440000D01*
X1394000Y1371000D02*
X1395000Y1370000D01*
X1426000Y1339000D01*
X979000Y1212000D02*
Y1230000D01*
X1424614Y462000D02*
X1460500D01*
X1319000Y955000D02*
X1381000Y1017000D01*
X1320000Y930000D02*
X1391000Y1001000D01*
X1165000Y1306000D02*
X1180000D01*
X1442500Y528000D02*
X1491000D01*
X1385000Y1344000D02*
X1411000Y1318000D01*
D13*
X1424550Y472550D02*
X1432000Y480000D01*
Y501000D01*
X1100000Y1230000D02*
X1116000D01*
X1118000Y1228000D01*
X960000Y1219000D02*
Y1230000D01*
X953000Y1212000D02*
X960000Y1219000D01*
X938000Y1176500D02*
Y1197000D01*
X953000Y1212000D01*
X1601000Y1153500D02*
X1631500D01*
X1632000Y1153000D01*
X1517000Y1037000D02*
X1540000D01*
X1517000Y1037000D02*
X1517000Y1037000D01*
X1511500Y915500D02*
X1540000D01*
X1511000Y915000D02*
X1511500Y915500D01*
X1360000Y1228000D02*
X1366789Y1221211D01*
Y1212000D02*
Y1221211D01*
X1223000Y1315000D02*
Y1325500D01*
X1289000Y1244000D02*
Y1278000D01*
Y1244000D02*
X1303000Y1230000D01*
Y1229000D02*
Y1230000D01*
X1519000Y1228000D02*
X1520000Y1227000D01*
X1521000D01*
X1489500D02*
X1520000D01*
X1118000Y1228000D02*
Y1229000D01*
X1424550Y461937D02*
Y472550D01*
D14*
X1545000Y1376000D02*
X1549250Y1371750D01*
X1521000Y1376000D02*
X1545000D01*
X1431000Y1286000D02*
X1521000Y1376000D01*
X1431000Y1248000D02*
Y1286000D01*
X770000Y1091950D02*
Y1149000D01*
Y1091950D02*
X771900Y1090050D01*
X784600D02*
Y1146600D01*
X787000Y1149000D01*
X797300Y1090050D02*
Y1130300D01*
X853500Y1176000D02*
Y1199000D01*
X852500Y1175000D02*
X853500Y1176000D01*
X810000Y1090050D02*
Y1114000D01*
X818500Y1122500D01*
Y1141000D01*
X822700Y1090050D02*
Y1114487D01*
X827136Y1118923D01*
Y1119136D01*
X837500Y1129500D01*
Y1141000D01*
X852500Y1128500D02*
Y1175000D01*
X835400Y1111400D02*
X852500Y1128500D01*
X835400Y1090050D02*
Y1111400D01*
X848100Y1090050D02*
Y1105100D01*
X871500Y1128500D01*
Y1175000D01*
Y1198000D01*
X870500Y1199000D02*
X871500Y1198000D01*
X797300Y1130300D02*
X800000Y1133000D01*
Y1163000D01*
X786500Y1174000D02*
X807000D01*
X800000Y1163000D02*
X808000Y1171000D01*
X853500Y1199000D02*
Y1226000D01*
X1574000Y1376000D02*
X1579000Y1371000D01*
Y1184000D02*
Y1371000D01*
X1404000Y1140250D02*
Y1158000D01*
X1409000Y1163000D01*
X1558000D01*
X1579000Y1184000D01*
X1324000Y1117000D02*
Y1143000D01*
X1317000Y1110000D02*
X1324000Y1117000D01*
X1158000Y1110000D02*
X1317000D01*
X1404000Y1221000D02*
X1431000Y1248000D01*
X1404000Y1186750D02*
Y1221000D01*
D15*
X1189000Y1234000D02*
X1224000Y1199000D01*
X1001000Y1335000D02*
X1017500Y1351500D01*
X1073000D01*
X1007000Y1331000D02*
X1021000Y1345000D01*
X1073000D01*
X1099000Y1204000D02*
X1104000Y1199000D01*
X1195000Y1210000D02*
X1204000Y1201000D01*
X1016000Y1326000D02*
X1028500Y1338500D01*
X1073000D01*
X1025000Y1275000D02*
Y1322000D01*
X1035000Y1332000D01*
X1073000D01*
X1031000Y1279000D02*
Y1317000D01*
X1039500Y1325500D01*
X1073000D01*
X1242000Y1244000D02*
X1284000Y1202000D01*
X1038000Y1284000D02*
Y1312000D01*
X1045000Y1319000D01*
X1073000D01*
X1294000Y1167000D02*
X1304000Y1157000D01*
X1135000Y1268000D02*
X1152000Y1251000D01*
X1066000Y1268000D02*
X1135000D01*
X1045000Y1289000D02*
X1066000Y1268000D01*
X1045000Y1289000D02*
Y1307000D01*
X1050500Y1312500D01*
X1073000D01*
X1277000Y1162000D02*
X1284000Y1155000D01*
Y1143000D02*
Y1155000D01*
X1204000Y1184000D02*
Y1201000D01*
X1284000Y1184000D02*
Y1202000D01*
X1104000Y1184000D02*
Y1199000D01*
Y1172000D02*
Y1184000D01*
X1304000Y1143000D02*
Y1157000D01*
X1224000Y1184000D02*
Y1199000D01*
X1260000Y1162000D02*
X1277000D01*
X1254000Y1168000D02*
X1260000Y1162000D01*
X1054721Y1299497D02*
X1061224Y1306000D01*
X1073000D01*
X1066000Y1358000D02*
X1073000D01*
X1062000Y1362000D02*
X1066000Y1358000D01*
X1044000Y1366000D02*
X1048000Y1362000D01*
X1062000D01*
X1038000Y1284000D02*
X1059000Y1263000D01*
X1031000Y1279000D02*
X1052000Y1258000D01*
X1059000Y1263000D02*
X1131000D01*
X1150000Y1244000D01*
X1242000D01*
X1052000Y1258000D02*
X1127000D01*
X1146000Y1239000D01*
X1142000Y1234000D02*
X1189000D01*
X1025000Y1275000D02*
X1047000Y1253000D01*
X1123000D01*
X1142000Y1234000D01*
X1137000Y1277000D02*
X1156000Y1258000D01*
X1129000Y1306000D02*
X1165000D01*
X1129000Y1312500D02*
X1157755D01*
X1129000Y1338500D02*
X1151500D01*
X1129000Y1345000D02*
X1151000D01*
X1129000Y1351500D02*
X1149500D01*
X1001000Y1251000D02*
Y1335000D01*
Y1251000D02*
X1044000Y1208000D01*
Y1184000D02*
Y1208000D01*
X1007000Y1254000D02*
Y1331000D01*
Y1254000D02*
X1057000Y1204000D01*
X1099000D01*
X1016000Y1254000D02*
Y1326000D01*
Y1254000D02*
X1060000Y1210000D01*
X1195000D01*
X1146000Y1239000D02*
X1234000D01*
X1254000Y1219000D01*
Y1168000D02*
Y1219000D01*
X1129000Y1299500D02*
X1152500D01*
X1165000Y1287000D01*
X1208000D01*
Y1332000D02*
X1223000D01*
X1222500Y1339000D02*
X1223000Y1338500D01*
X1242000D02*
Y1347000D01*
X1218000Y1339000D02*
X1222500D01*
X1149500Y1351500D02*
X1162000Y1364000D01*
X1225000D01*
X1242000Y1347000D01*
X1151000Y1345000D02*
X1159104Y1353104D01*
X1109000Y1332000D02*
X1129000D01*
X1100000Y1323000D02*
X1109000Y1332000D01*
X1114500Y1325500D02*
X1129000D01*
X1108000Y1319000D02*
X1114500Y1325500D01*
X1108000Y1297000D02*
Y1319000D01*
X1100000Y1294000D02*
Y1323000D01*
X1073000Y1299500D02*
X1095500Y1277000D01*
X1137000D01*
X1100000Y1294000D02*
X1103000Y1291000D01*
X1152000Y1251000D02*
X1246000D01*
X1294000Y1203000D01*
Y1167000D02*
Y1203000D01*
X1156000Y1258000D02*
X1250000D01*
X1304000Y1204000D01*
Y1184000D02*
Y1204000D01*
X1225000Y1364000D02*
X1248000D01*
X1151500Y1338500D02*
X1155000Y1342000D01*
X1215000D02*
X1218000Y1339000D01*
X1155000Y1342000D02*
X1179044D01*
X1215000D01*
X1200896Y1353104D02*
X1201000Y1353000D01*
X1159104Y1353104D02*
X1200896D01*
X1129000Y1319000D02*
X1149000D01*
X1221000Y1300000D02*
X1244000D01*
X1208000Y1287000D02*
X1221000Y1300000D01*
X1149000Y1319000D02*
X1158000Y1328000D01*
Y1329000D01*
X1168534Y1323279D02*
X1178129D01*
X1157755Y1312500D02*
X1168534Y1323279D01*
X1289000Y1278000D02*
Y1323000D01*
X1248000Y1364000D02*
X1289000Y1323000D01*
X1108000Y1297000D02*
X1118000Y1287000D01*
D16*
X779000Y1385500D02*
D03*
X1699000Y465500D02*
D03*
Y1385500D02*
D03*
X779000Y465500D02*
D03*
X1469000Y925500D02*
D03*
X1009000D02*
D03*
D17*
X1352500Y818000D02*
D03*
D18*
X1070500D02*
D03*
D19*
X848000Y1386000D02*
D03*
X888000D02*
D03*
D20*
X1247000Y1030000D02*
D03*
Y1005000D02*
D03*
Y980000D02*
D03*
Y955000D02*
D03*
Y930000D02*
D03*
X1222000D02*
D03*
Y955000D02*
D03*
Y980000D02*
D03*
Y1005000D02*
D03*
Y1030000D02*
D03*
X1564000Y459000D02*
D03*
X1589000D02*
D03*
X1614000D02*
D03*
X1549000Y1376000D02*
D03*
X1574000D02*
D03*
X1424550Y461937D02*
D03*
X1399550D02*
D03*
D21*
X1019000Y1058000D02*
D03*
X1045270Y1034270D02*
D03*
X1076000Y1015000D02*
D03*
X1111000Y1014000D02*
D03*
Y1043000D02*
D03*
X1110000Y1070000D02*
D03*
X979000Y645000D02*
D03*
X958000Y666000D02*
D03*
Y705000D02*
D03*
X1019000Y646000D02*
D03*
X1491000Y528000D02*
D03*
X1158000Y1110000D02*
D03*
D22*
X1054721Y1299497D02*
D03*
X1062000Y1362000D02*
D03*
X1208000Y1332000D02*
D03*
X1223000Y1315000D02*
D03*
X1103000Y1291000D02*
D03*
X1303000Y1229000D02*
D03*
X1179044Y1342000D02*
D03*
X1201000Y1353000D02*
D03*
X1637000Y977000D02*
D03*
X1620000Y1037000D02*
D03*
X1599000Y1046000D02*
D03*
X1244000Y1300000D02*
D03*
X1158000Y1329000D02*
D03*
X1178129Y1323279D02*
D03*
X1360000Y1301000D02*
D03*
X1373000Y1314000D02*
D03*
X1414000Y1318000D02*
D03*
X1440000Y1339000D02*
D03*
X1118000Y1287000D02*
D03*
D23*
X1642000Y534000D02*
D03*
X1263000Y1277000D02*
D03*
X960000Y905000D02*
D03*
X960500Y936500D02*
D03*
X1063000Y1228000D02*
D03*
X953000Y1212000D02*
D03*
X951000Y1124000D02*
D03*
X1237000Y1213000D02*
D03*
X1632000Y1153000D02*
D03*
X1437000Y1226000D02*
D03*
X1533101Y1212477D02*
D03*
X1517500Y1065500D02*
D03*
X1517000Y1037000D02*
D03*
X1511000Y915000D02*
D03*
X1510500Y945500D02*
D03*
X1513000Y825000D02*
D03*
X1510000Y676000D02*
D03*
X1509000Y705000D02*
D03*
X1499000Y649000D02*
D03*
X1469000D02*
D03*
X989000Y1026000D02*
D03*
X965500Y785500D02*
D03*
X966000Y818000D02*
D03*
X1139000Y654000D02*
D03*
X1109000D02*
D03*
X1228000Y655000D02*
D03*
X1259000Y656000D02*
D03*
X1379000Y659000D02*
D03*
X1349000D02*
D03*
X1528000Y531000D02*
D03*
X1366789Y1212000D02*
D03*
X1514000Y798000D02*
D03*
X1521000Y1227000D02*
D03*
X1343000Y1210000D02*
D03*
X979000Y1212000D02*
D03*
X1120270Y1227000D02*
D03*
D24*
X1165000Y1306000D02*
D03*
X1395000Y1370000D02*
D03*
X1386000Y1344000D02*
D03*
D25*
X1095500Y796000D02*
D03*
Y840000D02*
D03*
X1103500Y796000D02*
D03*
Y840000D02*
D03*
X1111500Y796000D02*
D03*
Y840000D02*
D03*
X1119500Y796000D02*
D03*
Y840000D02*
D03*
X1127500Y796000D02*
D03*
Y840000D02*
D03*
X1135500Y796000D02*
D03*
Y840000D02*
D03*
X1143500Y796000D02*
D03*
Y840000D02*
D03*
X1151500Y796000D02*
D03*
Y840000D02*
D03*
X1159500Y796000D02*
D03*
Y840000D02*
D03*
X1167500Y796000D02*
D03*
Y840000D02*
D03*
X1175500Y796000D02*
D03*
Y840000D02*
D03*
X1183500Y796000D02*
D03*
Y840000D02*
D03*
X1191500Y796000D02*
D03*
Y840000D02*
D03*
X1199500Y796000D02*
D03*
Y840000D02*
D03*
X1207500Y796000D02*
D03*
Y840000D02*
D03*
X1215500Y796000D02*
D03*
Y840000D02*
D03*
X1223500Y796000D02*
D03*
Y840000D02*
D03*
X1231500Y796000D02*
D03*
Y840000D02*
D03*
X1239500Y796000D02*
D03*
Y840000D02*
D03*
X1247500Y796000D02*
D03*
Y840000D02*
D03*
X1255500Y796000D02*
D03*
Y840000D02*
D03*
X1263500Y796000D02*
D03*
Y840000D02*
D03*
X1271500Y796000D02*
D03*
Y840000D02*
D03*
X1279500Y796000D02*
D03*
Y840000D02*
D03*
X1287500Y796000D02*
D03*
Y840000D02*
D03*
X1295500Y796000D02*
D03*
Y840000D02*
D03*
X1303500Y796000D02*
D03*
Y840000D02*
D03*
X1311500Y796000D02*
D03*
Y840000D02*
D03*
X1319500Y796000D02*
D03*
Y840000D02*
D03*
X1327500Y796000D02*
D03*
Y840000D02*
D03*
D26*
X1404000Y1186750D02*
D03*
Y1140250D02*
D03*
X1424000Y1186750D02*
D03*
Y1140250D02*
D03*
X1444000Y1186750D02*
D03*
Y1140250D02*
D03*
X1464000Y1186750D02*
D03*
Y1140250D02*
D03*
X1484000Y1186750D02*
D03*
Y1140250D02*
D03*
X1504000Y1186750D02*
D03*
Y1140250D02*
D03*
X1524000Y1186750D02*
D03*
Y1140250D02*
D03*
X1544000Y1186750D02*
D03*
Y1140250D02*
D03*
D27*
X1364000Y1143000D02*
D03*
Y1184000D02*
D03*
X1344000Y1143000D02*
D03*
Y1184000D02*
D03*
X1324000Y1143000D02*
D03*
Y1184000D02*
D03*
X1304000Y1143000D02*
D03*
Y1184000D02*
D03*
X1284000Y1143000D02*
D03*
Y1184000D02*
D03*
X1264000Y1143000D02*
D03*
Y1184000D02*
D03*
X1244000Y1143000D02*
D03*
Y1184000D02*
D03*
X1224000Y1143000D02*
D03*
Y1184000D02*
D03*
X1204000Y1143000D02*
D03*
Y1184000D02*
D03*
X1184000Y1143000D02*
D03*
Y1184000D02*
D03*
X1164000Y1143000D02*
D03*
Y1184000D02*
D03*
X1144000Y1143000D02*
D03*
Y1184000D02*
D03*
X1124000Y1143000D02*
D03*
Y1184000D02*
D03*
X1104000Y1143000D02*
D03*
Y1184000D02*
D03*
X1084000Y1143000D02*
D03*
Y1184000D02*
D03*
X1064000Y1143000D02*
D03*
Y1184000D02*
D03*
X1044000Y1143000D02*
D03*
Y1184000D02*
D03*
X1024000Y1143000D02*
D03*
Y1184000D02*
D03*
X1004000Y1143000D02*
D03*
Y1184000D02*
D03*
X984000Y1143000D02*
D03*
Y1184000D02*
D03*
D28*
X901000Y1307000D02*
D03*
X821000Y1336000D02*
D03*
Y1307000D02*
D03*
D29*
X1244500Y1277000D02*
D03*
X1225500D02*
D03*
X1489500Y1227000D02*
D03*
X1470500D02*
D03*
X1468500Y625000D02*
D03*
X1487500D02*
D03*
X1349500D02*
D03*
X1368500D02*
D03*
X1228500D02*
D03*
X1247500D02*
D03*
X1108500Y624000D02*
D03*
X1127500D02*
D03*
X988000D02*
D03*
X1007000D02*
D03*
X960000Y1230000D02*
D03*
X979000D02*
D03*
X1100000D02*
D03*
X1081000D02*
D03*
X871500Y1175000D02*
D03*
X852500D02*
D03*
X837500Y1141000D02*
D03*
X818500D02*
D03*
X770000Y1227000D02*
D03*
X789000D02*
D03*
X770500Y1200000D02*
D03*
X789500D02*
D03*
X1180000Y1305000D02*
D03*
X1199000D02*
D03*
X1025000Y1366000D02*
D03*
X1044000D02*
D03*
D30*
X1360000Y1228000D02*
D03*
Y1247000D02*
D03*
X1601000Y1153500D02*
D03*
Y1172500D02*
D03*
X1540000Y1037000D02*
D03*
Y1056000D02*
D03*
Y915500D02*
D03*
Y934500D02*
D03*
Y797500D02*
D03*
Y816500D02*
D03*
Y676500D02*
D03*
Y695500D02*
D03*
X938000Y696000D02*
D03*
Y677000D02*
D03*
Y818000D02*
D03*
Y799000D02*
D03*
Y936500D02*
D03*
Y917500D02*
D03*
X962000Y1054000D02*
D03*
Y1035000D02*
D03*
X938000Y1176500D02*
D03*
Y1157500D02*
D03*
X883000Y1101000D02*
D03*
Y1082000D02*
D03*
X1572000Y539000D02*
D03*
Y558000D02*
D03*
X1614000Y540000D02*
D03*
Y559000D02*
D03*
X1465910Y526270D02*
D03*
Y507270D02*
D03*
D31*
X915000Y1078330D02*
D03*
Y1105000D02*
D03*
D32*
X810000Y1017000D02*
D03*
D33*
X848100Y1090050D02*
D03*
X835400D02*
D03*
X822700D02*
D03*
X810000D02*
D03*
X797300D02*
D03*
X784600D02*
D03*
X771900D02*
D03*
D34*
X853500Y1199000D02*
D03*
X870500D02*
D03*
X824000Y1174000D02*
D03*
X807000D02*
D03*
X770000Y1149000D02*
D03*
X787000D02*
D03*
X786500Y1174000D02*
D03*
X769500D02*
D03*
X853500Y1226000D02*
D03*
X870500D02*
D03*
X1460500Y462000D02*
D03*
X1477500D02*
D03*
D35*
X1129000Y1299500D02*
D03*
Y1306000D02*
D03*
Y1312500D02*
D03*
Y1319000D02*
D03*
Y1325500D02*
D03*
Y1332000D02*
D03*
Y1338500D02*
D03*
Y1345000D02*
D03*
Y1351500D02*
D03*
Y1358000D02*
D03*
X1073000D02*
D03*
Y1351500D02*
D03*
Y1345000D02*
D03*
Y1338500D02*
D03*
Y1332000D02*
D03*
Y1325500D02*
D03*
Y1319000D02*
D03*
Y1312500D02*
D03*
Y1306000D02*
D03*
Y1299500D02*
D03*
D36*
X1441500Y501000D02*
D03*
X1432000D02*
D03*
X1422500D02*
D03*
Y527000D02*
D03*
X1441500D02*
D03*
D37*
X1614000Y516000D02*
D03*
Y499000D02*
D03*
X1544000Y499500D02*
D03*
Y516500D02*
D03*
X1572000Y515500D02*
D03*
Y498500D02*
D03*
X1642000Y499000D02*
D03*
Y516000D02*
D03*
D38*
X1223000Y1338500D02*
D03*
Y1332000D02*
D03*
Y1325500D02*
D03*
X1242000D02*
D03*
Y1332000D02*
D03*
Y1338500D02*
D03*
D39*
X770000Y1200500D02*
Y1227000D01*
Y1200500D02*
X770500Y1200000D01*
Y1175000D02*
Y1200000D01*
X769500Y1174000D02*
X770500Y1175000D01*
X769500Y1149500D02*
Y1174000D01*
Y1149500D02*
X770000Y1149000D01*
X871500Y1128500D02*
X883000Y1117000D01*
Y1101000D02*
Y1117000D01*
X1324000Y1184000D02*
X1344000D01*
X1324000D02*
Y1364000D01*
X862000Y1268000D02*
X901000Y1307000D01*
X770000Y1227000D02*
Y1242000D01*
X796000Y1268000D01*
X862000D01*
X1287000Y1401000D02*
X1324000Y1364000D01*
X901000Y1309153D02*
X992847Y1401000D01*
X1287000D01*
D40*
X883000Y1101000D02*
X887000Y1105000D01*
X915000D01*
D41*
X901000Y1307000D02*
Y1309153D01*
M02*
