G04 Layer_Color=8421504*
%FSLAX44Y44*%
%MOMM*%
G71*
G01*
G75*
%ADD10R,2.0000X1.1000*%
%ADD11R,1.1000X2.0000*%
D10*
X1099000Y1260750D02*
D03*
Y1243750D02*
D03*
Y1226750D02*
D03*
X1139000D02*
D03*
Y1243750D02*
D03*
Y1260750D02*
D03*
X979000D02*
D03*
Y1243750D02*
D03*
Y1226750D02*
D03*
X1019000D02*
D03*
Y1243750D02*
D03*
Y1260750D02*
D03*
X1139000Y590250D02*
D03*
Y607250D02*
D03*
Y624250D02*
D03*
X1099000D02*
D03*
Y607250D02*
D03*
Y590250D02*
D03*
X1259000D02*
D03*
Y607250D02*
D03*
Y624250D02*
D03*
X1219000D02*
D03*
Y607250D02*
D03*
Y590250D02*
D03*
Y1260750D02*
D03*
Y1243750D02*
D03*
Y1226750D02*
D03*
X1259000D02*
D03*
Y1243750D02*
D03*
Y1260750D02*
D03*
X1339000D02*
D03*
Y1243750D02*
D03*
Y1226750D02*
D03*
X1379000D02*
D03*
Y1243750D02*
D03*
Y1260750D02*
D03*
X1459000D02*
D03*
Y1243750D02*
D03*
Y1226750D02*
D03*
X1499000D02*
D03*
Y1243750D02*
D03*
Y1260750D02*
D03*
Y590250D02*
D03*
Y607250D02*
D03*
Y624250D02*
D03*
X1459000D02*
D03*
Y607250D02*
D03*
Y590250D02*
D03*
X1379000D02*
D03*
Y607250D02*
D03*
Y624250D02*
D03*
X1339000D02*
D03*
Y607250D02*
D03*
Y590250D02*
D03*
X1019000D02*
D03*
Y607250D02*
D03*
Y624250D02*
D03*
X979000D02*
D03*
Y607250D02*
D03*
Y590250D02*
D03*
D11*
X903750Y1145500D02*
D03*
X920750D02*
D03*
X937750D02*
D03*
Y1185500D02*
D03*
X920750D02*
D03*
X903750D02*
D03*
Y1025500D02*
D03*
X920750D02*
D03*
X937750D02*
D03*
Y1065500D02*
D03*
X920750D02*
D03*
X903750D02*
D03*
Y905500D02*
D03*
X920750D02*
D03*
X937750D02*
D03*
Y945500D02*
D03*
X920750D02*
D03*
X903750D02*
D03*
Y785500D02*
D03*
X920750D02*
D03*
X937750D02*
D03*
Y825500D02*
D03*
X920750D02*
D03*
X903750D02*
D03*
Y665500D02*
D03*
X920750D02*
D03*
X937750D02*
D03*
Y705500D02*
D03*
X920750D02*
D03*
X903750D02*
D03*
X1574250Y1185500D02*
D03*
X1557250D02*
D03*
X1540250D02*
D03*
Y1145500D02*
D03*
X1557250D02*
D03*
X1574250D02*
D03*
Y1065500D02*
D03*
X1557250D02*
D03*
X1540250D02*
D03*
Y1025500D02*
D03*
X1557250D02*
D03*
X1574250D02*
D03*
Y945500D02*
D03*
X1557250D02*
D03*
X1540250D02*
D03*
Y905500D02*
D03*
X1557250D02*
D03*
X1574250D02*
D03*
Y825500D02*
D03*
X1557250D02*
D03*
X1540250D02*
D03*
Y785500D02*
D03*
X1557250D02*
D03*
X1574250D02*
D03*
Y705500D02*
D03*
X1557250D02*
D03*
X1540250D02*
D03*
Y665500D02*
D03*
X1557250D02*
D03*
X1574250D02*
D03*
M02*
