<?xml version="1.0" encoding="UTF-8" standalone="no"?>
<!-- Created with Inkscape (http://www.inkscape.org/) -->

<svg
   xmlns:dc="http://purl.org/dc/elements/1.1/"
   xmlns:cc="http://creativecommons.org/ns#"
   xmlns:rdf="http://www.w3.org/1999/02/22-rdf-syntax-ns#"
   xmlns:svg="http://www.w3.org/2000/svg"
   xmlns="http://www.w3.org/2000/svg"
   xmlns:sodipodi="http://sodipodi.sourceforge.net/DTD/sodipodi-0.dtd"
   xmlns:inkscape="http://www.inkscape.org/namespaces/inkscape"
   width="210mm"
   height="297mm"
   viewBox="0 0 744.09448819 1052.3622047"
   id="svg4700"
   version="1.1"
   inkscape:version="0.91 r13725"
   sodipodi:docname="IEEE_LOGO.svg">
  <defs
     id="defs4702" />
  <sodipodi:namedview
     id="base"
     pagecolor="#ffffff"
     bordercolor="#666666"
     borderopacity="1.0"
     inkscape:pageopacity="0.0"
     inkscape:pageshadow="2"
     inkscape:zoom="0.12374369"
     inkscape:cx="-1969.0162"
     inkscape:cy="-252.34631"
     inkscape:document-units="px"
     inkscape:current-layer="layer1"
     showgrid="false"
     inkscape:window-width="1855"
     inkscape:window-height="1056"
     inkscape:window-x="65"
     inkscape:window-y="372"
     inkscape:window-maximized="1" />
  <metadata
     id="metadata4705">
    <rdf:RDF>
      <cc:Work
         rdf:about="">
        <dc:format>image/svg+xml</dc:format>
        <dc:type
           rdf:resource="http://purl.org/dc/dcmitype/StillImage" />
        <dc:title></dc:title>
      </cc:Work>
    </rdf:RDF>
  </metadata>
  <g
     inkscape:label="Layer 1"
     inkscape:groupmode="layer"
     id="layer1">
    <path
       id="path4616"
       d="m 407.70062,40.245349 c 8.50717,10.78541 17.45496,22.08156 26.65811,32.31119 l 22.7325,23.74395 c 20.20813,20.137821 42.24428,38.353761 65.82411,54.412791 l 0.76109,0.12017 c 3.01743,1.99048 4.97652,5.23539 5.33262,8.83263 -0.12017,7.55079 -8.8176,9.06796 -13.38914,13.13377 -45.52008,33.00719 -86.27334,73.88563 -118.39927,119.41072 l -2.5887,2.60372 c -2.60873,1.59228 -5.97354,0.95637 -8.70747,0 -3.48998,-1.14664 -3.8655,-4.94707 -6.09371,-7.30544 -7.10516,-11.04079 -16.18812,-21.38558 -23.92921,-31.66527 -4.57153,-4.64665 -8.38198,-9.52362 -13.07868,-14.4757 -26.41276,-28.96641 -56.12524,-54.3527 -87.16463,-75.74328 -2.22315,-2.22819 -4.06579,-5.15237 -3.04933,-8.70244 0.95636,-3.93563 5.52288,-6.28399 8.57224,-8.69243 38.78546,-26.60304 74.34129,-61.322671 104.35918,-98.530871 l 18.73681,-24.37985 c 2.46852,-1.89271 5.77825,-3.47998 8.8176,-2.14807 1.397,0.37553 2.98927,1.64235 4.25609,2.39843 z"
       inkscape:connector-curvature="0"
       style="clip-rule:evenodd;fill:#366db4;fill-rule:evenodd"
       sodipodi:nodetypes="ccccccccccccccccccccc" />
    <path
       id="path4618"
       d="M 380.9073,61.130199"
       inkscape:connector-curvature="0"
       style="clip-rule:evenodd;fill:#ffffff;fill-rule:evenodd" />
    <path
       id="path4620"
       d="m 384.27714,66.713189 c -29.01649,20.05867 -56.9464,47.227511 -79.41856,74.967171 -4.57652,6.73463 -12.57295,13.1488 -8.95279,22.10661 2.60373,6.59943 8.44708,11.35623 12.19244,17.19458 22.02147,26.47285 48.05369,51.16815 75.21753,71.04156 11.93707,7.61589 20.44423,-4.69671 29.71248,-10.3548 18.98213,-14.9714 36.56728,-33.19245 53.20106,-50.90277 l 0,-0.44063 c 6.65952,-8.06653 13.7096,-15.99787 18.91203,-24.69531 2.29328,-4.2661 1.14665,-10.10444 -1.402,-13.8498 -20.12377,-29.14166 -46.52652,-54.908501 -74.52154,-77.445721 -7.24035,-5.08226 -15.61733,-13.96496 -24.94065,-7.62089 z"
       inkscape:connector-curvature="0"
       style="clip-rule:evenodd;fill:#366db4;fill-rule:evenodd" />
    <path
       id="path4622"
       d="m 390.17557,84.999329 -2.53362,8.12161 -12.69818,36.382011 c 3.17457,0.31045 7.11018,0 10.21962,0.31045 l 0,0.32046 -1.84261,41.1338 0.32043,0.45065 c 4.06583,0.37053 9.13307,0.5658 13.26398,-0.13519 l 0,-0.6259 -1.65236,-39.93209 0.25536,-1.3319 11.17097,-0.19028"
       inkscape:connector-curvature="0"
       style="clip-rule:evenodd;fill:#ffffff;fill-rule:evenodd" />
    <path
       id="path4624"
       d="m 346.94877,142.00082 c -7.12018,3.55508 -17.59015,8.96281 -16.4435,18.72177 1.52217,5.33763 7.30043,8.76253 11.87196,10.99071 25.26113,11.11089 58.78905,11.49143 85.44215,3.16953 6.60445,-2.53362 15.43207,-6.20888 16.63379,-14.28042 -0.0651,-6.67454 -7.11017,-10.85551 -12.19244,-13.39414 l 0,-0.31545 c 1.77254,-0.696 3.81546,-1.33692 5.65309,-1.53219 l 0,-0.19028 c -8.9528,-1.58727 -17.59015,-3.93562 -26.21748,-6.21889 1.65236,3.80544 2.85407,7.80616 4.25608,11.7518 a 47.477876,47.477876 0 0 1 8.05652,-1.85265 c 4.57654,1.78255 11.11088,4.32118 11.74679,10.02934 0.51073,5.33763 -5.33262,7.93134 -9.01288,10.09443 -19.55296,7.11017 -41.58445,7.81618 -61.9636,2.41346 -5.64306,-1.77254 -13.77469,-4.06582 -14.47068,-11.22606 4.0007,-9.45852 14.35054,-11.43634 22.97787,-13.7146 -4.44136,-2.8641 -8.94781,-5.40273 -13.264,-8.57726 -4.63161,0.26538 -8.88268,2.29327 -13.07367,4.1309 z m 36.11663,41.01364 c -0.75607,14.60087 -0.94636,28.12521 -2.02788,42.79618 5.77825,0.51073 12.31259,1.01645 18.47139,0.11517 l -1.84263,-40.81836 -0.32046,-1.96782 c -4.69171,0.19529 -9.13306,0.38055 -14.28042,-0.12517 z"
       inkscape:connector-curvature="0"
       style="clip-rule:evenodd;fill:#ffffff;fill-rule:evenodd" />
    <path
       id="path4626"
       d="m 436.16632,274.40511 0,-2.49356 1.55222,0 c 0.8412,0 1.98283,0.0801 1.98283,1.13663 0,1.14663 -0.58584,1.35693 -1.57224,1.35693 l -1.96281,0 z m 0,1.7475 1.04649,0 2.37841,4.34121 2.62375,0 -2.64378,-4.51646 c 1.37697,-0.11516 2.48855,-0.80114 2.48855,-2.69886 0,-2.36838 -1.57224,-3.11946 -4.24106,-3.11946 l -3.86052,0 0,10.33478 2.20315,0 0,-4.34121 0.005,0 z m 11.23105,-0.82117 c 0,-6.07369 -4.5515,-9.60373 -9.63377,-9.60373 -5.10229,0 -9.6538,3.53004 -9.6538,9.60373 0,6.07368 4.55151,9.61374 9.6538,9.61374 5.08227,0 9.63377,-3.54006 9.63377,-9.61374 z m -2.76895,0 c 0,4.42132 -3.15451,7.40559 -6.86482,7.40559 l 0,-0.03 c -3.80544,0.03 -6.87983,-2.95422 -6.87983,-7.37554 0,-4.42132 3.07439,-7.36554 6.87983,-7.36554 3.71031,0.005 6.86482,2.94922 6.86482,7.36554 z"
       inkscape:connector-curvature="0"
       style="clip-rule:evenodd;fill:#366db4;fill-rule:evenodd" />
    <g
       id="g4653"
       transform="matrix(12.969765,0,0,12.969765,-1008.3639,-610.02751)"
       style="clip-rule:evenodd;fill-rule:evenodd">
      <path
         id="path4657"
         d="m 83.293363,91.900042 3.85094,0 0,13.902408 -3.85094,0 z m 5.872137,13.902408 0,-13.902408 10.591515,0 0,2.69548 -6.740239,0 0,2.86911 6.200199,0 0,2.695828 -6.200199,0 0,2.94616 6.740239,0 0,2.69583 z m 12.74764,0 0,-13.902408 10.5905,0 0,2.69548 -6.7399,0 0,2.86911 6.20054,0 0,2.695828 -6.20054,0 0,2.94616 6.7399,0 0,2.69583 z m 12.7473,0 0,-13.902408 10.59051,0 0,2.69548 -6.73991,0 0,2.86911 6.2002,0 0,2.695828 -6.2002,0 0,2.94616 6.73991,0 0,2.69583 z"
         inkscape:connector-curvature="0"
         style="fill:#366db4"
         sodipodi:nodetypes="cccccccccccccccccccccccccccccccccccccccccccc" />
      <path
         id="path4659"
         d="M 28.515,76.787"
         inkscape:connector-curvature="0"
         style="fill:#ffffff" />
    </g>
  </g>
</svg>
