<?xml version="1.0" encoding="UTF-8" standalone="no"?>
<svg
   xmlns:dc="http://purl.org/dc/elements/1.1/"
   xmlns:cc="http://creativecommons.org/ns#"
   xmlns:rdf="http://www.w3.org/1999/02/22-rdf-syntax-ns#"
   xmlns:svg="http://www.w3.org/2000/svg"
   xmlns="http://www.w3.org/2000/svg"
   xmlns:sodipodi="http://sodipodi.sourceforge.net/DTD/sodipodi-0.dtd"
   xmlns:inkscape="http://www.inkscape.org/namespaces/inkscape"
   version="1.1"
   width="348.7mm"
   height="206.7mm"
   viewBox=" 0 0 1235.552197 732.4021769999999"
   id="svg7874"
   sodipodi:docname="LED_Cube_Base.svg"
   inkscape:version="0.92.2 (5c3e80d, 2017-08-06)">
  <metadata
     id="metadata7880">
    <rdf:RDF>
      <cc:Work
         rdf:about="">
        <dc:format>image/svg+xml</dc:format>
        <dc:type
           rdf:resource="http://purl.org/dc/dcmitype/StillImage" />
        <dc:title />
      </cc:Work>
    </rdf:RDF>
  </metadata>
  <defs
     id="defs7878" />
  <sodipodi:namedview
     pagecolor="#ffffff"
     bordercolor="#666666"
     borderopacity="1"
     objecttolerance="10"
     gridtolerance="10"
     guidetolerance="10"
     inkscape:pageopacity="0"
     inkscape:pageshadow="2"
     inkscape:window-width="1920"
     inkscape:window-height="1046"
     id="namedview7876"
     showgrid="false"
     inkscape:zoom="0.70710678"
     inkscape:cx="53.177932"
     inkscape:cy="174.04672"
     inkscape:window-x="-11"
     inkscape:window-y="-11"
     inkscape:window-maximized="1"
     inkscape:current-layer="svg7874" />
  <!-- Front-->
  <g
     transform="translate(22.500018499999996, 22.500018499999996) "
     id="g7852">
    <polygon
       style="stroke:#FF0000; fill:none; stroke-width:0.90000074"
       points="0, 0 35.433099999999996, 0 35.433099999999996, 21.25986 70.86619999999999, 21.25986 70.86619999999999, 0 99.21267999999999, 0 99.21267999999999, 21.25986 127.55915999999999, 21.25986 127.55915999999999, 0 155.90564, 0 155.90564, 21.25986 184.25212, 21.25986 184.25212, 0 212.59859999999998, 0 212.59859999999998, 21.25986 240.94508, 21.25986 240.94508, 0 269.29156, 0 269.29156, 21.25986 297.63804, 21.25986 297.63804, 0 325.98452, 0 325.98452, 21.25986 361.41761999999994, 21.25986 361.41761999999994, 0 396.85072, 0 396.85072, 37.204755 375.59086, 37.204755 375.59086, 74.40951 396.85072, 74.40951 396.85072, 102.75599 375.59086, 102.75599 375.59086, 131.10246999999998 396.85072, 131.10246999999998 396.85072, 159.44895 375.59086, 159.44895 375.59086, 187.79543 396.85072, 187.79543 396.85072, 216.14191 375.59086, 216.14191 375.59086, 253.34666499999997 396.85072, 253.34666499999997 396.85071999999997, 290.55142 361.41761999999994, 290.55142 361.41761999999994, 269.29156 325.98452, 269.29156 325.98452, 290.55142 297.63804, 290.55142 297.63804, 269.29156 269.29156, 269.29156 269.29156, 290.55142 240.94508, 290.55142 240.94508, 269.29156 212.59859999999998, 269.29156 212.59859999999998, 290.55142 184.25212, 290.55142 184.25212, 269.29156 155.90564, 269.29156 155.90564, 290.55142 127.55915999999999, 290.55142 127.55915999999999, 269.29156 99.21267999999999, 269.29156 99.21267999999999, 290.55142 70.86619999999999, 290.55142 70.86619999999999, 269.29156 35.433099999999996, 269.29156 35.433099999999996, 290.55142 0, 290.55142 0, 253.34666499999997 21.25986, 253.34666499999997 21.25986, 216.14191 0, 216.14191 0, 187.79543 21.25986, 187.79543 21.25986, 159.44895 0, 159.44895 0, 131.10246999999998 21.25986, 131.10246999999998 21.25986, 102.75599 0, 102.75599 0, 74.40951 21.25986, 74.40951 21.25986, 37.204755 0, 37.204755 "
       id="polygon7850" />
  </g>
  <!-- Back-->
  <g
     transform="translate(419.3507385, 22.500018499999996) "
     id="g7856">
    <polygon
       style="stroke:#FF0000; fill:none; stroke-width:0.90000074"
       points="0, 0 35.433099999999996, 0 35.433099999999996, 21.25986 70.86619999999999, 21.25986 70.86619999999999, 0 99.21267999999999, 0 99.21267999999999, 21.25986 127.55915999999999, 21.25986 127.55915999999999, 0 155.90564, 0 155.90564, 21.25986 184.25212, 21.25986 184.25212, 0 212.59859999999998, 0 212.59859999999998, 21.25986 240.94508, 21.25986 240.94508, 0 269.29156, 0 269.29156, 21.25986 297.63804, 21.25986 297.63804, 0 325.98452, 0 325.98452, 21.25986 361.41761999999994, 21.25986 361.41761999999994, 0 396.85072, 0 396.85072, 37.204755 375.59086, 37.204755 375.59086, 74.40951 396.85072, 74.40951 396.85072, 102.75599 375.59086, 102.75599 375.59086, 131.10246999999998 396.85072, 131.10246999999998 396.85072, 159.44895 375.59086, 159.44895 375.59086, 187.79543 396.85072, 187.79543 396.85072, 216.14191 375.59086, 216.14191 375.59086, 253.34666499999997 396.85072, 253.34666499999997 396.85071999999997, 290.55142 361.41761999999994, 290.55142 361.41761999999994, 269.29156 325.98452, 269.29156 325.98452, 290.55142 297.63804, 290.55142 297.63804, 269.29156 269.29156, 269.29156 269.29156, 290.55142 240.94508, 290.55142 240.94508, 269.29156 212.59859999999998, 269.29156 212.59859999999998, 290.55142 184.25212, 290.55142 184.25212, 269.29156 155.90564, 269.29156 155.90564, 290.55142 127.55915999999999, 290.55142 127.55915999999999, 269.29156 99.21267999999999, 269.29156 99.21267999999999, 290.55142 70.86619999999999, 290.55142 70.86619999999999, 269.29156 35.433099999999996, 269.29156 35.433099999999996, 290.55142 0, 290.55142 0, 253.34666499999997 21.25986, 253.34666499999997 21.25986, 216.14191 0, 216.14191 0, 187.79543 21.25986, 187.79543 21.25986, 159.44895 0, 159.44895 0, 131.10246999999998 21.25986, 131.10246999999998 21.25986, 102.75599 0, 102.75599 0, 74.40951 21.25986, 74.40951 21.25986, 37.204755 0, 37.204755 "
       id="polygon7854" />
  </g>
  <!-- Left-->
  <g
     transform="translate(816.2014585, 22.500018499999996) "
     id="g7860">
    <polygon
       style="stroke:#FF0000; fill:none; stroke-width:0.90000074"
       points="21.25986, 0 35.433099999999996, 0 35.433099999999996, 21.25986 70.86619999999999, 21.25986 70.86619999999999, 0 99.21267999999999, 0 99.21267999999999, 21.25986 127.55915999999999, 21.25986 127.55915999999999, 0 155.90564, 0 155.90564, 21.25986 184.25212, 21.25986 184.25212, 0 212.59859999999998, 0 212.59859999999998, 21.25986 240.94508, 21.25986 240.94508, 0 269.29156, 0 269.29156, 21.25986 297.63804, 21.25986 297.63804, 0 325.98452, 0 325.98452, 21.25986 361.41761999999994, 21.25986 361.41761999999994, 0 375.59086, 0 375.59086, 37.204755 396.85072, 37.204755 396.85072, 74.40951 375.59086, 74.40951 375.59086, 102.75599 396.85072, 102.75599 396.85072, 131.10246999999998 375.59086, 131.10246999999998 375.59086, 159.44895 396.85072, 159.44895 396.85072, 187.79543 375.59086, 187.79543 375.59086, 216.14191 396.85072, 216.14191 396.85072, 253.34666499999997 375.59086, 253.34666499999997 375.59085999999996, 290.55142 361.41761999999994, 290.55142 361.41761999999994, 269.29156 325.98452, 269.29156 325.98452, 290.55142 297.63804, 290.55142 297.63804, 269.29156 269.29156, 269.29156 269.29156, 290.55142 240.94508, 290.55142 240.94508, 269.29156 212.59859999999998, 269.29156 212.59859999999998, 290.55142 184.25212, 290.55142 184.25212, 269.29156 155.90564, 269.29156 155.90564, 290.55142 127.55915999999999, 290.55142 127.55915999999999, 269.29156 99.21267999999999, 269.29156 99.21267999999999, 290.55142 70.86619999999999, 290.55142 70.86619999999999, 269.29156 35.433099999999996, 269.29156 35.433099999999996, 290.55142 21.25986, 290.55142 21.25986, 253.34666499999997 0, 253.34666499999997 0, 216.14191 21.25986, 216.14191 21.25986, 187.79543 0, 187.79543 0, 159.44895 21.25986, 159.44895 21.25986, 131.10246999999998 0, 131.10246999999998 0, 102.75599 21.25986, 102.75599 21.25986, 74.40951 0, 74.40951 0, 37.204755 21.25986, 37.204755 "
       id="polygon7858" />
  </g>
  <!-- Right-->
  <g
     transform="translate(816.2014585, 313.05143849999996) "
     id="g7864">
    <polygon
       style="stroke:#FF0000; fill:none; stroke-width:0.90000074"
       points="21.25986, 0 35.433099999999996, 0 35.433099999999996, 21.25986 70.86619999999999, 21.25986 70.86619999999999, 0 99.21267999999999, 0 99.21267999999999, 21.25986 127.55915999999999, 21.25986 127.55915999999999, 0 155.90564, 0 155.90564, 21.25986 184.25212, 21.25986 184.25212, 0 212.59859999999998, 0 212.59859999999998, 21.25986 240.94508, 21.25986 240.94508, 0 269.29156, 0 269.29156, 21.25986 297.63804, 21.25986 297.63804, 0 325.98452, 0 325.98452, 21.25986 361.41761999999994, 21.25986 361.41761999999994, 0 375.59086, 0 375.59086, 37.204755 396.85072, 37.204755 396.85072, 74.40951 375.59086, 74.40951 375.59086, 102.75599 396.85072, 102.75599 396.85072, 131.10246999999998 375.59086, 131.10246999999998 375.59086, 159.44895 396.85072, 159.44895 396.85072, 187.79543 375.59086, 187.79543 375.59086, 216.14191 396.85072, 216.14191 396.85072, 253.34666499999997 375.59086, 253.34666499999997 375.59085999999996, 290.55142 361.41761999999994, 290.55142 361.41761999999994, 269.29156 325.98452, 269.29156 325.98452, 290.55142 297.63804, 290.55142 297.63804, 269.29156 269.29156, 269.29156 269.29156, 290.55142 240.94508, 290.55142 240.94508, 269.29156 212.59859999999998, 269.29156 212.59859999999998, 290.55142 184.25212, 290.55142 184.25212, 269.29156 155.90564, 269.29156 155.90564, 290.55142 127.55915999999999, 290.55142 127.55915999999999, 269.29156 99.21267999999999, 269.29156 99.21267999999999, 290.55142 70.86619999999999, 290.55142 70.86619999999999, 269.29156 35.433099999999996, 269.29156 35.433099999999996, 290.55142 21.25986, 290.55142 21.25986, 253.34666499999997 0, 253.34666499999997 0, 216.14191 21.25986, 216.14191 21.25986, 187.79543 0, 187.79543 0, 159.44895 21.25986, 159.44895 21.25986, 131.10246999999998 0, 131.10246999999998 0, 102.75599 21.25986, 102.75599 21.25986, 74.40951 0, 74.40951 0, 37.204755 21.25986, 37.204755 "
       id="polygon7862" />
  </g>
  <!-- Top-->
  <g
     transform="translate(22.500018499999996, 313.05143849999996) "
     id="g7868" />
  <!-- Bottom-->
  <g
     transform="translate(419.3507385, 313.05143849999996) "
     id="g7872">
    <polygon
       style="stroke:#FF0000; fill:none; stroke-width:0.90000074"
       points="21.25986, 21.25986 35.433099999999996, 21.25986 35.433099999999996, 0 70.86619999999999, 0 70.86619999999999, 21.25986 99.21267999999999, 21.25986 99.21267999999999, 0 127.55915999999999, 0 127.55915999999999, 21.25986 155.90564, 21.25986 155.90564, 0 184.25212, 0 184.25212, 21.25986 212.59859999999998, 21.25986 212.59859999999998, 0 240.94508, 0 240.94508, 21.25986 269.29156, 21.25986 269.29156, 0 297.63804, 0 297.63804, 21.25986 325.98452, 21.25986 325.98452, 0 361.41761999999994, 0 361.41761999999994, 21.25986 375.59086, 21.25986 375.59086, 35.433099999999996 396.85072, 35.433099999999996 396.85072, 70.86619999999999 375.59086, 70.86619999999999 375.59086, 99.21267999999999 396.85072, 99.21267999999999 396.85072, 127.55915999999999 375.59086, 127.55915999999999 375.59086, 155.90564 396.85072, 155.90564 396.85072, 184.25212 375.59086, 184.25212 375.59086, 212.59859999999998 396.85072, 212.59859999999998 396.85072, 240.94508 375.59086, 240.94508 375.59086, 269.29156 396.85072, 269.29156 396.85072, 297.63804 375.59086, 297.63804 375.59086, 325.98452 396.85072, 325.98452 396.85072, 361.41761999999994 375.59086, 361.41761999999994 375.59085999999996, 375.59086 361.41761999999994, 375.59086 361.41761999999994, 396.85072 325.98452, 396.85072 325.98452, 375.59086 297.63804, 375.59086 297.63804, 396.85072 269.29156, 396.85072 269.29156, 375.59086 240.94508, 375.59086 240.94508, 396.85072 212.59859999999998, 396.85072 212.59859999999998, 375.59086 184.25212, 375.59086 184.25212, 396.85072 155.90564, 396.85072 155.90564, 375.59086 127.55915999999999, 375.59086 127.55915999999999, 396.85072 99.21267999999999, 396.85072 99.21267999999999, 375.59086 70.86619999999999, 375.59086 70.86619999999999, 396.85072 35.433099999999996, 396.85072 35.433099999999996, 375.59086 21.25986, 375.59085999999996 21.25986, 361.41761999999994 0, 361.41761999999994 0, 325.98452 21.25986, 325.98452 21.25986, 297.63804 0, 297.63804 0, 269.29156 21.25986, 269.29156 21.25986, 240.94508 0, 240.94508 0, 212.59859999999998 21.25986, 212.59859999999998 21.25986, 184.25212 0, 184.25212 0, 155.90564 21.25986, 155.90564 21.25986, 127.55915999999999 0, 127.55915999999999 0, 99.21267999999999 21.25986, 99.21267999999999 21.25986, 70.86619999999999 0, 70.86619999999999 0, 35.433099999999996 21.25986, 35.433099999999996 "
       id="polygon7870" />
  </g>
  <g
     id="g7140"
     transform="translate(22.500018,313.05144)">
    <path
       style="fill:none;stroke:#ff0000;stroke-width:0.90000075"
       d="m 127.55916,0 v 21.25986 h 28.34648 V 0 h 28.34648 V 21.25986 H 212.5986 V 0 h 28.34648 v 21.25986 h 28.34648 V 0 h 28.34648 v 21.25986 h 28.34648 V 0 h 35.4331 v 21.25986 h 14.17324 V 35.4331 h 21.25986 v 35.4331 h -21.25986 v 28.34648 h 21.25986 v 28.34648 h -21.25986 v 28.34648 h 21.25986 v 28.34648 h -21.25986 v 28.34648 h 21.25986 v 28.34648 h -21.25986 v 28.34648 h 21.25986 v 28.34648 h -21.25986 v 28.34648 h 21.25986 v 35.4331 h -21.25986 v 14.17324 h -14.17324 v 21.25986 h -35.4331 v -21.25986 h -28.34648 v 21.25986 h -28.34648 v -21.25986 h -28.34648 v 21.25986 H 212.5986 v -21.25986 h -28.34648 v 21.25986 h -28.34648 v -21.25986 h -28.34648 v 21.25986 H 99.21268 V 375.59086 H 70.8662 v 21.25986 H 35.4331 V 375.59086 H 21.25986 V 361.41762 H 0 v -35.4331 H 21.25986 V 297.63804 H 0 V 269.29156 H 21.25986 V 240.94508 H 0 V 212.5986 H 21.25986 V 184.25212 H 0 V 155.90564 H 21.25986 V 127.55916 H 0 V 99.21268 H 21.25986 V 70.8662 H 0 V 35.4331 h 21.259843 l 1.7e-5,-14.172224 14.17324,-0.001 V 1.6e-5 h 35.4331 v 21.25986 H 99.21268 V 1.6e-5 Z"
       id="polygon7142"
       inkscape:connector-curvature="0"
       sodipodi:nodetypes="ccccccccccccccccccccccccccccccccccccccccccccccccccccccccccccccccccccccccccccccccccccccccccccccccccccc" />
  </g>
  <rect
     style="fill:none;fill-opacity:1;stroke:#ff0000;stroke-width:1.17001736;stroke-miterlimit:4;stroke-dasharray:none;stroke-opacity:1"
     id="rect7168"
     width="250.75932"
     height="250.75932"
     x="95.723053"
     y="385.9202" />
  <circle
     style="fill:none;fill-opacity:1;stroke:#ff0000;stroke-width:0.90941668;stroke-miterlimit:4;stroke-dasharray:none;stroke-opacity:1"
     id="path7208"
     cx="58.922298"
     cy="347.70306"
     r="5.7460842" />
  <circle
     style="fill:none;fill-opacity:1;stroke:#ff0000;stroke-width:0.90941668;stroke-miterlimit:4;stroke-dasharray:none;stroke-opacity:1"
     id="path7208-3"
     cx="384.70013"
     cy="347.70306"
     r="5.7460842" />
  <circle
     style="fill:none;fill-opacity:1;stroke:#ff0000;stroke-width:0.90941668;stroke-miterlimit:4;stroke-dasharray:none;stroke-opacity:1"
     id="path7208-1"
     cx="58.922298"
     cy="673.48096"
     r="5.7460842" />
  <circle
     style="fill:none;fill-opacity:1;stroke:#ff0000;stroke-width:0.90941668;stroke-miterlimit:4;stroke-dasharray:none;stroke-opacity:1"
     id="path7208-3-9"
     cx="384.70013"
     cy="673.48096"
     r="5.7460842" />
  <circle
     style="fill:none;fill-opacity:1;stroke:#ff0000;stroke-width:1.38030219;stroke-miterlimit:4;stroke-dasharray:none;stroke-opacity:1"
     id="path7361"
     cx="1014.6268"
     cy="458.32715"
     r="43.955555" />
  <path
     style="fill:none;fill-opacity:1;stroke:#ff0000;stroke-width:0.38121447;stroke-miterlimit:4;stroke-dasharray:none;stroke-opacity:1"
     d="m 635.5061,108.1729 141.70554,8e-4 V 249.87849 H 635.5061 Z"
     id="rect7316"
     inkscape:connector-curvature="0"
     sodipodi:nodetypes="ccccc" />
  <rect
     style="fill:none;fill-opacity:1;stroke:#ff0000;stroke-width:0.38121447;stroke-miterlimit:4;stroke-dasharray:none;stroke-opacity:1"
     id="rect7316-8"
     width="141.70554"
     height="141.70552"
     x="458.34061"
     y="108.17297" />
  <circle
     style="fill:none;fill-opacity:1;stroke:#ff0037;stroke-width:0.3917456;stroke-miterlimit:4;stroke-dasharray:none;stroke-opacity:1"
     id="path7962"
     cx="470.34488"
     cy="267.50497"
     r="5.1190925" />
  <circle
     style="fill:none;fill-opacity:1;stroke:#ff0037;stroke-width:0.39174563;stroke-miterlimit:4;stroke-dasharray:none;stroke-opacity:1"
     id="path7962-8"
     cx="647.51038"
     cy="267.50394"
     r="5.1190925" />
  <circle
     style="fill:none;fill-opacity:1;stroke:#ff0037;stroke-width:0.39174563;stroke-miterlimit:4;stroke-dasharray:none;stroke-opacity:1"
     id="path7962-7"
     cx="588.04181"
     cy="267.50394"
     r="5.1190925" />
  <circle
     style="fill:none;fill-opacity:1;stroke:#ff0037;stroke-width:0.39174563;stroke-miterlimit:4;stroke-dasharray:none;stroke-opacity:1"
     id="path7962-1"
     cx="765.20734"
     cy="267.50394"
     r="5.1190925" />
  <circle
     style="fill:none;fill-opacity:1;stroke:#ff0037;stroke-width:0.39174563;stroke-miterlimit:4;stroke-dasharray:none;stroke-opacity:1"
     id="path7962-2"
     cx="470.34488"
     cy="91.898865"
     r="5.1190925" />
  <circle
     style="fill:none;fill-opacity:1;stroke:#ff0037;stroke-width:0.39174563;stroke-miterlimit:4;stroke-dasharray:none;stroke-opacity:1"
     id="path7962-8-6"
     cx="647.51038"
     cy="91.897827"
     r="5.1190925" />
  <circle
     style="fill:none;fill-opacity:1;stroke:#ff0037;stroke-width:0.39174563;stroke-miterlimit:4;stroke-dasharray:none;stroke-opacity:1"
     id="path7962-7-2"
     cx="588.04181"
     cy="91.897827"
     r="5.1190925" />
  <circle
     style="fill:none;fill-opacity:1;stroke:#ff0037;stroke-width:0.39174563;stroke-miterlimit:4;stroke-dasharray:none;stroke-opacity:1"
     id="path7962-1-8"
     cx="765.20734"
     cy="91.897827"
     r="5.1190925" />
  <circle
     style="fill:none;fill-opacity:1;stroke:#ff0037;stroke-width:0.39174563;stroke-miterlimit:4;stroke-dasharray:none;stroke-opacity:1"
     id="path7962-8-5"
     cx="617.77612"
     cy="237.87419"
     r="5.1190925" />
  <circle
     style="fill:none;fill-opacity:1;stroke:#ff0037;stroke-width:0.39174563;stroke-miterlimit:4;stroke-dasharray:none;stroke-opacity:1"
     id="path7962-8-5-0"
     cx="616.83862"
     cy="120.17725"
     r="5.1190925" />
  <rect
     style="fill:none;fill-opacity:1;stroke:#ff0000;stroke-width:0.38121447;stroke-miterlimit:4;stroke-dasharray:none;stroke-opacity:1"
     id="rect7316-9"
     width="141.70554"
     height="141.70552"
     x="1030.9182"
     y="108.17371" />
  <path
     style="fill:none;fill-opacity:1;stroke:#ff0000;stroke-width:0.38121447;stroke-miterlimit:4;stroke-dasharray:none;stroke-opacity:1"
     d="m 853.75273,108.17246 141.70549,0.001 V 249.87923 H 853.75273 Z"
     id="rect7316-8-4"
     inkscape:connector-curvature="0"
     sodipodi:nodetypes="ccccc" />
  <circle
     style="fill:none;fill-opacity:1;stroke:#ff0037;stroke-width:0.39174563;stroke-miterlimit:4;stroke-dasharray:none;stroke-opacity:1"
     id="path7962-9"
     cx="865.75702"
     cy="267.50571"
     r="5.1190925" />
  <circle
     style="fill:none;fill-opacity:1;stroke:#ff0037;stroke-width:0.39174563;stroke-miterlimit:4;stroke-dasharray:none;stroke-opacity:1"
     id="path7962-8-7"
     cx="1042.9225"
     cy="267.50467"
     r="5.1190925" />
  <circle
     style="fill:none;fill-opacity:1;stroke:#ff0037;stroke-width:0.39174563;stroke-miterlimit:4;stroke-dasharray:none;stroke-opacity:1"
     id="path7962-7-6"
     cx="983.45398"
     cy="267.50467"
     r="5.1190925" />
  <circle
     style="fill:none;fill-opacity:1;stroke:#ff0037;stroke-width:0.39174563;stroke-miterlimit:4;stroke-dasharray:none;stroke-opacity:1"
     id="path7962-1-9"
     cx="1160.6195"
     cy="267.50467"
     r="5.1190925" />
  <circle
     style="fill:none;fill-opacity:1;stroke:#ff0037;stroke-width:0.39174563;stroke-miterlimit:4;stroke-dasharray:none;stroke-opacity:1"
     id="path7962-2-5"
     cx="865.75702"
     cy="91.899597"
     r="5.1190925" />
  <circle
     style="fill:none;fill-opacity:1;stroke:#ff0037;stroke-width:0.39174563;stroke-miterlimit:4;stroke-dasharray:none;stroke-opacity:1"
     id="path7962-8-6-9"
     cx="1042.9225"
     cy="91.89856"
     r="5.1190925" />
  <circle
     style="fill:none;fill-opacity:1;stroke:#ff0037;stroke-width:0.39174563;stroke-miterlimit:4;stroke-dasharray:none;stroke-opacity:1"
     id="path7962-7-2-3"
     cx="983.45398"
     cy="91.89856"
     r="5.1190925" />
  <circle
     style="fill:none;fill-opacity:1;stroke:#ff0037;stroke-width:0.39174563;stroke-miterlimit:4;stroke-dasharray:none;stroke-opacity:1"
     id="path7962-1-8-9"
     cx="1160.6195"
     cy="91.89856"
     r="5.1190925" />
  <circle
     style="fill:none;fill-opacity:1;stroke:#ff0037;stroke-width:0.39174563;stroke-miterlimit:4;stroke-dasharray:none;stroke-opacity:1"
     id="path7962-8-5-7"
     cx="1013.1884"
     cy="237.87494"
     r="5.1190925" />
  <circle
     style="fill:none;fill-opacity:1;stroke:#ff0037;stroke-width:0.39174563;stroke-miterlimit:4;stroke-dasharray:none;stroke-opacity:1"
     id="path7962-8-5-0-1"
     cx="1012.2509"
     cy="120.17798"
     r="5.1190925" />
  <rect
     style="fill:none;fill-opacity:1;stroke:#ff0037;stroke-width:0.28806883;stroke-miterlimit:4;stroke-dasharray:none;stroke-opacity:1"
     id="rect8179"
     width="36.916687"
     height="36.916687"
     x="331.36203"
     y="43.453903" />
</svg>
