<?xml version="1.0" encoding="UTF-8" standalone="no"?>
<svg
   xmlns:dc="http://purl.org/dc/elements/1.1/"
   xmlns:cc="http://creativecommons.org/ns#"
   xmlns:rdf="http://www.w3.org/1999/02/22-rdf-syntax-ns#"
   xmlns:svg="http://www.w3.org/2000/svg"
   xmlns="http://www.w3.org/2000/svg"
   xmlns:sodipodi="http://sodipodi.sourceforge.net/DTD/sodipodi-0.dtd"
   xmlns:inkscape="http://www.inkscape.org/namespaces/inkscape"
   version="1.1"
   width="532.7mm"
   height="277.7mm"
   viewBox=" 0 0 1887.5212370000002 983.977187"
   id="svg1712"
   sodipodi:docname="MIDI_Controller.svg"
   inkscape:version="0.92.2 (5c3e80d, 2017-08-06)">
  <metadata
     id="metadata1718">
    <rdf:RDF>
      <cc:Work
         rdf:about="">
        <dc:format>image/svg+xml</dc:format>
        <dc:type
           rdf:resource="http://purl.org/dc/dcmitype/StillImage" />
        <dc:title></dc:title>
      </cc:Work>
    </rdf:RDF>
  </metadata>
  <defs
     id="defs1716" />
  <sodipodi:namedview
     pagecolor="#ffffff"
     bordercolor="#666666"
     borderopacity="1"
     objecttolerance="10"
     gridtolerance="10"
     guidetolerance="10"
     inkscape:pageopacity="0"
     inkscape:pageshadow="2"
     inkscape:window-width="1920"
     inkscape:window-height="1046"
     id="namedview1714"
     showgrid="false"
     inkscape:zoom="0.77879981"
     inkscape:cx="700.15611"
     inkscape:cy="598.84307"
     inkscape:window-x="-11"
     inkscape:window-y="-11"
     inkscape:window-maximized="1"
     inkscape:current-layer="svg1712" />
  <!-- Front-->
  <g
     transform="translate(22.5000185, 22.5000185) "
     id="g1690">
    <polygon
       style="stroke:#FF0000; fill:none; stroke-width:0.90000074"
       points="0, 0 49.60634, 0 49.60634, 21.25986 99.21268, 21.25986 99.21268, 0 138.18909000000002, 0 138.18909000000002, 21.25986 177.1655, 21.25986 177.1655, 0 216.14191, 0 216.14191, 21.25986 255.11832, 21.25986 255.11832, 0 294.09473, 0 294.09473, 21.25986 333.07114, 21.25986 333.07114, 0 372.04755, 0 372.04755, 21.25986 411.02396, 21.25986 411.02396, 0 450.00037, 0 450.00037, 21.25986 499.60671, 21.25986 499.60671, 0 549.21305, 0 549.21305, 38.97641 527.95319, 38.97641 527.95319, 77.95282 549.21305, 77.95282 549.21305, 116.92923 527.95319, 116.92923 527.95319, 155.90564 549.21305, 155.90564 549.2130500000001, 194.88205 499.60671, 194.88205 499.60671, 173.62219 450.00037, 173.62219 450.00037, 194.88205 411.02396, 194.88205 411.02396, 173.62219 372.04755, 173.62219 372.04755, 194.88205 333.07114, 194.88205 333.07114, 173.62219 294.09473, 173.62219 294.09473, 194.88205 255.11832, 194.88205 255.11832, 173.62219 216.14191, 173.62219 216.14191, 194.88205 177.1655, 194.88205 177.1655, 173.62219 138.18909000000002, 173.62219 138.18909000000002, 194.88205 99.21268, 194.88205 99.21268, 173.62219 49.60634, 173.62219 49.60634, 194.88205 0, 194.88205 0, 155.90564 21.25986, 155.90564 21.25986, 116.92923 0, 116.92923 0, 77.95282 21.25986, 77.95282 21.25986, 38.97641 0, 38.97641 "
       id="polygon1688" />
  </g>
  <!-- Back-->
  <g
     transform="translate(571.7130685, 22.5000185) "
     id="g1694">
    <polygon
       style="stroke:#FF0000; fill:none; stroke-width:0.90000074"
       points="0, 0 49.60634, 0 49.60634, 21.25986 99.21268, 21.25986 99.21268, 0 138.18909000000002, 0 138.18909000000002, 21.25986 177.1655, 21.25986 177.1655, 0 216.14191, 0 216.14191, 21.25986 255.11832, 21.25986 255.11832, 0 294.09473, 0 294.09473, 21.25986 333.07114, 21.25986 333.07114, 0 372.04755, 0 372.04755, 21.25986 411.02396, 21.25986 411.02396, 0 450.00037, 0 450.00037, 21.25986 499.60671, 21.25986 499.60671, 0 549.21305, 0 549.21305, 38.97641 527.95319, 38.97641 527.95319, 77.95282 549.21305, 77.95282 549.21305, 116.92923 527.95319, 116.92923 527.95319, 155.90564 549.21305, 155.90564 549.2130500000001, 194.88205 499.60671, 194.88205 499.60671, 173.62219 450.00037, 173.62219 450.00037, 194.88205 411.02396, 194.88205 411.02396, 173.62219 372.04755, 173.62219 372.04755, 194.88205 333.07114, 194.88205 333.07114, 173.62219 294.09473, 173.62219 294.09473, 194.88205 255.11832, 194.88205 255.11832, 173.62219 216.14191, 173.62219 216.14191, 194.88205 177.1655, 194.88205 177.1655, 173.62219 138.18909000000002, 173.62219 138.18909000000002, 194.88205 99.21268, 194.88205 99.21268, 173.62219 49.60634, 173.62219 49.60634, 194.88205 0, 194.88205 0, 155.90564 21.25986, 155.90564 21.25986, 116.92923 0, 116.92923 0, 77.95282 21.25986, 77.95282 21.25986, 38.97641 0, 38.97641 "
       id="polygon1692" />
  </g>
  <!-- Left-->
  <g
     transform="translate(1120.9261185, 22.5000185) "
     id="g1698">
    <polygon
       style="stroke:#FF0000; fill:none; stroke-width:0.90000074"
       points="21.25986, 0 59.3504425, 0 59.3504425, 21.25986 118.700885, 21.25986 118.700885, 0 157.67729500000002, 0 157.67729500000002, 21.25986 196.653705, 21.25986 196.653705, 0 235.630115, 0 235.630115, 21.25986 274.60652500000003, 21.25986 274.60652500000003, 0 313.582935, 0 313.582935, 21.25986 352.559345, 21.25986 352.559345, 0 391.535755, 0 391.535755, 21.25986 430.512165, 21.25986 430.512165, 0 469.48857499999997, 0 469.48857499999997, 21.25986 508.46498499999996, 21.25986 508.46498499999996, 0 547.441395, 0 547.441395, 21.25986 586.417805, 21.25986 586.417805, 0 625.394215, 0 625.394215, 21.25986 684.7446575, 21.25986 684.7446575, 0 722.83524, 0 722.83524, 38.97641 744.0951, 38.97641 744.0951, 77.95282 722.83524, 77.95282 722.83524, 116.92923 744.0951, 116.92923 744.0951, 155.90564 722.83524, 155.90564 722.83524, 194.88205 684.7446575, 194.88205 684.7446575, 173.62219 625.394215, 173.62219 625.394215, 194.88205 586.417805, 194.88205 586.417805, 173.62219 547.441395, 173.62219 547.441395, 194.88205 508.46498499999996, 194.88205 508.46498499999996, 173.62219 469.48857499999997, 173.62219 469.48857499999997, 194.88205 430.512165, 194.88205 430.512165, 173.62219 391.535755, 173.62219 391.535755, 194.88205 352.559345, 194.88205 352.559345, 173.62219 313.582935, 173.62219 313.582935, 194.88205 274.60652500000003, 194.88205 274.60652500000003, 173.62219 235.630115, 173.62219 235.630115, 194.88205 196.653705, 194.88205 196.653705, 173.62219 157.67729500000002, 173.62219 157.67729500000002, 194.88205 118.700885, 194.88205 118.700885, 173.62219 59.3504425, 173.62219 59.3504425, 194.88205 21.25986, 194.88205 21.25986, 155.90564 0, 155.90564 0, 116.92923 21.25986, 116.92923 21.25986, 77.95282 0, 77.95282 0, 38.97641 21.25986, 38.97641 "
       id="polygon1696" />
  </g>
  <!-- Right-->
  <g
     transform="translate(1120.9261185, 217.3820685) "
     id="g1702">
    <polygon
       style="stroke:#FF0000; fill:none; stroke-width:0.90000074"
       points="21.25986, 0 59.3504425, 0 59.3504425, 21.25986 118.700885, 21.25986 118.700885, 0 157.67729500000002, 0 157.67729500000002, 21.25986 196.653705, 21.25986 196.653705, 0 235.630115, 0 235.630115, 21.25986 274.60652500000003, 21.25986 274.60652500000003, 0 313.582935, 0 313.582935, 21.25986 352.559345, 21.25986 352.559345, 0 391.535755, 0 391.535755, 21.25986 430.512165, 21.25986 430.512165, 0 469.48857499999997, 0 469.48857499999997, 21.25986 508.46498499999996, 21.25986 508.46498499999996, 0 547.441395, 0 547.441395, 21.25986 586.417805, 21.25986 586.417805, 0 625.394215, 0 625.394215, 21.25986 684.7446575, 21.25986 684.7446575, 0 722.83524, 0 722.83524, 38.97641 744.0951, 38.97641 744.0951, 77.95282 722.83524, 77.95282 722.83524, 116.92923 744.0951, 116.92923 744.0951, 155.90564 722.83524, 155.90564 722.83524, 194.88205 684.7446575, 194.88205 684.7446575, 173.62219 625.394215, 173.62219 625.394215, 194.88205 586.417805, 194.88205 586.417805, 173.62219 547.441395, 173.62219 547.441395, 194.88205 508.46498499999996, 194.88205 508.46498499999996, 173.62219 469.48857499999997, 173.62219 469.48857499999997, 194.88205 430.512165, 194.88205 430.512165, 173.62219 391.535755, 173.62219 391.535755, 194.88205 352.559345, 194.88205 352.559345, 173.62219 313.582935, 173.62219 313.582935, 194.88205 274.60652500000003, 194.88205 274.60652500000003, 173.62219 235.630115, 173.62219 235.630115, 194.88205 196.653705, 194.88205 196.653705, 173.62219 157.67729500000002, 173.62219 157.67729500000002, 194.88205 118.700885, 194.88205 118.700885, 173.62219 59.3504425, 173.62219 59.3504425, 194.88205 21.25986, 194.88205 21.25986, 155.90564 0, 155.90564 0, 116.92923 21.25986, 116.92923 21.25986, 77.95282 0, 77.95282 0, 38.97641 21.25986, 38.97641 "
       id="polygon1700" />
  </g>
  <!-- Top-->
  <g
     transform="translate(22.5000185, 217.3820685) "
     id="g1706">
    <polygon
       style="stroke:#FF0000; fill:none; stroke-width:0.90000074"
       points="21.25986, 21.25986 49.60634, 21.25986 49.60634, 0 99.21268, 0 99.21268, 21.25986 138.18909000000002, 21.25986 138.18909000000002, 0 177.1655, 0 177.1655, 21.25986 216.14191, 21.25986 216.14191, 0 255.11832, 0 255.11832, 21.25986 294.09473, 21.25986 294.09473, 0 333.07114, 0 333.07114, 21.25986 372.04755, 21.25986 372.04755, 0 411.02396, 0 411.02396, 21.25986 450.00037, 21.25986 450.00037, 0 499.60671, 0 499.60671, 21.25986 527.95319, 21.25986 527.95319, 59.3504425 549.21305, 59.3504425 549.21305, 118.700885 527.95319, 118.700885 527.95319, 157.67729500000002 549.21305, 157.67729500000002 549.21305, 196.653705 527.95319, 196.653705 527.95319, 235.630115 549.21305, 235.630115 549.21305, 274.60652500000003 527.95319, 274.60652500000003 527.95319, 313.582935 549.21305, 313.582935 549.21305, 352.559345 527.95319, 352.559345 527.95319, 391.535755 549.21305, 391.535755 549.21305, 430.512165 527.95319, 430.512165 527.95319, 469.48857499999997 549.21305, 469.48857499999997 549.21305, 508.46498499999996 527.95319, 508.46498499999996 527.95319, 547.441395 549.21305, 547.441395 549.21305, 586.417805 527.95319, 586.417805 527.95319, 625.394215 549.21305, 625.394215 549.21305, 684.7446575 527.95319, 684.7446575 527.9531900000001, 722.83524 499.60671, 722.83524 499.60671, 744.0951 450.00037, 744.0951 450.00037, 722.83524 411.02396, 722.83524 411.02396, 744.0951 372.04755, 744.0951 372.04755, 722.83524 333.07114, 722.83524 333.07114, 744.0951 294.09473, 744.0951 294.09473, 722.83524 255.11832, 722.83524 255.11832, 744.0951 216.14191, 744.0951 216.14191, 722.83524 177.1655, 722.83524 177.1655, 744.0951 138.18909000000002, 744.0951 138.18909000000002, 722.83524 99.21268, 722.83524 99.21268, 744.0951 49.60634, 744.0951 49.60634, 722.83524 21.25986, 722.83524 21.25986, 684.7446575 0, 684.7446575 0, 625.394215 21.25986, 625.394215 21.25986, 586.417805 0, 586.417805 0, 547.441395 21.25986, 547.441395 21.25986, 508.46498499999996 0, 508.46498499999996 0, 469.48857499999997 21.25986, 469.48857499999997 21.25986, 430.512165 0, 430.512165 0, 391.535755 21.25986, 391.535755 21.25986, 352.559345 0, 352.559345 0, 313.582935 21.25986, 313.582935 21.25986, 274.60652500000003 0, 274.60652500000003 0, 235.630115 21.25986, 235.630115 21.25986, 196.653705 0, 196.653705 0, 157.67729500000002 21.25986, 157.67729500000002 21.25986, 118.700885 0, 118.700885 0, 59.3504425 21.25986, 59.3504425 "
       id="polygon1704" />
  </g>
  <!-- Bottom-->
  <g
     transform="translate(571.7130685, 217.3820685) "
     id="g1710">
    <polygon
       style="stroke:#FF0000; fill:none; stroke-width:0.90000074"
       points="21.25986, 21.25986 49.60634, 21.25986 49.60634, 0 99.21268, 0 99.21268, 21.25986 138.18909000000002, 21.25986 138.18909000000002, 0 177.1655, 0 177.1655, 21.25986 216.14191, 21.25986 216.14191, 0 255.11832, 0 255.11832, 21.25986 294.09473, 21.25986 294.09473, 0 333.07114, 0 333.07114, 21.25986 372.04755, 21.25986 372.04755, 0 411.02396, 0 411.02396, 21.25986 450.00037, 21.25986 450.00037, 0 499.60671, 0 499.60671, 21.25986 527.95319, 21.25986 527.95319, 59.3504425 549.21305, 59.3504425 549.21305, 118.700885 527.95319, 118.700885 527.95319, 157.67729500000002 549.21305, 157.67729500000002 549.21305, 196.653705 527.95319, 196.653705 527.95319, 235.630115 549.21305, 235.630115 549.21305, 274.60652500000003 527.95319, 274.60652500000003 527.95319, 313.582935 549.21305, 313.582935 549.21305, 352.559345 527.95319, 352.559345 527.95319, 391.535755 549.21305, 391.535755 549.21305, 430.512165 527.95319, 430.512165 527.95319, 469.48857499999997 549.21305, 469.48857499999997 549.21305, 508.46498499999996 527.95319, 508.46498499999996 527.95319, 547.441395 549.21305, 547.441395 549.21305, 586.417805 527.95319, 586.417805 527.95319, 625.394215 549.21305, 625.394215 549.21305, 684.7446575 527.95319, 684.7446575 527.9531900000001, 722.83524 499.60671, 722.83524 499.60671, 744.0951 450.00037, 744.0951 450.00037, 722.83524 411.02396, 722.83524 411.02396, 744.0951 372.04755, 744.0951 372.04755, 722.83524 333.07114, 722.83524 333.07114, 744.0951 294.09473, 744.0951 294.09473, 722.83524 255.11832, 722.83524 255.11832, 744.0951 216.14191, 744.0951 216.14191, 722.83524 177.1655, 722.83524 177.1655, 744.0951 138.18909000000002, 744.0951 138.18909000000002, 722.83524 99.21268, 722.83524 99.21268, 744.0951 49.60634, 744.0951 49.60634, 722.83524 21.25986, 722.83524 21.25986, 684.7446575 0, 684.7446575 0, 625.394215 21.25986, 625.394215 21.25986, 586.417805 0, 586.417805 0, 547.441395 21.25986, 547.441395 21.25986, 508.46498499999996 0, 508.46498499999996 0, 469.48857499999997 21.25986, 469.48857499999997 21.25986, 430.512165 0, 430.512165 0, 391.535755 21.25986, 391.535755 21.25986, 352.559345 0, 352.559345 0, 313.582935 21.25986, 313.582935 21.25986, 274.60652500000003 0, 274.60652500000003 0, 235.630115 21.25986, 235.630115 21.25986, 196.653705 0, 196.653705 0, 157.67729500000002 21.25986, 157.67729500000002 21.25986, 118.700885 0, 118.700885 0, 59.3504425 21.25986, 59.3504425 "
       id="polygon1708" />
  </g>
  <ellipse
     style="fill:none;fill-opacity:1;stroke:#ff0000;stroke-width:1.11734974;stroke-miterlimit:4;stroke-dasharray:none;stroke-opacity:1"
     id="path5677"
     cx="655.11682"
     cy="882.59369"
     rx="44.618526"
     ry="44.61853" />
  <ellipse
     style="fill:none;fill-opacity:1;stroke:#ff0000;stroke-width:1.11734974;stroke-miterlimit:4;stroke-dasharray:none;stroke-opacity:1"
     id="path5677-3"
     cx="655.11823"
     cy="747.94965"
     rx="44.618526"
     ry="44.61853" />
  <ellipse
     style="fill:none;fill-opacity:1;stroke:#ff0000;stroke-width:1.11734974;stroke-miterlimit:4;stroke-dasharray:none;stroke-opacity:1"
     id="path5677-3-5"
     cx="655.11682"
     cy="613.30383"
     rx="44.618526"
     ry="44.61853" />
  <ellipse
     style="fill:none;fill-opacity:1;stroke:#00ff00;stroke-width:1.23295927;stroke-miterlimit:4;stroke-dasharray:none;stroke-opacity:1"
     id="path5709"
     cx="858.1806"
     cy="756.75824"
     rx="123.39935"
     ry="123.39937" />
  <ellipse
     style="fill:none;fill-opacity:1;stroke:#ff0000;stroke-width:0.29576904;stroke-miterlimit:4;stroke-dasharray:none;stroke-opacity:1"
     id="path5677-3-5-6"
     cx="858.1806"
     cy="756.75824"
     rx="11.810788"
     ry="11.810787" />
  <path
     style="fill:none;fill-opacity:1;stroke:#ff0000;stroke-width:0.52421361;stroke-miterlimit:4;stroke-dasharray:none;stroke-opacity:1"
     d="m 1041.6995,673.18289 h 10.3071 l 6e-4,251.29543 h -10.3071 z"
     id="rect5768"
     inkscape:connector-curvature="0"
     sodipodi:nodetypes="ccccc" />
  <circle
     id="path3755-6-2"
     style="fill:none;stroke:#ff0000;stroke-width:0.38283592;stroke-miterlimit:4;stroke-dasharray:none;stroke-opacity:1"
     cx="-1020.2785"
     cy="-913.74115"
     transform="scale(-1)"
     r="5.1235471" />
  <circle
     id="path3755-6-2-9"
     style="fill:none;stroke:#ff0000;stroke-width:0.38283592;stroke-miterlimit:4;stroke-dasharray:none;stroke-opacity:1"
     cx="-1069.8849"
     cy="-913.73981"
     transform="scale(-1)"
     r="5.1235471" />
  <circle
     id="path3755-6-2-1"
     style="fill:none;stroke:#ff0000;stroke-width:0.38283592;stroke-miterlimit:4;stroke-dasharray:none;stroke-opacity:1"
     cx="-1020.2785"
     cy="-701.14246"
     transform="scale(-1)"
     r="5.1235471" />
  <circle
     id="path3755-6-2-9-2"
     style="fill:none;stroke:#ff0000;stroke-width:0.38283592;stroke-miterlimit:4;stroke-dasharray:none;stroke-opacity:1"
     cx="-1069.8849"
     cy="-701.14246"
     transform="scale(-1)"
     r="5.1235471" />
  <circle
     style="fill:none;fill-opacity:1;stroke:#ff0000;stroke-width:1.07944763;stroke-miterlimit:4;stroke-dasharray:none;stroke-opacity:1"
     id="path5819"
     cx="997.69958"
     cy="588.63995"
     r="21.605965" />
  <ellipse
     style="fill:none;fill-opacity:1;stroke:#ff0000;stroke-width:0.51813483;stroke-miterlimit:4;stroke-dasharray:none;stroke-opacity:1"
     id="path5819-7"
     cx="1069.9105"
     cy="589.49115"
     rx="10.370862"
     ry="10.370863" />
  <rect
     style="fill:none;fill-opacity:1;stroke:#ff0000;stroke-width:0.61225885;stroke-miterlimit:4;stroke-dasharray:none;stroke-opacity:1"
     id="rect6153"
     width="87.970497"
     height="48.99408"
     x="788.10394"
     y="439.13126" />
  <rect
     style="fill:none;fill-opacity:1;stroke:#ff0000;stroke-width:0.31918645;stroke-miterlimit:4;stroke-dasharray:none;stroke-opacity:1"
     id="rect6153-3"
     width="49.692108"
     height="23.572847"
     x="880.30463"
     y="250.43105" />
  <text
     xml:space="preserve"
     style="font-style:normal;font-weight:normal;font-size:37.50003052px;line-height:1.25;font-family:sans-serif;letter-spacing:0px;word-spacing:0px;fill:#000000;fill-opacity:1;stroke:none;stroke-width:0.93750077"
     x="614.61273"
     y="181.0742"
     id="text1600"><tspan
       sodipodi:role="line"
       id="tspan1598"
       x="614.61273"
       y="181.0742"
       style="font-size:12.50001049px;stroke-width:0.93750077">Made by: Spencer Fricke</tspan></text>
  <text
     xml:space="preserve"
     style="font-style:normal;font-variant:normal;font-weight:normal;font-stretch:normal;font-size:37.50003052px;line-height:23.25;font-family:Arial;-inkscape-font-specification:Arial;letter-spacing:5.15625525px;word-spacing:3.15000272px;fill:#000000;fill-opacity:1;stroke:none;stroke-width:0.93750077"
     x="79.302452"
     y="137.82436"
     id="text1460"><tspan
       sodipodi:role="line"
       id="tspan1458"
       x="79.302452"
       y="137.82436"
       style="font-style:normal;font-variant:normal;font-weight:bold;font-stretch:normal;font-size:50.00004196px;line-height:23.25;font-family:Arial;-inkscape-font-specification:'Arial, Bold';font-variant-ligatures:normal;font-variant-caps:normal;font-variant-numeric:normal;font-feature-settings:normal;text-align:start;letter-spacing:0.6468755px;word-spacing:3.15000272px;writing-mode:lr-tb;text-anchor:start;stroke-width:0.93750077">ASK ABOUT IEEE</tspan></text>
  <path
     id="path4657-5-9"
     d="m 1361.4728,76.368965 h 24.1388 v 87.144155 h -24.1388 z m 36.8083,87.144155 V 76.368965 h 66.3905 v 16.89601 h -42.2497 V 111.2493 h 38.8646 v 16.89829 h -38.8646 v 18.46732 h 42.2497 v 16.89821 z m 79.9057,0 V 76.368965 h 66.3842 v 16.89601 h -42.2476 V 111.2493 h 38.8667 v 16.89829 h -38.8667 v 18.46732 h 42.2476 v 16.89821 z m 79.9036,0 V 76.368965 h 66.3842 v 16.89601 H 1582.227 V 111.2493 h 38.8646 v 16.89829 h -38.8646 v 18.46732 h 42.2476 v 16.89821 z"
     inkscape:connector-curvature="0"
     style="clip-rule:evenodd;fill:#000000;fill-opacity:1;fill-rule:evenodd;stroke-width:0.73302829"
     sodipodi:nodetypes="cccccccccccccccccccccccccccccccccccccccccccc" />
  <path
     id="path4657-5-9-2"
     d="m 1361.4728,271.25101 h 24.1388 v 87.14416 h -24.1388 z m 36.8083,87.14416 v -87.14416 h 66.3905 v 16.896 h -42.2497 v 17.98434 h 38.8646 v 16.89829 h -38.8646 v 18.46733 h 42.2497 v 16.8982 z m 79.9057,0 v -87.14416 h 66.3842 v 16.896 h -42.2476 v 17.98434 h 38.8667 v 16.89829 h -38.8667 v 18.46733 h 42.2476 v 16.8982 z m 79.9036,0 v -87.14416 h 66.3842 v 16.896 h -42.2476 v 17.98434 h 38.8646 v 16.89829 h -38.8646 v 18.46733 h 42.2476 v 16.8982 z"
     inkscape:connector-curvature="0"
     style="clip-rule:evenodd;fill:#000000;fill-opacity:1;fill-rule:evenodd;stroke-width:0.73302829"
     sodipodi:nodetypes="cccccccccccccccccccccccccccccccccccccccccccc" />
  <rect
     style="fill:none;fill-opacity:1;fill-rule:evenodd;stroke:#ff0000;stroke-width:0.34371224;stroke-linecap:butt;stroke-linejoin:miter;stroke-miterlimit:4;stroke-dasharray:none;stroke-opacity:1"
     id="rect4814"
     width="38.632698"
     height="28.002768"
     x="1204.5579"
     y="330.00586" />
  <path
     d="m 655.01336,809.12345 h 3.07884 v 11.83197 h -3.07884 z"
     id="path2486"
     inkscape:connector-curvature="0"
     style="fill:#000000;stroke-width:0.05495677" />
  <path
     d="m 662.19577,809.12345 h 3.07885 v 11.83197 h -3.07885 z"
     id="path2488"
     inkscape:connector-curvature="0"
     style="fill:#000000;stroke-width:0.05495677" />
  <path
     d="m 643.37604,808.65021 11.38121,6.5713 -11.38121,6.57019 z"
     id="path2490"
     inkscape:connector-curvature="0"
     style="fill:#000000;stroke-width:0.05495677" />
  <text
     xml:space="preserve"
     style="font-style:normal;font-weight:normal;font-size:12.50000954px;line-height:1.25;font-family:sans-serif;letter-spacing:0px;word-spacing:0px;fill:#000000;fill-opacity:1;stroke:none;stroke-width:0.93750077"
     x="631.74176"
     y="683.92981"
     id="text3077"><tspan
       sodipodi:role="line"
       id="tspan3075"
       x="631.74176"
       y="683.92981"
       style="font-size:12.50000954px;stroke-width:0.93750077">Play FX</tspan></text>
  <text
     xml:space="preserve"
     style="font-style:normal;font-weight:normal;font-size:12.50000954px;line-height:1.25;font-family:sans-serif;letter-spacing:0px;word-spacing:0px;fill:#000000;fill-opacity:1;stroke:none;stroke-width:0.93750077"
     x="617.55884"
     y="539.22607"
     id="text3081"><tspan
       sodipodi:role="line"
       id="tspan3079"
       x="617.55884"
       y="539.22607"
       style="font-size:12.50000954px;stroke-width:0.93750077">Song Select</tspan></text>
  <text
     xml:space="preserve"
     style="font-style:normal;font-weight:normal;font-size:12.50000954px;line-height:1.25;font-family:sans-serif;letter-spacing:0px;word-spacing:0px;fill:#000000;fill-opacity:1;stroke:none;stroke-width:0.93750077"
     x="1023.3533"
     y="658.8194"
     id="text3085"><tspan
       sodipodi:role="line"
       id="tspan3083"
       x="1023.3533"
       y="658.8194"
       style="font-size:12.50000954px;stroke-width:0.93750077">Volume</tspan></text>
  <text
     xml:space="preserve"
     style="font-style:normal;font-weight:normal;font-size:12.50000954px;line-height:1.25;font-family:sans-serif;letter-spacing:0px;word-spacing:0px;fill:#000000;fill-opacity:1;stroke:none;stroke-width:0.93750077"
     x="969.08936"
     y="547.03241"
     id="text3089"><tspan
       sodipodi:role="line"
       id="tspan3087"
       x="969.08936"
       y="547.03241"
       style="font-size:12.50000954px;stroke-width:0.93750077">NEW GIF</tspan></text>
  <text
     xml:space="preserve"
     style="font-style:normal;font-weight:normal;font-size:12.50000954px;line-height:1.25;font-family:sans-serif;text-align:center;letter-spacing:0px;word-spacing:0px;text-anchor:middle;fill:#000000;fill-opacity:1;stroke:none;stroke-width:0.93750077"
     x="1067.0271"
     y="539.22601"
     id="text3093"><tspan
       sodipodi:role="line"
       id="tspan3091"
       x="1067.0271"
       y="539.22601"
       style="font-size:12.50000954px;text-align:center;text-anchor:middle;stroke-width:0.93750077">GIF</tspan><tspan
       sodipodi:role="line"
       x="1067.0271"
       y="554.85101"
       style="font-size:12.50000954px;text-align:center;text-anchor:middle;stroke-width:0.93750077"
       id="tspan3095">SPEED</tspan></text>
</svg>
