<?xml version="1.0" encoding="UTF-8" standalone="no"?>
<svg
   xmlns:dc="http://purl.org/dc/elements/1.1/"
   xmlns:cc="http://creativecommons.org/ns#"
   xmlns:rdf="http://www.w3.org/1999/02/22-rdf-syntax-ns#"
   xmlns:svg="http://www.w3.org/2000/svg"
   xmlns="http://www.w3.org/2000/svg"
   xmlns:sodipodi="http://sodipodi.sourceforge.net/DTD/sodipodi-0.dtd"
   xmlns:inkscape="http://www.inkscape.org/namespaces/inkscape"
   version="1.1"
   width="600mm"
   height="400mm"
   viewBox="0 0 2125.9859 1417.324"
   id="svg1712"
   sodipodi:docname="MIDI_Controller.svg"
   inkscape:version="0.91 r13725">
  <metadata
     id="metadata1718">
    <rdf:RDF>
      <cc:Work
         rdf:about="">
        <dc:format>image/svg+xml</dc:format>
        <dc:type
           rdf:resource="http://purl.org/dc/dcmitype/StillImage" />
        <dc:title />
      </cc:Work>
    </rdf:RDF>
  </metadata>
  <defs
     id="defs1716" />
  <sodipodi:namedview
     pagecolor="#ffffff"
     bordercolor="#666666"
     borderopacity="1"
     objecttolerance="10"
     gridtolerance="10"
     guidetolerance="10"
     inkscape:pageopacity="0"
     inkscape:pageshadow="2"
     inkscape:window-width="1855"
     inkscape:window-height="1056"
     id="namedview1714"
     showgrid="false"
     inkscape:zoom="1.5575996"
     inkscape:cx="970.13736"
     inkscape:cy="731.42319"
     inkscape:window-x="65"
     inkscape:window-y="372"
     inkscape:window-maximized="1"
     inkscape:current-layer="svg1712" />
  <!-- Front-->
  <g
     transform="translate(84.133362,65.502161)"
     id="g1690">
    <polygon
       style="fill:none;stroke:#ff0000;stroke-width:0.90000075"
       points="527.95319,77.95282 549.21305,77.95282 549.21305,116.92923 527.95319,116.92923 527.95319,155.90564 549.21305,155.90564 549.21305,194.88205 499.60671,194.88205 499.60671,173.62219 450.00037,173.62219 450.00037,194.88205 411.02396,194.88205 411.02396,173.62219 372.04755,173.62219 372.04755,194.88205 333.07114,194.88205 333.07114,173.62219 294.09473,173.62219 294.09473,194.88205 255.11832,194.88205 255.11832,173.62219 216.14191,173.62219 216.14191,194.88205 177.1655,194.88205 177.1655,173.62219 138.18909,173.62219 138.18909,194.88205 99.21268,194.88205 99.21268,173.62219 49.60634,173.62219 49.60634,194.88205 0,194.88205 0,155.90564 21.25986,155.90564 21.25986,116.92923 0,116.92923 0,77.95282 21.25986,77.95282 21.25986,38.97641 0,38.97641 0,0 49.60634,0 49.60634,21.25986 99.21268,21.25986 99.21268,0 138.18909,0 138.18909,21.25986 177.1655,21.25986 177.1655,0 216.14191,0 216.14191,21.25986 255.11832,21.25986 255.11832,0 294.09473,0 294.09473,21.25986 333.07114,21.25986 333.07114,0 372.04755,0 372.04755,21.25986 411.02396,21.25986 411.02396,0 450.00037,0 450.00037,21.25986 499.60671,21.25986 499.60671,0 549.21305,0 549.21305,38.97641 527.95319,38.97641 "
       id="polygon1688" />
  </g>
  <!-- Back-->
  <g
     transform="translate(633.34641,65.502161)"
     id="g1694">
    <polygon
       style="fill:none;stroke:#ff0000;stroke-width:0.90000075"
       points="527.95319,77.95282 549.21305,77.95282 549.21305,116.92923 527.95319,116.92923 527.95319,155.90564 549.21305,155.90564 549.21305,194.88205 499.60671,194.88205 499.60671,173.62219 450.00037,173.62219 450.00037,194.88205 411.02396,194.88205 411.02396,173.62219 372.04755,173.62219 372.04755,194.88205 333.07114,194.88205 333.07114,173.62219 294.09473,173.62219 294.09473,194.88205 255.11832,194.88205 255.11832,173.62219 216.14191,173.62219 216.14191,194.88205 177.1655,194.88205 177.1655,173.62219 138.18909,173.62219 138.18909,194.88205 99.21268,194.88205 99.21268,173.62219 49.60634,173.62219 49.60634,194.88205 0,194.88205 0,155.90564 21.25986,155.90564 21.25986,116.92923 0,116.92923 0,77.95282 21.25986,77.95282 21.25986,38.97641 0,38.97641 0,0 49.60634,0 49.60634,21.25986 99.21268,21.25986 99.21268,0 138.18909,0 138.18909,21.25986 177.1655,21.25986 177.1655,0 216.14191,0 216.14191,21.25986 255.11832,21.25986 255.11832,0 294.09473,0 294.09473,21.25986 333.07114,21.25986 333.07114,0 372.04755,0 372.04755,21.25986 411.02396,21.25986 411.02396,0 450.00037,0 450.00037,21.25986 499.60671,21.25986 499.60671,0 549.21305,0 549.21305,38.97641 527.95319,38.97641 "
       id="polygon1692" />
  </g>
  <!-- Left-->
  <g
     transform="translate(1182.5594,65.502161)"
     id="g1698">
    <polygon
       style="fill:none;stroke:#ff0000;stroke-width:0.90000075"
       points="586.41781,0 625.39422,0 625.39422,21.25986 684.74466,21.25986 684.74466,0 722.83524,0 722.83524,38.97641 744.0951,38.97641 744.0951,77.95282 722.83524,77.95282 722.83524,116.92923 744.0951,116.92923 744.0951,155.90564 722.83524,155.90564 722.83524,194.88205 684.74466,194.88205 684.74466,173.62219 625.39422,173.62219 625.39422,194.88205 586.41781,194.88205 586.41781,173.62219 547.4414,173.62219 547.4414,194.88205 508.46498,194.88205 508.46498,173.62219 469.48857,173.62219 469.48857,194.88205 430.51216,194.88205 430.51216,173.62219 391.53575,173.62219 391.53575,194.88205 352.55935,194.88205 352.55935,173.62219 313.58294,173.62219 313.58294,194.88205 274.60653,194.88205 274.60653,173.62219 235.63011,173.62219 235.63011,194.88205 196.65371,194.88205 196.65371,173.62219 157.6773,173.62219 157.6773,194.88205 118.70088,194.88205 118.70088,173.62219 59.350442,173.62219 59.350442,194.88205 21.25986,194.88205 21.25986,155.90564 0,155.90564 0,116.92923 21.25986,116.92923 21.25986,77.95282 0,77.95282 0,38.97641 21.25986,38.97641 21.25986,0 59.350442,0 59.350442,21.25986 118.70088,21.25986 118.70088,0 157.6773,0 157.6773,21.25986 196.65371,21.25986 196.65371,0 235.63011,0 235.63011,21.25986 274.60653,21.25986 274.60653,0 313.58294,0 313.58294,21.25986 352.55935,21.25986 352.55935,0 391.53575,0 391.53575,21.25986 430.51216,21.25986 430.51216,0 469.48857,0 469.48857,21.25986 508.46498,21.25986 508.46498,0 547.4414,0 547.4414,21.25986 586.41781,21.25986 "
       id="polygon1696" />
  </g>
  <!-- Right-->
  <g
     transform="translate(1182.5594,260.38416)"
     id="g1702">
    <polygon
       style="fill:none;stroke:#ff0000;stroke-width:0.90000075"
       points="586.41781,0 625.39422,0 625.39422,21.25986 684.74466,21.25986 684.74466,0 722.83524,0 722.83524,38.97641 744.0951,38.97641 744.0951,77.95282 722.83524,77.95282 722.83524,116.92923 744.0951,116.92923 744.0951,155.90564 722.83524,155.90564 722.83524,194.88205 684.74466,194.88205 684.74466,173.62219 625.39422,173.62219 625.39422,194.88205 586.41781,194.88205 586.41781,173.62219 547.4414,173.62219 547.4414,194.88205 508.46498,194.88205 508.46498,173.62219 469.48857,173.62219 469.48857,194.88205 430.51216,194.88205 430.51216,173.62219 391.53575,173.62219 391.53575,194.88205 352.55935,194.88205 352.55935,173.62219 313.58294,173.62219 313.58294,194.88205 274.60653,194.88205 274.60653,173.62219 235.63011,173.62219 235.63011,194.88205 196.65371,194.88205 196.65371,173.62219 157.6773,173.62219 157.6773,194.88205 118.70088,194.88205 118.70088,173.62219 59.350442,173.62219 59.350442,194.88205 21.25986,194.88205 21.25986,155.90564 0,155.90564 0,116.92923 21.25986,116.92923 21.25986,77.95282 0,77.95282 0,38.97641 21.25986,38.97641 21.25986,0 59.350442,0 59.350442,21.25986 118.70088,21.25986 118.70088,0 157.6773,0 157.6773,21.25986 196.65371,21.25986 196.65371,0 235.63011,0 235.63011,21.25986 274.60653,21.25986 274.60653,0 313.58294,0 313.58294,21.25986 352.55935,21.25986 352.55935,0 391.53575,0 391.53575,21.25986 430.51216,21.25986 430.51216,0 469.48857,0 469.48857,21.25986 508.46498,21.25986 508.46498,0 547.4414,0 547.4414,21.25986 586.41781,21.25986 "
       id="polygon1700" />
  </g>
  <!-- Top-->
  <g
     transform="translate(84.133362,260.38416)"
     id="g1706">
    <polygon
       style="fill:none;stroke:#ff0000;stroke-width:0.90000075"
       points="549.21305,118.70088 527.95319,118.70088 527.95319,157.6773 549.21305,157.6773 549.21305,196.65371 527.95319,196.65371 527.95319,235.63011 549.21305,235.63011 549.21305,274.60653 527.95319,274.60653 527.95319,313.58294 549.21305,313.58294 549.21305,352.55935 527.95319,352.55935 527.95319,391.53575 549.21305,391.53575 549.21305,430.51216 527.95319,430.51216 527.95319,469.48857 549.21305,469.48857 549.21305,508.46498 527.95319,508.46498 527.95319,547.4414 549.21305,547.4414 549.21305,586.41781 527.95319,586.41781 527.95319,625.39422 549.21305,625.39422 549.21305,684.74466 527.95319,684.74466 527.95319,722.83524 499.60671,722.83524 499.60671,744.0951 450.00037,744.0951 450.00037,722.83524 411.02396,722.83524 411.02396,744.0951 372.04755,744.0951 372.04755,722.83524 333.07114,722.83524 333.07114,744.0951 294.09473,744.0951 294.09473,722.83524 255.11832,722.83524 255.11832,744.0951 216.14191,744.0951 216.14191,722.83524 177.1655,722.83524 177.1655,744.0951 138.18909,744.0951 138.18909,722.83524 99.21268,722.83524 99.21268,744.0951 49.60634,744.0951 49.60634,722.83524 21.25986,722.83524 21.25986,684.74466 0,684.74466 0,625.39422 21.25986,625.39422 21.25986,586.41781 0,586.41781 0,547.4414 21.25986,547.4414 21.25986,508.46498 0,508.46498 0,469.48857 21.25986,469.48857 21.25986,430.51216 0,430.51216 0,391.53575 21.25986,391.53575 21.25986,352.55935 0,352.55935 0,313.58294 21.25986,313.58294 21.25986,274.60653 0,274.60653 0,235.63011 21.25986,235.63011 21.25986,196.65371 0,196.65371 0,157.6773 21.25986,157.6773 21.25986,118.70088 0,118.70088 0,59.350442 21.25986,59.350442 21.25986,21.25986 49.60634,21.25986 49.60634,0 99.21268,0 99.21268,21.25986 138.18909,21.25986 138.18909,0 177.1655,0 177.1655,21.25986 216.14191,21.25986 216.14191,0 255.11832,0 255.11832,21.25986 294.09473,21.25986 294.09473,0 333.07114,0 333.07114,21.25986 372.04755,21.25986 372.04755,0 411.02396,0 411.02396,21.25986 450.00037,21.25986 450.00037,0 499.60671,0 499.60671,21.25986 527.95319,21.25986 527.95319,59.350442 549.21305,59.350442 "
       id="polygon1704" />
  </g>
  <!-- Bottom-->
  <g
     transform="translate(633.34641,260.38416)"
     id="g1710">
    <polygon
       style="fill:none;stroke:#ff0000;stroke-width:0.90000075"
       points="549.21305,118.70088 527.95319,118.70088 527.95319,157.6773 549.21305,157.6773 549.21305,196.65371 527.95319,196.65371 527.95319,235.63011 549.21305,235.63011 549.21305,274.60653 527.95319,274.60653 527.95319,313.58294 549.21305,313.58294 549.21305,352.55935 527.95319,352.55935 527.95319,391.53575 549.21305,391.53575 549.21305,430.51216 527.95319,430.51216 527.95319,469.48857 549.21305,469.48857 549.21305,508.46498 527.95319,508.46498 527.95319,547.4414 549.21305,547.4414 549.21305,586.41781 527.95319,586.41781 527.95319,625.39422 549.21305,625.39422 549.21305,684.74466 527.95319,684.74466 527.95319,722.83524 499.60671,722.83524 499.60671,744.0951 450.00037,744.0951 450.00037,722.83524 411.02396,722.83524 411.02396,744.0951 372.04755,744.0951 372.04755,722.83524 333.07114,722.83524 333.07114,744.0951 294.09473,744.0951 294.09473,722.83524 255.11832,722.83524 255.11832,744.0951 216.14191,744.0951 216.14191,722.83524 177.1655,722.83524 177.1655,744.0951 138.18909,744.0951 138.18909,722.83524 99.21268,722.83524 99.21268,744.0951 49.60634,744.0951 49.60634,722.83524 21.25986,722.83524 21.25986,684.74466 0,684.74466 0,625.39422 21.25986,625.39422 21.25986,586.41781 0,586.41781 0,547.4414 21.25986,547.4414 21.25986,508.46498 0,508.46498 0,469.48857 21.25986,469.48857 21.25986,430.51216 0,430.51216 0,391.53575 21.25986,391.53575 21.25986,352.55935 0,352.55935 0,313.58294 21.25986,313.58294 21.25986,274.60653 0,274.60653 0,235.63011 21.25986,235.63011 21.25986,196.65371 0,196.65371 0,157.6773 21.25986,157.6773 21.25986,118.70088 0,118.70088 0,59.350442 21.25986,59.350442 21.25986,21.25986 49.60634,21.25986 49.60634,0 99.21268,0 99.21268,21.25986 138.18909,21.25986 138.18909,0 177.1655,0 177.1655,21.25986 216.14191,21.25986 216.14191,0 255.11832,0 255.11832,21.25986 294.09473,21.25986 294.09473,0 333.07114,0 333.07114,21.25986 372.04755,21.25986 372.04755,0 411.02396,0 411.02396,21.25986 450.00037,21.25986 450.00037,0 499.60671,0 499.60671,21.25986 527.95319,21.25986 527.95319,59.350442 549.21305,59.350442 "
       id="polygon1708" />
  </g>
  <ellipse
     style="fill:none;fill-opacity:1;stroke:#ff0000;stroke-width:1.11734974;stroke-miterlimit:4;stroke-dasharray:none;stroke-opacity:1"
     id="path5677"
     cx="716.75018"
     cy="925.59564"
     rx="44.618526"
     ry="44.61853" />
  <ellipse
     style="fill:none;fill-opacity:1;stroke:#ff0000;stroke-width:1.11734974;stroke-miterlimit:4;stroke-dasharray:none;stroke-opacity:1"
     id="path5677-3"
     cx="716.75159"
     cy="798.9516"
     rx="44.618526"
     ry="44.61853" />
  <ellipse
     style="fill:none;fill-opacity:1;stroke:#ff0000;stroke-width:1.11734974;stroke-miterlimit:4;stroke-dasharray:none;stroke-opacity:1"
     id="path5677-3-5"
     cx="716.75018"
     cy="664.3056"
     rx="44.618526"
     ry="44.61853" />
  <ellipse
     style="fill:none;fill-opacity:1;stroke:#00ff00;stroke-width:1.23295927;stroke-miterlimit:4;stroke-dasharray:none;stroke-opacity:1"
     id="path5709"
     cx="919.81396"
     cy="799.76019"
     rx="123.39935"
     ry="123.39937" />
  <ellipse
     style="fill:none;fill-opacity:1;stroke:#ff0000;stroke-width:0.29576904;stroke-miterlimit:4;stroke-dasharray:none;stroke-opacity:1"
     id="path5677-3-5-6"
     cx="919.81396"
     cy="799.76019"
     rx="11.810788"
     ry="11.810787" />
  <path
     style="fill:none;fill-opacity:1;stroke:#ff0000;stroke-width:0.52421361;stroke-miterlimit:4;stroke-dasharray:none;stroke-opacity:1"
     d="m 1107.3328,716.18506 10.3071,0 6e-4,251.2954 -10.3071,0 z"
     id="rect5768"
     inkscape:connector-curvature="0"
     sodipodi:nodetypes="ccccc" />
  <circle
     id="path3755-6-2"
     style="fill:none;stroke:#ff0000;stroke-width:0.38283592;stroke-miterlimit:4;stroke-dasharray:none;stroke-opacity:1"
     cx="-1081.9119"
     cy="-956.7431"
     transform="scale(-1,-1)"
     r="5.1235471" />
  <circle
     id="path3755-6-2-9"
     style="fill:none;stroke:#ff0000;stroke-width:0.38283592;stroke-miterlimit:4;stroke-dasharray:none;stroke-opacity:1"
     cx="-1138.6036"
     cy="-956.74164"
     transform="scale(-1,-1)"
     r="5.1235471" />
  <circle
     id="path3755-6-2-1"
     style="fill:none;stroke:#ff0000;stroke-width:0.38283592;stroke-miterlimit:4;stroke-dasharray:none;stroke-opacity:1"
     cx="-1081.9119"
     cy="-744.14447"
     transform="scale(-1,-1)"
     r="5.1235471" />
  <circle
     id="path3755-6-2-9-2"
     style="fill:none;stroke:#ff0000;stroke-width:0.38283592;stroke-miterlimit:4;stroke-dasharray:none;stroke-opacity:1"
     cx="-1138.6036"
     cy="-744.14447"
     transform="scale(-1,-1)"
     r="5.1235471" />
  <circle
     style="fill:none;fill-opacity:1;stroke:#ff0000;stroke-width:1.07944763;stroke-miterlimit:4;stroke-dasharray:none;stroke-opacity:1"
     id="path5819"
     cx="1051.333"
     cy="647.64203"
     r="21.605965" />
  <ellipse
     style="fill:none;fill-opacity:1;stroke:#ff0000;stroke-width:0.51813483;stroke-miterlimit:4;stroke-dasharray:none;stroke-opacity:1"
     id="path5819-7"
     cx="1129.5438"
     cy="648.4931"
     rx="10.370862"
     ry="10.370863" />
  <path
     style="fill:none;fill-opacity:1;stroke:#ff0000;stroke-width:0.61225885;stroke-miterlimit:4;stroke-dasharray:none;stroke-opacity:1"
     d="m 849.7373,482.13348 87.9705,0 0,48.99408 -5.6026,0 -14.66719,46.06344 -47.18803,0 -14.09915,-46.06344 -6.41353,0 z"
     id="rect6153"
     inkscape:connector-curvature="0"
     sodipodi:nodetypes="ccccccccc" />
  <rect
     style="fill:none;fill-opacity:1;stroke:#ff0000;stroke-width:0.31918645;stroke-miterlimit:4;stroke-dasharray:none;stroke-opacity:1"
     id="rect6153-3"
     width="49.692108"
     height="23.572847"
     x="937.93799"
     y="307.43304" />
  <text
     xml:space="preserve"
     style="font-style:normal;font-weight:normal;font-size:37.50003052px;line-height:1.25;font-family:sans-serif;letter-spacing:0px;word-spacing:0px;fill:#000000;fill-opacity:1;stroke:none;stroke-width:0.93750077"
     x="676.24609"
     y="224.07634"
     id="text1600"><tspan
       sodipodi:role="line"
       id="tspan1598"
       x="676.24609"
       y="224.07634"
       style="font-size:12.50001049px;stroke-width:0.93750077">Made by: Spencer Fricke</tspan></text>
  <text
     xml:space="preserve"
     style="font-style:normal;font-variant:normal;font-weight:normal;font-stretch:normal;font-size:37.50003052px;line-height:23.25;font-family:Arial;-inkscape-font-specification:Arial;letter-spacing:5.15625525px;word-spacing:3.15000272px;fill:#000000;fill-opacity:1;stroke:none;stroke-width:0.93750077"
     x="140.93579"
     y="180.82634"
     id="text1460"><tspan
       sodipodi:role="line"
       id="tspan1458"
       x="140.93579"
       y="180.82634"
       style="font-style:normal;font-variant:normal;font-weight:bold;font-stretch:normal;font-size:50.00004196px;line-height:23.25;font-family:Arial;-inkscape-font-specification:'Arial, Bold';text-align:start;letter-spacing:0.6468755px;word-spacing:3.15000272px;writing-mode:lr-tb;text-anchor:start;stroke-width:0.93750077">ASK ABOUT IEEE</tspan></text>
  <path
     id="path4657-5-9"
     d="m 1423.1061,119.37106 24.1388,0 0,87.1442 -24.1388,0 z m 36.8083,87.1442 0,-87.1442 66.3905,0 0,16.8961 -42.2497,0 0,17.9843 38.8646,0 0,16.8983 -38.8646,0 0,18.4673 42.2497,0 0,16.8982 z m 79.9057,0 0,-87.1442 66.3842,0 0,16.8961 -42.2476,0 0,17.9843 38.8667,0 0,16.8983 -38.8667,0 0,18.4673 42.2476,0 0,16.8982 z m 79.9036,0 0,-87.1442 66.3842,0 0,16.8961 -42.2476,0 0,17.9843 38.8646,0 0,16.8983 -38.8646,0 0,18.4673 42.2476,0 0,16.8982 z"
     inkscape:connector-curvature="0"
     style="clip-rule:evenodd;fill:#000000;fill-opacity:1;fill-rule:evenodd;stroke-width:0.73302829"
     sodipodi:nodetypes="cccccccccccccccccccccccccccccccccccccccccccc" />
  <path
     id="path4657-5-9-2"
     d="m 1423.1061,314.25316 24.1388,0 0,87.1441 -24.1388,0 z m 36.8083,87.1441 0,-87.1441 66.3905,0 0,16.896 -42.2497,0 0,17.9843 38.8646,0 0,16.8983 -38.8646,0 0,18.4673 42.2497,0 0,16.8982 z m 79.9057,0 0,-87.1441 66.3842,0 0,16.896 -42.2476,0 0,17.9843 38.8667,0 0,16.8983 -38.8667,0 0,18.4673 42.2476,0 0,16.8982 z m 79.9036,0 0,-87.1441 66.3842,0 0,16.896 -42.2476,0 0,17.9843 38.8646,0 0,16.8983 -38.8646,0 0,18.4673 42.2476,0 0,16.8982 z"
     inkscape:connector-curvature="0"
     style="clip-rule:evenodd;fill:#000000;fill-opacity:1;fill-rule:evenodd;stroke-width:0.73302829"
     sodipodi:nodetypes="cccccccccccccccccccccccccccccccccccccccccccc" />
  <rect
     style="fill:none;fill-opacity:1;fill-rule:evenodd;stroke:#ff0000;stroke-width:0.40747955;stroke-linecap:butt;stroke-linejoin:miter;stroke-miterlimit:4;stroke-dasharray:none;stroke-opacity:1"
     id="rect4814"
     width="46.71854"
     height="32.545303"
     x="1725.396"
     y="181.39694" />
  <path
     d="m 716.19273,593.47226 3.07884,0 0,11.832 -3.07884,0 z"
     id="path2486"
     inkscape:connector-curvature="0"
     style="fill:#000000;stroke-width:0.05495677" />
  <path
     d="m 723.37514,593.47226 3.07885,0 0,11.832 -3.07885,0 z"
     id="path2488"
     inkscape:connector-curvature="0"
     style="fill:#000000;stroke-width:0.05495677" />
  <path
     d="m 704.55541,592.99906 11.38121,6.5713 -11.38121,6.5701 z"
     id="path2490"
     inkscape:connector-curvature="0"
     style="fill:#000000;stroke-width:0.05495677" />
  <text
     xml:space="preserve"
     style="font-style:normal;font-weight:normal;font-size:12.50000954px;line-height:1.25;font-family:sans-serif;letter-spacing:0px;word-spacing:0px;fill:#000000;fill-opacity:1;stroke:none;stroke-width:0.93750077"
     x="693.37512"
     y="865.72211"
     id="text3077"><tspan
       sodipodi:role="line"
       id="tspan3075"
       x="693.37512"
       y="865.72211"
       style="font-size:12.50000954px;stroke-width:0.93750077">Play FX</tspan></text>
  <text
     xml:space="preserve"
     style="font-style:normal;font-weight:normal;font-size:12.50000954px;line-height:1.25;font-family:sans-serif;letter-spacing:0px;word-spacing:0px;fill:#000000;fill-opacity:1;stroke:none;stroke-width:0.93750077"
     x="679.1922"
     y="735.07709"
     id="text3081"><tspan
       sodipodi:role="line"
       id="tspan3079"
       x="679.1922"
       y="735.07709"
       style="font-size:12.50000954px;stroke-width:0.93750077">Menu Select</tspan></text>
  <text
     xml:space="preserve"
     style="font-style:normal;font-weight:normal;font-size:12.50000954px;line-height:1.25;font-family:sans-serif;letter-spacing:0px;word-spacing:0px;fill:#000000;fill-opacity:1;stroke:none;stroke-width:0.93750077"
     x="1088.9866"
     y="701.82123"
     id="text3085"><tspan
       sodipodi:role="line"
       id="tspan3083"
       x="1088.9866"
       y="701.82123"
       style="font-size:12.50000954px;stroke-width:0.93750077">Volume</tspan></text>
  <text
     xml:space="preserve"
     style="font-style:normal;font-weight:normal;font-size:12.50000954px;line-height:1.25;font-family:sans-serif;letter-spacing:0px;word-spacing:0px;fill:#000000;fill-opacity:1;stroke:none;stroke-width:0.93750077"
     x="1022.7228"
     y="606.03461"
     id="text3089"><tspan
       sodipodi:role="line"
       id="tspan3087"
       x="1022.7228"
       y="606.03461"
       style="font-size:12.50000954px;stroke-width:0.93750077">NEW GIF</tspan></text>
  <text
     xml:space="preserve"
     style="font-style:normal;font-weight:normal;font-size:12.50000954px;line-height:1.25;font-family:sans-serif;text-align:center;letter-spacing:0px;word-spacing:0px;text-anchor:middle;fill:#000000;fill-opacity:1;stroke:none;stroke-width:0.93750077"
     x="1126.6604"
     y="606.22821"
     id="text3093"><tspan
       sodipodi:role="line"
       x="1126.6604"
       y="606.22821"
       style="font-size:12.50000954px;text-align:center;text-anchor:middle;stroke-width:0.93750077"
       id="tspan3095">GIF SPEED</tspan></text>
  <rect
     style="fill:none;fill-opacity:1;stroke:#ff0037;stroke-width:0.06281705;stroke-miterlimit:4;stroke-dasharray:none;stroke-opacity:1"
     id="rect8179-6"
     width="5.2521529"
     height="12.338777"
     x="1347.3523"
     y="385.30341" />
  <rect
     style="fill:none;fill-opacity:1;stroke:#ff0037;stroke-width:0.06281705;stroke-miterlimit:4;stroke-dasharray:none;stroke-opacity:1"
     id="rect8179-6-1"
     width="5.2521577"
     height="12.338786"
     x="1365.2972"
     y="385.30341" />
  <ellipse
     id="path3755"
     style="fill:none;stroke:#ff0000;stroke-width:0.35433069;stroke-miterlimit:4;stroke-dasharray:none;stroke-opacity:1"
     cx="462.28473"
     cy="735.8576"
     rx="4.7445221"
     ry="4.7396021" />
  <ellipse
     id="path3755-9"
     style="fill:none;stroke:#ff0000;stroke-width:0.35433069;stroke-miterlimit:4;stroke-dasharray:none;stroke-opacity:1"
     cx="462.28473"
     cy="909.48444"
     rx="4.7445221"
     ry="4.7396021" />
  <ellipse
     id="path3755-6"
     style="fill:none;stroke:#ff0000;stroke-width:0.35433069;stroke-miterlimit:4;stroke-dasharray:none;stroke-opacity:1"
     cx="256.77097"
     cy="909.48444"
     rx="4.7445221"
     ry="4.7396021" />
  <ellipse
     id="path3755-8"
     style="fill:none;stroke:#ff0000;stroke-width:0.35433069;stroke-miterlimit:4;stroke-dasharray:none;stroke-opacity:1"
     cx="256.77097"
     cy="735.8576"
     rx="4.7445221"
     ry="4.7396021" />
  <path
     id="rect3967"
     style="fill:none;fill-opacity:1;stroke:#ff0000;stroke-width:0.70866144;stroke-miterlimit:4;stroke-dasharray:none;stroke-opacity:1"
     d="m 1233.1011,481.83057 12.0891,0 0,17.01852 -12.0383,0 z m -17.5371,8.55656 c 0,-4.71608 3.8231,-8.53921 8.5392,-8.53925 1.4794,-10e-6 2.8709,0.37619 4.0842,1.03815 0.9204,0.50218 1.7381,1.16882 2.4138,1.96044 1.2728,1.49136 2.0413,3.42627 2.0413,5.54066 0,2.06953 -0.7362,3.96711 -1.961,5.44513 -1.5663,1.89014 -3.9317,3.09413 -6.5783,3.09411 -4.7161,-3e-5 -8.5392,-3.82316 -8.5392,-8.53924 z m -12.5495,-21.08869 42.1775,0 -10e-5,13.80693 0,3.12106 0,11.63305 0,13.61636 -42.1774,0 z"
     inkscape:connector-curvature="0" />
  <rect
     style="fill:none;fill-opacity:1;stroke:#ff0000;stroke-width:0.20685668;stroke-miterlimit:4;stroke-dasharray:none;stroke-opacity:1"
     id="rect6153-5"
     width="35.226242"
     height="13.966383"
     x="538.95868"
     y="-365.83859"
     transform="matrix(0,1,-1,0,0,0)" />
  <rect
     style="fill:none;fill-opacity:1;stroke:#ff0000;stroke-width:0.20685668;stroke-miterlimit:4;stroke-dasharray:none;stroke-opacity:1"
     id="rect6153-5-6"
     width="35.226269"
     height="13.966393"
     x="538.07111"
     y="-432.82199"
     transform="matrix(0,1,-1,0,0,0)" />
  <rect
     style="fill:none;fill-opacity:1;stroke:#ff0000;stroke-width:0.20685668;stroke-miterlimit:4;stroke-dasharray:none;stroke-opacity:1"
     id="rect6153-5-2"
     width="35.226269"
     height="13.966393"
     x="266.57361"
     y="445.19534" />
  <rect
     style="fill:none;fill-opacity:1;stroke:#ff0000;stroke-width:0.20685668;stroke-miterlimit:4;stroke-dasharray:none;stroke-opacity:1"
     id="rect6153-5-9"
     width="35.226269"
     height="13.966393"
     x="267.48157"
     y="389.81067" />
</svg>
