<?xml version="1.0" encoding="UTF-8" standalone="no"?>
<!-- Created with Inkscape (http://www.inkscape.org/) -->

<svg
   xmlns:dc="http://purl.org/dc/elements/1.1/"
   xmlns:cc="http://creativecommons.org/ns#"
   xmlns:rdf="http://www.w3.org/1999/02/22-rdf-syntax-ns#"
   xmlns:svg="http://www.w3.org/2000/svg"
   xmlns="http://www.w3.org/2000/svg"
   xmlns:sodipodi="http://sodipodi.sourceforge.net/DTD/sodipodi-0.dtd"
   xmlns:inkscape="http://www.inkscape.org/namespaces/inkscape"
   width="1000mm"
   height="1000mm"
   viewBox="0 0 3543.3071 3543.3071"
   id="svg5836"
   version="1.1"
   inkscape:version="0.91 r13725"
   sodipodi:docname="MIDI_Controller.svg">
  <defs
     id="defs5838" />
  <sodipodi:namedview
     id="base"
     pagecolor="#ffffff"
     bordercolor="#666666"
     borderopacity="1.0"
     inkscape:pageopacity="0.0"
     inkscape:pageshadow="2"
     inkscape:zoom="0.7"
     inkscape:cx="794.44722"
     inkscape:cy="2958.4381"
     inkscape:document-units="mm"
     inkscape:current-layer="layer1"
     showgrid="false"
     inkscape:window-width="1855"
     inkscape:window-height="1056"
     inkscape:window-x="65"
     inkscape:window-y="372"
     inkscape:window-maximized="1" />
  <metadata
     id="metadata5841">
    <rdf:RDF>
      <cc:Work
         rdf:about="">
        <dc:format>image/svg+xml</dc:format>
        <dc:type
           rdf:resource="http://purl.org/dc/dcmitype/StillImage" />
        <dc:title></dc:title>
      </cc:Work>
    </rdf:RDF>
  </metadata>
  <g
     inkscape:label="Layer 1"
     inkscape:groupmode="layer"
     id="layer1"
     transform="translate(0,2490.9449)">
    <g
       id="g5922"
       transform="translate(8.2416571,-2453.9121)">
      <g
         id="g5892"
         transform="translate(22.500018,22.500018)">
        <polygon
           id="polygon5894"
           points="88.58275,0 88.58275,10.62993 102.75599,10.62993 102.75599,0 116.92923,0 116.92923,10.62993 131.10247,10.62993 131.10247,0 145.27571,0 145.27571,10.62993 159.44895,10.62993 159.44895,0 173.62219,0 173.62219,10.62993 187.79543,10.62993 187.79543,0 201.96867,0 201.96867,10.62993 216.14191,10.62993 216.14191,0 230.31515,0 230.31515,10.62993 244.48839,10.62993 244.48839,0 258.66163,0 258.66163,10.62993 272.83487,10.62993 272.83487,0 287.00811,0 287.00811,10.62993 301.18135,10.62993 301.18135,0 315.35459,0 315.35459,10.62993 329.52783,10.62993 329.52783,0 343.70107,0 343.70107,10.62993 357.87431,10.62993 357.87431,0 372.04755,0 372.04755,10.62993 386.22079,10.62993 386.22079,0 400.39403,0 400.39403,10.62993 414.56727,10.62993 414.56727,0 428.74051,0 428.74051,10.62993 442.91375,10.62993 442.91375,0 457.08699,0 457.08699,10.62993 471.26023,10.62993 471.26023,0 485.43347,0 485.43347,10.62993 508.46498,10.62993 508.46498,0 531.4965,0 531.4965,23.917343 520.86657,23.917343 520.86657,47.834685 531.4965,47.834685 531.4965,62.007925 520.86657,62.007925 520.86657,76.181165 531.4965,76.181165 531.4965,90.354405 520.86657,90.354405 520.86657,104.52765 531.4965,104.52765 531.4965,118.70088 520.86657,118.70088 520.86657,132.87412 531.4965,132.87412 531.4965,147.04737 520.86657,147.04737 520.86657,170.96471 531.4965,170.96471 531.4965,194.88205 508.46498,194.88205 508.46498,184.25212 485.43347,184.25212 485.43347,194.88205 471.26023,194.88205 471.26023,184.25212 457.08699,184.25212 457.08699,194.88205 442.91375,194.88205 442.91375,184.25212 428.74051,184.25212 428.74051,194.88205 414.56727,194.88205 414.56727,184.25212 400.39403,184.25212 400.39403,194.88205 386.22079,194.88205 386.22079,184.25212 372.04755,184.25212 372.04755,194.88205 357.87431,194.88205 357.87431,184.25212 343.70107,184.25212 343.70107,194.88205 329.52783,194.88205 329.52783,184.25212 315.35459,184.25212 315.35459,194.88205 301.18135,194.88205 301.18135,184.25212 287.00811,184.25212 287.00811,194.88205 272.83487,194.88205 272.83487,184.25212 258.66163,184.25212 258.66163,194.88205 244.48839,194.88205 244.48839,184.25212 230.31515,184.25212 230.31515,194.88205 216.14191,194.88205 216.14191,184.25212 201.96867,184.25212 201.96867,194.88205 187.79543,194.88205 187.79543,184.25212 173.62219,184.25212 173.62219,194.88205 159.44895,194.88205 159.44895,184.25212 145.27571,184.25212 145.27571,194.88205 131.10247,194.88205 131.10247,184.25212 116.92923,184.25212 116.92923,194.88205 102.75599,194.88205 102.75599,184.25212 88.58275,184.25212 88.58275,194.88205 74.40951,194.88205 74.40951,184.25212 60.23627,184.25212 60.23627,194.88205 46.06303,194.88205 46.06303,184.25212 23.031515,184.25212 23.031515,194.88205 0,194.88205 0,170.96471 10.62993,170.96471 10.62993,147.04737 0,147.04737 0,132.87412 10.62993,132.87412 10.62993,118.70088 0,118.70088 0,104.52765 10.62993,104.52765 10.62993,90.354405 0,90.354405 0,76.181165 10.62993,76.181165 10.62993,62.007925 0,62.007925 0,47.834685 10.62993,47.834685 10.62993,23.917343 0,23.917343 0,0 23.031515,0 23.031515,10.62993 46.06303,10.62993 46.06303,0 60.23627,0 60.23627,10.62993 74.40951,10.62993 74.40951,0 "
           style="fill:none;stroke:#ff0000;stroke-width:0.90000075" />
      </g>
      <g
         id="g5896"
         transform="translate(553.99652,22.500018)">
        <polygon
           id="polygon5898"
           points="88.58275,0 88.58275,10.62993 102.75599,10.62993 102.75599,0 116.92923,0 116.92923,10.62993 131.10247,10.62993 131.10247,0 145.27571,0 145.27571,10.62993 159.44895,10.62993 159.44895,0 173.62219,0 173.62219,10.62993 187.79543,10.62993 187.79543,0 201.96867,0 201.96867,10.62993 216.14191,10.62993 216.14191,0 230.31515,0 230.31515,10.62993 244.48839,10.62993 244.48839,0 258.66163,0 258.66163,10.62993 272.83487,10.62993 272.83487,0 287.00811,0 287.00811,10.62993 301.18135,10.62993 301.18135,0 315.35459,0 315.35459,10.62993 329.52783,10.62993 329.52783,0 343.70107,0 343.70107,10.62993 357.87431,10.62993 357.87431,0 372.04755,0 372.04755,10.62993 386.22079,10.62993 386.22079,0 400.39403,0 400.39403,10.62993 414.56727,10.62993 414.56727,0 428.74051,0 428.74051,10.62993 442.91375,10.62993 442.91375,0 457.08699,0 457.08699,10.62993 471.26023,10.62993 471.26023,0 485.43347,0 485.43347,10.62993 508.46498,10.62993 508.46498,0 531.4965,0 531.4965,23.917343 520.86657,23.917343 520.86657,47.834685 531.4965,47.834685 531.4965,62.007925 520.86657,62.007925 520.86657,76.181165 531.4965,76.181165 531.4965,90.354405 520.86657,90.354405 520.86657,104.52765 531.4965,104.52765 531.4965,118.70088 520.86657,118.70088 520.86657,132.87412 531.4965,132.87412 531.4965,147.04737 520.86657,147.04737 520.86657,170.96471 531.4965,170.96471 531.4965,194.88205 508.46498,194.88205 508.46498,184.25212 485.43347,184.25212 485.43347,194.88205 471.26023,194.88205 471.26023,184.25212 457.08699,184.25212 457.08699,194.88205 442.91375,194.88205 442.91375,184.25212 428.74051,184.25212 428.74051,194.88205 414.56727,194.88205 414.56727,184.25212 400.39403,184.25212 400.39403,194.88205 386.22079,194.88205 386.22079,184.25212 372.04755,184.25212 372.04755,194.88205 357.87431,194.88205 357.87431,184.25212 343.70107,184.25212 343.70107,194.88205 329.52783,194.88205 329.52783,184.25212 315.35459,184.25212 315.35459,194.88205 301.18135,194.88205 301.18135,184.25212 287.00811,184.25212 287.00811,194.88205 272.83487,194.88205 272.83487,184.25212 258.66163,184.25212 258.66163,194.88205 244.48839,194.88205 244.48839,184.25212 230.31515,184.25212 230.31515,194.88205 216.14191,194.88205 216.14191,184.25212 201.96867,184.25212 201.96867,194.88205 187.79543,194.88205 187.79543,184.25212 173.62219,184.25212 173.62219,194.88205 159.44895,194.88205 159.44895,184.25212 145.27571,184.25212 145.27571,194.88205 131.10247,194.88205 131.10247,184.25212 116.92923,184.25212 116.92923,194.88205 102.75599,194.88205 102.75599,184.25212 88.58275,184.25212 88.58275,194.88205 74.40951,194.88205 74.40951,184.25212 60.23627,184.25212 60.23627,194.88205 46.06303,194.88205 46.06303,184.25212 23.031515,184.25212 23.031515,194.88205 0,194.88205 0,170.96471 10.62993,170.96471 10.62993,147.04737 0,147.04737 0,132.87412 10.62993,132.87412 10.62993,118.70088 0,118.70088 0,104.52765 10.62993,104.52765 10.62993,90.354405 0,90.354405 0,76.181165 10.62993,76.181165 10.62993,62.007925 0,62.007925 0,47.834685 10.62993,47.834685 10.62993,23.917343 0,23.917343 0,0 23.031515,0 23.031515,10.62993 46.06303,10.62993 46.06303,0 60.23627,0 60.23627,10.62993 74.40951,10.62993 74.40951,0 "
           style="fill:none;stroke:#ff0000;stroke-width:0.90000075" />
      </g>
      <g
         id="g5900"
         transform="translate(1085.493,22.500018)">
        <polygon
           id="polygon5902"
           points="81.49613,0 81.49613,10.62993 95.66937,10.62993 95.66937,0 109.84261,0 109.84261,10.62993 124.01585,10.62993 124.01585,0 138.18909,0 138.18909,10.62993 152.36233,10.62993 152.36233,0 166.53557,0 166.53557,10.62993 180.70881,10.62993 180.70881,0 194.88205,0 194.88205,10.62993 209.05529,10.62993 209.05529,0 223.22853,0 223.22853,10.62993 237.40177,10.62993 237.40177,0 251.57501,0 251.57501,10.62993 265.74825,10.62993 265.74825,0 279.92149,0 279.92149,10.62993 294.09473,10.62993 294.09473,0 308.26797,0 308.26797,10.62993 322.44121,10.62993 322.44121,0 336.61445,0 336.61445,10.62993 350.78769,10.62993 350.78769,0 364.96093,0 364.96093,10.62993 379.13417,10.62993 379.13417,0 393.30741,0 393.30741,10.62993 407.48065,10.62993 407.48065,0 421.65389,0 421.65389,10.62993 435.82713,10.62993 435.82713,0 450.00037,0 450.00037,10.62993 464.17361,10.62993 464.17361,0 478.34685,0 478.34685,10.62993 492.52009,10.62993 492.52009,0 506.69333,0 506.69333,10.62993 520.86657,10.62993 520.86657,0 535.03981,0 535.03981,10.62993 549.21305,10.62993 549.21305,0 563.38629,0 563.38629,10.62993 577.55953,10.62993 577.55953,0 591.73277,0 591.73277,10.62993 605.90601,10.62993 605.90601,0 620.07925,0 620.07925,10.62993 634.25249,10.62993 634.25249,0 648.42573,0 648.42573,10.62993 662.59897,10.62993 662.59897,0 676.77221,0 676.77221,10.62993 690.94545,10.62993 690.94545,0 705.11869,0 705.11869,10.62993 724.6069,10.62993 724.6069,0 733.46517,0 733.46517,23.917343 744.0951,23.917343 744.0951,47.834685 733.46517,47.834685 733.46517,62.007925 744.0951,62.007925 744.0951,76.181165 733.46517,76.181165 733.46517,90.354405 744.0951,90.354405 744.0951,104.52765 733.46517,104.52765 733.46517,118.70088 744.0951,118.70088 744.0951,132.87412 733.46517,132.87412 733.46517,147.04737 744.0951,147.04737 744.0951,170.96471 733.46517,170.96471 733.46517,194.88205 724.6069,194.88205 724.6069,184.25212 705.11869,184.25212 705.11869,194.88205 690.94545,194.88205 690.94545,184.25212 676.77221,184.25212 676.77221,194.88205 662.59897,194.88205 662.59897,184.25212 648.42573,184.25212 648.42573,194.88205 634.25249,194.88205 634.25249,184.25212 620.07925,184.25212 620.07925,194.88205 605.90601,194.88205 605.90601,184.25212 591.73277,184.25212 591.73277,194.88205 577.55953,194.88205 577.55953,184.25212 563.38629,184.25212 563.38629,194.88205 549.21305,194.88205 549.21305,184.25212 535.03981,184.25212 535.03981,194.88205 520.86657,194.88205 520.86657,184.25212 506.69333,184.25212 506.69333,194.88205 492.52009,194.88205 492.52009,184.25212 478.34685,184.25212 478.34685,194.88205 464.17361,194.88205 464.17361,184.25212 450.00037,184.25212 450.00037,194.88205 435.82713,194.88205 435.82713,184.25212 421.65389,184.25212 421.65389,194.88205 407.48065,194.88205 407.48065,184.25212 393.30741,184.25212 393.30741,194.88205 379.13417,194.88205 379.13417,184.25212 364.96093,184.25212 364.96093,194.88205 350.78769,194.88205 350.78769,184.25212 336.61445,184.25212 336.61445,194.88205 322.44121,194.88205 322.44121,184.25212 308.26797,184.25212 308.26797,194.88205 294.09473,194.88205 294.09473,184.25212 279.92149,184.25212 279.92149,194.88205 265.74825,194.88205 265.74825,184.25212 251.57501,184.25212 251.57501,194.88205 237.40177,194.88205 237.40177,184.25212 223.22853,184.25212 223.22853,194.88205 209.05529,194.88205 209.05529,184.25212 194.88205,184.25212 194.88205,194.88205 180.70881,194.88205 180.70881,184.25212 166.53557,184.25212 166.53557,194.88205 152.36233,194.88205 152.36233,184.25212 138.18909,184.25212 138.18909,194.88205 124.01585,194.88205 124.01585,184.25212 109.84261,184.25212 109.84261,194.88205 95.66937,194.88205 95.66937,184.25212 81.49613,184.25212 81.49613,194.88205 67.32289,194.88205 67.32289,184.25212 53.14965,184.25212 53.14965,194.88205 38.97641,194.88205 38.97641,184.25212 19.488205,184.25212 19.488205,194.88205 10.62993,194.88205 10.62993,170.96471 0,170.96471 0,147.04737 10.62993,147.04737 10.62993,132.87412 0,132.87412 0,118.70088 10.62993,118.70088 10.62993,104.52765 0,104.52765 0,90.354405 10.62993,90.354405 10.62993,76.181165 0,76.181165 0,62.007925 10.62993,62.007925 10.62993,47.834685 0,47.834685 0,23.917343 10.62993,23.917343 10.62993,0 19.488205,0 19.488205,10.62993 38.97641,10.62993 38.97641,0 53.14965,0 53.14965,10.62993 67.32289,10.62993 67.32289,0 "
           style="fill:none;stroke:#ff0000;stroke-width:0.90000075" />
      </g>
      <g
         id="g5904"
         transform="translate(1085.493,215.07834)">
        <polygon
           id="polygon5906"
           points="81.49613,10.62993 95.66937,10.62993 95.66937,0 109.84261,0 109.84261,10.62993 124.01585,10.62993 124.01585,0 138.18909,0 138.18909,10.62993 152.36233,10.62993 152.36233,0 166.53557,0 166.53557,10.62993 180.70881,10.62993 180.70881,0 194.88205,0 194.88205,10.62993 209.05529,10.62993 209.05529,0 223.22853,0 223.22853,10.62993 237.40177,10.62993 237.40177,0 251.57501,0 251.57501,10.62993 265.74825,10.62993 265.74825,0 279.92149,0 279.92149,10.62993 294.09473,10.62993 294.09473,0 308.26797,0 308.26797,10.62993 322.44121,10.62993 322.44121,0 336.61445,0 336.61445,10.62993 350.78769,10.62993 350.78769,0 364.96093,0 364.96093,10.62993 379.13417,10.62993 379.13417,0 393.30741,0 393.30741,10.62993 407.48065,10.62993 407.48065,0 421.65389,0 421.65389,10.62993 435.82713,10.62993 435.82713,0 450.00037,0 450.00037,10.62993 464.17361,10.62993 464.17361,0 478.34685,0 478.34685,10.62993 492.52009,10.62993 492.52009,0 506.69333,0 506.69333,10.62993 520.86657,10.62993 520.86657,0 535.03981,0 535.03981,10.62993 549.21305,10.62993 549.21305,0 563.38629,0 563.38629,10.62993 577.55953,10.62993 577.55953,0 591.73277,0 591.73277,10.62993 605.90601,10.62993 605.90601,0 620.07925,0 620.07925,10.62993 634.25249,10.62993 634.25249,0 648.42573,0 648.42573,10.62993 662.59897,10.62993 662.59897,0 676.77221,0 676.77221,10.62993 690.94545,10.62993 690.94545,0 705.11869,0 705.11869,10.62993 724.6069,10.62993 724.6069,0 733.46517,0 733.46517,23.917343 744.0951,23.917343 744.0951,47.834685 733.46517,47.834685 733.46517,62.007925 744.0951,62.007925 744.0951,76.181165 733.46517,76.181165 733.46517,90.354405 744.0951,90.354405 744.0951,104.52765 733.46517,104.52765 733.46517,118.70088 744.0951,118.70088 744.0951,132.87412 733.46517,132.87412 733.46517,147.04737 744.0951,147.04737 744.0951,170.96471 733.46517,170.96471 733.46517,194.88205 724.6069,194.88205 724.6069,184.25212 705.11869,184.25212 705.11869,194.88205 690.94545,194.88205 690.94545,184.25212 676.77221,184.25212 676.77221,194.88205 662.59897,194.88205 662.59897,184.25212 648.42573,184.25212 648.42573,194.88205 634.25249,194.88205 634.25249,184.25212 620.07925,184.25212 620.07925,194.88205 605.90601,194.88205 605.90601,184.25212 591.73277,184.25212 591.73277,194.88205 577.55953,194.88205 577.55953,184.25212 563.38629,184.25212 563.38629,194.88205 549.21305,194.88205 549.21305,184.25212 535.03981,184.25212 535.03981,194.88205 520.86657,194.88205 520.86657,184.25212 506.69333,184.25212 506.69333,194.88205 492.52009,194.88205 492.52009,184.25212 478.34685,184.25212 478.34685,194.88205 464.17361,194.88205 464.17361,184.25212 450.00037,184.25212 450.00037,194.88205 435.82713,194.88205 435.82713,184.25212 421.65389,184.25212 421.65389,194.88205 407.48065,194.88205 407.48065,184.25212 393.30741,184.25212 393.30741,194.88205 379.13417,194.88205 379.13417,184.25212 364.96093,184.25212 364.96093,194.88205 350.78769,194.88205 350.78769,184.25212 336.61445,184.25212 336.61445,194.88205 322.44121,194.88205 322.44121,184.25212 308.26797,184.25212 308.26797,194.88205 294.09473,194.88205 294.09473,184.25212 279.92149,184.25212 279.92149,194.88205 265.74825,194.88205 265.74825,184.25212 251.57501,184.25212 251.57501,194.88205 237.40177,194.88205 237.40177,184.25212 223.22853,184.25212 223.22853,194.88205 209.05529,194.88205 209.05529,184.25212 194.88205,184.25212 194.88205,194.88205 180.70881,194.88205 180.70881,184.25212 166.53557,184.25212 166.53557,194.88205 152.36233,194.88205 152.36233,184.25212 138.18909,184.25212 138.18909,194.88205 124.01585,194.88205 124.01585,184.25212 109.84261,184.25212 109.84261,194.88205 95.66937,194.88205 95.66937,184.25212 81.49613,184.25212 81.49613,194.88205 67.32289,194.88205 67.32289,184.25212 53.14965,184.25212 53.14965,194.88205 38.97641,194.88205 38.97641,184.25212 19.488205,184.25212 19.488205,194.88205 10.62993,194.88205 10.62993,170.96471 0,170.96471 0,147.04737 10.62993,147.04737 10.62993,132.87412 0,132.87412 0,118.70088 10.62993,118.70088 10.62993,104.52765 0,104.52765 0,90.354405 10.62993,90.354405 10.62993,76.181165 0,76.181165 0,62.007925 10.62993,62.007925 10.62993,47.834685 0,47.834685 0,23.917343 10.62993,23.917343 10.62993,0 19.488205,0 19.488205,10.62993 38.97641,10.62993 38.97641,0 53.14965,0 53.14965,10.62993 67.32289,10.62993 67.32289,0 81.49613,0 "
           style="fill:none;stroke:#ff0000;stroke-width:0.90000075" />
      </g>
      <g
         id="g5908"
         transform="translate(22.500018,217.38207)">
        <polygon
           id="polygon5910"
           points="88.58275,10.62993 88.58275,0 102.75599,0 102.75599,10.62993 116.92923,10.62993 116.92923,0 131.10247,0 131.10247,10.62993 145.27571,10.62993 145.27571,0 159.44895,0 159.44895,10.62993 173.62219,10.62993 173.62219,0 187.79543,0 187.79543,10.62993 201.96867,10.62993 201.96867,0 216.14191,0 216.14191,10.62993 230.31515,10.62993 230.31515,0 244.48839,0 244.48839,10.62993 258.66163,10.62993 258.66163,0 272.83487,0 272.83487,10.62993 287.00811,10.62993 287.00811,0 301.18135,0 301.18135,10.62993 315.35459,10.62993 315.35459,0 329.52783,0 329.52783,10.62993 343.70107,10.62993 343.70107,0 357.87431,0 357.87431,10.62993 372.04755,10.62993 372.04755,0 386.22079,0 386.22079,10.62993 400.39403,10.62993 400.39403,0 414.56727,0 414.56727,10.62993 428.74051,10.62993 428.74051,0 442.91375,0 442.91375,10.62993 457.08699,10.62993 457.08699,0 471.26023,0 471.26023,10.62993 485.43347,10.62993 485.43347,0 508.46498,0 508.46498,10.62993 520.86657,10.62993 520.86657,19.488205 531.4965,19.488205 531.4965,38.97641 520.86657,38.97641 520.86657,53.14965 531.4965,53.14965 531.4965,67.32289 520.86657,67.32289 520.86657,81.49613 531.4965,81.49613 531.4965,95.66937 520.86657,95.66937 520.86657,109.84261 531.4965,109.84261 531.4965,124.01585 520.86657,124.01585 520.86657,138.18909 531.4965,138.18909 531.4965,152.36233 520.86657,152.36233 520.86657,166.53557 531.4965,166.53557 531.4965,180.70881 520.86657,180.70881 520.86657,194.88205 531.4965,194.88205 531.4965,209.05529 520.86657,209.05529 520.86657,223.22853 531.4965,223.22853 531.4965,237.40177 520.86657,237.40177 520.86657,251.57501 531.4965,251.57501 531.4965,265.74825 520.86657,265.74825 520.86657,279.92149 531.4965,279.92149 531.4965,294.09473 520.86657,294.09473 520.86657,308.26797 531.4965,308.26797 531.4965,322.44121 520.86657,322.44121 520.86657,336.61445 531.4965,336.61445 531.4965,350.78769 520.86657,350.78769 520.86657,364.96093 531.4965,364.96093 531.4965,379.13417 520.86657,379.13417 520.86657,393.30741 531.4965,393.30741 531.4965,407.48065 520.86657,407.48065 520.86657,421.65389 531.4965,421.65389 531.4965,435.82713 520.86657,435.82713 520.86657,450.00037 531.4965,450.00037 531.4965,464.17361 520.86657,464.17361 520.86657,478.34685 531.4965,478.34685 531.4965,492.52009 520.86657,492.52009 520.86657,506.69333 531.4965,506.69333 531.4965,520.86657 520.86657,520.86657 520.86657,535.03981 531.4965,535.03981 531.4965,549.21305 520.86657,549.21305 520.86657,563.38629 531.4965,563.38629 531.4965,577.55953 520.86657,577.55953 520.86657,591.73277 531.4965,591.73277 531.4965,605.90601 520.86657,605.90601 520.86657,620.07925 531.4965,620.07925 531.4965,634.25249 520.86657,634.25249 520.86657,648.42573 531.4965,648.42573 531.4965,662.59897 520.86657,662.59897 520.86657,676.77221 531.4965,676.77221 531.4965,690.94545 520.86657,690.94545 520.86657,705.11869 531.4965,705.11869 531.4965,724.6069 520.86657,724.6069 520.86657,733.46517 508.46498,733.46517 508.46498,744.0951 485.43347,744.0951 485.43347,733.46517 471.26023,733.46517 471.26023,744.0951 457.08699,744.0951 457.08699,733.46517 442.91375,733.46517 442.91375,744.0951 428.74051,744.0951 428.74051,733.46517 414.56727,733.46517 414.56727,744.0951 400.39403,744.0951 400.39403,733.46517 386.22079,733.46517 386.22079,744.0951 372.04755,744.0951 372.04755,733.46517 357.87431,733.46517 357.87431,744.0951 343.70107,744.0951 343.70107,733.46517 329.52783,733.46517 329.52783,744.0951 315.35459,744.0951 315.35459,733.46517 301.18135,733.46517 301.18135,744.0951 287.00811,744.0951 287.00811,733.46517 272.83487,733.46517 272.83487,744.0951 258.66163,744.0951 258.66163,733.46517 244.48839,733.46517 244.48839,744.0951 230.31515,744.0951 230.31515,733.46517 216.14191,733.46517 216.14191,744.0951 201.96867,744.0951 201.96867,733.46517 187.79543,733.46517 187.79543,744.0951 173.62219,744.0951 173.62219,733.46517 159.44895,733.46517 159.44895,744.0951 145.27571,744.0951 145.27571,733.46517 131.10247,733.46517 131.10247,744.0951 116.92923,744.0951 116.92923,733.46517 102.75599,733.46517 102.75599,744.0951 88.58275,744.0951 88.58275,733.46517 74.40951,733.46517 74.40951,744.0951 60.23627,744.0951 60.23627,733.46517 46.06303,733.46517 46.06303,744.0951 23.031515,744.0951 23.031515,733.46517 10.62993,733.46517 10.62993,724.6069 0,724.6069 0,705.11869 10.62993,705.11869 10.62993,690.94545 0,690.94545 0,676.77221 10.62993,676.77221 10.62993,662.59897 0,662.59897 0,648.42573 10.62993,648.42573 10.62993,634.25249 0,634.25249 0,620.07925 10.62993,620.07925 10.62993,605.90601 0,605.90601 0,591.73277 10.62993,591.73277 10.62993,577.55953 0,577.55953 0,563.38629 10.62993,563.38629 10.62993,549.21305 0,549.21305 0,535.03981 10.62993,535.03981 10.62993,520.86657 0,520.86657 0,506.69333 10.62993,506.69333 10.62993,492.52009 0,492.52009 0,478.34685 10.62993,478.34685 10.62993,464.17361 0,464.17361 0,450.00037 10.62993,450.00037 10.62993,435.82713 0,435.82713 0,421.65389 10.62993,421.65389 10.62993,407.48065 0,407.48065 0,393.30741 10.62993,393.30741 10.62993,379.13417 0,379.13417 0,364.96093 10.62993,364.96093 10.62993,350.78769 0,350.78769 0,336.61445 10.62993,336.61445 10.62993,322.44121 0,322.44121 0,308.26797 10.62993,308.26797 10.62993,294.09473 0,294.09473 0,279.92149 10.62993,279.92149 10.62993,265.74825 0,265.74825 0,251.57501 10.62993,251.57501 10.62993,237.40177 0,237.40177 0,223.22853 10.62993,223.22853 10.62993,209.05529 0,209.05529 0,194.88205 10.62993,194.88205 10.62993,180.70881 0,180.70881 0,166.53557 10.62993,166.53557 10.62993,152.36233 0,152.36233 0,138.18909 10.62993,138.18909 10.62993,124.01585 0,124.01585 0,109.84261 10.62993,109.84261 10.62993,95.66937 0,95.66937 0,81.49613 10.62993,81.49613 10.62993,67.32289 0,67.32289 0,53.14965 10.62993,53.14965 10.62993,38.97641 0,38.97641 0,19.488205 10.62993,19.488205 10.62993,10.62993 23.031515,10.62993 23.031515,0 46.06303,0 46.06303,10.62993 60.23627,10.62993 60.23627,0 74.40951,0 74.40951,10.62993 "
           style="fill:none;stroke:#ff0000;stroke-width:0.90000075" />
      </g>
      <g
         id="g5912"
         transform="translate(553.99652,217.38207)">
        <polygon
           id="polygon5914"
           points="88.58275,10.62993 88.58275,0 102.75599,0 102.75599,10.62993 116.92923,10.62993 116.92923,0 131.10247,0 131.10247,10.62993 145.27571,10.62993 145.27571,0 159.44895,0 159.44895,10.62993 173.62219,10.62993 173.62219,0 187.79543,0 187.79543,10.62993 201.96867,10.62993 201.96867,0 216.14191,0 216.14191,10.62993 230.31515,10.62993 230.31515,0 244.48839,0 244.48839,10.62993 258.66163,10.62993 258.66163,0 272.83487,0 272.83487,10.62993 287.00811,10.62993 287.00811,0 301.18135,0 301.18135,10.62993 315.35459,10.62993 315.35459,0 329.52783,0 329.52783,10.62993 343.70107,10.62993 343.70107,0 357.87431,0 357.87431,10.62993 372.04755,10.62993 372.04755,0 386.22079,0 386.22079,10.62993 400.39403,10.62993 400.39403,0 414.56727,0 414.56727,10.62993 428.74051,10.62993 428.74051,0 442.91375,0 442.91375,10.62993 457.08699,10.62993 457.08699,0 471.26023,0 471.26023,10.62993 485.43347,10.62993 485.43347,0 508.46498,0 508.46498,10.62993 520.86657,10.62993 520.86657,19.488205 531.4965,19.488205 531.4965,38.97641 520.86657,38.97641 520.86657,53.14965 531.4965,53.14965 531.4965,67.32289 520.86657,67.32289 520.86657,81.49613 531.4965,81.49613 531.4965,95.66937 520.86657,95.66937 520.86657,109.84261 531.4965,109.84261 531.4965,124.01585 520.86657,124.01585 520.86657,138.18909 531.4965,138.18909 531.4965,152.36233 520.86657,152.36233 520.86657,166.53557 531.4965,166.53557 531.4965,180.70881 520.86657,180.70881 520.86657,194.88205 531.4965,194.88205 531.4965,209.05529 520.86657,209.05529 520.86657,223.22853 531.4965,223.22853 531.4965,237.40177 520.86657,237.40177 520.86657,251.57501 531.4965,251.57501 531.4965,265.74825 520.86657,265.74825 520.86657,279.92149 531.4965,279.92149 531.4965,294.09473 520.86657,294.09473 520.86657,308.26797 531.4965,308.26797 531.4965,322.44121 520.86657,322.44121 520.86657,336.61445 531.4965,336.61445 531.4965,350.78769 520.86657,350.78769 520.86657,364.96093 531.4965,364.96093 531.4965,379.13417 520.86657,379.13417 520.86657,393.30741 531.4965,393.30741 531.4965,407.48065 520.86657,407.48065 520.86657,421.65389 531.4965,421.65389 531.4965,435.82713 520.86657,435.82713 520.86657,450.00037 531.4965,450.00037 531.4965,464.17361 520.86657,464.17361 520.86657,478.34685 531.4965,478.34685 531.4965,492.52009 520.86657,492.52009 520.86657,506.69333 531.4965,506.69333 531.4965,520.86657 520.86657,520.86657 520.86657,535.03981 531.4965,535.03981 531.4965,549.21305 520.86657,549.21305 520.86657,563.38629 531.4965,563.38629 531.4965,577.55953 520.86657,577.55953 520.86657,591.73277 531.4965,591.73277 531.4965,605.90601 520.86657,605.90601 520.86657,620.07925 531.4965,620.07925 531.4965,634.25249 520.86657,634.25249 520.86657,648.42573 531.4965,648.42573 531.4965,662.59897 520.86657,662.59897 520.86657,676.77221 531.4965,676.77221 531.4965,690.94545 520.86657,690.94545 520.86657,705.11869 531.4965,705.11869 531.4965,724.6069 520.86657,724.6069 520.86657,733.46517 508.46498,733.46517 508.46498,744.0951 485.43347,744.0951 485.43347,733.46517 471.26023,733.46517 471.26023,744.0951 457.08699,744.0951 457.08699,733.46517 442.91375,733.46517 442.91375,744.0951 428.74051,744.0951 428.74051,733.46517 414.56727,733.46517 414.56727,744.0951 400.39403,744.0951 400.39403,733.46517 386.22079,733.46517 386.22079,744.0951 372.04755,744.0951 372.04755,733.46517 357.87431,733.46517 357.87431,744.0951 343.70107,744.0951 343.70107,733.46517 329.52783,733.46517 329.52783,744.0951 315.35459,744.0951 315.35459,733.46517 301.18135,733.46517 301.18135,744.0951 287.00811,744.0951 287.00811,733.46517 272.83487,733.46517 272.83487,744.0951 258.66163,744.0951 258.66163,733.46517 244.48839,733.46517 244.48839,744.0951 230.31515,744.0951 230.31515,733.46517 216.14191,733.46517 216.14191,744.0951 201.96867,744.0951 201.96867,733.46517 187.79543,733.46517 187.79543,744.0951 173.62219,744.0951 173.62219,733.46517 159.44895,733.46517 159.44895,744.0951 145.27571,744.0951 145.27571,733.46517 131.10247,733.46517 131.10247,744.0951 116.92923,744.0951 116.92923,733.46517 102.75599,733.46517 102.75599,744.0951 88.58275,744.0951 88.58275,733.46517 74.40951,733.46517 74.40951,744.0951 60.23627,744.0951 60.23627,733.46517 46.06303,733.46517 46.06303,744.0951 23.031515,744.0951 23.031515,733.46517 10.62993,733.46517 10.62993,724.6069 0,724.6069 0,705.11869 10.62993,705.11869 10.62993,690.94545 0,690.94545 0,676.77221 10.62993,676.77221 10.62993,662.59897 0,662.59897 0,648.42573 10.62993,648.42573 10.62993,634.25249 0,634.25249 0,620.07925 10.62993,620.07925 10.62993,605.90601 0,605.90601 0,591.73277 10.62993,591.73277 10.62993,577.55953 0,577.55953 0,563.38629 10.62993,563.38629 10.62993,549.21305 0,549.21305 0,535.03981 10.62993,535.03981 10.62993,520.86657 0,520.86657 0,506.69333 10.62993,506.69333 10.62993,492.52009 0,492.52009 0,478.34685 10.62993,478.34685 10.62993,464.17361 0,464.17361 0,450.00037 10.62993,450.00037 10.62993,435.82713 0,435.82713 0,421.65389 10.62993,421.65389 10.62993,407.48065 0,407.48065 0,393.30741 10.62993,393.30741 10.62993,379.13417 0,379.13417 0,364.96093 10.62993,364.96093 10.62993,350.78769 0,350.78769 0,336.61445 10.62993,336.61445 10.62993,322.44121 0,322.44121 0,308.26797 10.62993,308.26797 10.62993,294.09473 0,294.09473 0,279.92149 10.62993,279.92149 10.62993,265.74825 0,265.74825 0,251.57501 10.62993,251.57501 10.62993,237.40177 0,237.40177 0,223.22853 10.62993,223.22853 10.62993,209.05529 0,209.05529 0,194.88205 10.62993,194.88205 10.62993,180.70881 0,180.70881 0,166.53557 10.62993,166.53557 10.62993,152.36233 0,152.36233 0,138.18909 10.62993,138.18909 10.62993,124.01585 0,124.01585 0,109.84261 10.62993,109.84261 10.62993,95.66937 0,95.66937 0,81.49613 10.62993,81.49613 10.62993,67.32289 0,67.32289 0,53.14965 10.62993,53.14965 10.62993,38.97641 0,38.97641 0,19.488205 10.62993,19.488205 10.62993,10.62993 23.031515,10.62993 23.031515,0 46.06303,0 46.06303,10.62993 60.23627,10.62993 60.23627,0 74.40951,0 74.40951,10.62993 "
           style="fill:none;stroke:#ff0000;stroke-width:0.90000075" />
      </g>
      <rect
         style="fill:none;fill-opacity:1;fill-rule:evenodd;stroke:#ff0000;stroke-width:0.32514107;stroke-linecap:butt;stroke-linejoin:miter;stroke-miterlimit:4;stroke-dasharray:none;stroke-opacity:1"
         id="rect4814"
         width="36.879581"
         height="26.249662"
         x="1157.2173"
         y="341.47354" />
      <circle
         style="fill:none;fill-opacity:1;stroke:#ff0000;stroke-width:1.05162239;stroke-miterlimit:4;stroke-dasharray:none;stroke-opacity:1"
         id="path5677"
         cx="624.0672"
         cy="883.5932"
         r="41.993874" />
      <circle
         style="fill:none;fill-opacity:1;stroke:#ff0000;stroke-width:1.05162239;stroke-miterlimit:4;stroke-dasharray:none;stroke-opacity:1"
         id="path5677-3"
         cx="624.0672"
         cy="748.94928"
         r="41.993874" />
      <circle
         style="fill:none;fill-opacity:1;stroke:#ff0000;stroke-width:1.05162239;stroke-miterlimit:4;stroke-dasharray:none;stroke-opacity:1"
         id="path5677-3-5"
         cx="624.0672"
         cy="614.30359"
         r="41.993874" />
      <ellipse
         style="fill:none;fill-opacity:1;stroke:#00ff00;stroke-width:1.2329582;stroke-miterlimit:4;stroke-dasharray:none;stroke-opacity:1"
         id="path5709"
         cx="829.78833"
         cy="755.1004"
         rx="123.39925"
         ry="123.39927" />
      <ellipse
         style="fill:none;fill-opacity:1;stroke:#ff0000;stroke-width:0.2957688;stroke-miterlimit:4;stroke-dasharray:none;stroke-opacity:1"
         id="path5677-3-5-6"
         cx="829.78833"
         cy="755.1004"
         rx="11.810778"
         ry="11.810777" />
      <path
         style="fill:none;fill-opacity:1;stroke:#ff0000;stroke-width:0.52421314;stroke-miterlimit:4;stroke-dasharray:none;stroke-opacity:1"
         d="m 1013.3071,671.5251 10.3071,0 6e-4,251.29525 -10.3071,0 z"
         id="rect5768"
         inkscape:connector-curvature="0"
         sodipodi:nodetypes="ccccc" />
      <circle
         id="path3755-6-2"
         style="fill:none;stroke:#ff0000;stroke-width:0.3828356;stroke-miterlimit:4;stroke-dasharray:none;stroke-opacity:1"
         cx="-991.88611"
         cy="-912.08313"
         transform="scale(-1,-1)"
         r="5.1235428" />
      <circle
         id="path3755-6-2-9"
         style="fill:none;stroke:#ff0000;stroke-width:0.3828356;stroke-miterlimit:4;stroke-dasharray:none;stroke-opacity:1"
         cx="-1041.4924"
         cy="-912.08185"
         transform="scale(-1,-1)"
         r="5.1235428" />
      <circle
         id="path3755-6-2-1"
         style="fill:none;stroke:#ff0000;stroke-width:0.3828356;stroke-miterlimit:4;stroke-dasharray:none;stroke-opacity:1"
         cx="-991.88611"
         cy="-699.48468"
         transform="scale(-1,-1)"
         r="5.1235428" />
      <circle
         id="path3755-6-2-9-2"
         style="fill:none;stroke:#ff0000;stroke-width:0.3828356;stroke-miterlimit:4;stroke-dasharray:none;stroke-opacity:1"
         cx="-1041.4924"
         cy="-699.48468"
         transform="scale(-1,-1)"
         r="5.1235428" />
      <circle
         style="fill:none;fill-opacity:1;stroke:#ff0000;stroke-width:0.94991308;stroke-miterlimit:4;stroke-dasharray:none;stroke-opacity:1"
         id="path5819"
         cx="986.44849"
         cy="590.49091"
         r="19.013233" />
      <ellipse
         style="fill:none;fill-opacity:1;stroke:#ff0000;stroke-width:0.51813442;stroke-miterlimit:4;stroke-dasharray:none;stroke-opacity:1"
         id="path5819-7"
         cx="1050.03"
         cy="590.49091"
         rx="10.370853"
         ry="10.370854" />
      <rect
         style="fill:none;fill-opacity:1;stroke:#ff0000;stroke-width:0.61225832;stroke-miterlimit:4;stroke-dasharray:none;stroke-opacity:1"
         id="rect6153"
         width="87.970421"
         height="48.994041"
         x="759.71173"
         y="437.47363" />
      <rect
         style="fill:none;fill-opacity:1;stroke:#ff0000;stroke-width:0.31918618;stroke-miterlimit:4;stroke-dasharray:none;stroke-opacity:1"
         id="rect6153-3"
         width="49.692066"
         height="23.572828"
         x="851.91229"
         y="248.77362" />
    </g>
    <ellipse
       id="path3755"
       style="fill:none;stroke:#ff0000;stroke-width:0.35433069;stroke-miterlimit:4;stroke-dasharray:none;stroke-opacity:1"
       cx="-214.72757"
       cy="1719.0964"
       rx="4.7445183"
       ry="4.7395983"
       transform="scale(-1,-1)" />
    <ellipse
       id="path3755-9"
       style="fill:none;stroke:#ff0000;stroke-width:0.35433069;stroke-miterlimit:4;stroke-dasharray:none;stroke-opacity:1"
       cx="-214.72757"
       cy="1892.7231"
       rx="4.7445183"
       ry="4.7395983"
       transform="scale(-1,-1)" />
    <ellipse
       id="path3755-6"
       style="fill:none;stroke:#ff0000;stroke-width:0.35433069;stroke-miterlimit:4;stroke-dasharray:none;stroke-opacity:1"
       cx="-420.24118"
       cy="1892.7231"
       rx="4.7445183"
       ry="4.7395983"
       transform="scale(-1,-1)" />
    <ellipse
       id="path3755-8"
       style="fill:none;stroke:#ff0000;stroke-width:0.35433069;stroke-miterlimit:4;stroke-dasharray:none;stroke-opacity:1"
       cx="-420.24118"
       cy="1719.0964"
       rx="4.7445183"
       ry="4.7395983"
       transform="scale(-1,-1)" />
    <path
       id="path4657-5"
       d="m 1286.3882,-2200.8339 32.9302,0 0,118.8824 -32.9302,0 z m 50.2138,118.8824 0,-118.8824 90.5703,0 0,23.0496 -57.6372,0 0,24.5343 53.0192,0 0,23.0527 -53.0192,0 0,25.1932 57.6372,0 0,23.0526 z m 109.0078,0 0,-118.8824 90.5616,0 0,23.0496 -57.6343,0 0,24.5343 53.0221,0 0,23.0527 -53.0221,0 0,25.1932 57.6343,0 0,23.0526 z m 109.0048,0 0,-118.8824 90.5617,0 0,23.0496 -57.6344,0 0,24.5343 53.0192,0 0,23.0527 -53.0192,0 0,25.1932 57.6344,0 0,23.0526 z"
       inkscape:connector-curvature="0"
       style="clip-rule:evenodd;fill:#000000;fill-opacity:1;fill-rule:evenodd"
       sodipodi:nodetypes="cccccccccccccccccccccccccccccccccccccccccccc" />
    <path
       id="path4657-5-9"
       d="m 1286.3882,-2393.4123 32.9302,0 0,118.8824 -32.9302,0 z m 50.2138,118.8824 0,-118.8824 90.5703,0 0,23.0496 -57.6372,0 0,24.5343 53.0192,0 0,23.0527 -53.0192,0 0,25.1932 57.6372,0 0,23.0526 z m 109.0078,0 0,-118.8824 90.5616,0 0,23.0496 -57.6343,0 0,24.5343 53.0221,0 0,23.0527 -53.0221,0 0,25.1932 57.6343,0 0,23.0526 z m 109.0048,0 0,-118.8824 90.5617,0 0,23.0496 -57.6344,0 0,24.5343 53.0192,0 0,23.0527 -53.0192,0 0,25.1932 57.6344,0 0,23.0526 z"
       inkscape:connector-curvature="0"
       style="clip-rule:evenodd;fill:#000000;fill-opacity:1;fill-rule:evenodd"
       sodipodi:nodetypes="cccccccccccccccccccccccccccccccccccccccccccc" />
    <g
       id="g4773"
       transform="matrix(0.5487003,0,0,0.5487003,218.28829,-1750.5784)">
      <path
         style="clip-rule:evenodd;fill:#000000;fill-opacity:1;fill-rule:evenodd"
         inkscape:connector-curvature="0"
         d="m 1104.7603,-1155.9895 c -29.0165,20.0587 -56.9464,47.2275 -79.4186,74.9672 -4.5765,6.7346 -12.5729,13.1488 -8.9528,22.1066 2.6038,6.5994 8.4471,11.3562 12.1925,17.1945 22.0214,26.4729 48.0537,51.16824 75.2175,71.04164 11.9371,7.6159 20.4442,-4.6967 29.7125,-10.3548 18.9821,-14.9714 36.5673,-33.19244 53.201,-50.90284 l 0,-0.4406 c 6.6596,-8.0665 13.7096,-15.9979 18.9121,-24.6953 2.2933,-4.2661 1.1466,-10.1044 -1.402,-13.8498 -20.1238,-29.1417 -46.5265,-54.9085 -74.5216,-77.4457 -7.2403,-5.0823 -15.6173,-13.965 -24.9406,-7.6209 z"
         id="path4620" />
      <path
         style="clip-rule:evenodd;fill:#ffffff;fill-rule:evenodd"
         inkscape:connector-curvature="0"
         d="m 1110.6587,-1137.7034 -2.5336,8.1216 -12.6982,36.3821 c 3.1746,0.3104 7.1102,0 10.2196,0.3104 l 0,0.3205 -1.8426,41.1338 0.3205,0.4506 c 4.0658,0.3705 9.133,0.5658 13.2639,-0.1352 l 0,-0.6259 -1.6523,-39.9321 0.2553,-1.3319 11.171,-0.1902"
         id="path4622" />
      <path
         style="clip-rule:evenodd;fill:#ffffff;fill-rule:evenodd"
         inkscape:connector-curvature="0"
         d="m 1067.4319,-1080.7019 c -7.1202,3.5551 -17.5901,8.9628 -16.4435,18.7218 1.5222,5.3376 7.3004,8.7625 11.872,10.9907 25.2611,11.1109 58.789,11.4914 85.4421,3.1695 6.6045,-2.5336 15.4321,-6.2089 16.6338,-14.2804 -0.065,-6.6745 -7.1102,-10.8555 -12.1924,-13.3941 l 0,-0.3155 c 1.7725,-0.696 3.8154,-1.3369 5.6531,-1.5322 l 0,-0.1902 c -8.9528,-1.5873 -17.5902,-3.9357 -26.2175,-6.2189 1.6523,3.8054 2.8541,7.8061 4.2561,11.7518 a 47.477876,47.477876 0 0 1 8.0565,-1.8527 c 4.5765,1.7826 11.1109,4.3212 11.7468,10.0294 0.5107,5.3376 -5.3326,7.9313 -9.0129,10.0944 -19.553,7.1101 -41.5845,7.8162 -61.9636,2.4134 -5.6431,-1.7725 -13.7747,-4.0658 -14.4707,-11.226 4.0007,-9.4585 14.3506,-11.4364 22.9779,-13.7146 -4.4414,-2.8641 -8.9478,-5.4027 -13.264,-8.5773 -4.6316,0.2654 -8.8827,2.2933 -13.0737,4.1309 z m 36.1166,41.0137 c -0.756,14.6008 -0.9463,28.1252 -2.0278,42.79614 5.7782,0.5108 12.3126,1.0165 18.4714,0.1152 l -1.8427,-40.81844 -0.3204,-1.9678 c -4.6917,0.1953 -9.1331,0.3806 -14.2805,-0.1251 z"
         id="path4624" />
    </g>
  </g>
</svg>
