<?xml version="1.0" encoding="UTF-8" standalone="no"?>
<!-- Generator: Adobe Illustrator 20.1.0, SVG Export Plug-In . SVG Version: 6.00 Build 0)  -->

<svg
   xmlns:dc="http://purl.org/dc/elements/1.1/"
   xmlns:cc="http://creativecommons.org/ns#"
   xmlns:rdf="http://www.w3.org/1999/02/22-rdf-syntax-ns#"
   xmlns:svg="http://www.w3.org/2000/svg"
   xmlns="http://www.w3.org/2000/svg"
   xmlns:sodipodi="http://sodipodi.sourceforge.net/DTD/sodipodi-0.dtd"
   xmlns:inkscape="http://www.inkscape.org/namespaces/inkscape"
   version="1.1"
   id="Layer_1"
   x="0px"
   y="0px"
   viewBox="0 0 1062 1260"
   style="enable-background:new 0 0 1062 1260;"
   xml:space="preserve"
   sodipodi:docname="MCB_Box.svg"
   inkscape:version="0.92.2 (5c3e80d, 2017-08-06)"><metadata
     id="metadata37"><rdf:RDF><cc:Work
         rdf:about=""><dc:format>image/svg+xml</dc:format><dc:type
           rdf:resource="http://purl.org/dc/dcmitype/StillImage" /></cc:Work></rdf:RDF></metadata><defs
     id="defs35" /><sodipodi:namedview
     pagecolor="#ffffff"
     bordercolor="#666666"
     borderopacity="1"
     objecttolerance="10"
     gridtolerance="10"
     guidetolerance="10"
     inkscape:pageopacity="0"
     inkscape:pageshadow="2"
     inkscape:window-width="1920"
     inkscape:window-height="1046"
     id="namedview33"
     showgrid="false"
     inkscape:zoom="0.74920635"
     inkscape:cx="93.40023"
     inkscape:cy="807.27359"
     inkscape:window-x="-11"
     inkscape:window-y="-11"
     inkscape:window-maximized="1"
     inkscape:current-layer="Layer_1" /><style
     type="text/css"
     id="style2">
	.st0{fill:none;stroke:#FF0000;stroke-width:1.000000e-03;}
	.st1{font-family:'MyriadPro-Regular';}
	.st2{font-size:103.2785px;}
	.st3{letter-spacing:10;}
</style><g
     transform="translate(22.5, 22.5) "
     id="g6"
     style="stroke-width:1;stroke-miterlimit:4;stroke-dasharray:none;stroke:#f40000;stroke-opacity:1;fill:none"><polygon
       class="st0"
       points="-4.5,-4.5 13.5,-4.5 13.5,4 31.5,4 31.5,-4.5 45.9,-4.5 45.9,4 60.3,4 60.3,-4.5 74.7,-4.5 74.7,4    89.1,4 89.1,-4.5 103.5,-4.5 103.5,4 117.9,4 117.9,-4.5 132.3,-4.5 132.3,4 146.7,4 146.7,-4.5 161.1,-4.5 161.1,4 175.5,4    175.5,-4.5 189.9,-4.5 189.9,4 204.3,4 204.3,-4.5 218.7,-4.5 218.7,4 233.1,4 233.1,-4.5 247.5,-4.5 247.5,4 261.9,4 261.9,-4.5    276.3,-4.5 276.3,4 290.7,4 290.7,-4.5 305.1,-4.5 305.1,4 319.5,4 319.5,-4.5 333.9,-4.5 333.9,4 348.3,4 348.3,-4.5 362.7,-4.5    362.7,4 377.1,4 377.1,-4.5 391.5,-4.5 391.5,4 409.5,4 409.5,-4.5 427.5,-4.5 427.5,15.3 419,15.3 419,35.1 427.5,35.1    427.5,49.5 419,49.5 419,63.9 427.5,63.9 427.5,78.3 419,78.3 419,92.7 427.5,92.7 427.5,107.1 419,107.1 419,121.5 427.5,121.5    427.5,135.9 419,135.9 419,150.3 427.5,150.3 427.5,164.7 419,164.7 419,179.1 427.5,179.1 427.5,193.5 419,193.5 419,207.9    427.5,207.9 427.5,222.3 419,222.3 419,236.7 427.5,236.7 427.5,251.1 419,251.1 419,265.5 427.5,265.5 427.5,279.9 419,279.9    419,294.3 427.5,294.3 427.5,308.7 419,308.7 419,323.1 427.5,323.1 427.5,337.5 419,337.5 419,351.9 427.5,351.9 427.5,366.3    419,366.3 419,380.7 427.5,380.7 427.5,395.1 419,395.1 419,409.5 427.5,409.5 427.5,423.9 419,423.9 419,438.3 427.5,438.3    427.5,452.7 419,452.7 419,467.1 427.5,467.1 427.5,481.5 419,481.5 419,495.9 427.5,495.9 427.5,510.3 419,510.3 419,524.7    427.5,524.7 427.5,539.1 419,539.1 419,553.5 427.5,553.5 427.5,567.9 419,567.9 419,587.7 427.5,587.7 427.5,607.5 409.5,607.5    409.5,599 391.5,599 391.5,607.5 377.1,607.5 377.1,599 362.7,599 362.7,607.5 348.3,607.5 348.3,599 333.9,599 333.9,607.5    319.5,607.5 319.5,599 305.1,599 305.1,607.5 290.7,607.5 290.7,599 276.3,599 276.3,607.5 261.9,607.5 261.9,599 247.5,599    247.5,607.5 233.1,607.5 233.1,599 218.7,599 218.7,607.5 204.3,607.5 204.3,599 189.9,599 189.9,607.5 175.5,607.5 175.5,599    161.1,599 161.1,607.5 146.7,607.5 146.7,599 132.3,599 132.3,607.5 117.9,607.5 117.9,599 103.5,599 103.5,607.5 89.1,607.5    89.1,599 74.7,599 74.7,607.5 60.3,607.5 60.3,599 45.9,599 45.9,607.5 31.5,607.5 31.5,599 13.5,599 13.5,607.5 -4.5,607.5    -4.5,587.7 4,587.7 4,567.9 -4.5,567.9 -4.5,553.5 4,553.5 4,539.1 -4.5,539.1 -4.5,524.7 4,524.7 4,510.3 -4.5,510.3 -4.5,495.9    4,495.9 4,481.5 -4.5,481.5 -4.5,467.1 4,467.1 4,452.7 -4.5,452.7 -4.5,438.3 4,438.3 4,423.9 -4.5,423.9 -4.5,409.5 4,409.5    4,395.1 -4.5,395.1 -4.5,380.7 4,380.7 4,366.3 -4.5,366.3 -4.5,351.9 4,351.9 4,337.5 -4.5,337.5 -4.5,323.1 4,323.1 4,308.7    -4.5,308.7 -4.5,294.3 4,294.3 4,279.9 -4.5,279.9 -4.5,265.5 4,265.5 4,251.1 -4.5,251.1 -4.5,236.7 4,236.7 4,222.3 -4.5,222.3    -4.5,207.9 4,207.9 4,193.5 -4.5,193.5 -4.5,179.1 4,179.1 4,164.7 -4.5,164.7 -4.5,150.3 4,150.3 4,135.9 -4.5,135.9 -4.5,121.5    4,121.5 4,107.1 -4.5,107.1 -4.5,92.7 4,92.7 4,78.3 -4.5,78.3 -4.5,63.9 4,63.9 4,49.5 -4.5,49.5 -4.5,35.1 4,35.1 4,15.3    -4.5,15.3  "
       id="polygon4"
       style="stroke-width:1;stroke-miterlimit:4;stroke-dasharray:none;stroke:#f40000;stroke-opacity:1;fill:none" /></g><g
     transform="translate(562.5, 22.5) "
     id="g10"
     style="stroke-width:1;stroke-miterlimit:4;stroke-dasharray:none;stroke:#f40000;stroke-opacity:1;fill:none"><polygon
       class="st0"
       points="-112.5,-4.5 -94.5,-4.5 -94.5,4 -76.5,4 -76.5,-4.5 -62.1,-4.5 -62.1,4 -47.7,4 -47.7,-4.5    -33.3,-4.5 -33.3,4 -18.9,4 -18.9,-4.5 -4.5,-4.5 -4.5,4 9.9,4 9.9,-4.5 24.3,-4.5 24.3,4 38.7,4 38.7,-4.5 53.1,-4.5 53.1,4    67.5,4 67.5,-4.5 81.9,-4.5 81.9,4 96.3,4 96.3,-4.5 110.7,-4.5 110.7,4 125.1,4 125.1,-4.5 139.5,-4.5 139.5,4 153.9,4    153.9,-4.5 168.3,-4.5 168.3,4 182.7,4 182.7,-4.5 197.1,-4.5 197.1,4 211.5,4 211.5,-4.5 225.9,-4.5 225.9,4 240.3,4 240.3,-4.5    254.7,-4.5 254.7,4 269.1,4 269.1,-4.5 283.5,-4.5 283.5,4 301.5,4 301.5,-4.5 319.5,-4.5 319.5,15.3 311,15.3 311,35.1    319.5,35.1 319.5,49.5 311,49.5 311,63.9 319.5,63.9 319.5,78.3 311,78.3 311,92.7 319.5,92.7 319.5,107.1 311,107.1 311,121.5    319.5,121.5 319.5,135.9 311,135.9 311,150.3 319.5,150.3 319.5,164.7 311,164.7 311,179.1 319.5,179.1 319.5,193.5 311,193.5    311,207.9 319.5,207.9 319.5,222.3 311,222.3 311,236.7 319.5,236.7 319.5,251.1 311,251.1 311,265.5 319.5,265.5 319.5,279.9    311,279.9 311,294.3 319.5,294.3 319.5,308.7 311,308.7 311,323.1 319.5,323.1 319.5,337.5 311,337.5 311,351.9 319.5,351.9    319.5,366.3 311,366.3 311,380.7 319.5,380.7 319.5,395.1 311,395.1 311,409.5 319.5,409.5 319.5,423.9 311,423.9 311,438.3    319.5,438.3 319.5,452.7 311,452.7 311,467.1 319.5,467.1 319.5,481.5 311,481.5 311,495.9 319.5,495.9 319.5,510.3 311,510.3    311,524.7 319.5,524.7 319.5,539.1 311,539.1 311,553.5 319.5,553.5 319.5,567.9 311,567.9 311,587.7 319.5,587.7 319.5,607.5    301.5,607.5 301.5,599 283.5,599 283.5,607.5 269.1,607.5 269.1,599 254.7,599 254.7,607.5 240.3,607.5 240.3,599 225.9,599    225.9,607.5 211.5,607.5 211.5,599 197.1,599 197.1,607.5 182.7,607.5 182.7,599 168.3,599 168.3,607.5 153.9,607.5 153.9,599    139.5,599 139.5,607.5 125.1,607.5 125.1,599 110.7,599 110.7,607.5 96.3,607.5 96.3,599 81.9,599 81.9,607.5 67.5,607.5 67.5,599    53.1,599 53.1,607.5 38.7,607.5 38.7,599 24.3,599 24.3,607.5 9.9,607.5 9.9,599 -4.5,599 -4.5,607.5 -18.9,607.5 -18.9,599    -33.3,599 -33.3,607.5 -47.7,607.5 -47.7,599 -62.1,599 -62.1,607.5 -76.5,607.5 -76.5,599 -94.5,599 -94.5,607.5 -112.5,607.5    -112.5,587.7 -104,587.7 -104,567.9 -112.5,567.9 -112.5,553.5 -104,553.5 -104,539.1 -112.5,539.1 -112.5,524.7 -104,524.7    -104,510.3 -112.5,510.3 -112.5,495.9 -104,495.9 -104,481.5 -112.5,481.5 -112.5,467.1 -104,467.1 -104,452.7 -112.5,452.7    -112.5,438.3 -104,438.3 -104,423.9 -112.5,423.9 -112.5,409.5 -104,409.5 -104,395.1 -112.5,395.1 -112.5,380.7 -104,380.7    -104,366.3 -112.5,366.3 -112.5,351.9 -104,351.9 -104,337.5 -112.5,337.5 -112.5,323.1 -104,323.1 -104,308.7 -112.5,308.7    -112.5,294.3 -104,294.3 -104,279.9 -112.5,279.9 -112.5,265.5 -104,265.5 -104,251.1 -112.5,251.1 -112.5,236.7 -104,236.7    -104,222.3 -112.5,222.3 -112.5,207.9 -104,207.9 -104,193.5 -112.5,193.5 -112.5,179.1 -104,179.1 -104,164.7 -112.5,164.7    -112.5,150.3 -104,150.3 -104,135.9 -112.5,135.9 -112.5,121.5 -104,121.5 -104,107.1 -112.5,107.1 -112.5,92.7 -104,92.7    -104,78.3 -112.5,78.3 -112.5,63.9 -104,63.9 -104,49.5 -112.5,49.5 -112.5,35.1 -104,35.1 -104,15.3 -112.5,15.3  "
       id="polygon8"
       style="stroke-width:1;stroke-miterlimit:4;stroke-dasharray:none;stroke:#f40000;stroke-opacity:1;fill:none" /></g><g
     transform="translate(22.5, 787.5) "
     id="g14"
     style="stroke-width:1;stroke-miterlimit:4;stroke-dasharray:none;stroke:#f40000;stroke-opacity:1;fill:none"><polygon
       class="st0"
       points="4,-149 13.5,-149 13.5,-157.5 31.5,-157.5 31.5,-149 45.9,-149 45.9,-157.5 60.3,-157.5 60.3,-149    74.7,-149 74.7,-157.5 89.1,-157.5 89.1,-149 103.5,-149 103.5,-157.5 117.9,-157.5 117.9,-149 132.3,-149 132.3,-157.5    146.7,-157.5 146.7,-149 161.1,-149 161.1,-157.5 175.5,-157.5 175.5,-149 189.9,-149 189.9,-157.5 204.3,-157.5 204.3,-149    218.7,-149 218.7,-157.5 233.1,-157.5 233.1,-149 247.5,-149 247.5,-157.5 261.9,-157.5 261.9,-149 276.3,-149 276.3,-157.5    290.7,-157.5 290.7,-149 305.1,-149 305.1,-157.5 319.5,-157.5 319.5,-149 333.9,-149 333.9,-157.5 348.3,-157.5 348.3,-149    362.7,-149 362.7,-157.5 377.1,-157.5 377.1,-149 391.5,-149 391.5,-157.5 409.5,-157.5 409.5,-149 419,-149 419,-135 427.5,-135    427.5,-112.5 419,-112.5 419,-98.1 427.5,-98.1 427.5,-83.7 419,-83.7 419,-69.3 427.5,-69.3 427.5,-54.9 419,-54.9 419,-40.5    427.5,-40.5 427.5,-18 419,-18 419,-4 409.5,-4 409.5,4.5 391.5,4.5 391.5,-4 377.1,-4 377.1,4.5 362.7,4.5 362.7,-4 348.3,-4    348.3,4.5 333.9,4.5 333.9,-4 319.5,-4 319.5,4.5 305.1,4.5 305.1,-4 290.7,-4 290.7,4.5 276.3,4.5 276.3,-4 261.9,-4 261.9,4.5    247.5,4.5 247.5,-4 233.1,-4 233.1,4.5 218.7,4.5 218.7,-4 204.3,-4 204.3,4.5 189.9,4.5 189.9,-4 175.5,-4 175.5,4.5 161.1,4.5    161.1,-4 146.7,-4 146.7,4.5 132.3,4.5 132.3,-4 117.9,-4 117.9,4.5 103.5,4.5 103.5,-4 89.1,-4 89.1,4.5 74.7,4.5 74.7,-4    60.3,-4 60.3,4.5 45.9,4.5 45.9,-4 31.5,-4 31.5,4.5 13.5,4.5 13.5,-4 4,-4 4,-18 -4.5,-18 -4.5,-40.5 4,-40.5 4,-54.9 -4.5,-54.9    -4.5,-69.3 4,-69.3 4,-83.7 -4.5,-83.7 -4.5,-98.1 4,-98.1 4,-112.5 -4.5,-112.5 -4.5,-135 4,-135  "
       id="polygon12"
       style="stroke-width:1;stroke-miterlimit:4;stroke-dasharray:none;stroke:#f40000;stroke-opacity:1;fill:none" /></g><g
     transform="translate(562.5, 787.5) "
     id="g18"
     style="stroke-width:1;stroke-miterlimit:4;stroke-dasharray:none;stroke:#f40000;stroke-opacity:1;fill:none"><polygon
       class="st0"
       points="-104,-149 -94.5,-149 -94.5,-157.5 -76.5,-157.5 -76.5,-149 -62.1,-149 -62.1,-157.5 -47.7,-157.5    -47.7,-149 -33.3,-149 -33.3,-157.5 -18.9,-157.5 -18.9,-149 -4.5,-149 -4.5,-157.5 9.9,-157.5 9.9,-149 24.3,-149 24.3,-157.5    38.7,-157.5 38.7,-149 53.1,-149 53.1,-157.5 67.5,-157.5 67.5,-149 81.9,-149 81.9,-157.5 96.3,-157.5 96.3,-149 110.7,-149    110.7,-157.5 125.1,-157.5 125.1,-149 139.5,-149 139.5,-157.5 153.9,-157.5 153.9,-149 168.3,-149 168.3,-157.5 182.7,-157.5    182.7,-149 197.1,-149 197.1,-157.5 211.5,-157.5 211.5,-149 225.9,-149 225.9,-157.5 240.3,-157.5 240.3,-149 254.7,-149    254.7,-157.5 269.1,-157.5 269.1,-149 283.5,-149 283.5,-157.5 301.5,-157.5 301.5,-149 311,-149 311,-135 319.5,-135    319.5,-112.5 311,-112.5 311,-98.1 319.5,-98.1 319.5,-83.7 311,-83.7 311,-69.3 319.5,-69.3 319.5,-54.9 311,-54.9 311,-40.5    319.5,-40.5 319.5,-18 311,-18 311,-4 301.5,-4 301.5,4.5 283.5,4.5 283.5,-4 269.1,-4 269.1,4.5 254.7,4.5 254.7,-4 240.3,-4    240.3,4.5 225.9,4.5 225.9,-4 211.5,-4 211.5,4.5 197.1,4.5 197.1,-4 182.7,-4 182.7,4.5 168.3,4.5 168.3,-4 153.9,-4 153.9,4.5    139.5,4.5 139.5,-4 125.1,-4 125.1,4.5 110.7,4.5 110.7,-4 96.3,-4 96.3,4.5 81.9,4.5 81.9,-4 67.5,-4 67.5,4.5 53.1,4.5 53.1,-4    38.7,-4 38.7,4.5 24.3,4.5 24.3,-4 9.9,-4 9.9,4.5 -4.5,4.5 -4.5,-4 -18.9,-4 -18.9,4.5 -33.3,4.5 -33.3,-4 -47.7,-4 -47.7,4.5    -62.1,4.5 -62.1,-4 -76.5,-4 -76.5,4.5 -94.5,4.5 -94.5,-4 -104,-4 -104,-18 -112.5,-18 -112.5,-40.5 -104,-40.5 -104,-54.9    -112.5,-54.9 -112.5,-69.3 -104,-69.3 -104,-83.7 -112.5,-83.7 -112.5,-98.1 -104,-98.1 -104,-112.5 -112.5,-112.5 -112.5,-135    -104,-135  "
       id="polygon16"
       style="stroke-width:1;stroke-miterlimit:4;stroke-dasharray:none;stroke:#f40000;stroke-opacity:1;fill:none" /></g><g
     transform="translate(1102.5, 22.5) "
     id="g22"
     style="stroke-width:1;stroke-miterlimit:4;stroke-dasharray:none;stroke:#f40000;stroke-opacity:1;fill:none"><polygon
       class="st0"
       points="-474.2,779.7 -474.2,793.7 -482.7,793.7 -482.7,816.2 -474.2,816.2 -474.2,830.6 -482.7,830.6    -482.7,845 -474.2,845 -474.2,859.4 -482.7,859.4 -482.7,873.8 -474.2,873.8 -474.2,888.2 -482.7,888.2 -482.7,910.7 -474.2,910.7    -474.2,924.7 -494,924.7 -494,933.2 -513.8,933.2 -513.8,924.7 -528.2,924.7 -528.2,933.2 -542.6,933.2 -542.6,924.7 -557,924.7    -557,933.2 -571.4,933.2 -571.4,924.7 -585.8,924.7 -585.8,933.2 -600.2,933.2 -600.2,924.7 -614.6,924.7 -614.6,933.2 -629,933.2    -629,924.7 -643.4,924.7 -643.4,933.2 -657.8,933.2 -657.8,924.7 -672.2,924.7 -672.2,933.2 -686.6,933.2 -686.6,924.7 -701,924.7    -701,933.2 -715.4,933.2 -715.4,924.7 -729.8,924.7 -729.8,933.2 -744.2,933.2 -744.2,924.7 -758.6,924.7 -758.6,933.2 -773,933.2    -773,924.7 -787.4,924.7 -787.4,933.2 -801.8,933.2 -801.8,924.7 -816.2,924.7 -816.2,933.2 -830.6,933.2 -830.6,924.7 -845,924.7    -845,933.2 -859.4,933.2 -859.4,924.7 -873.8,924.7 -873.8,933.2 -888.2,933.2 -888.2,924.7 -902.6,924.7 -902.6,933.2 -917,933.2    -917,924.7 -931.4,924.7 -931.4,933.2 -945.8,933.2 -945.8,924.7 -960.2,924.7 -960.2,933.2 -974.6,933.2 -974.6,924.7 -989,924.7    -989,933.2 -1003.4,933.2 -1003.4,924.7 -1017.8,924.7 -1017.8,933.2 -1032.2,933.2 -1032.2,924.7 -1046.6,924.7 -1046.6,933.2    -1066.4,933.2 -1066.4,924.7 -1086.2,924.7 -1086.2,910.7 -1077.7,910.7 -1077.7,888.2 -1086.2,888.2 -1086.2,873.8 -1077.7,873.8    -1077.7,859.4 -1086.2,859.4 -1086.2,845 -1077.7,845 -1077.7,830.6 -1086.2,830.6 -1086.2,816.2 -1077.7,816.2 -1077.7,793.7    -1086.2,793.7 -1086.2,779.7 -1066.4,779.7 -1066.4,771.2 -1046.6,771.2 -1046.6,779.7 -1032.2,779.7 -1032.2,771.2 -1017.8,771.2    -1017.8,779.7 -1003.4,779.7 -1003.4,771.2 -989,771.2 -989,779.7 -974.6,779.7 -974.6,771.2 -960.2,771.2 -960.2,779.7    -945.8,779.7 -945.8,771.2 -931.4,771.2 -931.4,779.7 -917,779.7 -917,771.2 -902.6,771.2 -902.6,779.7 -888.2,779.7 -888.2,771.2    -873.8,771.2 -873.8,779.7 -859.4,779.7 -859.4,771.2 -845,771.2 -845,779.7 -830.6,779.7 -830.6,771.2 -816.2,771.2 -816.2,779.7    -801.8,779.7 -801.8,771.2 -787.4,771.2 -787.4,779.7 -773,779.7 -773,771.2 -758.6,771.2 -758.6,779.7 -744.2,779.7 -744.2,771.2    -729.8,771.2 -729.8,779.7 -715.4,779.7 -715.4,771.2 -701,771.2 -701,779.7 -686.6,779.7 -686.6,771.2 -672.2,771.2 -672.2,779.7    -657.8,779.7 -657.8,771.2 -643.4,771.2 -643.4,779.7 -629,779.7 -629,771.2 -614.6,771.2 -614.6,779.7 -600.2,779.7 -600.2,771.2    -585.8,771.2 -585.8,779.7 -571.4,779.7 -571.4,771.2 -557,771.2 -557,779.7 -542.6,779.7 -542.6,771.2 -528.2,771.2 -528.2,779.7    -513.8,779.7 -513.8,771.2 -494,771.2 -494,779.7  "
       id="polygon20"
       style="stroke-width:1;stroke-miterlimit:4;stroke-dasharray:none;stroke:#f40000;stroke-opacity:1;fill:none" /></g><text
     transform="matrix(1 0 0 1 213.0781 910.9648)"
     class="st1 st2 st3"
     id="text24">IEEE</text>
<g
     transform="translate(1102.5, 787.5) "
     id="g28"
     style="stroke-width:1;stroke-miterlimit:4;stroke-dasharray:none;stroke:#f40000;stroke-opacity:1;fill:none"><polygon
       class="st0"
       points="-473.8,178.7 -473.8,192.7 -482.3,192.7 -482.3,215.2 -473.8,215.2 -473.8,229.6 -482.3,229.6    -482.3,244 -473.8,244 -473.8,258.4 -482.3,258.4 -482.3,272.8 -473.8,272.8 -473.8,287.2 -482.3,287.2 -482.3,309.7 -473.8,309.7    -473.8,323.7 -493.6,323.7 -493.6,332.2 -513.4,332.2 -513.4,323.7 -527.8,323.7 -527.8,332.2 -542.2,332.2 -542.2,323.7    -556.6,323.7 -556.6,332.2 -571,332.2 -571,323.7 -585.4,323.7 -585.4,332.2 -599.8,332.2 -599.8,323.7 -614.2,323.7 -614.2,332.2    -628.6,332.2 -628.6,323.7 -643,323.7 -643,332.2 -657.4,332.2 -657.4,323.7 -671.8,323.7 -671.8,332.2 -686.2,332.2 -686.2,323.7    -700.6,323.7 -700.6,332.2 -715,332.2 -715,323.7 -729.4,323.7 -729.4,332.2 -743.8,332.2 -743.8,323.7 -758.2,323.7 -758.2,332.2    -772.6,332.2 -772.6,323.7 -787,323.7 -787,332.2 -801.4,332.2 -801.4,323.7 -815.8,323.7 -815.8,332.2 -830.2,332.2 -830.2,323.7    -844.6,323.7 -844.6,332.2 -859,332.2 -859,323.7 -873.4,323.7 -873.4,332.2 -887.8,332.2 -887.8,323.7 -902.2,323.7 -902.2,332.2    -916.6,332.2 -916.6,323.7 -931,323.7 -931,332.2 -945.4,332.2 -945.4,323.7 -959.8,323.7 -959.8,332.2 -974.2,332.2 -974.2,323.7    -988.6,323.7 -988.6,332.2 -1003,332.2 -1003,323.7 -1017.4,323.7 -1017.4,332.2 -1031.8,332.2 -1031.8,323.7 -1046.2,323.7    -1046.2,332.2 -1066,332.2 -1066,323.7 -1085.8,323.7 -1085.8,309.7 -1077.3,309.7 -1077.3,287.2 -1085.8,287.2 -1085.8,272.8    -1077.3,272.8 -1077.3,258.4 -1085.8,258.4 -1085.8,244 -1077.3,244 -1077.3,229.6 -1085.8,229.6 -1085.8,215.2 -1077.3,215.2    -1077.3,192.7 -1085.8,192.7 -1085.8,178.7 -1066,178.7 -1066,170.2 -1046.2,170.2 -1046.2,178.7 -1031.8,178.7 -1031.8,170.2    -1017.4,170.2 -1017.4,178.7 -1003,178.7 -1003,170.2 -988.6,170.2 -988.6,178.7 -974.2,178.7 -974.2,170.2 -959.8,170.2    -959.8,178.7 -945.4,178.7 -945.4,170.2 -931,170.2 -931,178.7 -916.6,178.7 -916.6,170.2 -902.2,170.2 -902.2,178.7 -887.8,178.7    -887.8,170.2 -873.4,170.2 -873.4,178.7 -859,178.7 -859,170.2 -844.6,170.2 -844.6,178.7 -830.2,178.7 -830.2,170.2 -815.8,170.2    -815.8,178.7 -801.4,178.7 -801.4,170.2 -787,170.2 -787,178.7 -772.6,178.7 -772.6,170.2 -758.2,170.2 -758.2,178.7 -743.8,178.7    -743.8,170.2 -729.4,170.2 -729.4,178.7 -715,178.7 -715,170.2 -700.6,170.2 -700.6,178.7 -686.2,178.7 -686.2,170.2 -671.8,170.2    -671.8,178.7 -657.4,178.7 -657.4,170.2 -643,170.2 -643,178.7 -628.6,178.7 -628.6,170.2 -614.2,170.2 -614.2,178.7 -599.8,178.7    -599.8,170.2 -585.4,170.2 -585.4,178.7 -571,178.7 -571,170.2 -556.6,170.2 -556.6,178.7 -542.2,178.7 -542.2,170.2 -527.8,170.2    -527.8,178.7 -513.4,178.7 -513.4,170.2 -493.6,170.2 -493.6,178.7  "
       id="polygon26"
       style="stroke-width:1;stroke-miterlimit:4;stroke-dasharray:none;stroke:#f40000;stroke-opacity:1;fill:none" /></g><text
     transform="matrix(1 0 0 1 213.4951 1074.9648)"
     class="st1 st2 st3"
     id="text30">IEEE</text>
</svg>