<?xml version="1.0" encoding="UTF-8" standalone="no"?>
<!-- Created with Inkscape (http://www.inkscape.org/) -->

<svg
   xmlns:dc="http://purl.org/dc/elements/1.1/"
   xmlns:cc="http://creativecommons.org/ns#"
   xmlns:rdf="http://www.w3.org/1999/02/22-rdf-syntax-ns#"
   xmlns:svg="http://www.w3.org/2000/svg"
   xmlns="http://www.w3.org/2000/svg"
   xmlns:sodipodi="http://sodipodi.sourceforge.net/DTD/sodipodi-0.dtd"
   xmlns:inkscape="http://www.inkscape.org/namespaces/inkscape"
   width="8.2677164in"
   height="11.69291in"
   viewBox="0 0 210 296.99993"
   version="1.1"
   id="svg842"
   inkscape:version="0.92.2 (5c3e80d, 2017-08-06)"
   sodipodi:docname="top_face.svg">
  <defs
     id="defs836" />
  <sodipodi:namedview
     id="base"
     pagecolor="#ffffff"
     bordercolor="#666666"
     borderopacity="1.0"
     inkscape:pageopacity="0.0"
     inkscape:pageshadow="2"
     inkscape:zoom="6.7884524"
     inkscape:cx="504.99146"
     inkscape:cy="1.382902"
     inkscape:document-units="in"
     inkscape:current-layer="layer1"
     showgrid="false"
     inkscape:window-width="1920"
     inkscape:window-height="1046"
     inkscape:window-x="-11"
     inkscape:window-y="-11"
     inkscape:window-maximized="1"
     units="in" />
  <metadata
     id="metadata839">
    <rdf:RDF>
      <cc:Work
         rdf:about="">
        <dc:format>image/svg+xml</dc:format>
        <dc:type
           rdf:resource="http://purl.org/dc/dcmitype/StillImage" />
        <dc:title></dc:title>
      </cc:Work>
    </rdf:RDF>
  </metadata>
  <g
     inkscape:label="Layer 1"
     inkscape:groupmode="layer"
     id="layer1"
     transform="translate(0,-7.7607666e-5)">
    <g
       transform="matrix(0.26458333,0,0,0.26458333,1.3229166,136.13334)"
       id="g6"
       style="fill:none;stroke:#f40000;stroke-width:1;stroke-miterlimit:4;stroke-dasharray:none;stroke-opacity:1" />
    <circle
       style="fill:none;fill-opacity:1;stroke:#00ffff;stroke-width:0.07318202;stroke-miterlimit:4;stroke-dasharray:none;stroke-opacity:1"
       id="path1397"
       cx="20.756849"
       cy="269.13705"
       r="11.963409" />
    <circle
       style="fill:none;fill-opacity:1;stroke:#00ffff;stroke-width:0.07318202;stroke-miterlimit:4;stroke-dasharray:none;stroke-opacity:1"
       id="path1397-1"
       cx="21.280064"
       cy="232.13951"
       r="11.96341" />
    <circle
       style="fill:none;fill-opacity:1;stroke:#00ffff;stroke-width:0.07318202;stroke-miterlimit:4;stroke-dasharray:none;stroke-opacity:1"
       id="path1397-2"
       cx="21.280064"
       cy="196.60988"
       r="11.96341" />
    <circle
       style="fill:none;fill-opacity:1;stroke:#00ffff;stroke-width:0.0114809;stroke-miterlimit:4;stroke-dasharray:none;stroke-opacity:1"
       id="path1428"
       cx="76.327003"
       cy="232"
       r="2.9942596" />
    <g
       transform="matrix(0.28222223,0,0,0.28222223,0.127,80.972994)"
       id="g2045">
      <polygon
         style="fill:none;stroke:#000000;stroke-width:0.89999998"
         points="175.5,10.62 175.5,0 202.5,0 202.5,10.62 229.5,10.62 229.5,0 256.5,0 256.5,10.62 283.5,10.62 283.5,0 310.5,0 310.5,10.62 337.5,10.62 337.5,0 364.5,0 364.5,10.62 391.5,10.62 391.5,0 418.5,0 418.5,10.62 445.5,10.62 445.5,0 472.5,0 472.5,10.62 506.25,10.62 506.25,0 540,0 540,36 529.38,36 529.38,72 540,72 540,99 529.38,99 529.38,126 540,126 540,153 529.38,153 529.38,180 540,180 540,207 529.38,207 529.38,234 540,234 540,261 529.38,261 529.38,288 540,288 540,315 529.38,315 529.38,342 540,342 540,369 529.38,369 529.38,396 540,396 540,423 529.38,423 529.38,450 540,450 540,477 529.38,477 529.38,504 540,504 540,531 529.38,531 529.38,558 540,558 540,585 529.38,585 529.38,612 540,612 540,639 529.38,639 529.38,666 540,666 540,693 529.38,693 529.38,729 540,729 540,765 506.25,765 506.25,754.38 472.5,754.38 472.5,765 445.5,765 445.5,754.38 418.5,754.38 418.5,765 391.5,765 391.5,754.38 364.5,754.38 364.5,765 337.5,765 337.5,754.38 310.5,754.38 310.5,765 283.5,765 283.5,754.38 256.5,754.38 256.5,765 229.5,765 229.5,754.38 202.5,754.38 202.5,765 175.5,765 175.5,754.38 148.5,754.38 148.5,765 121.5,765 121.5,754.38 94.5,754.38 94.5,765 67.5,765 67.5,754.38 33.75,754.38 33.75,765 0,765 0,729 10.62,729 10.62,693 0,693 0,666 10.62,666 10.62,639 0,639 0,612 10.62,612 10.62,585 0,585 0,558 10.62,558 10.62,531 0,531 0,504 10.62,504 10.62,477 0,477 0,450 10.62,450 10.62,423 0,423 0,396 10.62,396 10.62,369 0,369 0,342 10.62,342 10.62,315 0,315 0,288 10.62,288 10.62,261 0,261 0,234 10.62,234 10.62,207 0,207 0,180 10.62,180 10.62,153 0,153 0,126 10.62,126 10.62,99 0,99 0,72 10.62,72 10.62,36 0,36 0,0 33.75,0 33.75,10.62 67.5,10.62 67.5,0 94.5,0 94.5,10.62 121.5,10.62 121.5,0 148.5,0 148.5,10.62 "
         id="polygon2043" />
    </g>
    <g
       id="g2669"
       transform="translate(1.5875,11.641668)">
      <ellipse
         ry="1.4833008"
         rx="1.4833007"
         cy="275.5"
         cx="121.5"
         id="path2636"
         style="fill:none;fill-opacity:1;stroke:#00ffff;stroke-width:0.0333985;stroke-miterlimit:4;stroke-dasharray:none;stroke-opacity:1" />
      <ellipse
         ry="1.4833008"
         rx="1.4833007"
         cy="275.5"
         cx="136.89999"
         id="path2636-3"
         style="fill:none;fill-opacity:1;stroke:#00ffff;stroke-width:0.0333985;stroke-miterlimit:4;stroke-dasharray:none;stroke-opacity:1" />
      <ellipse
         ry="1.4833008"
         rx="1.4833007"
         cy="215.5"
         cx="136.89999"
         id="path2636-4"
         style="fill:none;fill-opacity:1;stroke:#00ffff;stroke-width:0.0333985;stroke-miterlimit:4;stroke-dasharray:none;stroke-opacity:1" />
      <ellipse
         ry="1.4833008"
         rx="1.4833007"
         cy="215.5"
         cx="121.5"
         id="path2636-2"
         style="fill:none;fill-opacity:1;stroke:#00ffff;stroke-width:0.0333985;stroke-miterlimit:4;stroke-dasharray:none;stroke-opacity:1" />
    </g>
    <circle
       style="fill:none;fill-opacity:1;stroke:#00ffff;stroke-width:0.0461215;stroke-miterlimit:4;stroke-dasharray:none;stroke-opacity:1"
       id="path2671"
       cx="130.7"
       cy="190.96414"
       r="2.9769392" />
    <rect
       style="fill:none;fill-opacity:1;stroke:#00ffff;stroke-width:0.08398922;stroke-miterlimit:4;stroke-dasharray:none;stroke-opacity:1"
       id="rect2685"
       width="3.4160106"
       height="74.916008"
       x="129.0795"
       y="213.746" />
  </g>
</svg>
